<svg width="33" height="33" viewBox="0 0 33 33" fill="none" xmlns="http://www.w3.org/2000/svg">
<path d="M17.3319 16.6953L24.7008 9.32637C24.8464 9.15633 24.9225 8.93759 24.9138 8.71388C24.9052 8.49017 24.8125 8.27796 24.6541 8.11965C24.4958 7.96134 24.2836 7.8686 24.0599 7.85996C23.8362 7.85132 23.6175 7.92741 23.4474 8.07304L16.0785 15.4419L8.70965 8.06415C8.54227 7.89677 8.31525 7.80273 8.07854 7.80273C7.84182 7.80273 7.61481 7.89677 7.44742 8.06415C7.28004 8.23153 7.18601 8.45855 7.18601 8.69526C7.18601 8.93197 7.28004 9.15899 7.44742 9.32637L14.8252 16.6953L7.44742 24.0642C7.35437 24.1438 7.2788 24.2419 7.22545 24.3522C7.17209 24.4625 7.14211 24.5826 7.13738 24.705C7.13265 24.8274 7.15328 24.9495 7.19797 25.0635C7.24266 25.1776 7.31044 25.2812 7.39707 25.3678C7.48369 25.4545 7.58729 25.5222 7.70136 25.5669C7.81543 25.6116 7.9375 25.6323 8.05992 25.6275C8.18233 25.6228 8.30245 25.5928 8.41273 25.5395C8.52301 25.4861 8.62107 25.4105 8.70076 25.3175L16.0785 17.9486L23.4474 25.3175C23.6175 25.4631 23.8362 25.5392 24.0599 25.5306C24.2836 25.5219 24.4958 25.4292 24.6541 25.2709C24.8125 25.1126 24.9052 24.9004 24.9138 24.6766C24.9225 24.4529 24.8464 24.2342 24.7008 24.0642L17.3319 16.6953Z" fill="#015351"/>
</svg>
