<svg width="299" height="377" viewBox="0 0 299 377" fill="none" xmlns="http://www.w3.org/2000/svg">
<path d="M115.772 238.648C147.325 237.964 177.649 235.6 209.383 235.357C234.132 235.167 259.037 234.969 283.766 234.969C292.376 234.969 295.134 236.073 295.134 238.627C295.134 239.835 296.101 241.549 294.362 242.674C288.096 246.73 274.915 248.327 262.153 250.237C245.131 252.785 225.476 253.891 207.278 255.572C187.175 257.428 168.579 260.923 149.174 263.339C141.855 264.25 134.11 264.895 127 265.955C123.78 266.435 121.478 267.222 118.298 267.713C115.072 268.21 111.584 269.876 117.737 269.92C163.195 270.247 208.82 268.703 254.153 270.125C267.8 270.553 280.61 270.799 291.976 273.252C304.927 276.046 301.172 281.936 293.52 285.372C276.646 292.95 239.535 295.305 211.769 297.595C194.219 299.042 179.395 299.353 161.104 299.353C144.288 299.353 124.751 300.268 108.965 298.249C103.015 297.488 94.0084 295.892 91.2817 294.039C85.7856 290.303 103.691 289.189 112.404 288.683C136.049 287.312 164.1 285.633 188.331 286.926C198.597 287.473 208.682 288.38 218.786 289.133C251.838 291.596 286.003 289.955 310.572 297.963C328.306 303.743 265.578 309.808 256.188 310.574C222.213 313.345 186.308 312.941 151.771 314.989C137.627 315.827 123.02 317.237 108.474 317.074C91.0544 316.879 73.8976 315.768 56.4759 315.561C53.2266 315.523 44.363 315.188 49.3183 313.436C56.7894 310.793 74.6606 309.455 84.896 308.264C111.246 305.198 138.076 303.126 165.876 301.56C183.508 300.567 200.411 298.73 217.944 297.595C227.595 296.97 235.754 295.247 244.189 293.793C264.672 290.263 283.461 285.958 304.257 282.593C309.725 281.708 317.892 280.957 324.186 280.957" stroke="#D0D0D0" stroke-width="10" stroke-linecap="round"/>
<path d="M76.2713 291.708C109.378 290.991 141.194 288.51 174.49 288.255C200.458 288.056 226.589 287.848 252.536 287.848C261.569 287.848 264.463 289.006 264.463 291.686C264.463 292.954 265.478 294.752 263.653 295.933C257.078 300.188 243.248 301.863 229.858 303.868C211.998 306.541 191.376 307.701 172.282 309.465C151.19 311.413 131.678 315.079 111.318 317.614C103.639 318.57 95.5118 319.247 88.0517 320.359C84.6733 320.863 82.2583 321.689 78.9219 322.204C75.5371 322.725 71.8768 324.473 78.3329 324.52C126.029 324.863 173.9 323.242 221.465 324.734C235.784 325.183 249.224 325.442 261.15 328.015C274.738 330.947 270.798 337.127 262.77 340.733C245.065 348.683 206.127 351.154 176.994 353.557C158.58 355.076 143.027 355.401 123.835 355.401C106.191 355.401 85.692 356.361 69.1295 354.243C62.8867 353.445 53.4362 351.77 50.5753 349.825C44.8087 345.906 63.5954 344.737 72.7372 344.207C97.5469 342.767 126.978 341.006 152.402 342.362C163.173 342.937 173.755 343.889 184.356 344.679C219.035 347.262 254.883 345.541 280.661 353.943C299.268 360.008 233.452 366.371 223.6 367.175C187.952 370.082 150.28 369.659 114.042 371.807C99.202 372.687 83.8758 374.166 68.6141 373.995C50.3368 373.79 32.3354 372.625 14.0561 372.408C10.6469 372.367 1.34688 372.016 6.5461 370.177C14.385 367.405 33.136 366.001 43.8752 364.752C71.5229 361.535 99.6735 359.361 128.841 357.717C147.342 356.675 165.077 354.748 183.473 353.557C193.599 352.902 202.16 351.093 211.01 349.568C232.501 345.864 252.215 341.347 274.035 337.816C279.772 336.888 288.342 336.1 294.945 336.1" stroke="#D0D0D0" stroke-width="10" stroke-linecap="round"/>
<g clip-path="url(#clip0_1440_23081)">
<g filter="url(#filter0_d_1440_23081)">
<path d="M227.01 342.643L65.631 341.001C65.1534 336.823 65.0585 332.61 65.3472 328.415C65.4119 326.075 65.6371 323.634 65.9456 321.037C66.3233 316.89 66.9476 312.381 67.6049 307.637C67.9871 305.226 68.3709 302.763 68.8093 300.223C69.5601 295.902 70.3422 291.397 71.2309 286.843C71.6928 284.409 72.1831 281.896 72.6975 279.463C73.5841 274.988 74.4976 270.487 75.4871 266.094C76.0592 263.478 76.5707 261.15 77.1122 258.692C78.1324 254.141 79.2036 249.645 80.1121 245.328C80.6842 242.712 81.276 240.334 81.8949 237.93C82.9997 233.172 84.1499 228.677 85.184 224.575C85.8349 221.961 86.4859 219.348 87.0712 217.206C89.7495 206.912 91.6376 200.465 91.6376 200.465L130.829 177.864C136.931 180.758 143.614 182.214 150.366 182.122C157.117 182.031 163.758 180.393 169.779 177.335L205.332 195.027C207.517 203.56 209.666 212.11 211.78 220.677C212.448 223.143 213.09 225.634 213.678 228.15C214.816 232.672 215.945 237.186 217.066 241.69C217.734 244.182 218.375 246.673 218.963 249.19L222.378 262.704C222.757 264.241 223.163 265.726 223.515 267.262C223.488 268.234 223.462 269.181 223.645 270.186C223.837 274.665 224.029 279.143 224.273 283.65C224.389 286.1 224.477 288.629 224.594 291.079C224.785 295.584 225.029 300.065 225.221 304.543C225.337 307.02 225.426 309.522 225.594 312.001C225.786 316.479 225.977 320.984 226.196 325.464L226.544 332.868C226.69 336.135 226.89 339.377 227.01 342.643Z" fill="#00615D"/>
<path d="M89.0218 78.0054C89.0218 78.0054 73.1514 73.4883 83.031 57.7358C83.031 57.7358 73.271 37.7305 92.0459 31.3811C92.0459 31.3811 97.9035 15.5175 110.896 21.3761C110.896 21.3761 115.221 2.89135 129.287 9.85844C129.287 9.85844 143.655 -7.42787 156.823 9.22435C156.823 9.22435 173.824 1.37864 177.588 14.6397C177.588 14.6397 192.496 13.0516 193.809 24.5346C193.809 24.5346 211.483 24.7333 209.156 40.4049C209.156 40.4049 221.955 42.7584 218.23 53.8127C218.23 53.8127 234.804 64.2699 224.473 75.4313C224.473 75.4313 233.219 85.4617 221.083 87.679L89.0218 78.0054Z" fill="#231F20"/>
<path d="M236.398 93.2325C235.828 95.6899 234.429 97.8757 232.436 99.4215C230.443 100.967 227.978 101.779 225.457 101.719C224.363 101.677 223.284 101.452 222.266 101.052L222.25 101.631C222.155 105.498 221.669 109.346 220.801 113.116C215.485 136.994 195.944 155.822 170.947 161.736C169.807 162.021 168.696 162.253 167.559 162.459C166.422 162.664 165.234 162.842 164.021 162.94C160.025 163.53 155.988 163.789 151.95 163.711C114.464 162.676 84.7451 133.778 85.1305 98.8695C85.1494 98.1859 85.1603 97.7915 85.1603 97.7915L85.164 97.66C84.5312 97.7944 83.8852 97.856 83.2384 97.8437C80.7506 97.7231 78.3779 96.759 76.5108 95.11C74.6437 93.461 73.3935 91.2253 72.9659 88.771C72.5279 86.2705 73.06 83.6971 74.4537 81.5756C74.9683 80.8683 75.6421 80.292 76.4207 79.8932C78.1698 79.1208 80.1473 79.0437 81.9513 79.6776C83.934 80.3067 85.7548 81.363 87.2852 82.7721L87.2816 82.9036C95.3944 54.9188 123.099 34.8169 155.433 35.71C187.767 36.6031 214.962 58.774 220.982 87.5175C222.82 85.604 225.153 84.2383 227.721 83.5723C229.548 83.0404 231.51 83.2263 233.205 84.0922C234.568 85.1397 235.597 86.5624 236.164 88.186C236.731 89.8095 236.813 91.5634 236.398 93.2325Z" fill="#8D4F26"/>
<path d="M214.432 87.4944L214.064 87.4842C213.03 87.5331 212.002 87.301 211.089 86.8125C210.176 86.324 209.412 85.5973 208.879 84.7096L200.224 69.4451C199.476 68.1193 198.237 67.1403 196.774 66.7184L147.926 53.1856C146.846 52.8919 145.704 52.9152 144.636 53.2526L106.205 65.4798C105.297 65.7623 104.476 66.2702 103.817 66.956C103.159 67.6418 102.685 68.4833 102.439 69.4019L99.3006 81.1303C99.0713 81.9559 98.66 82.7196 98.0968 83.3653C97.5337 84.011 96.8331 84.5223 96.0464 84.8615C95.2598 85.2008 94.4071 85.3594 93.5511 85.3256C92.6952 85.2919 91.8576 85.0668 91.1001 84.6667C89.8664 84.0067 88.9181 82.9163 88.4355 81.6029C87.9528 80.2894 87.9693 78.8443 88.4819 77.5422C98.2067 52.1544 124.768 34.3892 155.42 35.2358C185.651 36.0708 210.916 54.7676 219.582 80.0845C219.854 80.9157 219.93 81.7987 219.803 82.6641C219.676 83.5295 219.35 84.3536 218.851 85.0717C218.352 85.7898 217.693 86.3824 216.926 86.8027C216.159 87.2231 215.306 87.4599 214.432 87.4944Z" fill="#231F20"/>
<path d="M126.223 108.425C133.961 108.639 140.368 103.95 140.534 97.9528C140.7 91.9553 134.561 86.9201 126.823 86.7063C119.084 86.4926 112.677 91.1813 112.511 97.1788C112.346 103.176 118.484 108.212 126.223 108.425Z" fill="white"/>
<path d="M126.565 108.435C131.777 108.579 136.119 104.469 136.263 99.2559C136.407 94.0425 132.298 89.6996 127.086 89.5556C121.874 89.4116 117.532 93.5212 117.388 98.7345C117.244 103.948 121.352 108.291 126.565 108.435Z" fill="#231F20"/>
<path d="M180.533 109.925C188.271 110.139 194.679 105.45 194.844 99.4529C195.01 93.4553 188.871 88.4201 181.133 88.2063C173.395 87.9926 166.987 92.6813 166.822 98.6788C166.656 104.676 172.795 109.712 180.533 109.925Z" fill="white"/>
<path d="M181.112 109.942C186.324 110.086 190.666 105.976 190.81 100.763C190.954 95.5494 186.845 91.2064 181.633 91.0624C176.421 90.9185 172.079 95.028 171.935 100.241C171.791 105.455 175.9 109.798 181.112 109.942Z" fill="#231F20"/>
<path d="M111.106 82.3509C111.135 81.2729 115.978 77.4068 124.086 76.2362C126.851 75.8397 129.655 75.8022 132.429 76.1245C132.716 76.2667 132.967 76.4708 133.164 76.722C133.362 76.9732 133.502 77.2653 133.573 77.5771C133.584 77.8978 133.521 78.2167 133.39 78.5096C133.259 78.8024 133.062 79.0613 132.816 79.2666C131 81.19 126.982 78.0792 122.295 79.1865C118.536 80.03 113.382 83.7558 112.097 83.6151C111.823 83.5911 111.565 83.4723 111.369 83.2792C111.265 83.1501 111.189 83.0014 111.143 82.8419C111.098 82.6824 111.085 82.5154 111.106 82.3509Z" fill="#231F20"/>
<path d="M192.16 83.3012C192.005 82.2443 187.028 78.6334 178.864 77.9605C176.077 77.7145 173.269 77.8405 170.514 78.3351C170.242 78.496 170.006 78.7123 169.822 78.9702C169.638 79.228 169.51 79.5216 169.447 79.8319C169.466 80.1552 169.551 80.4713 169.697 80.7605C169.843 81.0496 170.046 81.3058 170.295 81.5131C172.245 83.3037 176.073 79.9623 180.839 80.7781C184.635 81.4355 190.014 84.8207 191.256 84.5919C191.528 84.5616 191.777 84.427 191.951 84.2164C192.051 84.0886 192.121 83.9403 192.157 83.7821C192.194 83.624 192.195 83.4597 192.16 83.3012Z" fill="#231F20"/>
<path d="M146.725 108.123C144.061 109.339 142.222 111.13 142.268 113.263C142.238 114.415 142.505 115.556 143.045 116.574C143.698 117.782 144.558 118.866 145.588 119.775C143.935 119.641 142.398 118.873 141.3 117.631C140.201 116.389 139.626 114.77 139.694 113.113C139.716 112.228 139.96 111.364 140.404 110.599C140.848 109.834 141.478 109.193 142.236 108.736C142.898 108.322 143.641 108.053 144.415 107.948C145.188 107.842 145.976 107.902 146.725 108.123Z" fill="#231F20"/>
<path d="M146.035 133.103C147.951 133.054 149.859 132.834 151.736 132.445C153.504 132.051 155.223 131.463 156.861 130.692C158.514 129.899 160.09 128.956 161.569 127.874C162.346 127.37 163.048 126.731 163.826 126.174C164.605 125.616 165.282 124.898 166.114 124.29C165.405 126.21 164.319 127.97 162.92 129.464C161.528 130.994 159.849 132.235 157.978 133.117C156.083 133.993 154.028 134.473 151.941 134.529C149.88 134.591 147.841 134.099 146.035 133.103Z" fill="#231F20"/>
<g style="mix-blend-mode:multiply" opacity="0.28">
<path d="M121.456 112.425C121.456 112.425 129.237 106.93 133.177 109.038C137.118 111.147 121.456 112.425 121.456 112.425Z" fill="#8D4F26"/>
</g>
<g style="mix-blend-mode:multiply" opacity="0.28">
<path d="M187.004 114.709C187.004 114.709 179.539 108.766 175.488 110.654C171.437 112.542 187.004 114.709 187.004 114.709Z" fill="#8D4F26"/>
</g>
<path d="M158.713 157.951L144.991 157.572L144.336 181.29L158.058 181.669L158.713 157.951Z" fill="#8D4F26"/>
<path d="M167.505 162.509C166.342 162.714 165.154 162.865 163.967 162.991C165.129 162.812 166.342 162.74 167.505 162.509Z" fill="#8D4F26"/>
<g style="mix-blend-mode:multiply" opacity="0.28">
<path d="M163.967 162.991C159.972 163.584 155.935 163.842 151.897 163.763C114.41 162.727 84.6915 133.829 85.0769 98.9209C85.4387 105.825 89.4013 143.327 137.384 159.625C145.892 162.68 154.966 163.829 163.967 162.991Z" fill="#8D4F26"/>
</g>
<g style="mix-blend-mode:multiply" opacity="0.28">
<path d="M220.746 113.194C215.43 137.072 195.889 155.9 170.892 161.814C201.93 154.356 218.395 121.155 220.746 113.194Z" fill="#8D4F26"/>
</g>
<path d="M142.778 174.826C143.69 175.868 144.8 176.72 146.043 177.332C147.285 177.945 148.637 178.306 150.019 178.394C152.993 178.242 155.853 177.203 158.231 175.411C161.071 173.542 161.876 172.012 164.086 171.994C165.471 172.022 166.8 172.544 167.834 173.466C168.947 174.467 169.65 175.846 169.805 177.336C167.695 180.46 164.892 183.055 161.614 184.918C158.336 186.781 154.673 187.862 150.909 188.076C146.991 188.095 143.125 187.179 139.633 185.403C136.14 183.626 133.122 181.042 130.829 177.864C131.029 176.943 131.41 176.072 131.951 175.301C132.492 174.529 133.181 173.874 133.978 173.372C135.407 172.64 137.034 172.386 138.618 172.648C140.202 172.909 141.66 173.673 142.778 174.826Z" fill="#231F20"/>
<path d="M198.471 210.073L100.418 207.364L100.212 214.805L198.266 217.514L198.471 210.073Z" fill="#FFECD5"/>
<path d="M213.679 228.123L201.008 227.773L201.213 220.358L211.728 220.649C212.449 223.116 213.09 225.607 213.679 228.123Z" fill="#FFECD5"/>
<path d="M218.964 249.163L202.719 248.715L202.924 241.273L217.067 241.664C217.63 244.153 218.376 246.647 218.964 249.163Z" fill="#FFECD5"/>
<path d="M223.671 270.186L202.142 269.592L202.347 262.15L222.378 262.704C222.757 264.24 223.163 265.725 223.515 267.261C223.594 268.237 223.62 269.185 223.671 270.186Z" fill="#FFECD5"/>
<path d="M224.623 290.975L201.569 290.338L201.773 282.923L224.433 283.549C224.363 286.099 224.504 288.629 224.623 290.975Z" fill="#FFECD5"/>
<path d="M225.619 312.054L200.988 311.374L201.193 303.933L225.246 304.597C225.364 307.021 225.455 309.418 225.619 312.054Z" fill="#FFECD5"/>
<path d="M226.57 332.868L200.414 332.146L200.618 324.757L226.222 325.464L226.57 332.868Z" fill="#FFECD5"/>
<path d="M97.3493 217.49L97.1445 224.905L85.3413 224.579C85.9923 221.966 86.6432 219.352 87.2286 217.211L97.3493 217.49Z" fill="#FFECD5"/>
<path d="M98.9817 238.402L98.7762 245.843L80.3748 245.335C80.9469 242.719 81.5387 240.341 82.1576 237.937L98.9817 238.402Z" fill="#FFECD5"/>
<path d="M98.4049 259.28L98.1994 266.721L75.5393 266.096C76.1114 263.48 76.623 261.152 77.1644 258.694L98.4049 259.28Z" fill="#FFECD5"/>
<path d="M97.8286 280.157L97.6266 287.467L71.3389 286.741C71.8008 284.307 72.2911 281.794 72.8055 279.361L97.8286 280.157Z" fill="#FFECD5"/>
<path d="M97.2525 301.009L97.0455 308.503L67.6558 307.691C68.0381 305.281 68.4218 302.818 68.8603 300.277L97.2525 301.009Z" fill="#FFECD5"/>
<path d="M96.676 321.886L96.4719 329.275L65.3472 328.415C65.4118 326.075 65.6371 323.634 65.9456 321.037L96.676 321.886Z" fill="#FFECD5"/>
<path d="M198.529 233.704L100.475 230.996L100.27 238.437L198.323 241.146L198.529 233.704Z" fill="#FFECD5"/>
<path d="M198.586 257.363L100.532 254.654L100.327 262.096L198.38 264.804L198.586 257.363Z" fill="#FFECD5"/>
<path d="M198.643 280.994L100.59 278.286L100.384 285.727L198.438 288.436L198.643 280.994Z" fill="#FFECD5"/>
<path d="M198.7 304.653L100.646 301.944L100.441 309.386L198.494 312.094L198.7 304.653Z" fill="#FFECD5"/>
<path d="M198.757 328.31L100.704 325.602L100.498 333.043L198.551 335.751L198.757 328.31Z" fill="#FFECD5"/>
<g style="mix-blend-mode:multiply" opacity="0.31">
<path d="M198.471 210.072C198.471 210.072 208.337 263.394 205.617 290.449L202.919 317.636L200.317 335.668L198.471 210.072Z" fill="#D08B63"/>
</g>
<g style="mix-blend-mode:multiply" opacity="0.31">
<path d="M101.054 207.197C101.054 207.197 91.0054 260.496 93.5696 287.67L96.1594 314.872L98.6864 332.914L101.054 207.197Z" fill="#D08B63"/>
</g>
<g style="mix-blend-mode:screen">
<path d="M145.753 111.885C146.935 112.891 149.723 112.942 149.828 111.998C149.933 111.053 148.303 110.061 146.823 110.283C146.271 110.268 145.417 110.718 145.404 111.191C145.391 111.665 145.393 111.586 145.753 111.885Z" fill="#8D4F26"/>
</g>
<g style="mix-blend-mode:multiply" opacity="0.28">
<path d="M87.3461 83.4318L84.2211 89.8977C84.2211 89.8977 82.7302 81.9623 76.5526 81.7917C75.846 81.8332 75.1373 81.7603 74.454 81.5758C74.9686 80.8684 75.6424 80.2921 76.4209 79.8934C78.17 79.121 80.1476 79.0439 81.9515 79.6778C83.9343 80.3068 85.755 81.3631 87.2854 82.7723L87.3461 83.4318Z" fill="#8D4F26"/>
</g>
<g style="mix-blend-mode:multiply" opacity="0.28">
<path d="M220.809 87.118L223.599 93.7473C223.599 93.7473 225.499 85.9055 231.703 86.0769C232.378 86.1112 233.054 86.0411 233.708 85.8691C233.243 85.1264 232.6 84.5117 231.837 84.0807C230.142 83.2148 228.181 83.0289 226.353 83.5608C224.334 84.0679 222.456 85.0234 220.856 86.3562L220.809 87.118Z" fill="#8D4F26"/>
</g>
<path d="M118.714 226.148C124.434 226.306 129.2 221.795 129.358 216.074C129.516 210.352 125.007 205.586 119.286 205.428C113.566 205.27 108.801 209.78 108.643 215.502C108.485 221.223 112.994 225.99 118.714 226.148Z" fill="#FFECD5"/>
</g>
<path d="M121.146 117.793C116.353 117.017 111.897 114.833 108.344 111.517C104.79 108.201 102.298 103.902 101.183 99.1646C100.067 94.4268 100.379 89.4626 102.077 84.8997C103.776 80.3368 106.785 76.3803 110.725 73.5303C114.665 70.6803 119.359 69.065 124.212 68.8885C129.066 68.712 133.861 69.9824 137.992 72.5389C142.123 75.0954 145.404 78.8233 147.42 83.2511C149.437 87.6789 150.097 92.6078 149.319 97.4144C148.268 103.856 144.712 109.62 139.431 113.44C134.149 117.261 127.574 118.826 121.146 117.793ZM128.8 70.5218C124.283 69.7905 119.65 70.4179 115.486 72.3248C111.322 74.2318 107.815 77.3327 105.406 81.2359C102.997 85.1391 101.796 89.6694 101.954 94.2545C102.112 98.8396 103.622 103.274 106.293 106.997C108.964 110.72 112.676 113.565 116.961 115.173C121.246 116.78 125.911 117.078 130.367 116.028C134.823 114.979 138.869 112.629 141.996 109.276C145.122 105.923 147.188 101.717 147.932 97.1899C148.905 91.1147 147.436 84.9029 143.849 79.9148C140.261 74.9268 134.847 71.5692 128.791 70.5775L128.8 70.5218Z" fill="#E3EDA2"/>
<path d="M177.442 126.908C172.646 126.14 168.185 123.962 164.625 120.65C161.066 117.339 158.567 113.042 157.445 108.304C156.323 103.566 156.628 98.5993 158.322 94.0329C160.017 89.4665 163.024 85.5055 166.963 82.6511C170.902 79.7966 175.596 78.1771 180.451 77.9975C185.306 77.8178 190.104 79.086 194.238 81.6417C198.371 84.1974 201.655 87.9256 203.673 92.3546C205.69 96.7837 206.352 101.714 205.573 106.523C204.524 112.958 200.975 118.716 195.702 122.536C190.43 126.357 183.864 127.929 177.442 126.908ZM185.096 79.6369C180.579 78.897 175.943 79.5168 171.774 81.4178C167.606 83.3189 164.092 86.4159 161.677 90.3173C159.262 94.2187 158.055 98.7493 158.208 103.336C158.36 107.924 159.866 112.361 162.535 116.088C165.204 119.815 168.915 122.664 173.201 124.275C177.486 125.886 182.153 126.187 186.611 125.139C191.069 124.091 195.118 121.742 198.247 118.389C201.375 115.035 203.442 110.828 204.187 106.298C205.162 100.23 203.7 94.0232 200.12 89.0369C196.541 84.0506 191.135 80.6907 185.087 79.6926L185.096 79.6369Z" fill="#E3EDA2"/>
<path d="M149.051 96.7001L148.537 95.3899C148.812 95.2774 155.417 92.7087 158.6 97.1333L157.458 97.9471C154.912 94.4245 149.111 96.6812 149.051 96.7001Z" fill="#E3EDA2"/>
</g>
<circle cx="211" cy="181.001" r="95" fill="#231F20"/>
<path d="M253.901 374.836L236.271 375.086C235.62 375.095 234.997 375.104 234.361 375.113L226.057 375.231L176.072 376.023C173.9 376.054 171.741 376.084 169.568 376.115L151.287 376.374C150.057 352.131 149.988 331.661 150.24 316.224C150.427 305.049 150.752 296.689 151.392 290.129C151.377 289.981 151.375 289.833 151.386 289.685C151.492 288.393 151.655 287.183 151.791 286.029C151.789 285.918 151.788 285.821 151.786 285.71C151.786 285.71 151.785 285.613 151.784 285.571C151.78 285.266 151.873 285.001 151.911 284.709C152.05 283.791 152.19 282.942 152.33 282.093C152.328 281.955 152.395 281.801 152.421 281.648C152.446 281.495 152.419 281.551 152.419 281.509C152.51 281.133 152.574 280.772 152.653 280.423C152.847 279.477 153.069 278.585 153.307 277.736C153.33 277.575 153.364 277.417 153.411 277.262C154.459 273.422 156.144 269.786 158.393 266.505C168.876 251.214 186.27 244.972 196.474 242.273L207.651 241.768C216.336 243.171 234.029 247.306 245.396 261.162L245.137 261.43L246.709 262.962C246.797 263.052 246.873 263.154 246.934 263.264C247.066 263.419 247.184 263.584 247.287 263.759C247.804 264.472 248.277 265.216 248.703 265.987C248.995 266.429 249.261 266.889 249.498 267.364L249.782 267.873C250.052 268.397 250.309 268.934 250.552 269.458L250.694 269.72C250.923 270.244 251.152 270.782 251.353 271.307C251.684 272.149 252 272.991 252.29 273.889C252.355 274.07 252.408 274.254 252.45 274.442C252.812 275.561 253.147 276.791 253.428 278.05C253.431 278.258 253.434 278.48 253.548 278.659C253.661 278.838 253.695 279.323 253.769 279.655C253.771 279.78 253.773 279.919 253.775 280.072C255.075 287.992 255.786 295.998 255.901 304.024C256.759 327.647 256.091 351.3 253.901 374.836Z" fill="#FFCE31"/>
<path d="M209.235 233.418L209.434 247.419C207.59 248.578 205.462 249.204 203.286 249.227C201.411 249.254 199.556 248.839 197.87 248.013L197.666 233.582L209.235 233.418Z" fill="#8D4F26"/>
<path d="M262.55 201.946C262.574 203.907 261.822 205.797 260.46 207.203C259.097 208.609 257.234 209.416 255.279 209.447C254.995 209.439 254.712 209.411 254.433 209.362C248.831 221.296 239.246 230.892 227.334 236.489C215.423 242.087 201.935 243.334 189.203 240.016C177.096 236.846 166.384 229.727 158.755 219.782C156.522 216.919 154.586 213.835 152.977 210.579C151.157 211.134 149.194 210.959 147.499 210.093C145.805 209.227 144.512 207.735 143.891 205.933C143.271 204.13 143.371 202.156 144.172 200.427C144.972 198.697 146.41 197.346 148.184 196.657C147.456 193.178 147.062 189.638 147.009 186.084C146.797 171.087 152.534 156.62 162.96 145.866C173.385 135.112 187.645 128.951 202.601 128.738C217.558 128.526 231.986 134.28 242.712 144.735C253.439 155.189 259.584 169.487 259.797 184.484C259.842 188.211 259.529 191.934 258.861 195.601C259.973 196.246 260.898 197.17 261.545 198.283C262.192 199.396 262.538 200.658 262.55 201.946Z" fill="#8D4F26"/>
<path d="M188.765 184.77C188.631 185.05 185.297 192.009 177.652 192.714C175.402 192.86 173.149 192.473 171.075 191.583C169.002 190.694 167.166 189.328 165.717 187.595C165.225 180.233 171.065 174.279 177.391 174.328C180.204 174.467 182.879 175.587 184.956 177.493C187.032 179.4 188.38 181.974 188.765 184.77Z" fill="white"/>
<path d="M236.084 185.334C234.784 187.516 232.911 189.297 230.67 190.484C228.429 191.671 225.906 192.218 223.376 192.066C221.204 191.858 219.106 191.16 217.242 190.023C215.377 188.886 213.794 187.34 212.611 185.501C212.6 183.952 212.893 182.416 213.474 180.98C214.055 179.545 214.913 178.239 215.997 177.135C217.082 176.032 218.373 175.154 219.796 174.551C221.219 173.948 222.746 173.632 224.291 173.621C225.836 173.61 227.368 173.905 228.8 174.487C230.231 175.07 231.534 175.93 232.635 177.017C233.735 178.105 234.611 179.399 235.212 180.826C235.813 182.253 236.129 183.785 236.14 185.334L236.084 185.334Z" fill="white"/>
<path d="M177.653 192.728C182.055 192.665 185.573 189.036 185.51 184.622C185.448 180.208 181.828 176.68 177.426 176.742C173.023 176.805 169.505 180.434 169.568 184.848C169.631 189.262 173.25 192.79 177.653 192.728Z" fill="#231F20"/>
<path d="M224.235 192.068C228.637 192.005 232.155 188.376 232.092 183.962C232.03 179.548 228.41 176.02 224.008 176.082C219.605 176.145 216.087 179.774 216.15 184.188C216.213 188.602 219.832 192.13 224.235 192.068Z" fill="#231F20"/>
<path d="M198.525 191.696C197.432 192.062 196.437 192.674 195.616 193.486C195.252 193.852 194.967 194.288 194.776 194.768C194.585 195.248 194.494 195.761 194.507 196.278C194.54 197.334 194.861 198.362 195.435 199.249C196.078 200.204 196.903 201.023 197.864 201.657C196.6 201.482 195.439 200.864 194.586 199.913C193.682 198.914 193.171 197.618 193.15 196.269C193.15 195.575 193.305 194.89 193.606 194.264C193.931 193.647 194.398 193.117 194.968 192.718C195.982 191.937 197.253 191.572 198.525 191.696Z" fill="#231F20"/>
<g style="mix-blend-mode:screen">
<path d="M197.823 194.911C198.873 195.715 201.211 195.668 201.271 194.974C201.33 194.279 199.864 193.384 198.663 193.623C198.208 193.712 197.506 194.042 197.498 194.43C197.499 194.514 197.515 194.68 197.823 194.911Z" fill="#8D4F26"/>
</g>
<path d="M173.602 158.92C175.671 157.763 177.945 157.019 180.298 156.73C180.566 156.772 180.822 156.873 181.046 157.026C181.271 157.178 181.459 157.379 181.598 157.613C181.686 157.87 181.716 158.142 181.686 158.411C181.656 158.68 181.567 158.94 181.426 159.17C180.43 161.183 176.395 159.672 172.853 161.762C168.35 164.408 166.022 168.119 165.756 167.914C165.491 167.71 167.985 162.095 173.602 158.92Z" fill="#231F20"/>
<path d="M234.173 164.779C231.602 161.561 228.223 159.089 224.382 157.617C222.157 156.784 219.815 156.307 217.441 156.203C217.182 156.276 216.941 156.405 216.735 156.58C216.53 156.756 216.365 156.974 216.252 157.219C216.192 157.485 216.193 157.761 216.254 158.027C216.315 158.293 216.436 158.542 216.606 158.755C217.752 160.543 221.978 159.844 225.404 160.365C228.702 160.923 231.757 162.46 234.173 164.779Z" fill="#231F20"/>
<path d="M217.477 209.291C216.037 211.307 214.271 213.066 212.25 214.496C210.224 215.962 208.004 217.138 205.653 217.992C203.297 218.867 200.808 219.334 198.294 219.372L196.416 219.338L194.56 219.107C193.947 219.011 193.342 218.864 192.752 218.67C192.156 218.503 191.57 218.318 190.988 218.102L191.014 217.962C193.382 218.409 195.8 218.52 198.198 218.292C200.59 218.068 202.942 217.532 205.194 216.697C207.454 215.882 209.622 214.832 211.664 213.565C213.716 212.293 215.627 210.804 217.363 209.124L217.477 209.291Z" fill="#231F20"/>
<g style="mix-blend-mode:multiply" opacity="0.27">
<path d="M186.95 195.114C189.322 193.407 190.653 191.195 189.922 190.174C189.191 189.153 186.675 189.709 184.303 191.415C181.931 193.122 180.6 195.334 181.331 196.355C182.062 197.376 184.578 196.82 186.95 195.114Z" fill="#8D4F26"/>
</g>
<g style="mix-blend-mode:multiply" opacity="0.27">
<path d="M220.381 195.789C221.082 194.748 219.69 192.575 217.27 190.936C214.85 189.297 212.32 188.813 211.618 189.854C210.916 190.896 212.309 193.069 214.729 194.708C217.149 196.347 219.679 196.831 220.381 195.789Z" fill="#8D4F26"/>
</g>
<g opacity="0.58">
<path opacity="0.58" d="M229.391 267.704C229.304 267.239 229.097 266.806 228.791 266.448C228.484 266.089 228.089 265.818 227.645 265.66C226.92 265.485 226.156 265.567 225.484 265.893C224.812 266.219 224.274 266.768 223.961 267.448C222.42 266.919 220.777 266.767 219.165 267.002C217.622 267.237 216.156 267.833 214.885 268.742C214.486 268.137 213.9 267.679 213.217 267.438C212.534 267.197 211.791 267.186 211.101 267.408C210.591 267.603 210.145 267.935 209.812 268.369C209.478 268.802 209.271 269.319 209.212 269.863C209.208 270.238 209.28 270.61 209.422 270.956C209.565 271.302 209.777 271.616 210.044 271.878C210.845 272.714 211.928 273.223 213.081 273.306C213.056 274.206 213.249 275.099 213.644 275.907C214.18 276.927 215.019 277.754 216.045 278.274C217.534 279.131 219.251 279.505 220.96 279.343C222.448 279.208 223.873 278.68 225.091 277.813C225.724 277.413 226.259 276.876 226.658 276.241C227.056 275.606 227.307 274.889 227.392 274.144C227.419 273.272 227.153 272.415 226.638 271.712C227.475 271.445 228.2 270.906 228.699 270.181C229.197 269.455 229.441 268.583 229.391 267.704ZM226.064 271.276L225.651 271.435L225.932 271.764C226.485 272.432 226.79 273.271 226.797 274.139C226.709 274.788 226.477 275.41 226.119 275.958C225.76 276.506 225.283 276.966 224.724 277.305C223.507 278.158 222.076 278.65 220.594 278.725C219.111 278.8 217.638 278.455 216.342 277.729C215.427 277.258 214.677 276.518 214.194 275.608C213.814 274.806 213.658 273.917 213.742 273.033L213.737 272.7L213.377 272.705C212.28 272.701 211.229 272.262 210.453 271.484C210.247 271.281 210.083 271.038 209.972 270.77C209.861 270.502 209.805 270.214 209.808 269.924C209.859 269.503 210.023 269.103 210.285 268.769C210.546 268.435 210.894 268.179 211.29 268.03C211.477 267.962 211.672 267.922 211.87 267.91C212.403 267.877 212.935 267.993 213.406 268.246C213.877 268.499 214.267 268.88 214.534 269.344L214.718 269.647L215.006 269.448C216.281 268.493 217.775 267.872 219.35 267.644C220.926 267.416 222.533 267.586 224.026 268.141L224.29 268.22L224.425 267.982C224.658 267.384 225.091 266.886 225.649 266.572C226.207 266.257 226.857 266.147 227.488 266.259C227.818 266.391 228.111 266.603 228.339 266.876C228.568 267.148 228.725 267.474 228.797 267.823C229.01 269.166 227.854 270.626 226.064 271.276Z" fill="#4F5558"/>
<path opacity="0.58" d="M220.639 274.898C221.393 274.834 221.972 274.41 221.933 273.952C221.894 273.494 221.252 273.174 220.498 273.239C219.744 273.303 219.164 273.727 219.203 274.185C219.242 274.643 219.885 274.963 220.639 274.898Z" fill="#4F5558"/>
<path opacity="0.58" d="M212.653 274.793L210.425 275.848L210.969 277.002L213.196 275.948L212.653 274.793Z" fill="#4F5558"/>
<path opacity="0.58" d="M214.764 278.948L213.494 281.065L214.585 281.723L215.855 279.606L214.764 278.948Z" fill="#4F5558"/>
<path opacity="0.58" d="M220.083 281.146L218.811 281.207L218.929 283.674L220.201 283.613L220.083 281.146Z" fill="#4F5558"/>
<path opacity="0.58" d="M224.473 280.073L223.449 280.832L224.913 282.819L225.937 282.06L224.473 280.073Z" fill="#4F5558"/>
<path opacity="0.58" d="M227.51 276.769L227.08 277.971L229.398 278.806L229.829 277.605L227.51 276.769Z" fill="#4F5558"/>
<path opacity="0.58" d="M230.598 271.697L228.207 272.293L228.514 273.532L230.905 272.937L230.598 271.697Z" fill="#4F5558"/>
<path opacity="0.58" d="M217.253 273.705C217.918 273.696 218.448 273.042 218.437 272.245C218.425 271.448 217.877 270.809 217.212 270.819C216.547 270.828 216.017 271.482 216.029 272.279C216.04 273.076 216.588 273.715 217.253 273.705Z" fill="#4F5558"/>
<path opacity="0.58" d="M222.773 272.461C223.437 272.452 223.967 271.798 223.956 271.001C223.945 270.204 223.397 269.565 222.732 269.575C222.067 269.584 221.537 270.238 221.548 271.035C221.559 271.832 222.108 272.47 222.773 272.461Z" fill="#4F5558"/>
</g>
<g opacity="0.58">
<path opacity="0.58" d="M163.63 376.13L163.632 376.268L163.881 376.265L163.63 376.13ZM167.104 375.164C166.942 374.754 166.644 374.412 166.261 374.195C165.878 373.978 165.432 373.9 164.997 373.973C164.728 373.045 164.242 372.195 163.578 371.495C162.946 370.818 162.16 370.305 161.287 370C161.439 369.601 161.461 369.163 161.348 368.75C161.235 368.337 160.994 367.971 160.659 367.705C160.391 367.526 160.079 367.423 159.757 367.408C159.435 367.393 159.114 367.466 158.831 367.62C158.649 367.744 158.494 367.903 158.375 368.088C158.256 368.274 158.176 368.481 158.14 368.699C158.004 369.373 158.123 370.073 158.473 370.665C158.028 370.948 157.662 371.34 157.409 371.804C157.103 372.405 156.982 373.083 157.063 373.752C157.155 374.7 157.519 375.601 158.11 376.347L158.581 376.34C157.93 375.611 157.529 374.693 157.436 373.719C157.358 373.121 157.465 372.514 157.744 371.98C157.998 371.522 158.377 371.147 158.836 370.896L159.014 370.782L158.901 370.631C158.717 370.366 158.587 370.067 158.518 369.751C158.45 369.435 158.444 369.109 158.501 368.791C158.53 368.619 158.593 368.456 158.686 368.309C158.779 368.162 158.9 368.036 159.043 367.937C159.261 367.828 159.505 367.779 159.748 367.795C159.991 367.812 160.226 367.892 160.428 368.028C160.53 368.095 160.62 368.178 160.695 368.274C160.881 368.521 160.996 368.815 161.024 369.124C161.053 369.432 160.996 369.743 160.858 370.02L160.764 370.202L160.973 370.296C161.853 370.572 162.647 371.073 163.277 371.749C163.958 372.436 164.447 373.291 164.697 374.227L164.699 374.379L164.879 374.377C165.246 374.295 165.63 374.341 165.967 374.508C166.304 374.675 166.574 374.952 166.733 375.294C166.772 375.456 166.779 375.625 166.753 375.79C166.727 375.955 166.668 376.113 166.58 376.254L166.995 376.248C167.165 375.913 167.204 375.527 167.104 375.164Z" fill="#B9DFF4"/>
<path opacity="0.58" d="M161.185 375.16C161.391 374.988 161.324 374.567 161.036 374.22C160.748 373.872 160.347 373.729 160.141 373.9C159.936 374.072 160.003 374.493 160.291 374.841C160.579 375.188 160.98 375.331 161.185 375.16Z" fill="#B9DFF4"/>
<path opacity="0.58" d="M156.363 370.158L155.991 370.808L157.252 371.533L157.624 370.883L156.363 370.158Z" fill="#B9DFF4"/>
<path opacity="0.58" d="M156.357 373.367L154.907 373.465L154.957 374.213L156.407 374.115L156.357 373.367Z" fill="#B9DFF4"/>
<path opacity="0.58" d="M156.823 376.379L156.242 376.387L156.612 376.104L156.823 376.379Z" fill="#B9DFF4"/>
<path opacity="0.58" d="M160.791 372.903C161.176 372.626 161.304 372.144 161.076 371.827C160.849 371.509 160.353 371.476 159.968 371.753C159.583 372.03 159.455 372.512 159.682 372.83C159.909 373.148 160.406 373.18 160.791 372.903Z" fill="#B9DFF4"/>
<path opacity="0.58" d="M163.263 375.168C163.648 374.891 163.776 374.409 163.549 374.091C163.321 373.774 162.825 373.741 162.44 374.018C162.055 374.295 161.927 374.777 162.154 375.095C162.382 375.412 162.878 375.445 163.263 375.168Z" fill="#B9DFF4"/>
</g>
<g opacity="0.58">
<path opacity="0.58" d="M174.112 319.773C173.873 319.166 173.433 318.66 172.867 318.34C172.3 318.019 171.641 317.904 171 318.012C170.596 316.646 169.882 315.393 168.913 314.35C167.971 313.348 166.809 312.58 165.518 312.108C165.746 311.52 165.778 310.874 165.609 310.266C165.441 309.659 165.082 309.122 164.584 308.735C164.186 308.446 163.712 308.278 163.22 308.253C162.728 308.228 162.24 308.346 161.814 308.594C161.546 308.779 161.318 309.016 161.141 309.29C160.964 309.564 160.843 309.87 160.785 310.191C160.595 311.19 160.778 312.224 161.297 313.098C160.675 313.545 160.166 314.132 159.812 314.812C159.351 315.707 159.173 316.721 159.3 317.72C159.441 319.128 159.974 320.467 160.84 321.584C161.705 322.701 162.867 323.55 164.192 324.035C164.795 324.297 165.45 324.418 166.106 324.389C166.763 324.361 167.404 324.183 167.983 323.87C168.604 323.439 169.078 322.827 169.342 322.116C169.958 322.571 170.705 322.812 171.469 322.801C172.234 322.79 172.974 322.529 173.577 322.056C173.86 321.758 174.06 321.389 174.154 320.987C174.248 320.586 174.233 320.167 174.112 319.773ZM173.128 321.66C172.564 322.072 171.876 322.276 171.179 322.237C170.483 322.199 169.821 321.921 169.305 321.451L168.983 321.233L168.878 321.609C168.684 322.35 168.225 322.994 167.589 323.418C167.083 323.682 166.524 323.823 165.954 323.831C165.385 323.839 164.821 323.714 164.309 323.465C163.102 323.011 162.045 322.228 161.257 321.204C160.47 320.181 159.984 318.957 159.853 317.671C159.753 316.779 159.908 315.876 160.3 315.069C160.68 314.387 161.242 313.826 161.924 313.45L162.185 313.294L162.029 313.046C161.753 312.647 161.559 312.197 161.457 311.722C161.355 311.247 161.348 310.756 161.437 310.279C161.48 310.026 161.573 309.785 161.71 309.568C161.847 309.352 162.026 309.165 162.235 309.018C162.561 308.84 162.929 308.758 163.299 308.779C163.669 308.801 164.025 308.926 164.327 309.141C164.466 309.245 164.593 309.364 164.706 309.497C164.984 309.867 165.157 310.307 165.205 310.768C165.253 311.23 165.175 311.696 164.978 312.116L164.816 312.382L165.136 312.488C166.441 312.926 167.617 313.682 168.558 314.688C169.535 315.722 170.234 316.987 170.59 318.365L170.593 318.601L170.828 318.598C171.377 318.455 171.958 318.513 172.469 318.76C172.979 319.007 173.386 319.427 173.616 319.946C173.694 320.249 173.69 320.568 173.604 320.87C173.518 321.171 173.354 321.444 173.128 321.66Z" fill="#4F5558"/>
<path opacity="0.58" d="M165.317 319.794C165.628 319.534 165.536 318.908 165.111 318.396C164.686 317.883 164.089 317.677 163.777 317.937C163.466 318.197 163.558 318.823 163.983 319.336C164.408 319.849 165.005 320.054 165.317 319.794Z" fill="#4F5558"/>
<path opacity="0.58" d="M158.194 312.451L157.635 313.426L159.508 314.504L160.066 313.529L158.194 312.451Z" fill="#4F5558"/>
<path opacity="0.58" d="M158.158 317.129L156.003 317.274L156.079 318.396L158.233 318.251L158.158 317.129Z" fill="#4F5558"/>
<path opacity="0.58" d="M158.52 321.204L156.809 322.524L157.493 323.415L159.204 322.095L158.52 321.204Z" fill="#4F5558"/>
<path opacity="0.58" d="M161.107 324.352L160.416 326.402L161.478 326.763L162.169 324.712L161.107 324.352Z" fill="#4F5558"/>
<path opacity="0.58" d="M166.105 325.238L165.022 325.53L165.585 327.62L166.667 327.328L166.105 325.238Z" fill="#4F5558"/>
<path opacity="0.58" d="M169.619 323.524L168.881 324.37L170.505 325.796L171.244 324.95L169.619 323.524Z" fill="#4F5558"/>
<path opacity="0.58" d="M164.774 316.431C165.339 316.024 165.522 315.311 165.184 314.838C164.845 314.364 164.112 314.31 163.547 314.717C162.982 315.124 162.798 315.837 163.137 316.31C163.476 316.783 164.209 316.837 164.774 316.431Z" fill="#4F5558"/>
<path opacity="0.58" d="M168.428 319.809C168.993 319.402 169.176 318.689 168.838 318.216C168.499 317.742 167.766 317.688 167.201 318.095C166.636 318.501 166.453 319.215 166.791 319.688C167.13 320.161 167.863 320.215 168.428 319.809Z" fill="#4F5558"/>
</g>
<g opacity="0.58">
<path opacity="0.58" d="M183.173 352.634C183.148 351.722 182.903 350.83 182.458 350.035C182.026 349.274 181.431 348.618 180.715 348.116C180.951 347.793 181.075 347.402 181.069 347.001C181.064 346.601 180.928 346.213 180.683 345.896C180.482 345.669 180.223 345.501 179.934 345.41C179.645 345.319 179.337 345.308 179.043 345.378C178.643 345.53 178.318 345.834 178.141 346.224C177.875 346.813 177.83 347.479 178.015 348.099C177.542 348.253 177.117 348.527 176.781 348.894C176.355 349.375 176.084 349.974 176.002 350.612C175.862 351.502 175.981 352.413 176.343 353.238C176.706 354.062 177.298 354.764 178.048 355.26C178.377 355.518 178.761 355.698 179.17 355.786C179.579 355.874 180.002 355.868 180.408 355.768C180.864 355.592 181.255 355.282 181.53 354.878C181.83 355.26 182.249 355.529 182.72 355.644C183.192 355.758 183.687 355.71 184.128 355.507C184.36 355.377 184.552 355.185 184.682 354.954C184.813 354.722 184.878 354.458 184.87 354.192C184.811 353.775 184.609 353.393 184.3 353.108C183.991 352.824 183.592 352.657 183.173 352.634ZM183.916 355.205C183.504 355.367 183.049 355.383 182.626 355.251C182.204 355.118 181.84 354.844 181.594 354.474L181.439 354.282L181.304 354.506C181.076 354.927 180.701 355.249 180.251 355.409C179.897 355.498 179.528 355.504 179.172 355.428C178.816 355.351 178.482 355.193 178.196 354.967C177.509 354.505 176.967 353.856 176.635 353.096C176.303 352.336 176.195 351.497 176.322 350.677C176.384 350.107 176.613 349.568 176.978 349.127C177.334 348.78 177.767 348.522 178.241 348.374L178.421 348.371L178.418 348.191C178.297 347.911 178.232 347.61 178.228 347.305C178.224 347 178.28 346.697 178.393 346.414C178.541 346.13 178.782 345.906 179.076 345.78C179.308 345.716 179.554 345.721 179.783 345.794C180.013 345.867 180.216 346.005 180.369 346.192C180.44 346.267 180.493 346.356 180.525 346.454C180.652 346.723 180.697 347.023 180.654 347.317C180.612 347.612 180.483 347.887 180.286 348.109L180.177 348.263L180.331 348.372C181.069 348.836 181.682 349.476 182.115 350.234C182.566 351.015 182.803 351.903 182.802 352.806L182.805 352.986L182.971 352.984C183.327 352.99 183.669 353.12 183.94 353.352C184.211 353.583 184.394 353.902 184.456 354.253C184.456 354.445 184.406 354.634 184.311 354.8C184.216 354.967 184.08 355.106 183.916 355.205Z" fill="#4F5558"/>
<path opacity="0.58" d="M179.408 352.821C179.636 352.711 179.672 352.314 179.49 351.935C179.308 351.555 178.976 351.335 178.749 351.445C178.521 351.555 178.485 351.952 178.667 352.331C178.849 352.711 179.181 352.93 179.408 352.821Z" fill="#4F5558"/>
<path opacity="0.58" d="M176.149 347.201L175.659 347.711L176.646 348.664L177.136 348.154L176.149 347.201Z" fill="#4F5558"/>
<path opacity="0.58" d="M174.034 349.834L173.909 350.53L175.257 350.774L175.382 350.077L174.034 349.834Z" fill="#4F5558"/>
<path opacity="0.58" d="M174.992 352.652L173.736 353.201L174.018 353.85L175.274 353.301L174.992 352.652Z" fill="#4F5558"/>
<path opacity="0.58" d="M176.12 355.004L175.379 356.159L175.973 356.542L176.714 355.386L176.12 355.004Z" fill="#4F5558"/>
<path opacity="0.58" d="M179.06 356.303L178.354 356.315L178.379 357.689L179.085 357.676L179.06 356.303Z" fill="#4F5558"/>
<path opacity="0.58" d="M181.489 355.811L180.909 356.215L181.69 357.344L182.27 356.94L181.489 355.811Z" fill="#4F5558"/>
<path opacity="0.58" d="M179.574 350.681C179.986 350.518 180.211 350.108 180.076 349.766C179.941 349.424 179.497 349.279 179.085 349.443C178.673 349.607 178.448 350.017 178.583 350.359C178.718 350.701 179.162 350.845 179.574 350.681Z" fill="#4F5558"/>
<path opacity="0.58" d="M181.316 353.319C181.728 353.155 181.953 352.745 181.818 352.403C181.683 352.061 181.239 351.917 180.827 352.081C180.415 352.244 180.19 352.654 180.325 352.996C180.46 353.338 180.904 353.483 181.316 353.319Z" fill="#4F5558"/>
</g>
<g opacity="0.58">
<path opacity="0.58" d="M252.358 273.846C251.817 273.945 251.262 273.928 250.728 273.797C250.195 273.666 249.694 273.423 249.261 273.085C248.165 272.333 247.3 271.288 246.764 270.07C246.228 268.851 246.043 267.507 246.228 266.188C246.339 265.28 246.722 264.427 247.329 263.744C247.225 263.569 247.107 263.404 246.976 263.249L246.894 263.348C246.207 264.128 245.78 265.105 245.674 266.141C245.466 267.629 245.715 269.145 246.386 270.489C246.951 271.714 247.848 272.755 248.976 273.491C249.477 273.878 250.054 274.154 250.669 274.301C251.285 274.448 251.924 274.462 252.545 274.343C252.493 274.174 252.43 274.008 252.358 273.846Z" fill="#4F5558"/>
<path opacity="0.58" d="M251.182 269.655C251.554 269.476 251.616 268.832 251.322 268.218C251.027 267.603 250.486 267.25 250.114 267.429C249.742 267.609 249.68 268.252 249.975 268.867C250.269 269.482 250.81 269.835 251.182 269.655Z" fill="#4F5558"/>
<path opacity="0.58" d="M242.544 264.832L242.341 265.966L244.52 266.359L244.724 265.226L242.544 264.832Z" fill="#4F5558"/>
<path opacity="0.58" d="M244.101 269.35L242.071 270.237L242.53 271.293L244.56 270.406L244.101 269.35Z" fill="#4F5558"/>
<path opacity="0.58" d="M245.887 273.118L244.689 274.985L245.656 275.608L246.853 273.741L245.887 273.118Z" fill="#4F5558"/>
<path opacity="0.58" d="M250.618 275.233L249.469 275.254L249.51 277.474L250.658 277.453L250.618 275.233Z" fill="#4F5558"/>
<path opacity="0.58" d="M253.833 275.394L253.607 275.064L253.772 274.951C253.788 275.089 253.817 275.242 253.833 275.394Z" fill="#4F5558"/>
</g>
<g opacity="0.58">
<path opacity="0.58" d="M223.023 338.924C222.995 337.959 222.738 337.015 222.273 336.17C221.809 335.324 221.15 334.602 220.352 334.062C220.606 333.713 220.741 333.289 220.735 332.857C220.728 332.424 220.582 332.004 220.318 331.662C220.11 331.403 219.83 331.211 219.513 331.112C219.196 331.012 218.857 331.01 218.538 331.104C218.326 331.18 218.131 331.298 217.964 331.451C217.798 331.603 217.663 331.787 217.568 331.992C217.282 332.631 217.238 333.352 217.445 334.02C216.92 334.184 216.447 334.483 216.073 334.887C215.611 335.405 215.321 336.054 215.241 336.744C215.08 337.765 215.24 338.81 215.699 339.736C216.084 340.567 216.687 341.279 217.444 341.793C217.806 342.062 218.222 342.249 218.663 342.339C219.105 342.428 219.561 342.419 219.998 342.312C220.499 342.141 220.924 341.801 221.203 341.351C221.53 341.751 221.977 342.034 222.478 342.157C222.979 342.28 223.507 342.236 223.981 342.033C224.224 341.888 224.425 341.684 224.567 341.439C224.709 341.194 224.786 340.917 224.792 340.634C224.73 340.192 224.522 339.783 224.201 339.473C223.881 339.163 223.466 338.97 223.023 338.924ZM223.824 341.688C223.379 341.856 222.892 341.87 222.438 341.728C221.985 341.586 221.592 341.296 221.321 340.905L221.138 340.685L221.017 340.923C220.764 341.383 220.357 341.738 219.868 341.925C219.484 342.005 219.087 342.002 218.704 341.916C218.321 341.831 217.961 341.665 217.647 341.429C216.906 340.923 216.322 340.22 215.961 339.398C215.599 338.577 215.475 337.67 215.601 336.781C215.68 336.169 215.931 335.593 216.325 335.119C216.7 334.73 217.175 334.454 217.698 334.322L217.891 334.25L217.888 334.042C217.769 333.735 217.713 333.407 217.723 333.078C217.733 332.749 217.808 332.425 217.944 332.126C218.012 331.968 218.112 331.826 218.236 331.707C218.36 331.589 218.507 331.496 218.668 331.435C218.975 331.372 219.294 331.409 219.58 331.539C219.865 331.67 220.102 331.888 220.256 332.162C220.375 332.458 220.413 332.78 220.367 333.096C220.32 333.411 220.19 333.708 219.991 333.957L219.841 334.125L220.036 334.234C220.834 334.752 221.495 335.457 221.962 336.288C222.441 337.131 222.698 338.083 222.707 339.053L222.709 339.234L222.861 339.231C223.25 339.228 223.627 339.364 223.925 339.614C224.223 339.864 224.422 340.212 224.486 340.596C224.488 340.821 224.431 341.042 224.322 341.238C224.214 341.434 224.056 341.598 223.866 341.715L223.824 341.688Z" fill="#4F5558"/>
<path opacity="0.58" d="M218.94 339.15C219.188 339.03 219.228 338.597 219.029 338.183C218.831 337.768 218.468 337.529 218.221 337.649C217.973 337.768 217.933 338.201 218.131 338.616C218.33 339.03 218.692 339.269 218.94 339.15Z" fill="#4F5558"/>
<path opacity="0.58" d="M215.407 333.053L214.87 333.613L215.937 334.643L216.474 334.083L215.407 333.053Z" fill="#4F5558"/>
<path opacity="0.58" d="M213.127 335.886L212.99 336.65L214.447 336.914L214.585 336.149L213.127 335.886Z" fill="#4F5558"/>
<path opacity="0.58" d="M214.176 338.967L212.819 339.561L213.128 340.273L214.486 339.68L214.176 338.967Z" fill="#4F5558"/>
<path opacity="0.58" d="M215.369 341.482L214.568 342.731L215.22 343.152L216.021 341.903L215.369 341.482Z" fill="#4F5558"/>
<path opacity="0.58" d="M218.572 342.911L217.797 342.925L217.824 344.409L218.599 344.395L218.572 342.911Z" fill="#4F5558"/>
<path opacity="0.58" d="M221.202 342.37L220.566 342.812L221.41 344.033L222.047 343.59L221.202 342.37Z" fill="#4F5558"/>
<path opacity="0.58" d="M219.127 336.814C219.575 336.636 219.819 336.191 219.673 335.821C219.527 335.45 219.045 335.294 218.597 335.472C218.15 335.65 217.905 336.094 218.052 336.465C218.198 336.835 218.68 336.992 219.127 336.814Z" fill="#4F5558"/>
<path opacity="0.58" d="M221.012 339.677C221.459 339.499 221.704 339.055 221.557 338.684C221.411 338.314 220.929 338.157 220.482 338.335C220.034 338.513 219.79 338.958 219.936 339.328C220.082 339.699 220.564 339.855 221.012 339.677Z" fill="#4F5558"/>
</g>
<g opacity="0.58">
<path opacity="0.58" d="M206.874 314.809C206.477 313.891 205.764 313.148 204.865 312.714C205.174 311.991 205.301 311.203 205.234 310.419C205.126 309.397 204.706 308.433 204.032 307.66C203.071 306.508 201.785 305.675 200.344 305.27C199.08 304.875 197.732 304.846 196.453 305.186C195.808 305.311 195.199 305.581 194.672 305.976C194.146 306.37 193.715 306.879 193.412 307.464C193.126 308.159 193.069 308.929 193.25 309.659C192.488 309.631 191.737 309.853 191.113 310.293C190.49 310.733 190.027 311.366 189.796 312.095C189.724 312.5 189.756 312.917 189.89 313.307C190.024 313.696 190.255 314.044 190.561 314.319C191.095 314.7 191.747 314.879 192.4 314.824C193.053 314.769 193.665 314.484 194.128 314.018C195.203 314.911 196.47 315.541 197.829 315.859C199.189 316.177 200.603 316.174 201.961 315.85C202.109 316.463 202.449 317.011 202.93 317.417C203.412 317.822 204.009 318.062 204.637 318.102C205.115 318.105 205.584 317.973 205.992 317.722C206.399 317.471 206.728 317.111 206.942 316.682C207.056 316.381 207.108 316.06 207.096 315.739C207.085 315.417 207.009 315.101 206.874 314.809ZM206.386 316.509C206.216 316.839 205.957 317.115 205.64 317.306C205.322 317.496 204.958 317.595 204.588 317.59L204.088 317.5C203.659 317.358 203.279 317.097 202.992 316.748C202.705 316.398 202.524 315.973 202.468 315.524L202.464 315.232L202.161 315.306C200.829 315.656 199.433 315.675 198.092 315.364C196.718 315.065 195.445 314.413 194.397 313.473L194.215 313.323L194.024 313.479C193.651 313.901 193.142 314.177 192.585 314.258C192.029 314.34 191.462 314.222 190.985 313.924C190.757 313.713 190.584 313.449 190.483 313.155C190.383 312.861 190.356 312.546 190.407 312.239C190.651 311.587 191.108 311.038 191.704 310.682C192.301 310.325 193 310.183 193.688 310.277L194.089 310.272L193.973 309.898C193.701 309.2 193.69 308.426 193.942 307.72C194.215 307.202 194.605 306.756 195.081 306.416C195.557 306.077 196.105 305.854 196.683 305.766C197.94 305.459 199.259 305.512 200.488 305.919C201.717 306.326 202.808 307.071 203.636 308.068C204.234 308.733 204.613 309.566 204.722 310.454C204.782 311.231 204.631 312.011 204.283 312.708L204.149 312.988L204.427 313.095C204.872 313.267 205.279 313.526 205.624 313.857C205.968 314.188 206.244 314.585 206.434 315.024C206.539 315.257 206.593 315.511 206.591 315.767C206.59 316.023 206.534 316.276 206.427 316.509L206.386 316.509Z" fill="#4F5558"/>
<path opacity="0.58" d="M200.676 309.409C200.786 309.025 200.356 308.564 199.715 308.38C199.073 308.196 198.465 308.358 198.355 308.742C198.245 309.126 198.676 309.587 199.317 309.771C199.958 309.955 200.567 309.793 200.676 309.409Z" fill="#4F5558"/>
<path opacity="0.58" d="M207.746 310.355L205.593 310.515L205.676 311.636L207.829 311.476L207.746 310.355Z" fill="#4F5558"/>
<path opacity="0.58" d="M206.27 305.37L204.567 306.701L205.257 307.588L206.959 306.256L206.27 305.37Z" fill="#4F5558"/>
<path opacity="0.58" d="M202.288 302.027L201.611 304.083L202.676 304.436L203.353 302.38L202.288 302.027Z" fill="#4F5558"/>
<path opacity="0.58" d="M198.184 301.211L197.103 301.51L197.677 303.597L198.758 303.298L198.184 301.211Z" fill="#4F5558"/>
<path opacity="0.58" d="M193.266 303.086L192.534 303.937L194.168 305.351L194.901 304.5L193.266 303.086Z" fill="#4F5558"/>
<path opacity="0.58" d="M190.196 307.378L190.058 308.493L192.2 308.76L192.338 307.644L190.196 307.378Z" fill="#4F5558"/>
<path opacity="0.58" d="M202.132 312.621C202.372 311.967 202.125 311.273 201.58 311.072C201.035 310.87 200.398 311.238 200.158 311.892C199.917 312.547 200.164 313.24 200.709 313.442C201.255 313.643 201.891 313.276 202.132 312.621Z" fill="#4F5558"/>
<path opacity="0.58" d="M197.238 311.881C197.478 311.226 197.231 310.533 196.686 310.331C196.141 310.13 195.504 310.497 195.264 311.152C195.023 311.806 195.271 312.5 195.816 312.701C196.361 312.903 196.998 312.535 197.238 311.881Z" fill="#4F5558"/>
</g>
<g opacity="0.58">
<path opacity="0.58" d="M240.141 370.811C239.192 369.663 237.914 368.833 236.481 368.434C235.229 368.051 233.896 368.026 232.632 368.364C231.989 368.488 231.384 368.759 230.864 369.156C230.344 369.554 229.922 370.067 229.633 370.655C229.344 371.355 229.292 372.131 229.484 372.864C228.731 372.826 227.987 373.039 227.367 373.47C226.747 373.9 226.287 374.524 226.057 375.244L226.059 375.341L226.585 375.334C226.823 374.68 227.276 374.126 227.87 373.765C228.463 373.403 229.162 373.255 229.851 373.344L230.252 373.339L230.136 372.952C229.859 372.254 229.848 371.478 230.105 370.773C230.367 370.273 230.741 369.84 231.197 369.508C231.653 369.177 232.18 368.956 232.736 368.862C233.989 368.551 235.305 368.597 236.534 368.997C237.763 369.397 238.855 370.133 239.689 371.123C240.268 371.79 240.632 372.617 240.733 373.495C240.794 374.004 240.75 374.52 240.602 375.01L241.155 375.002C241.302 374.497 241.346 373.968 241.286 373.446C241.17 372.474 240.772 371.558 240.141 370.811Z" fill="#C4A53E"/>
<path opacity="0.58" d="M236.295 373.137C236.406 372.754 235.984 372.295 235.352 372.112C234.721 371.928 234.119 372.09 234.009 372.473C233.898 372.856 234.32 373.315 234.952 373.498C235.583 373.682 236.185 373.52 236.295 373.137Z" fill="#C4A53E"/>
<path opacity="0.58" d="M243.792 373.42L241.667 373.578L241.749 374.685L243.874 374.527L243.792 373.42Z" fill="#C4A53E"/>
<path opacity="0.58" d="M242.326 368.493L240.646 369.808L241.327 370.683L243.007 369.369L242.326 368.493Z" fill="#C4A53E"/>
<path opacity="0.58" d="M238.392 365.191L237.724 367.22L238.775 367.568L239.444 365.539L238.392 365.191Z" fill="#C4A53E"/>
<path opacity="0.58" d="M234.337 364.391L233.27 364.687L233.837 366.747L234.904 366.451L234.337 364.391Z" fill="#C4A53E"/>
<path opacity="0.58" d="M229.467 366.229L228.744 367.069L230.357 368.466L231.081 367.625L229.467 366.229Z" fill="#C4A53E"/>
<path opacity="0.58" d="M226.442 370.49L226.305 371.592L228.42 371.855L228.557 370.753L226.442 370.49Z" fill="#C4A53E"/>
<path opacity="0.58" d="M238.333 375.069L236.271 375.098C236.258 375.048 236.257 374.996 236.268 374.946C236.345 374.656 236.532 374.408 236.788 374.254C237.044 374.1 237.35 374.053 237.641 374.121C237.834 374.197 238.002 374.326 238.124 374.494C238.246 374.662 238.319 374.861 238.333 375.069Z" fill="#C4A53E"/>
<path opacity="0.58" d="M233.403 374.945C233.376 375.024 233.34 375.099 233.296 375.169C233.186 375.403 232.998 375.591 232.764 375.701C232.531 375.81 232.267 375.835 232.017 375.77C231.895 375.715 231.786 375.636 231.697 375.537C231.607 375.438 231.539 375.321 231.497 375.195C231.426 375.04 231.389 374.873 231.386 374.703C231.384 374.534 231.417 374.366 231.483 374.209C231.565 373.925 231.754 373.684 232.01 373.535C232.266 373.387 232.568 373.343 232.856 373.413C233.128 373.546 233.338 373.781 233.441 374.067C233.543 374.354 233.53 374.669 233.403 374.945Z" fill="#C4A53E"/>
</g>
<g opacity="0.58">
<path opacity="0.58" d="M249.229 322.606C248.856 321.73 248.17 321.027 247.305 320.634C247.59 319.949 247.708 319.205 247.648 318.464C247.529 317.54 247.141 316.672 246.533 315.968C245.639 314.878 244.435 314.086 243.082 313.699C241.902 313.34 240.645 313.32 239.454 313.64C238.851 313.752 238.282 314 237.788 314.366C237.295 314.731 236.89 315.203 236.605 315.748C236.347 316.407 236.299 317.13 236.468 317.818C235.758 317.797 235.059 318.008 234.478 318.419C233.898 318.83 233.466 319.419 233.248 320.098C233.185 320.479 233.217 320.869 233.343 321.233C233.47 321.598 233.685 321.924 233.97 322.184C234.476 322.528 235.086 322.686 235.695 322.632C236.305 322.578 236.877 322.315 237.315 321.886C238.31 322.731 239.492 323.326 240.763 323.622C242.033 323.918 243.355 323.906 244.62 323.587C244.761 324.157 245.078 324.667 245.526 325.045C245.974 325.422 246.53 325.648 247.114 325.689C247.493 325.723 247.874 325.656 248.219 325.495C248.564 325.333 248.86 325.084 249.077 324.771C249.295 324.458 249.426 324.092 249.458 323.712C249.489 323.332 249.42 322.95 249.257 322.605L249.229 322.606ZM248.781 324.18C248.617 324.488 248.371 324.744 248.07 324.919C247.77 325.095 247.426 325.184 247.079 325.176C246.922 325.184 246.766 325.158 246.621 325.099C246.214 324.968 245.851 324.725 245.575 324.398C245.299 324.071 245.12 323.672 245.058 323.248L245.054 322.956L244.763 322.96C243.525 323.319 242.217 323.362 240.959 323.084C239.653 322.814 238.436 322.221 237.418 321.358L237.236 321.194L237.059 321.363C236.713 321.735 236.251 321.978 235.749 322.054C235.248 322.129 234.735 322.031 234.296 321.777C234.078 321.577 233.913 321.326 233.817 321.046C233.721 320.766 233.697 320.466 233.747 320.174C233.976 319.568 234.404 319.057 234.96 318.727C235.516 318.396 236.168 318.265 236.808 318.354L237.182 318.349L237.066 318.018C236.817 317.353 236.807 316.622 237.037 315.95C237.288 315.476 237.645 315.068 238.08 314.756C238.515 314.444 239.016 314.237 239.545 314.152C240.724 313.86 241.96 313.904 243.116 314.28C244.271 314.656 245.298 315.349 246.08 316.28C246.615 316.916 246.957 317.691 247.067 318.514C247.142 319.248 247.004 319.987 246.668 320.643L246.547 320.881L246.812 320.988C247.647 321.32 248.318 321.969 248.678 322.794C248.79 323.005 248.856 323.238 248.874 323.476C248.892 323.715 248.86 323.955 248.781 324.18Z" fill="#4F5558"/>
<path opacity="0.58" d="M242.903 318.151C243.007 317.791 242.609 317.358 242.015 317.185C241.42 317.013 240.853 317.165 240.749 317.526C240.645 317.886 241.042 318.319 241.637 318.492C242.232 318.664 242.798 318.512 242.903 318.151Z" fill="#4F5558"/>
<path opacity="0.58" d="M250.007 318.411L247.992 318.561L248.069 319.598L250.084 319.449L250.007 318.411Z" fill="#4F5558"/>
<path opacity="0.58" d="M248.619 313.752L247.026 314.998L247.664 315.819L249.258 314.573L248.619 313.752Z" fill="#4F5558"/>
<path opacity="0.58" d="M244.894 310.638L244.26 312.562L245.245 312.888L245.879 310.964L244.894 310.638Z" fill="#4F5558"/>
<path opacity="0.58" d="M241.059 309.884L240.059 310.161L240.596 312.114L241.597 311.838L241.059 309.884Z" fill="#4F5558"/>
<path opacity="0.58" d="M236.457 311.616L235.779 312.404L237.309 313.728L237.987 312.94L236.457 311.616Z" fill="#4F5558"/>
<path opacity="0.58" d="M233.599 315.638L233.469 316.685L235.475 316.934L235.604 315.888L233.599 315.638Z" fill="#4F5558"/>
<path opacity="0.58" d="M244.211 321.2C244.436 320.591 244.208 319.944 243.7 319.755C243.193 319.566 242.599 319.907 242.373 320.516C242.148 321.125 242.377 321.772 242.884 321.961C243.392 322.15 243.986 321.809 244.211 321.2Z" fill="#4F5558"/>
<path opacity="0.58" d="M240.179 319.851C240.404 319.239 240.173 318.591 239.663 318.403C239.154 318.215 238.559 318.558 238.335 319.169C238.11 319.781 238.341 320.429 238.85 320.617C239.36 320.805 239.954 320.462 240.179 319.851Z" fill="#4F5558"/>
</g>
<g opacity="0.58">
<path opacity="0.58" d="M158.879 285.136C158.555 284.368 157.953 283.751 157.193 283.411C157.448 282.81 157.553 282.156 157.499 281.505C157.4 280.678 157.056 279.9 156.512 279.271C155.735 278.353 154.704 277.687 153.55 277.356C153.504 277.511 153.469 277.669 153.446 277.83C154.515 278.112 155.465 278.731 156.156 279.595C156.636 280.157 156.94 280.848 157.029 281.582C157.093 282.224 156.972 282.871 156.682 283.446L156.574 283.67L156.797 283.75C157.165 283.893 157.501 284.108 157.785 284.383C158.07 284.658 158.296 284.987 158.453 285.35C158.617 285.735 158.624 286.169 158.47 286.558C158.326 286.829 158.11 287.054 157.846 287.21C157.582 287.366 157.28 287.445 156.974 287.439C156.832 287.462 156.687 287.464 156.545 287.445C156.183 287.3 155.869 287.055 155.639 286.739C155.41 286.424 155.273 286.049 155.246 285.659L155.242 285.396L154.979 285.4C154.002 285.675 152.974 285.718 151.977 285.525C151.867 285.54 151.756 285.542 151.645 285.53C151.581 285.539 151.516 285.54 151.451 285.533C151.44 285.69 151.443 285.848 151.458 286.005L151.597 286.003C151.718 286.041 151.844 286.063 151.971 286.067C152.951 286.26 153.959 286.245 154.933 286.025C155.044 286.529 155.316 286.983 155.708 287.318C156.1 287.653 156.59 287.851 157.105 287.882C157.506 287.893 157.903 287.789 158.248 287.583C158.593 287.376 158.872 287.076 159.054 286.716C159.206 286.187 159.143 285.619 158.879 285.136Z" fill="#4F5558"/>
<path opacity="0.58" d="M153.287 281.218C153.29 281.454 152.918 281.598 152.558 281.576C152.65 281.199 152.714 280.838 152.792 280.49C153.154 280.651 153.38 280.967 153.287 281.218Z" fill="#4F5558"/>
<path opacity="0.58" d="M159.55 281.453L157.783 281.584L157.852 282.511L159.618 282.38L159.55 281.453Z" fill="#4F5558"/>
<path opacity="0.58" d="M158.342 277.353L156.945 278.445L157.515 279.179L158.912 278.086L158.342 277.353Z" fill="#4F5558"/>
<path opacity="0.58" d="M155.056 274.582L154.495 276.282L155.376 276.574L155.936 274.874L155.056 274.582Z" fill="#4F5558"/>
<path opacity="0.58" d="M154.946 283.327C155.144 282.787 154.938 282.215 154.487 282.048C154.035 281.881 153.508 282.183 153.31 282.723C153.112 283.262 153.317 283.835 153.769 284.001C154.221 284.168 154.748 283.866 154.946 283.327Z" fill="#4F5558"/>
</g>
<g style="mix-blend-mode:multiply" opacity="0.34">
<path d="M176.073 376.065C173.9 376.096 171.741 376.126 169.569 376.157L167.548 295.202L176.073 376.065Z" fill="#2F597C"/>
</g>
<g style="mix-blend-mode:multiply" opacity="0.34">
<path d="M240.576 294.166L240.865 375.021L236.27 375.086C235.62 375.095 234.997 375.104 234.361 375.113L240.576 294.166Z" fill="#2F597C"/>
</g>
<g style="mix-blend-mode:multiply" opacity="0.49">
<path d="M209.428 248.002L196.877 247.264C191.842 248.473 170.905 253.711 170.045 259.441C169.996 259.62 169.983 259.806 170.007 259.989C170.031 260.172 170.091 260.349 170.184 260.508C171.752 262.679 181.193 255.98 193.95 253.606C195.767 255.884 198.772 259.825 204.128 258.847C205.819 258.587 207.44 257.992 208.899 257.097C210.357 256.202 211.623 255.024 212.622 253.633C226.292 256.104 235.804 263.13 237.949 260.213C238.101 260.019 238.198 259.787 238.23 259.543C238.649 255.901 222.903 251.391 209.428 248.002Z" fill="#FFCE31"/>
</g>
<path d="M196.357 245.731C196.173 245.46 196.091 245.133 196.124 244.808C196.158 244.482 196.305 244.179 196.54 243.951C196.759 243.808 197.015 243.729 197.277 243.726C197.539 243.722 197.797 243.793 198.02 243.93C198.328 244.127 198.559 244.424 198.675 244.771C198.791 245.118 198.784 245.494 198.656 245.837C198.831 244.516 200.012 243.819 200.652 244.032C201.06 244.233 201.378 244.579 201.545 245.002C201.713 245.426 201.717 245.897 201.556 246.323C201.518 245.9 201.634 245.477 201.884 245.134C202.134 244.79 202.5 244.55 202.914 244.458C203.112 244.449 203.309 244.489 203.489 244.574C203.668 244.658 203.825 244.785 203.945 244.943C204.396 245.505 204.158 246.328 204.283 246.326C204.408 246.324 204.438 245.533 204.987 245.178C205.167 245.091 205.365 245.044 205.566 245.041C205.767 245.038 205.966 245.079 206.149 245.161C206.414 245.281 206.64 245.474 206.8 245.717C206.961 245.961 207.049 246.245 207.054 246.536C207.114 246.182 207.26 245.847 207.477 245.561C207.695 245.275 207.979 245.046 208.305 244.895C208.501 244.804 208.715 244.755 208.932 244.752C209.149 244.749 209.364 244.791 209.564 244.877C209.826 245.085 210.015 245.372 210.104 245.695C210.193 246.018 210.178 246.361 210.06 246.674C210.614 248.651 211.154 250.628 211.708 252.619C210.658 253.812 209.374 254.775 207.935 255.448C206.496 256.12 204.935 256.487 203.348 256.526C201.599 256.498 199.878 256.078 198.313 255.295C196.747 254.513 195.376 253.389 194.301 252.005L196.357 245.731Z" fill="#8D9397"/>
<g style="mix-blend-mode:multiply" opacity="0.27">
<path d="M172.756 230.048C175.847 233.308 182.55 237.446 189.258 240.015C177.131 236.856 166.399 229.737 158.755 219.782C158.755 219.782 171.205 226.087 171.967 228.061C172.728 230.035 167.136 224.16 172.756 230.048Z" fill="#8D4F26"/>
</g>
<g style="mix-blend-mode:multiply" opacity="0.27">
<path d="M248.537 219.175C243.377 226.104 236.696 231.75 229.011 235.676C221.326 239.602 212.843 241.703 204.219 241.816C212.857 238.918 220.259 239.673 232.451 231.7C244.643 223.727 243.482 217.998 246.105 218.474C246.933 218.644 247.746 218.878 248.537 219.175Z" fill="#8D4F26"/>
</g>
<g clip-path="url(#clip1_1440_23081)">
<g filter="url(#filter1_d_1440_23081)">
<path d="M156.12 374.031L35.965 372.808C35.6095 369.697 35.5388 366.561 35.7538 363.437C35.8019 361.695 35.9696 359.877 36.1993 357.944C36.4805 354.856 36.9454 351.499 37.4347 347.967C37.7193 346.172 38.005 344.338 38.3315 342.447C38.8905 339.229 39.4728 335.876 40.1345 332.485C40.4784 330.672 40.8434 328.801 41.2265 326.99C41.8865 323.658 42.5667 320.307 43.3035 317.036C43.7294 315.088 44.1103 313.355 44.5134 311.524C45.273 308.136 46.0706 304.788 46.747 301.574C47.1729 299.627 47.6136 297.856 48.0744 296.066C48.897 292.523 49.7533 289.177 50.5233 286.122C51.0079 284.177 51.4926 282.231 51.9284 280.636C53.9226 272.972 55.3284 268.171 55.3284 268.171L84.5085 251.344C89.0514 253.498 94.0273 254.583 99.0544 254.515C104.081 254.446 109.026 253.227 113.509 250.95L139.98 264.122C141.607 270.476 143.207 276.842 144.78 283.22C145.278 285.056 145.756 286.911 146.194 288.784C147.041 292.152 147.882 295.512 148.716 298.866C149.213 300.721 149.691 302.576 150.129 304.45L152.672 314.512C152.953 315.656 153.256 316.761 153.518 317.905C153.498 318.629 153.479 319.334 153.615 320.083C153.758 323.417 153.901 326.752 154.082 330.107C154.169 331.932 154.234 333.814 154.321 335.639C154.464 338.993 154.646 342.329 154.789 345.663C154.875 347.507 154.941 349.37 155.066 351.216C155.209 354.55 155.351 357.904 155.514 361.24L155.773 366.752C155.882 369.185 156.031 371.599 156.12 374.031Z" fill="#D08B63"/>
<path d="M53.3807 176.993C53.3807 176.993 41.5644 173.63 48.9203 161.902C48.9203 161.902 41.6534 147.007 55.6324 142.279C55.6324 142.279 59.9936 130.468 69.6669 134.83C69.6669 134.83 72.8873 121.067 83.3604 126.254C83.3604 126.254 94.0582 113.384 103.862 125.782C103.862 125.782 116.52 119.941 119.323 129.814C119.323 129.814 130.422 128.632 131.401 137.182C131.401 137.182 144.559 137.329 142.827 148.998C142.827 148.998 152.357 150.75 149.583 158.981C149.583 158.981 161.924 166.767 154.231 175.077C154.231 175.077 160.743 182.545 151.707 184.196L53.3807 176.993Z" fill="#231F20"/>
<path d="M163.11 188.331C162.686 190.161 161.644 191.788 160.16 192.939C158.676 194.09 156.841 194.694 154.963 194.65C154.149 194.619 153.346 194.451 152.588 194.153L152.576 194.584C152.505 197.464 152.144 200.329 151.497 203.136C147.539 220.914 132.99 234.932 114.378 239.336C113.53 239.548 112.702 239.721 111.856 239.874C111.009 240.027 110.124 240.159 109.221 240.232C106.247 240.672 103.241 240.864 100.234 240.807C72.3236 240.036 50.1964 218.519 50.4833 192.528C50.4974 192.019 50.5055 191.726 50.5055 191.726L50.5082 191.628C50.0371 191.728 49.5561 191.774 49.0745 191.764C47.2222 191.675 45.4556 190.957 44.0655 189.729C42.6753 188.501 41.7445 186.837 41.4261 185.009C41.1 183.148 41.4962 181.232 42.5339 179.652C42.917 179.125 43.4187 178.696 43.9984 178.399C45.3007 177.824 46.7731 177.767 48.1162 178.239C49.5925 178.707 50.9481 179.494 52.0876 180.543L52.0849 180.641C58.1253 159.805 78.7531 144.838 102.827 145.503C126.902 146.168 147.15 162.675 151.632 184.076C153 182.651 154.737 181.635 156.649 181.139C158.01 180.743 159.47 180.881 160.732 181.526C161.748 182.306 162.513 183.365 162.936 184.574C163.358 185.783 163.419 187.088 163.11 188.331Z" fill="#8D4F26"/>
<path d="M146.755 184.059L146.481 184.051C145.711 184.088 144.946 183.915 144.266 183.551C143.586 183.187 143.018 182.646 142.621 181.985L136.177 170.62C135.62 169.633 134.697 168.904 133.608 168.59L97.2383 158.514C96.4338 158.295 95.5834 158.313 94.7885 158.564L66.1743 167.668C65.4985 167.878 64.8869 168.256 64.3967 168.767C63.9065 169.278 63.5536 169.904 63.3709 170.588L61.0339 179.32C60.8632 179.935 60.5569 180.504 60.1377 180.985C59.7184 181.465 59.1967 181.846 58.611 182.099C58.0253 182.351 57.3904 182.469 56.7531 182.444C56.1158 182.419 55.4922 182.251 54.9282 181.954C54.0097 181.462 53.3036 180.65 52.9442 179.672C52.5849 178.694 52.5972 177.618 52.9788 176.649C60.2195 157.746 79.9961 144.519 102.818 145.15C125.326 145.771 144.138 159.692 150.59 178.542C150.793 179.161 150.849 179.818 150.754 180.462C150.66 181.107 150.417 181.72 150.046 182.255C149.674 182.79 149.183 183.231 148.612 183.544C148.041 183.857 147.406 184.033 146.755 184.059Z" fill="#231F20"/>
<path d="M81.0788 199.643C86.8404 199.802 91.611 196.311 91.7343 191.845C91.8577 187.38 87.287 183.631 81.5255 183.472C75.7639 183.313 70.9933 186.804 70.8699 191.269C70.7466 195.735 75.3173 199.484 81.0788 199.643Z" fill="white"/>
<path d="M81.3331 199.65C85.2138 199.757 88.4466 196.697 88.5538 192.816C88.6611 188.934 85.6021 185.701 81.7214 185.593C77.8407 185.486 74.6079 188.546 74.5007 192.428C74.3935 196.309 77.4525 199.543 81.3331 199.65Z" fill="#231F20"/>
<path d="M121.516 200.761C127.277 200.92 132.048 197.429 132.171 192.964C132.294 188.498 127.724 184.749 121.962 184.59C116.201 184.431 111.43 187.922 111.307 192.387C111.183 196.853 115.754 200.602 121.516 200.761Z" fill="white"/>
<path d="M121.946 200.772C125.827 200.879 129.06 197.82 129.167 193.938C129.274 190.056 126.215 186.823 122.335 186.716C118.454 186.608 115.221 189.668 115.114 193.55C115.007 197.431 118.066 200.665 121.946 200.772Z" fill="#231F20"/>
<path d="M69.8233 180.23C69.8455 179.427 73.4507 176.548 79.4882 175.677C81.5465 175.382 83.6343 175.354 85.6997 175.594C85.913 175.7 86.1 175.851 86.2473 176.039C86.3945 176.226 86.4984 176.443 86.5513 176.675C86.5595 176.914 86.5129 177.151 86.4152 177.369C86.3176 177.587 86.1713 177.78 85.9877 177.933C84.6358 179.365 81.6441 177.049 78.1543 177.873C75.3556 178.502 71.5181 181.276 70.5612 181.171C70.3571 181.153 70.1656 181.065 70.0197 180.921C69.9423 180.825 69.885 180.714 69.8513 180.595C69.8176 180.476 69.808 180.352 69.8233 180.23Z" fill="#231F20"/>
<path d="M130.172 180.936C130.057 180.149 126.351 177.461 120.273 176.96C118.198 176.777 116.107 176.871 114.056 177.239C113.853 177.359 113.677 177.52 113.54 177.712C113.404 177.904 113.309 178.122 113.261 178.353C113.275 178.594 113.339 178.829 113.447 179.045C113.556 179.26 113.708 179.451 113.893 179.605C115.345 180.938 118.195 178.45 121.743 179.058C124.57 179.547 128.574 182.068 129.5 181.897C129.702 181.875 129.887 181.774 130.017 181.618C130.091 181.523 130.144 181.412 130.17 181.294C130.197 181.177 130.198 181.054 130.172 180.936Z" fill="#231F20"/>
<path d="M96.3437 199.419C94.3599 200.324 92.9911 201.658 93.0256 203.246C93.0026 204.104 93.2018 204.953 93.6039 205.711C94.0898 206.611 94.7306 207.417 95.4968 208.095C94.2664 207.995 93.1224 207.423 92.3044 206.498C91.4865 205.573 91.0581 204.368 91.1091 203.134C91.1251 202.476 91.3069 201.832 91.6376 201.262C91.9683 200.692 92.4373 200.215 93.0012 199.875C93.4944 199.567 94.0473 199.367 94.6235 199.288C95.1997 199.21 95.786 199.254 96.3437 199.419Z" fill="#231F20"/>
<path d="M95.83 218.016C97.2566 217.98 98.677 217.816 100.074 217.526C101.391 217.233 102.671 216.796 103.891 216.221C105.121 215.631 106.295 214.929 107.396 214.124C107.975 213.748 108.497 213.272 109.077 212.857C109.656 212.442 110.16 211.908 110.78 211.455C110.252 212.884 109.443 214.194 108.402 215.307C107.365 216.446 106.115 217.37 104.722 218.027C103.311 218.679 101.782 219.037 100.227 219.078C98.693 219.124 97.1743 218.758 95.83 218.016Z" fill="#231F20"/>
<g style="mix-blend-mode:multiply" opacity="0.28">
<path d="M77.5293 202.621C77.5293 202.621 83.3227 198.53 86.2566 200.1C89.1906 201.67 77.5293 202.621 77.5293 202.621Z" fill="#8D4F26"/>
</g>
<g style="mix-blend-mode:multiply" opacity="0.28">
<path d="M126.334 204.322C126.334 204.322 120.776 199.897 117.759 201.303C114.743 202.709 126.334 204.322 126.334 204.322Z" fill="#8D4F26"/>
</g>
<path d="M105.269 236.518L95.0525 236.235L94.5647 253.894L104.782 254.176L105.269 236.518Z" fill="#8D4F26"/>
<path d="M111.816 239.912C110.95 240.065 110.065 240.177 109.181 240.271C110.047 240.138 110.949 240.084 111.816 239.912Z" fill="#8D4F26"/>
<g style="mix-blend-mode:multiply" opacity="0.28">
<path d="M109.181 240.27C106.207 240.712 103.201 240.904 100.194 240.845C72.2836 240.074 50.1564 218.558 50.4434 192.566C50.7127 197.707 53.6631 225.629 89.3886 237.764C95.7232 240.038 102.48 240.894 109.181 240.27Z" fill="#8D4F26"/>
</g>
<g style="mix-blend-mode:multiply" opacity="0.28">
<path d="M151.456 203.194C147.498 220.973 132.949 234.991 114.337 239.394C137.447 233.841 149.706 209.121 151.456 203.194Z" fill="#8D4F26"/>
</g>
<path d="M93.4049 249.082C94.0844 249.858 94.9105 250.492 95.8357 250.948C96.761 251.404 97.7671 251.673 98.7964 251.739C101.01 251.625 103.14 250.852 104.91 249.517C107.025 248.126 107.625 246.986 109.27 246.973C110.301 246.994 111.291 247.383 112.061 248.069C112.89 248.815 113.413 249.841 113.528 250.95C111.957 253.277 109.87 255.209 107.43 256.596C104.989 257.983 102.262 258.788 99.4592 258.947C96.542 258.962 93.6636 258.279 91.0632 256.957C88.4628 255.634 86.2156 253.71 84.5084 251.344C84.657 250.659 84.941 250.01 85.3437 249.435C85.7463 248.861 86.2596 248.373 86.8534 248C87.9173 247.454 89.1281 247.265 90.3076 247.46C91.4871 247.655 92.5728 248.223 93.4049 249.082Z" fill="#231F20"/>
<path d="M134.872 275.325L61.8657 273.309L61.7127 278.849L134.719 280.865L134.872 275.325Z" fill="#FFECD5"/>
<path d="M146.194 288.764L136.76 288.503L136.913 282.982L144.742 283.199C145.279 285.036 145.756 286.89 146.194 288.764Z" fill="#FFECD5"/>
<path d="M150.13 304.43L138.034 304.096L138.187 298.556L148.717 298.847C149.136 300.7 149.692 302.557 150.13 304.43Z" fill="#FFECD5"/>
<path d="M153.634 320.083L137.604 319.64L137.757 314.1L152.672 314.512C152.953 315.656 153.256 316.761 153.518 317.905C153.576 318.631 153.596 319.337 153.634 320.083Z" fill="#FFECD5"/>
<path d="M154.343 335.56L137.178 335.086L137.33 329.565L154.202 330.031C154.149 331.93 154.254 333.814 154.343 335.56Z" fill="#FFECD5"/>
<path d="M155.085 351.255L136.745 350.748L136.898 345.208L154.807 345.703C154.894 347.508 154.963 349.292 155.085 351.255Z" fill="#FFECD5"/>
<path d="M155.793 366.752L136.318 366.214L136.47 360.713L155.534 361.239L155.793 366.752Z" fill="#FFECD5"/>
<path d="M59.5808 280.847L59.4283 286.368L50.6402 286.125C51.1249 284.179 51.6096 282.234 52.0454 280.639L59.5808 280.847Z" fill="#FFECD5"/>
<path d="M60.7963 296.417L60.6433 301.958L46.9424 301.579C47.3684 299.632 47.809 297.861 48.2698 296.071L60.7963 296.417Z" fill="#FFECD5"/>
<path d="M60.367 311.962L60.2139 317.502L43.3423 317.036C43.7683 315.089 44.1491 313.356 44.5523 311.525L60.367 311.962Z" fill="#FFECD5"/>
<path d="M59.9376 327.507L59.7873 332.949L40.2147 332.409C40.5586 330.596 40.9236 328.725 41.3067 326.914L59.9376 327.507Z" fill="#FFECD5"/>
<path d="M59.5089 343.031L59.3548 348.611L37.4726 348.006C37.7572 346.212 38.0429 344.378 38.3694 342.486L59.5089 343.031Z" fill="#FFECD5"/>
<path d="M59.0795 358.576L58.9275 364.077L35.7536 363.437C35.8017 361.694 35.9694 359.877 36.1991 357.944L59.0795 358.576Z" fill="#FFECD5"/>
<path d="M134.914 292.92L61.9082 290.903L61.7552 296.444L134.761 298.46L134.914 292.92Z" fill="#FFECD5"/>
<path d="M134.957 310.534L61.9509 308.518L61.7979 314.058L134.804 316.074L134.957 310.534Z" fill="#FFECD5"/>
<path d="M135 328.13L61.9937 326.113L61.8406 331.654L134.846 333.67L135 328.13Z" fill="#FFECD5"/>
<path d="M135.042 345.745L62.0359 343.729L61.8829 349.269L134.889 351.285L135.042 345.745Z" fill="#FFECD5"/>
<path d="M135.084 363.359L62.0784 361.343L61.9253 366.883L134.931 368.9L135.084 363.359Z" fill="#FFECD5"/>
<g style="mix-blend-mode:multiply" opacity="0.31">
<path d="M134.872 275.325C134.872 275.325 142.217 315.026 140.192 335.17L138.183 355.412L136.245 368.838L134.872 275.325Z" fill="#D08B63"/>
</g>
<g style="mix-blend-mode:multiply" opacity="0.31">
<path d="M62.3392 273.184C62.3392 273.184 54.8576 312.868 56.7667 333.101L58.6949 353.353L60.5765 366.787L62.3392 273.184Z" fill="#D08B63"/>
</g>
<g style="mix-blend-mode:screen">
<path d="M95.6199 202.219C96.5003 202.969 98.5755 203.006 98.6537 202.303C98.7319 201.6 97.5183 200.861 96.4168 201.027C96.0058 201.015 95.3697 201.35 95.36 201.703C95.3503 202.055 95.3519 201.996 95.6199 202.219Z" fill="#8D4F26"/>
</g>
<g style="mix-blend-mode:multiply" opacity="0.28">
<path d="M52.133 181.035L49.8062 185.849C49.8062 185.849 48.6962 179.941 44.0966 179.814C43.5705 179.844 43.0429 179.79 42.5341 179.653C42.9172 179.126 43.4189 178.697 43.9986 178.4C45.3009 177.825 46.7733 177.768 48.1164 178.24C49.5927 178.708 50.9483 179.494 52.0878 180.544L52.133 181.035Z" fill="#8D4F26"/>
</g>
<g style="mix-blend-mode:multiply" opacity="0.28">
<path d="M151.503 183.779L153.58 188.715C153.58 188.715 154.995 182.876 159.614 183.004C160.117 183.029 160.621 182.977 161.107 182.849C160.761 182.296 160.282 181.838 159.714 181.517C158.452 180.873 156.992 180.734 155.631 181.13C154.128 181.508 152.729 182.219 151.539 183.212L151.503 183.779Z" fill="#8D4F26"/>
</g>
<path d="M75.4881 287.293C79.7472 287.411 83.2951 284.053 83.4128 279.793C83.5305 275.533 80.1733 271.984 75.9143 271.866C71.6552 271.749 68.1072 275.107 67.9896 279.367C67.8719 283.627 71.2291 287.176 75.4881 287.293Z" fill="#FFECD5"/>
</g>
<path d="M77.2989 206.617C73.7297 206.039 70.4125 204.413 67.7667 201.944C65.121 199.476 63.2655 196.275 62.435 192.748C61.6045 189.22 61.8362 185.524 63.1008 182.127C64.3655 178.729 66.6062 175.783 69.5398 173.662C72.4733 171.54 75.9679 170.337 79.5816 170.205C83.1952 170.074 86.7657 171.02 89.8414 172.923C92.9172 174.827 95.3601 177.602 96.8612 180.899C98.3624 184.196 98.8543 187.866 98.2748 191.445C97.4926 196.241 94.8449 200.532 90.9125 203.377C86.9801 206.221 82.0842 207.386 77.2989 206.617ZM82.9976 171.422C79.6343 170.877 76.1847 171.344 73.0845 172.764C69.9843 174.184 67.3725 176.493 65.5793 179.399C63.786 182.305 62.8916 185.678 63.0091 189.092C63.1266 192.506 64.2508 195.807 66.2395 198.579C68.2282 201.351 70.9923 203.469 74.1826 204.666C77.3729 205.863 80.8462 206.085 84.1638 205.304C87.4815 204.522 90.4945 202.773 92.8223 200.276C95.1501 197.78 96.6883 194.648 97.2424 191.277C97.9664 186.754 96.8731 182.129 94.2019 178.415C91.5307 174.701 87.4994 172.201 82.9909 171.463L82.9976 171.422Z" fill="#EDD8A2"/>
<path d="M119.214 213.405C115.643 212.833 112.322 211.211 109.671 208.745C107.021 206.28 105.16 203.081 104.325 199.553C103.49 196.025 103.717 192.327 104.979 188.927C106.24 185.527 108.479 182.578 111.412 180.453C114.344 178.328 117.839 177.122 121.454 176.988C125.069 176.854 128.642 177.799 131.719 179.701C134.797 181.604 137.242 184.38 138.744 187.678C140.246 190.975 140.739 194.647 140.159 198.227C139.378 203.018 136.735 207.305 132.81 210.15C128.884 212.994 123.996 214.165 119.214 213.405ZM124.913 178.209C121.549 177.658 118.098 178.119 114.994 179.535C111.89 180.95 109.274 183.256 107.476 186.161C105.678 189.066 104.779 192.439 104.893 195.854C105.007 199.27 106.128 202.574 108.115 205.349C110.102 208.124 112.865 210.245 116.056 211.444C119.247 212.644 122.721 212.868 126.041 212.088C129.36 211.307 132.375 209.558 134.704 207.061C137.033 204.564 138.573 201.432 139.127 198.06C139.853 193.541 138.764 188.92 136.099 185.208C133.434 181.495 129.409 178.993 124.906 178.25L124.913 178.209Z" fill="#EDD8A2"/>
<path d="M98.0752 190.913L97.6928 189.937C97.8971 189.853 102.815 187.941 105.185 191.235L104.335 191.841C102.439 189.218 98.1199 190.898 98.0752 190.913Z" fill="#EDD8A2"/>
</g>
<defs>
<filter id="filter0_d_1440_23081" x="65.1841" y="-2.01562" width="179.475" height="348.659" filterUnits="userSpaceOnUse" color-interpolation-filters="sRGB">
<feFlood flood-opacity="0" result="BackgroundImageFix"/>
<feColorMatrix in="SourceAlpha" type="matrix" values="0 0 0 0 0 0 0 0 0 0 0 0 0 0 0 0 0 0 127 0" result="hardAlpha"/>
<feOffset dx="4"/>
<feGaussianBlur stdDeviation="2"/>
<feComposite in2="hardAlpha" operator="out"/>
<feColorMatrix type="matrix" values="0 0 0 0 0 0 0 0 0 0 0 0 0 0 0 0 0 0 0.25 0"/>
<feBlend mode="normal" in2="BackgroundImageFix" result="effect1_dropShadow_1440_23081"/>
<feBlend mode="normal" in="SourceGraphic" in2="effect1_dropShadow_1440_23081" result="shape"/>
</filter>
<filter id="filter1_d_1440_23081" x="35.6323" y="116.392" width="135.672" height="261.639" filterUnits="userSpaceOnUse" color-interpolation-filters="sRGB">
<feFlood flood-opacity="0" result="BackgroundImageFix"/>
<feColorMatrix in="SourceAlpha" type="matrix" values="0 0 0 0 0 0 0 0 0 0 0 0 0 0 0 0 0 0 127 0" result="hardAlpha"/>
<feOffset dx="4"/>
<feGaussianBlur stdDeviation="2"/>
<feComposite in2="hardAlpha" operator="out"/>
<feColorMatrix type="matrix" values="0 0 0 0 0 0 0 0 0 0 0 0 0 0 0 0 0 0 0.25 0"/>
<feBlend mode="normal" in2="BackgroundImageFix" result="effect1_dropShadow_1440_23081"/>
<feBlend mode="normal" in="SourceGraphic" in2="effect1_dropShadow_1440_23081" result="shape"/>
</filter>
<clipPath id="clip0_1440_23081">
<rect width="164.624" height="341.113" fill="white" transform="translate(74.4185) rotate(1.58217)"/>
</clipPath>
<clipPath id="clip1_1440_23081">
<rect width="122.571" height="253.977" fill="white" transform="translate(42.5076 118.915) rotate(1.58217)"/>
</clipPath>
</defs>
</svg>
