<svg width="301" height="354" viewBox="0 0 301 354" fill="none" xmlns="http://www.w3.org/2000/svg">
<path d="M105.876 225.011C134.61 224.388 162.225 222.235 191.123 222.014C213.661 221.841 236.342 221.66 258.862 221.66C266.702 221.66 269.214 222.666 269.214 224.992C269.214 226.092 270.095 227.652 268.511 228.677C262.805 232.371 250.801 233.825 239.179 235.564C223.678 237.885 205.779 238.892 189.206 240.422C170.9 242.113 153.965 245.296 136.294 247.496C129.629 248.325 122.575 248.913 116.1 249.878C113.168 250.315 111.072 251.032 108.176 251.479C105.238 251.932 102.062 253.449 107.665 253.489C149.062 253.787 190.611 252.38 231.894 253.675C244.322 254.065 255.988 254.29 266.338 256.523C278.132 259.068 274.712 264.432 267.744 267.561C252.377 274.461 218.582 276.606 193.296 278.692C177.314 280.01 163.815 280.292 147.158 280.292C131.844 280.292 114.052 281.125 99.677 279.287C94.2588 278.594 86.0563 277.14 83.5733 275.453C78.5682 272.051 94.8739 271.036 102.808 270.576C124.341 269.327 149.886 267.799 171.952 268.975C181.301 269.474 190.486 270.3 199.687 270.986C229.785 273.228 260.899 271.734 283.273 279.027C299.423 284.291 242.298 289.814 233.747 290.511C202.807 293.034 170.11 292.667 138.658 294.532C125.778 295.295 112.476 296.579 99.2297 296.43C83.3662 296.252 67.7422 295.241 51.877 295.053C48.918 295.018 40.8462 294.713 45.3588 293.117C52.1624 290.711 68.4371 289.492 77.758 288.408C101.754 285.616 126.187 283.729 151.503 282.303C167.56 281.398 182.953 279.725 198.92 278.692C207.708 278.123 215.139 276.553 222.82 275.229C241.473 272.015 258.584 268.094 277.521 265.029C282.501 264.224 289.939 263.54 295.67 263.54" stroke="#D0D0D0" stroke-width="10" stroke-linecap="round"/>
<path d="M69.9039 273.331C100.053 272.678 129.027 270.419 159.348 270.186C182.996 270.005 206.793 269.815 230.421 269.815C238.648 269.815 241.283 270.871 241.283 273.311C241.283 274.466 242.207 276.103 240.546 277.178C234.558 281.054 221.964 282.579 209.77 284.404C193.505 286.839 174.726 287.895 157.337 289.501C138.129 291.275 120.361 294.614 101.82 296.923C94.8263 297.793 87.4255 298.41 80.6319 299.422C77.5553 299.881 75.356 300.634 72.3177 301.102C69.2353 301.577 65.902 303.169 71.7813 303.211C115.216 303.524 158.811 302.048 202.126 303.407C215.166 303.816 227.406 304.051 238.266 306.395C250.64 309.064 247.052 314.693 239.741 317.976C223.618 325.216 188.159 327.467 161.628 329.654C144.859 331.037 130.695 331.334 113.218 331.334C97.1509 331.334 78.483 332.208 63.4001 330.279C57.7151 329.552 49.1089 328.027 46.5036 326.256C41.2521 322.687 58.3605 321.623 66.6855 321.139C89.2788 319.829 116.081 318.225 139.233 319.46C149.042 319.983 158.679 320.85 168.333 321.569C199.914 323.922 232.559 322.354 256.034 330.006C272.979 335.529 213.042 341.324 204.071 342.056C171.608 344.703 137.301 344.318 104.3 346.274C90.7861 347.075 76.829 348.422 62.9307 348.266C46.2863 348.08 29.8932 347.019 13.2469 346.821C10.1422 346.784 1.67306 346.465 6.40779 344.79C13.5464 342.265 30.6222 340.987 40.402 339.849C65.5797 336.919 91.2154 334.94 117.777 333.443C134.625 332.494 150.776 330.739 167.528 329.654C176.75 329.058 184.546 327.411 192.605 326.022C212.177 322.649 230.129 318.535 250 315.32C255.224 314.474 263.028 313.757 269.042 313.757" stroke="#D0D0D0" stroke-width="10" stroke-linecap="round"/>
<g clip-path="url(#clip0_9849_186932)">
<g filter="url(#filter0_d_9849_186932)">
<path d="M217.021 342.643L55.6418 341.001C55.1642 336.823 55.0693 332.61 55.358 328.415C55.4227 326.075 55.6479 323.634 55.9564 321.037C56.3341 316.89 56.9584 312.381 57.6157 307.636C57.9979 305.226 58.3817 302.763 58.8201 300.223C59.5709 295.901 60.353 291.397 61.2417 286.843C61.7036 284.408 62.1939 281.896 62.7083 279.463C63.5949 274.988 64.5084 270.487 65.4979 266.093C66.07 263.478 66.5815 261.15 67.123 258.691C68.1432 254.141 69.2144 249.644 70.1229 245.327C70.695 242.712 71.2868 240.334 71.9057 237.93C73.0105 233.171 74.1607 228.677 75.1948 224.574C75.8457 221.961 76.4967 219.347 77.082 217.206C79.7603 206.912 81.6484 200.464 81.6484 200.464L120.84 177.864C126.941 180.757 133.625 182.214 140.376 182.122C147.128 182.03 153.769 180.393 159.79 177.335L195.343 195.026C197.528 203.56 199.677 212.11 201.79 220.676C202.459 223.142 203.1 225.633 203.689 228.15C204.826 232.672 205.956 237.185 207.077 241.69C207.744 244.182 208.386 246.673 208.974 249.189L212.389 262.704C212.768 264.24 213.174 265.725 213.526 267.261C213.499 268.234 213.473 269.181 213.656 270.186C213.848 274.664 214.04 279.143 214.283 283.649C214.4 286.1 214.488 288.628 214.604 291.079C214.796 295.584 215.04 300.064 215.232 304.543C215.348 307.02 215.437 309.522 215.605 312C215.797 316.479 215.988 320.984 216.207 325.463L216.555 332.867C216.701 336.134 216.901 339.376 217.021 342.643Z" fill="#00615D"/>
<path d="M79.0326 78.0049C79.0326 78.0049 63.1622 73.4878 73.0418 57.7353C73.0418 57.7353 63.2818 37.73 82.0568 31.3806C82.0568 31.3806 87.9143 15.517 100.906 21.3756C100.906 21.3756 105.232 2.89086 119.298 9.85795C119.298 9.85795 133.666 -7.42836 146.833 9.22386C146.833 9.22386 163.835 1.37815 167.599 14.6392C167.599 14.6392 182.506 13.0511 183.82 24.5341C183.82 24.5341 201.494 24.7328 199.167 40.4045C199.167 40.4045 211.966 42.7579 208.241 53.8122C208.241 53.8122 224.815 64.2694 214.484 75.4308C214.484 75.4308 223.23 85.4613 211.094 87.6785L79.0326 78.0049Z" fill="#231F20"/>
<path d="M226.409 93.232C225.839 95.6894 224.44 97.8752 222.447 99.421C220.454 100.967 217.989 101.778 215.467 101.719C214.374 101.677 213.295 101.452 212.276 101.052L212.26 101.63C212.166 105.498 211.68 109.346 210.812 113.116V113.116C205.496 136.994 185.955 155.821 160.957 161.736C159.818 162.02 158.707 162.253 157.57 162.458C156.433 162.663 155.244 162.841 154.031 162.939C150.036 163.53 145.999 163.788 141.961 163.711C104.475 162.676 74.7559 133.777 75.1414 98.8691C75.1602 98.1854 75.1711 97.791 75.1711 97.791L75.1748 97.6595C74.542 97.7939 73.896 97.8555 73.2492 97.8432C70.7614 97.7226 68.3887 96.7585 66.5216 95.1095C64.6545 93.4605 63.4043 91.2249 62.9767 88.7705C62.5387 86.2701 63.0708 83.6967 64.4645 81.5752C64.9792 80.8678 65.653 80.2915 66.4315 79.8927C68.1806 79.1203 70.1581 79.0432 71.9621 79.6771C73.9448 80.3062 75.7656 81.3625 77.296 82.7716L77.2924 82.9031C85.4052 54.9183 113.11 34.8164 145.444 35.7095C177.778 36.6026 204.973 58.7735 210.993 87.5171C212.831 85.6036 215.163 84.2378 217.731 83.5719C219.559 83.0399 221.52 83.2258 223.215 84.0917C224.579 85.1392 225.608 86.5619 226.175 88.1855C226.742 89.809 226.824 91.5629 226.409 93.232V93.232Z" fill="#8D4F26"/>
<path d="M204.443 87.4939L204.075 87.4837C203.041 87.5327 202.012 87.3005 201.1 86.812C200.187 86.3235 199.423 85.5968 198.89 84.7091L190.235 69.4446C189.487 68.1189 188.248 67.1398 186.785 66.7179L137.937 53.1852C136.857 52.8914 135.715 52.9147 134.647 53.2522L96.2154 65.4793C95.3078 65.7618 94.4864 66.2697 93.828 66.9555C93.1696 67.6413 92.6957 68.4828 92.4503 69.4014L89.3114 81.1298C89.0822 81.9554 88.6709 82.7191 88.1077 83.3648C87.5446 84.0105 86.8439 84.5218 86.0573 84.861C85.2706 85.2003 84.418 85.3589 83.562 85.3252C82.706 85.2914 81.8685 85.0663 81.1109 84.6662C79.8773 84.0062 78.929 82.9159 78.4463 81.6024C77.9636 80.2889 77.9802 78.8438 78.4928 77.5417C88.2176 52.1539 114.779 34.3887 145.431 35.2353C175.662 36.0703 200.927 54.7671 209.593 80.084C209.865 80.9152 209.941 81.7982 209.814 82.6636C209.687 83.529 209.361 84.3531 208.862 85.0712C208.363 85.7893 207.704 86.3819 206.937 86.8023C206.17 87.2226 205.317 87.4594 204.443 87.4939V87.4939Z" fill="#231F20"/>
<path d="M116.234 108.425C123.972 108.639 130.379 103.95 130.545 97.9524C130.711 91.9548 124.572 86.9196 116.834 86.7059C109.095 86.4921 102.688 91.1808 102.522 97.1783C102.357 103.176 108.495 108.211 116.234 108.425Z" fill="white"/>
<path d="M116.575 108.434C121.787 108.578 126.129 104.469 126.273 99.2554C126.417 94.042 122.309 89.6991 117.097 89.5551C111.885 89.4111 107.543 93.5207 107.399 98.734C107.255 103.947 111.363 108.29 116.575 108.434Z" fill="#231F20"/>
<path d="M170.544 109.925C178.282 110.139 184.69 105.45 184.855 99.4529C185.021 93.4553 178.882 88.4201 171.144 88.2063C163.406 87.9926 156.998 92.6813 156.833 98.6788C156.667 104.676 162.806 109.712 170.544 109.925Z" fill="white"/>
<path d="M171.123 109.941C176.335 110.085 180.677 105.975 180.821 100.762C180.965 95.5484 176.856 91.2054 171.644 91.0615C166.432 90.9175 162.09 95.027 161.946 100.24C161.802 105.454 165.91 109.797 171.123 109.941Z" fill="#231F20"/>
<path d="M101.117 82.3504C101.146 81.2724 105.989 77.4064 114.097 76.2357C116.862 75.8393 119.666 75.8017 122.44 76.124C122.726 76.2662 122.978 76.4703 123.175 76.7215C123.373 76.9727 123.513 77.2648 123.584 77.5766C123.595 77.8973 123.532 78.2163 123.401 78.5091C123.27 78.8019 123.073 79.0609 122.827 79.2661C121.011 81.1895 116.993 78.0787 112.306 79.186C108.547 80.0295 103.393 83.7553 102.108 83.6146C101.834 83.5906 101.576 83.4719 101.38 83.2787C101.276 83.1496 101.199 83.0009 101.154 82.8414C101.109 82.6819 101.096 82.515 101.117 82.3504V82.3504Z" fill="#231F20"/>
<path d="M182.171 83.3002C182.016 82.2433 177.038 78.6324 168.875 77.9596C166.088 77.7136 163.28 77.8395 160.525 78.3342C160.253 78.495 160.017 78.7114 159.833 78.9692C159.649 79.227 159.521 79.5206 159.458 79.8309C159.477 80.1543 159.562 80.4703 159.708 80.7595C159.854 81.0487 160.057 81.3048 160.306 81.5121C162.256 83.3027 166.084 79.9613 170.849 80.7771C174.646 81.4345 180.024 84.8198 181.267 84.5909C181.539 84.5607 181.788 84.426 181.962 84.2154C182.062 84.0876 182.132 83.9393 182.168 83.7812C182.204 83.623 182.205 83.4588 182.171 83.3002V83.3002Z" fill="#231F20"/>
<path d="M136.736 108.123C134.071 109.339 132.233 111.13 132.279 113.263C132.248 114.415 132.516 115.556 133.056 116.574C133.709 117.782 134.569 118.866 135.598 119.775C133.946 119.641 132.409 118.873 131.311 117.631C130.212 116.389 129.637 114.77 129.705 113.113C129.727 112.228 129.971 111.364 130.415 110.599C130.859 109.834 131.489 109.193 132.246 108.736C132.909 108.322 133.651 108.053 134.425 107.948C135.199 107.842 135.987 107.902 136.736 108.123Z" fill="#231F20"/>
<path d="M136.046 133.102C137.962 133.054 139.87 132.833 141.746 132.444C143.514 132.051 145.233 131.463 146.872 130.691C148.525 129.899 150.101 128.956 151.58 127.874C152.357 127.369 153.059 126.731 153.837 126.173C154.615 125.616 155.293 124.898 156.125 124.289C155.416 126.21 154.33 127.969 152.931 129.464C151.539 130.994 149.86 132.235 147.989 133.117C146.093 133.992 144.039 134.473 141.952 134.529C139.891 134.591 137.851 134.098 136.046 133.102V133.102Z" fill="#231F20"/>
<g style="mix-blend-mode:multiply" opacity="0.28">
<path d="M111.466 112.425C111.466 112.425 119.247 106.93 123.188 109.038C127.129 111.147 111.466 112.425 111.466 112.425Z" fill="#8D4F26"/>
</g>
<g style="mix-blend-mode:multiply" opacity="0.28">
<path d="M177.015 114.708C177.015 114.708 169.55 108.765 165.499 110.653C161.448 112.541 177.015 114.708 177.015 114.708Z" fill="#8D4F26"/>
</g>
<path d="M148.724 157.951L135.002 157.572L134.347 181.289L148.069 181.668L148.724 157.951Z" fill="#8D4F26"/>
<path d="M157.516 162.509C156.353 162.714 155.165 162.865 153.978 162.991C155.14 162.812 156.352 162.74 157.516 162.509Z" fill="#8D4F26"/>
<g style="mix-blend-mode:multiply" opacity="0.28">
<path d="M153.978 162.991C149.983 163.584 145.945 163.842 141.907 163.762C104.421 162.727 74.7023 133.829 75.0877 98.9204C75.4495 105.825 79.4121 143.327 127.395 159.625C135.903 162.68 144.977 163.828 153.978 162.991V162.991Z" fill="#8D4F26"/>
</g>
<g style="mix-blend-mode:multiply" opacity="0.28">
<path d="M210.757 113.193C205.441 137.071 185.9 155.899 160.902 161.813C191.941 154.355 208.406 121.154 210.757 113.193Z" fill="#8D4F26"/>
</g>
<path d="M132.789 174.826C133.701 175.868 134.811 176.72 136.053 177.332C137.296 177.945 138.647 178.306 140.03 178.394C143.003 178.242 145.863 177.203 148.241 175.411C151.082 173.542 151.887 172.012 154.097 171.994C155.482 172.022 156.811 172.544 157.845 173.466C158.958 174.467 159.661 175.846 159.816 177.336C157.706 180.46 154.903 183.055 151.625 184.918C148.347 186.781 144.684 187.862 140.92 188.076C137.002 188.095 133.136 187.179 129.643 185.403C126.151 183.626 123.133 181.042 120.84 177.864C121.039 176.943 121.421 176.072 121.962 175.301C122.502 174.529 123.192 173.874 123.989 173.372C125.418 172.64 127.044 172.386 128.629 172.648C130.213 172.909 131.671 173.673 132.789 174.826V174.826Z" fill="#231F20"/>
<path d="M188.482 210.072L90.4287 207.364L90.2232 214.805L188.277 217.513L188.482 210.072Z" fill="#FFECD5"/>
<path d="M203.689 228.123L191.019 227.773L191.224 220.358L201.739 220.649C202.46 223.116 203.101 225.607 203.689 228.123Z" fill="#FFECD5"/>
<path d="M208.975 249.162L192.729 248.714L192.935 241.272L207.078 241.663C207.64 244.152 208.387 246.646 208.975 249.162Z" fill="#FFECD5"/>
<path d="M213.682 270.186L192.153 269.592L192.358 262.15L212.389 262.704C212.768 264.24 213.174 265.725 213.526 267.261C213.605 268.237 213.631 269.185 213.682 270.186Z" fill="#FFECD5"/>
<path d="M214.634 290.974L191.579 290.337L191.784 282.922L214.444 283.548C214.374 286.099 214.514 288.629 214.634 290.974Z" fill="#FFECD5"/>
<path d="M215.63 312.053L190.999 311.373L191.204 303.932L215.257 304.596C215.375 307.02 215.466 309.417 215.63 312.053Z" fill="#FFECD5"/>
<path d="M216.581 332.868L190.425 332.145L190.629 324.756L216.233 325.464L216.581 332.868Z" fill="#FFECD5"/>
<path d="M87.3601 217.489L87.1553 224.904L75.3521 224.578C76.0031 221.965 76.6541 219.351 77.2394 217.21L87.3601 217.489Z" fill="#FFECD5"/>
<path d="M88.9924 238.401L88.7869 245.843L70.3855 245.334C70.9576 242.719 71.5494 240.34 72.1683 237.937L88.9924 238.401Z" fill="#FFECD5"/>
<path d="M88.4157 259.279L88.2102 266.72L65.5501 266.095C66.1222 263.479 66.6338 261.151 67.1752 258.693L88.4157 259.279Z" fill="#FFECD5"/>
<path d="M87.8392 280.156L87.6373 287.466L61.3496 286.74C61.8114 284.306 62.3018 281.793 62.8162 279.36L87.8392 280.156Z" fill="#FFECD5"/>
<path d="M87.2634 301.009L87.0564 308.502L57.6667 307.691C58.049 305.28 58.4327 302.817 58.8712 300.277L87.2634 301.009Z" fill="#FFECD5"/>
<path d="M86.6867 321.886L86.4826 329.274L55.3579 328.415C55.4226 326.074 55.6478 323.633 55.9563 321.037L86.6867 321.886Z" fill="#FFECD5"/>
<path d="M188.539 233.704L90.4861 230.996L90.2805 238.437L188.334 241.145L188.539 233.704Z" fill="#FFECD5"/>
<path d="M188.596 257.362L90.5432 254.654L90.3376 262.095L188.391 264.803L188.596 257.362Z" fill="#FFECD5"/>
<path d="M188.654 280.994L90.6007 278.286L90.3952 285.727L188.448 288.435L188.654 280.994Z" fill="#FFECD5"/>
<path d="M188.711 304.652L90.6573 301.943L90.4518 309.385L188.505 312.093L188.711 304.652Z" fill="#FFECD5"/>
<path d="M188.768 328.31L90.7145 325.602L90.5089 333.043L188.562 335.751L188.768 328.31Z" fill="#FFECD5"/>
<g style="mix-blend-mode:multiply" opacity="0.31">
<path d="M188.482 210.072C188.482 210.072 198.348 263.394 195.628 290.449L192.93 317.636L190.327 335.668L188.482 210.072Z" fill="#D08B63"/>
</g>
<g style="mix-blend-mode:multiply" opacity="0.31">
<path d="M91.0647 207.197C91.0647 207.197 81.0162 260.495 83.5804 287.67L86.1702 314.871L88.6972 332.914L91.0647 207.197Z" fill="#D08B63"/>
</g>
<g style="mix-blend-mode:screen">
<path d="M135.764 111.885C136.946 112.891 139.733 112.942 139.838 111.997C139.943 111.053 138.313 110.06 136.834 110.283C136.282 110.268 135.428 110.718 135.415 111.191C135.401 111.664 135.404 111.585 135.764 111.885Z" fill="#8D4F26"/>
</g>
<g style="mix-blend-mode:multiply" opacity="0.28">
<path d="M77.3569 83.4313L74.2318 89.8973C74.2318 89.8973 72.741 81.9618 66.5634 81.7912C65.8567 81.8327 65.1481 81.7598 64.4647 81.5753C64.9793 80.868 65.6531 80.2916 66.4316 79.8929C68.1808 79.1205 70.1583 79.0434 71.9622 79.6773C73.945 80.3063 75.7657 81.3627 77.2962 82.7718L77.3569 83.4313Z" fill="#8D4F26"/>
</g>
<g style="mix-blend-mode:multiply" opacity="0.28">
<path d="M210.82 87.1175L213.61 93.7468C213.61 93.7468 215.51 85.905 221.714 86.0764C222.389 86.1107 223.065 86.0406 223.719 85.8686C223.254 85.1259 222.611 84.5112 221.848 84.0802C220.153 83.2143 218.191 83.0284 216.364 83.5604C214.345 84.0675 212.466 85.0229 210.867 86.3557L210.82 87.1175Z" fill="#8D4F26"/>
</g>
<path d="M108.725 226.147C114.445 226.305 119.21 221.795 119.368 216.073C119.526 210.352 115.017 205.585 109.297 205.427C103.577 205.269 98.8117 209.779 98.6537 215.501C98.4956 221.223 103.005 225.989 108.725 226.147Z" fill="#FFECD5"/>
</g>
<path d="M111.157 117.792C106.363 117.016 101.908 114.832 98.3545 111.516C94.8011 108.2 92.309 103.902 91.1936 99.1641C90.0781 94.4263 90.3893 89.4621 92.0878 84.8992C93.7864 80.3364 96.7959 76.3798 100.736 73.5298C104.676 70.6798 109.369 69.0645 114.223 68.888C119.076 68.7115 123.872 69.9819 128.003 72.5384C132.134 75.0949 135.415 78.8228 137.431 83.2506C139.447 87.6784 140.108 92.6073 139.33 97.4139C138.279 103.856 134.723 109.619 129.441 113.44C124.16 117.26 117.584 118.825 111.157 117.792V117.792ZM118.811 70.5214C114.294 69.79 109.661 70.4174 105.497 72.3244C101.333 74.2313 97.8251 77.3323 95.4166 81.2354C93.0081 85.1386 91.8069 89.6689 91.9647 94.254C92.1225 98.8391 93.6323 103.273 96.3033 106.996C98.9744 110.72 102.687 113.565 106.972 115.172C111.256 116.78 115.921 117.077 120.377 116.028C124.833 114.978 128.88 112.629 132.006 109.276C135.133 105.923 137.199 101.717 137.943 97.1894C138.915 91.1142 137.447 84.9024 133.859 79.9143C130.272 74.9263 124.857 71.5687 118.802 70.577L118.811 70.5214Z" fill="#E3EDA2"/>
<path d="M167.453 126.908C162.656 126.14 158.196 123.962 154.636 120.65C151.076 117.339 148.577 113.042 147.455 108.304C146.333 103.566 146.639 98.5993 148.333 94.0329C150.027 89.4665 153.034 85.5055 156.973 82.6511C160.912 79.7966 165.606 78.1771 170.462 77.9975C175.317 77.8178 180.115 79.086 184.248 81.6417C188.382 84.1974 191.665 87.9256 193.683 92.3546C195.701 96.7837 196.363 101.714 195.584 106.523C194.535 112.958 190.985 118.716 185.713 122.536C180.441 126.357 173.875 127.929 167.453 126.908V126.908ZM175.107 79.6369C170.589 78.897 165.953 79.5168 161.785 81.4178C157.616 83.3189 154.103 86.4159 151.688 90.3173C149.273 94.2187 148.066 98.7493 148.218 103.336C148.371 107.924 149.877 112.361 152.546 116.088C155.214 119.815 158.926 122.664 163.211 124.275C167.497 125.886 172.163 126.187 176.622 125.139C181.08 124.091 185.129 121.742 188.257 118.389C191.386 115.035 193.453 110.828 194.198 106.298C195.173 100.23 193.71 94.0232 190.131 89.0369C186.551 84.0506 181.146 80.6907 175.098 79.6926L175.107 79.6369Z" fill="#E3EDA2"/>
<path d="M139.062 96.6996L138.548 95.3894C138.822 95.2769 145.428 92.7082 148.61 97.1328L147.468 97.9466C144.923 94.4241 139.121 96.6807 139.062 96.6996Z" fill="#E3EDA2"/>
</g>
<circle cx="201.011" cy="181.001" r="95" fill="#231F20"/>
<path d="M231.665 349.032L215.609 349.26C215.017 349.268 214.45 349.276 213.87 349.284L206.308 349.392L160.789 350.113C158.81 350.141 156.844 350.169 154.866 350.197L138.218 350.433C137.098 328.356 137.035 309.714 137.264 295.656C137.435 285.48 137.73 277.867 138.314 271.893C138.3 271.758 138.298 271.623 138.308 271.488C138.405 270.312 138.553 269.21 138.677 268.159C138.675 268.058 138.674 267.969 138.673 267.868C138.673 267.868 138.671 267.78 138.671 267.742C138.667 267.464 138.752 267.223 138.786 266.957C138.913 266.121 139.04 265.348 139.168 264.575C139.166 264.449 139.227 264.309 139.25 264.17C139.274 264.03 139.249 264.081 139.249 264.043C139.332 263.701 139.39 263.371 139.461 263.054C139.638 262.192 139.841 261.381 140.057 260.607C140.078 260.461 140.11 260.317 140.152 260.176C141.107 256.678 142.641 253.367 144.689 250.379C154.236 236.454 170.075 230.77 179.368 228.312L189.547 227.852C197.456 229.13 213.568 232.895 223.919 245.514L223.683 245.758L225.115 247.153C225.195 247.235 225.265 247.327 225.32 247.428C225.44 247.569 225.548 247.719 225.642 247.878C226.112 248.528 226.543 249.206 226.931 249.908C227.197 250.311 227.439 250.729 227.655 251.161L227.914 251.625C228.16 252.102 228.394 252.592 228.615 253.069L228.744 253.307C228.953 253.784 229.161 254.274 229.344 254.752C229.645 255.519 229.933 256.286 230.197 257.104C230.256 257.268 230.305 257.436 230.343 257.607C230.673 258.626 230.978 259.747 231.234 260.893C231.237 261.083 231.24 261.285 231.343 261.448C231.446 261.611 231.477 262.053 231.545 262.355C231.546 262.469 231.548 262.595 231.55 262.734C232.734 269.947 233.381 277.238 233.486 284.547C234.267 306.059 233.659 327.599 231.665 349.032V349.032Z" fill="#FFCE31"/>
<path d="M190.989 220.248L191.17 232.998C189.491 234.053 187.553 234.623 185.571 234.644C183.864 234.669 182.174 234.291 180.64 233.539L180.453 220.397L190.989 220.248Z" fill="#8D4F26"/>
<path d="M239.541 191.588C239.563 193.374 238.878 195.095 237.637 196.375C236.396 197.655 234.7 198.39 232.919 198.419C232.661 198.412 232.404 198.386 232.149 198.341C227.048 209.209 218.319 217.948 207.471 223.045C196.624 228.143 184.341 229.279 172.746 226.257C161.721 223.37 151.966 216.887 145.018 207.831C142.985 205.223 141.222 202.415 139.757 199.45C138.1 199.955 136.312 199.796 134.769 199.007C133.226 198.218 132.048 196.86 131.483 195.218C130.918 193.577 131.009 191.78 131.738 190.204C132.467 188.629 133.777 187.399 135.392 186.771C134.729 183.604 134.371 180.379 134.323 177.143C134.129 163.486 139.354 150.312 148.848 140.518C158.342 130.724 171.327 125.114 184.948 124.921C198.568 124.727 211.708 129.967 221.476 139.488C231.244 149.008 236.84 162.029 237.034 175.686C237.075 179.08 236.79 182.47 236.182 185.809C237.194 186.397 238.036 187.239 238.626 188.252C239.215 189.266 239.53 190.416 239.541 191.588V191.588Z" fill="#8D4F26"/>
<path d="M172.348 175.946C172.225 176.201 169.189 182.538 162.228 183.18C160.178 183.313 158.127 182.96 156.239 182.15C154.35 181.341 152.679 180.096 151.359 178.519C150.911 171.814 156.229 166.392 161.99 166.437C164.551 166.563 166.988 167.583 168.879 169.319C170.77 171.055 171.997 173.399 172.348 175.946V175.946Z" fill="white"/>
<path d="M215.44 176.46C214.255 178.447 212.55 180.069 210.509 181.15C208.468 182.231 206.171 182.729 203.867 182.59C201.888 182.401 199.978 181.765 198.28 180.73C196.582 179.694 195.141 178.286 194.063 176.612C194.053 175.201 194.321 173.802 194.85 172.495C195.379 171.188 196.159 169.998 197.147 168.994C198.135 167.989 199.31 167.189 200.606 166.64C201.902 166.091 203.293 165.804 204.7 165.794C206.107 165.784 207.502 166.052 208.806 166.582C210.109 167.113 211.296 167.896 212.298 168.886C213.3 169.876 214.097 171.055 214.645 172.355C215.193 173.654 215.48 175.049 215.49 176.46L215.44 176.46Z" fill="white"/>
<path d="M162.228 183.193C166.237 183.136 169.441 179.831 169.384 175.811C169.327 171.792 166.031 168.579 162.022 168.636C158.013 168.693 154.809 171.998 154.866 176.017C154.923 180.037 158.219 183.25 162.228 183.193Z" fill="#231F20"/>
<path d="M204.648 182.592C208.658 182.535 211.861 179.23 211.804 175.21C211.747 171.19 208.451 167.977 204.442 168.034C200.433 168.091 197.229 171.396 197.286 175.416C197.343 179.436 200.639 182.648 204.648 182.592Z" fill="#231F20"/>
<path d="M181.236 182.253C180.24 182.586 179.334 183.144 178.587 183.883C178.256 184.216 177.995 184.613 177.822 185.05C177.648 185.487 177.565 185.955 177.577 186.425C177.607 187.388 177.899 188.323 178.422 189.131C179.007 190.001 179.759 190.747 180.634 191.324C179.483 191.165 178.425 190.602 177.649 189.736C176.825 188.826 176.36 187.646 176.341 186.418C176.341 185.785 176.483 185.161 176.756 184.592C177.052 184.03 177.477 183.547 177.997 183.184C178.92 182.473 180.078 182.14 181.236 182.253V182.253Z" fill="#231F20"/>
<g style="mix-blend-mode:screen">
<path d="M180.597 185.182C181.553 185.914 183.682 185.871 183.736 185.239C183.79 184.606 182.455 183.791 181.362 184.008C180.947 184.09 180.308 184.39 180.301 184.744C180.302 184.82 180.316 184.971 180.597 185.182Z" fill="#8D4F26"/>
</g>
<path d="M158.539 152.406C160.424 151.352 162.495 150.674 164.637 150.411C164.881 150.449 165.114 150.541 165.319 150.68C165.523 150.82 165.695 151.002 165.821 151.216C165.901 151.449 165.928 151.697 165.901 151.942C165.874 152.187 165.793 152.424 165.664 152.634C164.758 154.466 161.083 153.09 157.857 154.994C153.757 157.403 151.637 160.782 151.395 160.596C151.153 160.41 153.425 155.297 158.539 152.406Z" fill="#231F20"/>
<path d="M213.699 157.741C211.358 154.811 208.28 152.56 204.783 151.219C202.757 150.46 200.624 150.026 198.462 149.931C198.226 149.998 198.006 150.115 197.819 150.275C197.632 150.434 197.482 150.633 197.379 150.856C197.324 151.099 197.325 151.35 197.381 151.592C197.437 151.835 197.546 152.061 197.701 152.255C198.745 153.883 202.593 153.247 205.714 153.721C208.717 154.229 211.499 155.63 213.699 157.741V157.741Z" fill="#231F20"/>
<path d="M198.494 198.277C197.184 200.112 195.575 201.714 193.735 203.016C191.89 204.351 189.868 205.423 187.727 206.2C185.582 206.997 183.315 207.422 181.026 207.456L179.316 207.426L177.625 207.216C177.067 207.127 176.516 206.994 175.979 206.818C175.436 206.665 174.902 206.497 174.372 206.3L174.396 206.172C176.552 206.579 178.754 206.681 180.938 206.473C183.116 206.269 185.258 205.781 187.309 205.02C189.367 204.278 191.342 203.322 193.201 202.168C195.07 201.01 196.81 199.654 198.391 198.125L198.494 198.277Z" fill="#231F20"/>
<g style="mix-blend-mode:multiply" opacity="0.27">
<path d="M170.695 185.366C172.855 183.812 174.067 181.798 173.401 180.868C172.736 179.938 170.445 180.444 168.284 181.998C166.124 183.552 164.912 185.566 165.578 186.496C166.244 187.426 168.534 186.92 170.695 185.366Z" fill="#8D4F26"/>
</g>
<g style="mix-blend-mode:multiply" opacity="0.27">
<path d="M201.139 185.981C201.778 185.033 200.509 183.054 198.306 181.561C196.102 180.069 193.798 179.628 193.159 180.576C192.52 181.525 193.789 183.504 195.992 184.996C198.196 186.489 200.5 186.93 201.139 185.981Z" fill="#8D4F26"/>
</g>
<g opacity="0.58">
<path opacity="0.58" d="M209.344 251.471C209.265 251.048 209.077 250.654 208.798 250.327C208.519 250.001 208.159 249.753 207.755 249.61C207.094 249.45 206.398 249.525 205.786 249.822C205.175 250.119 204.684 250.619 204.399 251.238C202.996 250.757 201.499 250.618 200.032 250.832C198.627 251.046 197.292 251.589 196.135 252.417C195.771 251.865 195.237 251.448 194.615 251.229C193.993 251.009 193.317 251 192.689 251.202C192.224 251.379 191.818 251.682 191.514 252.077C191.211 252.471 191.022 252.942 190.968 253.438C190.965 253.779 191.03 254.118 191.16 254.433C191.29 254.748 191.482 255.034 191.725 255.272C192.456 256.034 193.441 256.497 194.492 256.573C194.469 257.393 194.645 258.206 195.004 258.942C195.492 259.87 196.256 260.624 197.191 261.097C198.546 261.878 200.11 262.218 201.667 262.07C203.021 261.947 204.319 261.467 205.428 260.677C206.005 260.313 206.492 259.824 206.855 259.246C207.218 258.667 207.446 258.015 207.524 257.336C207.548 256.542 207.307 255.762 206.837 255.121C207.6 254.878 208.26 254.388 208.714 253.727C209.168 253.066 209.39 252.272 209.344 251.471V251.471ZM206.314 254.724L205.938 254.869L206.195 255.168C206.698 255.777 206.976 256.541 206.982 257.331C206.902 257.923 206.691 258.489 206.364 258.988C206.038 259.487 205.604 259.906 205.094 260.214C203.986 260.991 202.683 261.439 201.333 261.507C199.983 261.576 198.641 261.262 197.461 260.601C196.628 260.172 195.945 259.498 195.505 258.669C195.159 257.939 195.017 257.129 195.093 256.324L195.089 256.021L194.761 256.026C193.762 256.022 192.805 255.622 192.099 254.913C191.91 254.729 191.761 254.508 191.66 254.264C191.559 254.02 191.509 253.758 191.511 253.493C191.557 253.109 191.707 252.745 191.945 252.441C192.183 252.137 192.5 251.904 192.861 251.768C193.031 251.707 193.208 251.67 193.389 251.659C193.874 251.629 194.359 251.734 194.787 251.965C195.216 252.196 195.572 252.542 195.815 252.965L195.982 253.24L196.245 253.06C197.406 252.19 198.766 251.625 200.201 251.417C201.635 251.209 203.099 251.364 204.459 251.869L204.699 251.941L204.822 251.725C205.034 251.18 205.428 250.726 205.937 250.44C206.445 250.154 207.037 250.054 207.611 250.156C207.912 250.276 208.178 250.468 208.386 250.717C208.595 250.965 208.738 251.262 208.804 251.58C208.997 252.803 207.945 254.132 206.314 254.724Z" fill="#4F5558"/>
<path opacity="0.58" d="M201.374 258.023C202.061 257.964 202.589 257.579 202.553 257.161C202.518 256.744 201.932 256.453 201.246 256.512C200.559 256.571 200.031 256.956 200.067 257.374C200.102 257.791 200.687 258.082 201.374 258.023Z" fill="#4F5558"/>
<path opacity="0.58" d="M194.102 257.927L192.073 258.888L192.568 259.939L194.597 258.979L194.102 257.927Z" fill="#4F5558"/>
<path opacity="0.58" d="M196.024 261.711L194.868 263.639L195.862 264.238L197.018 262.31L196.024 261.711Z" fill="#4F5558"/>
<path opacity="0.58" d="M200.868 263.713L199.71 263.769L199.817 266.016L200.975 265.96L200.868 263.713Z" fill="#4F5558"/>
<path opacity="0.58" d="M204.866 262.735L203.933 263.426L205.267 265.235L206.199 264.545L204.866 262.735Z" fill="#4F5558"/>
<path opacity="0.58" d="M207.632 259.727L207.24 260.821L209.351 261.582L209.743 260.488L207.632 259.727Z" fill="#4F5558"/>
<path opacity="0.58" d="M210.443 255.108L208.266 255.65L208.546 256.778L210.723 256.236L210.443 255.108Z" fill="#4F5558"/>
<path opacity="0.58" d="M198.291 256.937C198.897 256.928 199.379 256.333 199.369 255.607C199.359 254.881 198.859 254.3 198.254 254.308C197.648 254.317 197.166 254.912 197.176 255.638C197.186 256.364 197.686 256.945 198.291 256.937Z" fill="#4F5558"/>
<path opacity="0.58" d="M203.317 255.803C203.923 255.795 204.405 255.199 204.395 254.474C204.385 253.748 203.885 253.166 203.28 253.175C202.674 253.183 202.192 253.779 202.202 254.505C202.212 255.23 202.712 255.812 203.317 255.803Z" fill="#4F5558"/>
</g>
<g opacity="0.58">
<path opacity="0.58" d="M149.458 350.21L149.46 350.336L149.687 350.333L149.458 350.21ZM152.622 349.331C152.475 348.957 152.203 348.646 151.854 348.448C151.505 348.251 151.099 348.179 150.704 348.246C150.459 347.401 150.015 346.627 149.411 345.989C148.836 345.373 148.12 344.906 147.324 344.629C147.463 344.265 147.483 343.866 147.38 343.49C147.277 343.114 147.057 342.781 146.753 342.539C146.509 342.375 146.224 342.281 145.931 342.268C145.638 342.254 145.346 342.321 145.088 342.461C144.922 342.573 144.781 342.718 144.673 342.887C144.564 343.056 144.492 343.245 144.459 343.443C144.335 344.057 144.443 344.695 144.762 345.234C144.356 345.492 144.023 345.849 143.793 346.271C143.514 346.818 143.405 347.436 143.478 348.045C143.562 348.908 143.893 349.729 144.432 350.408L144.86 350.402C144.267 349.738 143.902 348.902 143.818 348.015C143.746 347.471 143.844 346.918 144.098 346.431C144.33 346.015 144.675 345.672 145.092 345.444L145.255 345.34L145.152 345.203C144.984 344.961 144.866 344.689 144.803 344.401C144.741 344.114 144.736 343.817 144.788 343.527C144.814 343.371 144.871 343.222 144.956 343.088C145.041 342.954 145.151 342.839 145.281 342.749C145.48 342.65 145.701 342.606 145.923 342.621C146.145 342.635 146.358 342.708 146.543 342.832C146.635 342.893 146.717 342.969 146.785 343.056C146.955 343.281 147.059 343.549 147.085 343.83C147.112 344.111 147.059 344.394 146.934 344.647L146.848 344.812L147.038 344.898C147.84 345.149 148.563 345.605 149.137 346.221C149.757 346.847 150.202 347.625 150.43 348.477L150.431 348.616L150.595 348.614C150.93 348.539 151.279 348.581 151.586 348.733C151.894 348.885 152.14 349.138 152.284 349.45C152.32 349.597 152.326 349.751 152.302 349.901C152.279 350.051 152.225 350.195 152.145 350.324L152.523 350.318C152.677 350.013 152.713 349.661 152.622 349.331V349.331Z" fill="#B9DFF4"/>
<path opacity="0.58" d="M147.232 349.327C147.419 349.171 147.358 348.788 147.096 348.471C146.833 348.154 146.469 348.024 146.281 348.18C146.094 348.336 146.155 348.72 146.417 349.036C146.68 349.353 147.045 349.483 147.232 349.327Z" fill="#B9DFF4"/>
<path opacity="0.58" d="M142.841 344.771L142.502 345.363L143.65 346.024L143.989 345.432L142.841 344.771Z" fill="#B9DFF4"/>
<path opacity="0.58" d="M142.835 347.694L141.515 347.783L141.56 348.464L142.881 348.375L142.835 347.694Z" fill="#B9DFF4"/>
<path opacity="0.58" d="M143.26 350.437L142.73 350.444L143.067 350.187L143.26 350.437Z" fill="#B9DFF4"/>
<path opacity="0.58" d="M146.873 347.272C147.223 347.019 147.34 346.58 147.133 346.291C146.926 346.002 146.474 345.972 146.123 346.224C145.773 346.477 145.656 346.916 145.863 347.205C146.07 347.494 146.522 347.524 146.873 347.272Z" fill="#B9DFF4"/>
<path opacity="0.58" d="M149.124 349.334C149.475 349.081 149.591 348.642 149.384 348.353C149.177 348.064 148.725 348.034 148.374 348.286C148.024 348.539 147.907 348.978 148.114 349.267C148.321 349.556 148.773 349.586 149.124 349.334Z" fill="#B9DFF4"/>
</g>
<g opacity="0.58">
<path opacity="0.58" d="M159.004 298.887C158.786 298.335 158.386 297.874 157.87 297.582C157.354 297.291 156.754 297.185 156.17 297.284C155.802 296.04 155.152 294.899 154.27 293.949C153.412 293.037 152.353 292.337 151.178 291.908C151.385 291.372 151.414 290.784 151.261 290.23C151.107 289.677 150.78 289.188 150.327 288.836C149.964 288.572 149.533 288.42 149.085 288.397C148.637 288.374 148.192 288.482 147.804 288.707C147.561 288.876 147.352 289.091 147.191 289.341C147.031 289.59 146.92 289.869 146.867 290.161C146.695 291.071 146.86 292.013 147.333 292.809C146.767 293.216 146.304 293.751 145.981 294.37C145.562 295.185 145.399 296.109 145.515 297.018C145.643 298.3 146.129 299.519 146.917 300.537C147.705 301.554 148.764 302.328 149.97 302.769C150.52 303.007 151.115 303.118 151.713 303.092C152.311 303.066 152.895 302.904 153.422 302.619C153.988 302.226 154.42 301.669 154.66 301.022C155.22 301.436 155.901 301.655 156.597 301.645C157.294 301.635 157.968 301.397 158.516 300.967C158.775 300.695 158.956 300.359 159.042 299.994C159.127 299.628 159.114 299.246 159.004 298.887V298.887ZM158.108 300.606C157.594 300.981 156.967 301.167 156.333 301.132C155.699 301.097 155.096 300.844 154.626 300.415L154.333 300.217L154.237 300.56C154.061 301.235 153.643 301.821 153.063 302.207C152.603 302.447 152.093 302.576 151.575 302.583C151.056 302.591 150.543 302.476 150.076 302.249C148.977 301.836 148.015 301.123 147.297 300.191C146.58 299.259 146.137 298.144 146.018 296.973C145.927 296.161 146.069 295.339 146.426 294.604C146.771 293.983 147.284 293.472 147.905 293.13L148.142 292.987L148.001 292.762C147.749 292.398 147.572 291.988 147.479 291.556C147.386 291.123 147.38 290.677 147.461 290.242C147.5 290.012 147.585 289.792 147.71 289.595C147.835 289.398 147.997 289.227 148.188 289.094C148.484 288.932 148.82 288.856 149.157 288.876C149.493 288.896 149.818 289.01 150.093 289.206C150.22 289.3 150.336 289.409 150.438 289.529C150.692 289.867 150.849 290.267 150.892 290.688C150.936 291.108 150.865 291.532 150.686 291.915L150.538 292.157L150.83 292.254C152.018 292.652 153.089 293.341 153.946 294.257C154.836 295.198 155.472 296.351 155.796 297.606L155.799 297.82L156.014 297.817C156.513 297.688 157.042 297.74 157.507 297.965C157.972 298.19 158.342 298.573 158.552 299.045C158.623 299.322 158.619 299.612 158.541 299.886C158.463 300.161 158.313 300.409 158.108 300.606V300.606Z" fill="#4F5558"/>
<path opacity="0.58" d="M150.994 298.907C151.278 298.671 151.194 298.1 150.807 297.633C150.42 297.166 149.876 296.979 149.593 297.216C149.309 297.452 149.393 298.023 149.78 298.49C150.167 298.957 150.711 299.143 150.994 298.907Z" fill="#4F5558"/>
<path opacity="0.58" d="M144.507 292.22L143.999 293.108L145.704 294.09L146.212 293.202L144.507 292.22Z" fill="#4F5558"/>
<path opacity="0.58" d="M144.475 296.481L142.513 296.613L142.581 297.634L144.543 297.502L144.475 296.481Z" fill="#4F5558"/>
<path opacity="0.58" d="M144.805 300.191L143.247 301.394L143.87 302.205L145.428 301.003L144.805 300.191Z" fill="#4F5558"/>
<path opacity="0.58" d="M147.161 303.057L146.531 304.925L147.498 305.253L148.128 303.385L147.161 303.057Z" fill="#4F5558"/>
<path opacity="0.58" d="M151.712 303.864L150.726 304.131L151.238 306.034L152.224 305.768L151.712 303.864Z" fill="#4F5558"/>
<path opacity="0.58" d="M154.912 302.304L154.24 303.074L155.719 304.373L156.392 303.603L154.912 302.304Z" fill="#4F5558"/>
<path opacity="0.58" d="M150.5 295.844C151.014 295.474 151.182 294.824 150.873 294.393C150.565 293.962 149.898 293.913 149.383 294.283C148.868 294.653 148.701 295.303 149.01 295.734C149.318 296.165 149.985 296.214 150.5 295.844Z" fill="#4F5558"/>
<path opacity="0.58" d="M153.827 298.92C154.342 298.55 154.509 297.9 154.201 297.469C153.892 297.038 153.225 296.989 152.71 297.359C152.196 297.73 152.029 298.379 152.337 298.81C152.646 299.241 153.313 299.29 153.827 298.92Z" fill="#4F5558"/>
</g>
<g opacity="0.58">
<path opacity="0.58" d="M167.256 328.813C167.233 327.982 167.009 327.17 166.605 326.446C166.211 325.753 165.669 325.156 165.017 324.699C165.231 324.404 165.345 324.048 165.34 323.683C165.334 323.318 165.211 322.965 164.988 322.677C164.805 322.47 164.569 322.317 164.306 322.234C164.043 322.151 163.762 322.141 163.494 322.205C163.13 322.343 162.834 322.62 162.673 322.975C162.43 323.512 162.39 324.119 162.559 324.683C162.128 324.823 161.74 325.072 161.434 325.407C161.047 325.845 160.8 326.39 160.725 326.972C160.598 327.782 160.705 328.612 161.036 329.363C161.366 330.113 161.905 330.753 162.588 331.204C162.888 331.439 163.238 331.603 163.61 331.683C163.982 331.763 164.368 331.758 164.737 331.667C165.152 331.507 165.509 331.224 165.76 330.856C166.032 331.204 166.414 331.45 166.843 331.554C167.272 331.658 167.724 331.614 168.125 331.429C168.336 331.311 168.511 331.136 168.63 330.925C168.749 330.714 168.808 330.474 168.801 330.232C168.747 329.852 168.563 329.504 168.282 329.245C168 328.986 167.637 328.833 167.256 328.813V328.813ZM167.932 331.154C167.557 331.302 167.142 331.317 166.758 331.196C166.373 331.075 166.041 330.825 165.817 330.489L165.676 330.314L165.553 330.518C165.345 330.901 165.004 331.194 164.594 331.34C164.272 331.421 163.936 331.427 163.612 331.357C163.287 331.287 162.983 331.143 162.723 330.937C162.097 330.516 161.604 329.925 161.302 329.233C160.999 328.541 160.9 327.777 161.016 327.031C161.073 326.512 161.281 326.021 161.614 325.619C161.938 325.303 162.332 325.068 162.764 324.933L162.928 324.931L162.925 324.766C162.815 324.512 162.756 324.238 162.752 323.96C162.748 323.682 162.799 323.407 162.902 323.149C163.037 322.89 163.257 322.686 163.524 322.571C163.736 322.513 163.96 322.517 164.169 322.584C164.378 322.651 164.563 322.776 164.702 322.946C164.766 323.014 164.815 323.096 164.844 323.185C164.959 323.429 165 323.703 164.962 323.971C164.923 324.239 164.806 324.49 164.626 324.692L164.527 324.832L164.667 324.931C165.339 325.354 165.897 325.937 166.292 326.627C166.703 327.339 166.919 328.147 166.918 328.969L166.92 329.133L167.071 329.131C167.395 329.137 167.707 329.255 167.954 329.466C168.201 329.677 168.367 329.967 168.424 330.287C168.423 330.462 168.378 330.634 168.292 330.786C168.206 330.938 168.082 331.064 167.932 331.154V331.154Z" fill="#4F5558"/>
<path opacity="0.58" d="M163.827 328.983C164.034 328.883 164.067 328.522 163.901 328.176C163.735 327.83 163.433 327.631 163.226 327.73C163.019 327.83 162.986 328.192 163.152 328.538C163.318 328.884 163.62 329.083 163.827 328.983Z" fill="#4F5558"/>
<path opacity="0.58" d="M160.859 323.866L160.413 324.33L161.312 325.198L161.758 324.734L160.859 323.866Z" fill="#4F5558"/>
<path opacity="0.58" d="M158.933 326.263L158.819 326.897L160.047 327.119L160.161 326.485L158.933 326.263Z" fill="#4F5558"/>
<path opacity="0.58" d="M159.805 328.83L158.661 329.33L158.918 329.92L160.062 329.421L159.805 328.83Z" fill="#4F5558"/>
<path opacity="0.58" d="M160.832 330.971L160.158 332.023L160.698 332.372L161.373 331.32L160.832 330.971Z" fill="#4F5558"/>
<path opacity="0.58" d="M163.51 332.154L162.867 332.166L162.89 333.417L163.533 333.405L163.51 332.154Z" fill="#4F5558"/>
<path opacity="0.58" d="M165.722 331.707L165.194 332.074L165.905 333.102L166.433 332.735L165.722 331.707Z" fill="#4F5558"/>
<path opacity="0.58" d="M163.978 327.035C164.353 326.886 164.558 326.512 164.435 326.201C164.312 325.889 163.908 325.758 163.532 325.907C163.157 326.056 162.952 326.429 163.076 326.741C163.199 327.052 163.603 327.184 163.978 327.035Z" fill="#4F5558"/>
<path opacity="0.58" d="M165.565 329.437C165.94 329.288 166.144 328.915 166.021 328.603C165.898 328.292 165.494 328.16 165.119 328.309C164.743 328.458 164.539 328.832 164.662 329.143C164.785 329.455 165.189 329.586 165.565 329.437Z" fill="#4F5558"/>
</g>
<g opacity="0.58">
<path opacity="0.58" d="M230.259 257.065C229.767 257.155 229.261 257.14 228.775 257.02C228.289 256.901 227.834 256.68 227.439 256.372C226.441 255.687 225.653 254.736 225.165 253.626C224.677 252.516 224.508 251.292 224.677 250.091C224.778 249.264 225.127 248.488 225.679 247.865C225.585 247.706 225.477 247.555 225.358 247.415L225.284 247.504C224.658 248.215 224.269 249.105 224.173 250.048C223.983 251.403 224.21 252.784 224.821 254.007C225.335 255.123 226.152 256.071 227.179 256.742C227.636 257.094 228.161 257.346 228.722 257.479C229.282 257.613 229.864 257.626 230.43 257.517C230.382 257.363 230.325 257.212 230.259 257.065V257.065Z" fill="#4F5558"/>
<path opacity="0.58" d="M229.189 253.248C229.527 253.085 229.584 252.499 229.316 251.939C229.047 251.379 228.555 251.058 228.216 251.221C227.877 251.384 227.82 251.97 228.089 252.53C228.357 253.09 228.85 253.412 229.189 253.248Z" fill="#4F5558"/>
<path opacity="0.58" d="M221.322 248.855L221.137 249.888L223.122 250.246L223.307 249.214L221.322 248.855Z" fill="#4F5558"/>
<path opacity="0.58" d="M222.74 252.971L220.892 253.778L221.31 254.74L223.158 253.932L222.74 252.971Z" fill="#4F5558"/>
<path opacity="0.58" d="M224.366 256.401L223.276 258.102L224.156 258.669L225.246 256.969L224.366 256.401Z" fill="#4F5558"/>
<path opacity="0.58" d="M228.675 258.328L227.629 258.347L227.666 260.368L228.712 260.349L228.675 258.328Z" fill="#4F5558"/>
<path opacity="0.58" d="M231.603 258.474L231.397 258.173L231.547 258.07C231.561 258.196 231.589 258.335 231.603 258.474Z" fill="#4F5558"/>
</g>
<g opacity="0.58">
<path opacity="0.58" d="M203.545 316.329C203.519 315.451 203.285 314.591 202.862 313.821C202.439 313.051 201.839 312.393 201.113 311.902C201.344 311.583 201.467 311.198 201.461 310.804C201.455 310.41 201.322 310.028 201.082 309.716C200.892 309.48 200.637 309.305 200.348 309.215C200.06 309.124 199.751 309.122 199.461 309.208C199.268 309.277 199.09 309.385 198.938 309.524C198.787 309.662 198.664 309.83 198.577 310.017C198.317 310.598 198.277 311.255 198.465 311.864C197.987 312.013 197.557 312.285 197.216 312.652C196.795 313.125 196.531 313.715 196.458 314.344C196.312 315.274 196.458 316.226 196.875 317.068C197.225 317.826 197.775 318.473 198.465 318.942C198.794 319.187 199.173 319.357 199.575 319.439C199.977 319.52 200.392 319.512 200.791 319.414C201.246 319.259 201.634 318.949 201.887 318.539C202.185 318.904 202.593 319.161 203.049 319.273C203.505 319.385 203.985 319.346 204.417 319.16C204.638 319.029 204.822 318.842 204.951 318.619C205.08 318.396 205.151 318.144 205.156 317.886C205.099 317.484 204.91 317.111 204.618 316.829C204.326 316.547 203.948 316.371 203.545 316.329V316.329ZM204.274 318.847C203.869 318.999 203.425 319.012 203.012 318.883C202.599 318.753 202.241 318.49 201.995 318.133L201.828 317.933L201.718 318.15C201.488 318.568 201.117 318.891 200.672 319.062C200.322 319.135 199.961 319.132 199.612 319.054C199.263 318.976 198.935 318.825 198.649 318.61C197.975 318.15 197.443 317.509 197.114 316.761C196.784 316.013 196.671 315.187 196.786 314.377C196.858 313.82 197.087 313.295 197.446 312.864C197.787 312.51 198.22 312.259 198.696 312.138L198.871 312.073L198.869 311.883C198.761 311.604 198.71 311.305 198.718 311.006C198.727 310.706 198.796 310.411 198.92 310.138C198.982 309.995 199.073 309.865 199.186 309.757C199.299 309.649 199.433 309.565 199.579 309.51C199.859 309.452 200.15 309.485 200.409 309.604C200.669 309.723 200.885 309.922 201.025 310.172C201.134 310.441 201.168 310.734 201.126 311.022C201.083 311.309 200.965 311.579 200.784 311.806L200.647 311.959L200.825 312.058C201.552 312.53 202.153 313.172 202.578 313.929C203.015 314.696 203.249 315.563 203.257 316.447L203.259 316.611L203.398 316.609C203.752 316.606 204.095 316.729 204.366 316.957C204.637 317.185 204.819 317.502 204.878 317.852C204.879 318.056 204.827 318.258 204.728 318.436C204.629 318.615 204.486 318.764 204.312 318.871L204.274 318.847Z" fill="#4F5558"/>
<path opacity="0.58" d="M199.827 316.534C200.053 316.425 200.089 316.031 199.908 315.654C199.727 315.276 199.398 315.059 199.172 315.168C198.946 315.276 198.91 315.671 199.091 316.048C199.272 316.426 199.601 316.643 199.827 316.534Z" fill="#4F5558"/>
<path opacity="0.58" d="M196.61 310.982L196.12 311.492L197.092 312.43L197.581 311.92L196.61 310.982Z" fill="#4F5558"/>
<path opacity="0.58" d="M194.533 313.562L194.408 314.259L195.736 314.498L195.861 313.802L194.533 313.562Z" fill="#4F5558"/>
<path opacity="0.58" d="M195.489 316.369L194.253 316.909L194.535 317.557L195.771 317.017L195.489 316.369Z" fill="#4F5558"/>
<path opacity="0.58" d="M196.575 318.659L195.845 319.796L196.439 320.179L197.168 319.042L196.575 318.659Z" fill="#4F5558"/>
<path opacity="0.58" d="M199.492 319.959L198.786 319.972L198.811 321.324L199.516 321.311L199.492 319.959Z" fill="#4F5558"/>
<path opacity="0.58" d="M201.887 319.467L201.307 319.87L202.076 320.981L202.656 320.578L201.887 319.467Z" fill="#4F5558"/>
<path opacity="0.58" d="M199.998 314.407C200.405 314.245 200.628 313.84 200.494 313.503C200.361 313.166 199.922 313.023 199.515 313.185C199.107 313.347 198.885 313.752 199.018 314.09C199.151 314.427 199.59 314.569 199.998 314.407Z" fill="#4F5558"/>
<path opacity="0.58" d="M201.714 317.015C202.121 316.853 202.344 316.448 202.21 316.11C202.077 315.773 201.638 315.631 201.231 315.793C200.823 315.955 200.601 316.359 200.734 316.697C200.867 317.034 201.306 317.177 201.714 317.015Z" fill="#4F5558"/>
</g>
<g opacity="0.58">
<path opacity="0.58" d="M188.839 294.368C188.477 293.533 187.828 292.856 187.009 292.461C187.291 291.802 187.407 291.084 187.345 290.37C187.247 289.44 186.865 288.562 186.251 287.858C185.376 286.809 184.205 286.05 182.892 285.681C181.742 285.322 180.513 285.296 179.349 285.605C178.761 285.719 178.207 285.965 177.727 286.324C177.248 286.683 176.856 287.147 176.58 287.679C176.319 288.313 176.267 289.013 176.432 289.678C175.738 289.652 175.054 289.855 174.486 290.256C173.918 290.657 173.497 291.233 173.287 291.897C173.221 292.266 173.251 292.646 173.373 293C173.495 293.355 173.705 293.672 173.984 293.922C174.47 294.269 175.063 294.433 175.658 294.382C176.253 294.332 176.81 294.072 177.232 293.648C178.211 294.461 179.365 295.035 180.602 295.325C181.84 295.614 183.128 295.612 184.365 295.317C184.5 295.874 184.809 296.374 185.248 296.743C185.686 297.112 186.23 297.331 186.801 297.368C187.237 297.37 187.664 297.25 188.036 297.021C188.407 296.793 188.706 296.465 188.901 296.074C189.004 295.8 189.052 295.508 189.042 295.215C189.031 294.922 188.962 294.634 188.839 294.368V294.368ZM188.394 295.917C188.24 296.217 188.004 296.468 187.715 296.642C187.426 296.816 187.094 296.905 186.757 296.901L186.302 296.818C185.911 296.69 185.565 296.452 185.304 296.134C185.043 295.815 184.877 295.429 184.827 295.019L184.823 294.754L184.547 294.821C183.334 295.139 182.063 295.157 180.842 294.874C179.59 294.601 178.431 294.008 177.477 293.152L177.311 293.015L177.137 293.157C176.797 293.541 176.333 293.793 175.827 293.867C175.32 293.941 174.804 293.833 174.369 293.563C174.161 293.371 174.005 293.13 173.913 292.862C173.821 292.594 173.797 292.307 173.843 292.028C174.065 291.435 174.482 290.934 175.025 290.61C175.567 290.285 176.204 290.155 176.831 290.241L177.196 290.236L177.09 289.897C176.843 289.26 176.833 288.556 177.062 287.913C177.311 287.441 177.666 287.034 178.099 286.725C178.533 286.416 179.032 286.213 179.558 286.133C180.703 285.854 181.904 285.902 183.023 286.273C184.143 286.643 185.136 287.321 185.89 288.23C186.435 288.835 186.78 289.593 186.879 290.402C186.934 291.11 186.796 291.82 186.48 292.455L186.357 292.71L186.611 292.808C187.016 292.964 187.387 293.2 187.7 293.502C188.014 293.803 188.265 294.164 188.438 294.564C188.534 294.776 188.583 295.007 188.582 295.241C188.581 295.474 188.53 295.704 188.432 295.916L188.394 295.917Z" fill="#4F5558"/>
<path opacity="0.58" d="M183.195 289.451C183.295 289.101 182.903 288.681 182.319 288.513C181.735 288.346 181.181 288.493 181.081 288.843C180.981 289.193 181.373 289.613 181.957 289.78C182.541 289.948 183.095 289.801 183.195 289.451Z" fill="#4F5558"/>
<path opacity="0.58" d="M189.633 290.312L187.672 290.458L187.748 291.478L189.709 291.333L189.633 290.312Z" fill="#4F5558"/>
<path opacity="0.58" d="M188.289 285.772L186.738 286.985L187.366 287.792L188.917 286.58L188.289 285.772Z" fill="#4F5558"/>
<path opacity="0.58" d="M184.663 282.728L184.046 284.6L185.016 284.921L185.632 283.049L184.663 282.728Z" fill="#4F5558"/>
<path opacity="0.58" d="M180.925 281.985L179.941 282.257L180.464 284.158L181.448 283.886L180.925 281.985Z" fill="#4F5558"/>
<path opacity="0.58" d="M176.447 283.692L175.78 284.467L177.269 285.755L177.936 284.98L176.447 283.692Z" fill="#4F5558"/>
<path opacity="0.58" d="M173.651 287.601L173.525 288.617L175.476 288.86L175.602 287.844L173.651 287.601Z" fill="#4F5558"/>
<path opacity="0.58" d="M184.52 292.376C184.739 291.78 184.514 291.148 184.018 290.965C183.521 290.781 182.942 291.116 182.723 291.712C182.504 292.308 182.729 292.94 183.225 293.123C183.722 293.306 184.302 292.972 184.52 292.376Z" fill="#4F5558"/>
<path opacity="0.58" d="M180.064 291.702C180.283 291.106 180.058 290.474 179.561 290.291C179.065 290.107 178.485 290.442 178.266 291.038C178.047 291.634 178.272 292.266 178.768 292.449C179.265 292.632 179.845 292.298 180.064 291.702Z" fill="#4F5558"/>
</g>
<g opacity="0.58">
<path opacity="0.58" d="M219.134 345.367C218.269 344.321 217.106 343.565 215.8 343.202C214.661 342.853 213.447 342.831 212.295 343.138C211.71 343.251 211.159 343.498 210.686 343.86C210.212 344.222 209.828 344.689 209.564 345.224C209.301 345.862 209.254 346.569 209.429 347.236C208.743 347.202 208.065 347.396 207.501 347.788C206.937 348.18 206.517 348.748 206.309 349.404L206.31 349.492L206.789 349.485C207.006 348.89 207.418 348.386 207.959 348.056C208.499 347.727 209.136 347.592 209.763 347.674L210.128 347.668L210.023 347.316C209.77 346.681 209.76 345.974 209.995 345.332C210.233 344.876 210.573 344.482 210.989 344.18C211.404 343.878 211.884 343.677 212.39 343.592C213.532 343.308 214.73 343.351 215.849 343.715C216.968 344.079 217.963 344.749 218.722 345.651C219.249 346.258 219.581 347.011 219.673 347.811C219.729 348.274 219.688 348.744 219.554 349.19L220.058 349.183C220.191 348.723 220.231 348.242 220.176 347.766C220.071 346.881 219.708 346.047 219.134 345.367Z" fill="#C4A53E"/>
<path opacity="0.58" d="M215.632 347.485C215.732 347.136 215.348 346.718 214.773 346.551C214.198 346.384 213.65 346.531 213.549 346.88C213.449 347.229 213.833 347.647 214.408 347.814C214.983 347.981 215.531 347.834 215.632 347.485Z" fill="#C4A53E"/>
<path opacity="0.58" d="M222.459 347.743L220.523 347.887L220.598 348.895L222.534 348.752L222.459 347.743Z" fill="#C4A53E"/>
<path opacity="0.58" d="M221.124 343.256L219.593 344.453L220.214 345.25L221.744 344.053L221.124 343.256Z" fill="#C4A53E"/>
<path opacity="0.58" d="M217.541 340.248L216.932 342.096L217.89 342.413L218.499 340.566L217.541 340.248Z" fill="#C4A53E"/>
<path opacity="0.58" d="M213.848 339.52L212.876 339.789L213.393 341.665L214.365 341.396L213.848 339.52Z" fill="#C4A53E"/>
<path opacity="0.58" d="M209.413 341.195L208.755 341.96L210.224 343.232L210.883 342.466L209.413 341.195Z" fill="#C4A53E"/>
<path opacity="0.58" d="M206.658 345.075L206.534 346.078L208.46 346.318L208.585 345.315L206.658 345.075Z" fill="#C4A53E"/>
<path opacity="0.58" d="M217.487 349.245L215.609 349.271C215.597 349.226 215.597 349.178 215.607 349.132C215.677 348.869 215.847 348.643 216.08 348.503C216.314 348.363 216.592 348.319 216.857 348.381C217.033 348.451 217.185 348.568 217.297 348.721C217.408 348.874 217.474 349.056 217.487 349.245Z" fill="#C4A53E"/>
<path opacity="0.58" d="M212.998 349.132C212.973 349.203 212.94 349.271 212.9 349.335V349.335C212.8 349.548 212.629 349.72 212.416 349.819C212.204 349.919 211.963 349.942 211.736 349.883C211.625 349.833 211.526 349.76 211.444 349.67C211.363 349.58 211.301 349.474 211.262 349.359C211.198 349.218 211.163 349.066 211.161 348.911C211.159 348.757 211.189 348.604 211.249 348.462C211.324 348.203 211.496 347.983 211.729 347.848C211.962 347.713 212.238 347.673 212.499 347.736C212.748 347.857 212.939 348.071 213.032 348.332C213.125 348.593 213.113 348.88 212.998 349.132V349.132Z" fill="#C4A53E"/>
</g>
<g opacity="0.58">
<path opacity="0.58" d="M227.41 301.467C227.071 300.67 226.446 300.029 225.658 299.672C225.918 299.047 226.025 298.37 225.97 297.696C225.862 296.854 225.509 296.063 224.955 295.422C224.141 294.429 223.045 293.709 221.812 293.356C220.738 293.029 219.593 293.01 218.509 293.302C217.96 293.404 217.441 293.63 216.991 293.963C216.542 294.296 216.174 294.726 215.914 295.222C215.679 295.822 215.635 296.481 215.79 297.107C215.142 297.088 214.506 297.28 213.977 297.654C213.448 298.029 213.055 298.565 212.857 299.184C212.799 299.53 212.829 299.885 212.944 300.217C213.059 300.549 213.255 300.847 213.514 301.083C213.975 301.396 214.53 301.54 215.085 301.491C215.64 301.442 216.162 301.202 216.561 300.812C217.467 301.581 218.543 302.123 219.7 302.393C220.857 302.662 222.061 302.651 223.213 302.361C223.341 302.88 223.63 303.344 224.038 303.688C224.446 304.032 224.952 304.238 225.484 304.275C225.829 304.306 226.176 304.245 226.49 304.098C226.804 303.951 227.074 303.724 227.272 303.439C227.47 303.153 227.59 302.821 227.618 302.475C227.647 302.128 227.584 301.781 227.436 301.467L227.41 301.467ZM227.002 302.901C226.853 303.181 226.628 303.414 226.355 303.574C226.081 303.734 225.769 303.815 225.452 303.808C225.309 303.815 225.167 303.792 225.035 303.738C224.664 303.619 224.334 303.397 224.082 303.099C223.831 302.801 223.668 302.438 223.612 302.052L223.608 301.786L223.343 301.79C222.216 302.117 221.025 302.155 219.879 301.902C218.69 301.657 217.581 301.116 216.655 300.33L216.489 300.181L216.327 300.335C216.012 300.674 215.592 300.896 215.135 300.964C214.678 301.033 214.211 300.944 213.811 300.712C213.612 300.53 213.462 300.302 213.375 300.047C213.288 299.792 213.266 299.519 213.312 299.253C213.52 298.701 213.909 298.236 214.416 297.935C214.922 297.633 215.516 297.514 216.099 297.596L216.439 297.591L216.334 297.289C216.107 296.683 216.098 296.018 216.307 295.406C216.536 294.975 216.861 294.602 217.257 294.318C217.653 294.034 218.11 293.846 218.591 293.769C219.665 293.502 220.791 293.543 221.843 293.885C222.895 294.228 223.83 294.858 224.543 295.706C225.029 296.285 225.341 296.991 225.441 297.741C225.51 298.409 225.384 299.082 225.078 299.68L224.968 299.896L225.209 299.994C225.969 300.296 226.58 300.887 226.909 301.638C227.01 301.831 227.071 302.043 227.087 302.26C227.103 302.477 227.074 302.695 227.002 302.901V302.901Z" fill="#4F5558"/>
<path opacity="0.58" d="M221.649 297.411C221.744 297.083 221.382 296.689 220.84 296.531C220.299 296.374 219.783 296.513 219.688 296.841C219.593 297.17 219.955 297.564 220.497 297.721C221.038 297.878 221.554 297.74 221.649 297.411Z" fill="#4F5558"/>
<path opacity="0.58" d="M228.119 297.648L226.283 297.784L226.353 298.729L228.189 298.593L228.119 297.648Z" fill="#4F5558"/>
<path opacity="0.58" d="M226.855 293.405L225.404 294.54L225.985 295.287L227.436 294.153L226.855 293.405Z" fill="#4F5558"/>
<path opacity="0.58" d="M223.462 290.569L222.885 292.321L223.782 292.619L224.36 290.867L223.462 290.569Z" fill="#4F5558"/>
<path opacity="0.58" d="M219.97 289.883L219.059 290.135L219.548 291.914L220.46 291.662L219.97 289.883Z" fill="#4F5558"/>
<path opacity="0.58" d="M215.779 291.46L215.162 292.177L216.555 293.383L217.173 292.665L215.779 291.46Z" fill="#4F5558"/>
<path opacity="0.58" d="M213.176 295.123L213.058 296.076L214.884 296.303L215.002 295.35L213.176 295.123Z" fill="#4F5558"/>
<path opacity="0.58" d="M222.841 300.187C223.046 299.633 222.837 299.044 222.375 298.872C221.913 298.7 221.372 299.01 221.167 299.565C220.962 300.12 221.17 300.709 221.632 300.881C222.094 301.052 222.635 300.742 222.841 300.187Z" fill="#4F5558"/>
<path opacity="0.58" d="M219.169 298.959C219.373 298.402 219.163 297.812 218.699 297.641C218.235 297.469 217.693 297.782 217.489 298.339C217.285 298.895 217.495 299.486 217.959 299.657C218.422 299.828 218.964 299.516 219.169 298.959Z" fill="#4F5558"/>
</g>
<g opacity="0.58">
<path opacity="0.58" d="M145.131 267.346C144.837 266.646 144.288 266.085 143.597 265.775C143.828 265.228 143.924 264.632 143.874 264.04C143.785 263.287 143.472 262.578 142.976 262.005C142.268 261.17 141.33 260.563 140.279 260.261C140.237 260.402 140.205 260.547 140.184 260.692C141.157 260.95 142.022 261.513 142.652 262.3C143.089 262.812 143.366 263.441 143.447 264.109C143.505 264.694 143.395 265.283 143.131 265.807L143.033 266.011L143.235 266.084C143.571 266.214 143.877 266.41 144.135 266.661C144.394 266.911 144.601 267.21 144.743 267.541C144.893 267.891 144.899 268.287 144.759 268.641C144.628 268.887 144.431 269.093 144.191 269.235C143.95 269.377 143.675 269.449 143.396 269.444C143.267 269.464 143.136 269.466 143.006 269.449C142.676 269.317 142.391 269.094 142.181 268.806C141.972 268.519 141.848 268.178 141.823 267.823L141.82 267.583L141.58 267.586C140.69 267.837 139.754 267.876 138.846 267.701C138.746 267.714 138.645 267.716 138.544 267.705C138.486 267.713 138.426 267.714 138.368 267.708C138.357 267.851 138.359 267.994 138.374 268.137L138.5 268.135C138.61 268.17 138.725 268.19 138.841 268.194C139.733 268.369 140.651 268.356 141.538 268.156C141.639 268.615 141.887 269.028 142.244 269.333C142.601 269.639 143.047 269.819 143.516 269.846C143.881 269.857 144.243 269.762 144.557 269.574C144.871 269.386 145.126 269.112 145.29 268.785C145.429 268.303 145.372 267.786 145.131 267.346V267.346Z" fill="#4F5558"/>
<path opacity="0.58" d="M140.039 263.778C140.042 263.993 139.703 264.124 139.375 264.104C139.459 263.761 139.517 263.432 139.588 263.115C139.918 263.262 140.124 263.55 140.039 263.778Z" fill="#4F5558"/>
<path opacity="0.58" d="M145.742 263.991L144.133 264.111L144.196 264.955L145.805 264.836L145.742 263.991Z" fill="#4F5558"/>
<path opacity="0.58" d="M144.642 260.258L143.37 261.253L143.89 261.921L145.162 260.926L144.642 260.258Z" fill="#4F5558"/>
<path opacity="0.58" d="M141.65 257.735L141.139 259.283L141.941 259.548L142.451 258L141.65 257.735Z" fill="#4F5558"/>
<path opacity="0.58" d="M141.55 265.698C141.73 265.207 141.543 264.685 141.132 264.533C140.72 264.381 140.24 264.656 140.06 265.148C139.879 265.639 140.067 266.16 140.478 266.312C140.89 266.464 141.37 266.189 141.55 265.698Z" fill="#4F5558"/>
</g>
<g style="mix-blend-mode:multiply" opacity="0.34">
<path d="M160.79 350.151C158.811 350.179 156.845 350.207 154.866 350.235L153.026 276.512L160.79 350.151Z" fill="#2F597C"/>
</g>
<g style="mix-blend-mode:multiply" opacity="0.34">
<path d="M219.53 275.569L219.793 349.2L215.609 349.26C215.017 349.268 214.45 349.276 213.87 349.284L219.53 275.569Z" fill="#2F597C"/>
</g>
<g style="mix-blend-mode:multiply" opacity="0.49">
<path d="M191.165 233.529L179.735 232.857C175.15 233.959 156.083 238.728 155.3 243.947C155.255 244.109 155.244 244.279 155.266 244.445C155.287 244.612 155.342 244.773 155.427 244.918C156.854 246.895 165.453 240.795 177.069 238.633C178.725 240.708 181.46 244.296 186.338 243.406C187.878 243.169 189.355 242.627 190.683 241.812C192.011 240.997 193.164 239.924 194.074 238.657C206.522 240.907 215.184 247.306 217.138 244.65C217.276 244.473 217.364 244.262 217.394 244.039C217.775 240.723 203.436 236.616 191.165 233.529Z" fill="#FFCE31"/>
</g>
<path d="M179.262 231.461C179.094 231.214 179.019 230.917 179.05 230.62C179.08 230.324 179.214 230.048 179.428 229.84C179.628 229.71 179.86 229.638 180.099 229.635C180.338 229.631 180.573 229.696 180.776 229.821C181.057 230 181.267 230.27 181.373 230.586C181.478 230.902 181.472 231.245 181.355 231.557C181.515 230.354 182.59 229.72 183.172 229.914C183.544 230.097 183.834 230.412 183.986 230.797C184.139 231.183 184.142 231.612 183.996 232C183.961 231.615 184.067 231.23 184.295 230.917C184.522 230.604 184.856 230.386 185.233 230.302C185.413 230.294 185.593 230.33 185.756 230.407C185.92 230.484 186.062 230.599 186.172 230.743C186.582 231.256 186.366 232.004 186.479 232.003C186.593 232.001 186.62 231.28 187.12 230.957C187.285 230.878 187.465 230.836 187.648 230.833C187.83 230.83 188.012 230.868 188.179 230.942C188.42 231.051 188.626 231.227 188.772 231.449C188.918 231.67 188.998 231.929 189.003 232.195C189.058 231.872 189.19 231.567 189.388 231.306C189.587 231.046 189.845 230.838 190.142 230.7C190.321 230.617 190.516 230.572 190.713 230.569C190.911 230.567 191.107 230.605 191.288 230.683C191.527 230.873 191.699 231.134 191.78 231.428C191.862 231.722 191.847 232.034 191.74 232.32C192.245 234.12 192.737 235.921 193.241 237.733C192.285 238.82 191.115 239.697 189.805 240.31C188.495 240.922 187.073 241.256 185.628 241.292C184.035 241.266 182.468 240.883 181.042 240.171C179.617 239.458 178.368 238.435 177.389 237.175L179.262 231.461Z" fill="#8D9397"/>
<g style="mix-blend-mode:multiply" opacity="0.27">
<path d="M157.769 217.18C160.584 220.148 166.688 223.917 172.797 226.257C161.753 223.38 151.979 216.897 145.019 207.831C145.019 207.831 156.356 213.573 157.05 215.37C157.744 217.168 152.651 211.818 157.769 217.18Z" fill="#8D4F26"/>
</g>
<g style="mix-blend-mode:multiply" opacity="0.27">
<path d="M226.78 207.278C222.081 213.588 215.997 218.729 208.998 222.304C202 225.88 194.275 227.793 186.421 227.896C194.287 225.256 201.028 225.944 212.131 218.684C223.234 211.423 222.177 206.205 224.565 206.639C225.319 206.794 226.06 207.007 226.78 207.278Z" fill="#8D4F26"/>
</g>
<g clip-path="url(#clip1_9849_186932)">
<g filter="url(#filter1_d_9849_186932)">
<path d="M142.62 348.299L33.1985 347.186C32.8747 344.353 32.8103 341.497 33.0061 338.652C33.05 337.066 33.2027 335.411 33.4119 333.65C33.6679 330.838 34.0913 327.781 34.5369 324.564C34.7961 322.93 35.0562 321.26 35.3535 319.537C35.8626 316.607 36.3929 313.553 36.9955 310.465C37.3086 308.815 37.6411 307.111 37.9899 305.461C38.591 302.427 39.2104 299.375 39.8813 296.396C40.2692 294.623 40.6161 293.044 40.9832 291.377C41.6749 288.292 42.4013 285.243 43.0172 282.316C43.4051 280.543 43.8064 278.93 44.226 277.3C44.9752 274.074 45.755 271.027 46.4561 268.245C46.8975 266.473 47.3389 264.701 47.7358 263.249C49.5518 256.269 50.832 251.897 50.832 251.897L77.4052 236.574C81.5423 238.535 86.0736 239.523 90.6516 239.461C95.2296 239.398 99.7325 238.288 103.815 236.215L127.921 248.21C129.402 253.996 130.859 259.794 132.293 265.602C132.746 267.274 133.181 268.963 133.58 270.669C134.351 273.735 135.117 276.796 135.877 279.85C136.33 281.539 136.765 283.229 137.163 284.935L139.479 294.098C139.735 295.14 140.011 296.147 140.25 297.188C140.231 297.848 140.214 298.49 140.338 299.171C140.468 302.208 140.598 305.244 140.763 308.3C140.842 309.961 140.902 311.676 140.981 313.337C141.111 316.392 141.276 319.43 141.407 322.466C141.485 324.146 141.545 325.842 141.659 327.523C141.79 330.559 141.919 333.614 142.067 336.651L142.303 341.671C142.403 343.887 142.538 346.085 142.62 348.299Z" fill="#D08B63"/>
<path d="M49.0583 168.865C49.0583 168.865 38.2976 165.802 44.9964 155.121C44.9964 155.121 38.3787 141.557 51.1088 137.252C51.1088 137.252 55.0804 126.496 63.8896 130.468C63.8896 130.468 66.8222 117.935 76.3597 122.659C76.3597 122.659 86.1017 110.938 95.0298 122.229C95.0298 122.229 106.557 116.909 109.109 125.901C109.109 125.901 119.217 124.824 120.108 132.61C120.108 132.61 132.091 132.745 130.514 143.371C130.514 143.371 139.192 144.966 136.666 152.461C136.666 152.461 147.904 159.552 140.899 167.12C140.899 167.12 146.83 173.921 138.6 175.424L49.0583 168.865Z" fill="#231F20"/>
<path d="M148.985 179.19C148.598 180.856 147.65 182.338 146.298 183.386C144.947 184.434 143.276 184.985 141.566 184.944C140.825 184.916 140.093 184.763 139.402 184.492L139.392 184.884C139.327 187.507 138.998 190.116 138.409 192.672V192.672C134.805 208.862 121.556 221.628 104.606 225.638C103.834 225.831 103.08 225.988 102.309 226.128C101.539 226.267 100.733 226.387 99.9102 226.454C97.2013 226.855 94.4639 227.03 91.7261 226.977C66.309 226.275 46.1585 206.681 46.4199 183.012C46.4327 182.549 46.4401 182.281 46.4401 182.281L46.4425 182.192C46.0135 182.283 45.5755 182.325 45.137 182.316C43.4501 182.235 41.8413 181.581 40.5754 180.463C39.3094 179.345 38.4618 177.829 38.1718 176.165C37.8748 174.469 38.2356 172.725 39.1806 171.286C39.5296 170.807 39.9864 170.416 40.5143 170.145C41.7002 169.622 43.0411 169.569 44.2642 169.999C45.6086 170.426 46.8431 171.142 47.8808 172.097L47.8783 172.187C53.3792 153.212 72.1641 139.582 94.0877 140.188C116.011 140.793 134.45 155.826 138.532 175.315C139.778 174.018 141.36 173.092 143.101 172.64C144.34 172.279 145.67 172.405 146.819 172.993C147.744 173.703 148.441 174.667 148.826 175.768C149.211 176.869 149.266 178.058 148.985 179.19V179.19Z" fill="#8D4F26"/>
<path d="M134.091 175.299L133.841 175.292C133.14 175.326 132.443 175.168 131.824 174.837C131.205 174.506 130.687 174.013 130.326 173.411L124.458 163.061C123.95 162.162 123.11 161.498 122.119 161.212L88.9978 152.037C88.2652 151.838 87.4908 151.853 86.7669 152.082L60.709 160.373C60.0935 160.564 59.5366 160.909 59.0902 161.374C58.6438 161.839 58.3224 162.409 58.1561 163.032L56.0278 170.984C55.8723 171.544 55.5935 172.062 55.2116 172.5C54.8298 172.937 54.3547 173.284 53.8214 173.514C53.288 173.744 52.7099 173.852 52.1295 173.829C51.5491 173.806 50.9812 173.653 50.4676 173.382C49.6311 172.935 48.9881 172.195 48.6609 171.305C48.3336 170.414 48.3448 169.434 48.6924 168.551C55.2861 151.338 73.296 139.292 94.0788 139.866C114.576 140.432 131.707 153.109 137.583 170.275C137.768 170.839 137.819 171.437 137.733 172.024C137.647 172.611 137.426 173.17 137.087 173.657C136.749 174.144 136.302 174.545 135.782 174.83C135.262 175.115 134.683 175.276 134.091 175.299V175.299Z" fill="#231F20"/>
<path d="M74.2819 189.491C79.5288 189.636 83.8732 186.457 83.9855 182.39C84.0979 178.324 79.9355 174.91 74.6887 174.765C69.4419 174.62 65.0974 177.799 64.9851 181.866C64.8728 185.932 69.0351 189.346 74.2819 189.491Z" fill="white"/>
<path d="M74.5136 189.498C78.0476 189.595 80.9916 186.809 81.0893 183.274C81.1869 179.739 78.4012 176.794 74.8672 176.697C71.3332 176.599 68.3892 179.386 68.2916 182.92C68.194 186.455 70.9797 189.4 74.5136 189.498Z" fill="#231F20"/>
<path d="M111.106 190.509C116.353 190.654 120.698 187.475 120.81 183.408C120.922 179.341 116.76 175.927 111.513 175.782C106.266 175.638 101.922 178.817 101.81 182.883C101.697 186.95 105.86 190.364 111.106 190.509Z" fill="white"/>
<path d="M111.499 190.519C115.033 190.617 117.977 187.83 118.074 184.295C118.172 180.761 115.386 177.816 111.852 177.718C108.318 177.621 105.374 180.407 105.277 183.942C105.179 187.477 107.965 190.421 111.499 190.519Z" fill="#231F20"/>
<path d="M64.032 171.812C64.0521 171.081 67.3353 168.459 72.8334 167.666C74.7078 167.397 76.6091 167.371 78.49 167.59C78.6842 167.686 78.8545 167.825 78.9886 167.995C79.1228 168.165 79.2173 168.363 79.2655 168.575C79.273 168.792 79.2306 169.009 79.1416 169.207C79.0527 169.406 78.9195 169.581 78.7523 169.72C77.5211 171.025 74.7967 168.915 71.6187 169.666C69.07 170.238 65.5754 172.764 64.704 172.669C64.5181 172.653 64.3437 172.572 64.2108 172.441C64.1403 172.354 64.0882 172.253 64.0574 172.145C64.0267 172.036 64.0181 171.923 64.032 171.812V171.812Z" fill="#231F20"/>
<path d="M118.99 172.456C118.885 171.739 115.51 169.291 109.975 168.834C108.085 168.668 106.181 168.753 104.313 169.088C104.128 169.197 103.968 169.344 103.844 169.519C103.719 169.694 103.632 169.893 103.59 170.103C103.602 170.322 103.66 170.537 103.759 170.733C103.858 170.929 103.996 171.103 104.165 171.243C105.487 172.457 108.082 170.192 111.313 170.745C113.887 171.191 117.534 173.486 118.377 173.331C118.561 173.31 118.73 173.219 118.848 173.076C118.916 172.989 118.963 172.889 118.988 172.782C119.013 172.674 119.013 172.563 118.99 172.456V172.456Z" fill="#231F20"/>
<path d="M88.183 189.287C86.3765 190.111 85.13 191.325 85.1614 192.771C85.1404 193.553 85.3218 194.326 85.688 195.016C86.1305 195.836 86.7141 196.571 87.4118 197.187C86.2914 197.096 85.2495 196.575 84.5046 195.733C83.7598 194.891 83.3697 193.793 83.4161 192.67C83.4307 192.07 83.5962 191.484 83.8974 190.965C84.1985 190.446 84.6256 190.012 85.1391 189.702C85.5883 189.421 86.0918 189.239 86.6165 189.168C87.1412 189.096 87.6751 189.137 88.183 189.287Z" fill="#231F20"/>
<path d="M87.7152 206.223C89.0143 206.19 90.3079 206.04 91.5805 205.777C92.7793 205.51 93.9449 205.111 95.0559 204.588C96.1764 204.051 97.245 203.411 98.2481 202.678C98.7749 202.336 99.2506 201.903 99.7784 201.525C100.306 201.147 100.765 200.66 101.33 200.247C100.849 201.549 100.112 202.742 99.1638 203.756C98.22 204.793 97.0815 205.634 95.8132 206.232C94.5278 206.826 93.1351 207.152 91.7198 207.19C90.3224 207.232 88.9395 206.898 87.7152 206.223V206.223Z" fill="#231F20"/>
<g style="mix-blend-mode:multiply" opacity="0.28">
<path d="M71.0496 192.203C71.0496 192.203 76.3254 188.477 78.9972 189.907C81.6691 191.337 71.0496 192.203 71.0496 192.203Z" fill="#8D4F26"/>
</g>
<g style="mix-blend-mode:multiply" opacity="0.28">
<path d="M115.494 193.752C115.494 193.752 110.432 189.723 107.686 191.003C104.939 192.283 115.494 193.752 115.494 193.752Z" fill="#8D4F26"/>
</g>
<path d="M96.3115 223.071L87.0074 222.814L86.5632 238.896L95.8674 239.153L96.3115 223.071Z" fill="#8D4F26"/>
<path d="M102.273 226.162C101.484 226.301 100.679 226.404 99.8738 226.488C100.662 226.367 101.484 226.319 102.273 226.162Z" fill="#8D4F26"/>
<g style="mix-blend-mode:multiply" opacity="0.28">
<path d="M99.8739 226.489C97.1652 226.891 94.4276 227.066 91.6898 227.012C66.2727 226.31 46.1222 206.716 46.3835 183.047C46.6288 187.728 49.3156 213.156 81.8495 224.207C87.6182 226.278 93.7712 227.057 99.8739 226.489V226.489Z" fill="#8D4F26"/>
</g>
<g style="mix-blend-mode:multiply" opacity="0.28">
<path d="M138.372 192.725C134.768 208.915 121.518 221.681 104.569 225.691C125.614 220.634 136.778 198.123 138.372 192.725Z" fill="#8D4F26"/>
</g>
<path d="M85.5068 234.513C86.1256 235.22 86.8779 235.798 87.7205 236.213C88.563 236.628 89.4793 236.873 90.4167 236.933C92.4329 236.83 94.372 236.125 95.9844 234.91C97.9102 233.643 98.4561 232.605 99.9548 232.593C100.894 232.612 101.795 232.966 102.496 233.591C103.251 234.27 103.727 235.205 103.833 236.215C102.402 238.334 100.501 240.093 98.2785 241.356C96.0562 242.619 93.5722 243.352 91.0202 243.497C88.3636 243.511 85.7424 242.889 83.3743 241.685C81.0062 240.48 78.9598 238.728 77.4051 236.573C77.5404 235.949 77.799 235.358 78.1657 234.835C78.5324 234.312 78.9998 233.868 79.5406 233.528C80.5094 233.031 81.6121 232.859 82.6862 233.036C83.7603 233.214 84.749 233.732 85.5068 234.513V234.513Z" fill="#231F20"/>
<path d="M123.269 258.412L56.7853 256.575L56.646 261.621L123.13 263.457L123.269 258.412Z" fill="#FFECD5"/>
<path d="M133.58 270.65L124.989 270.413L125.128 265.385L132.257 265.582C132.746 267.255 133.181 268.944 133.58 270.65Z" fill="#FFECD5"/>
<path d="M137.164 284.916L126.149 284.612L126.288 279.566L135.877 279.831C136.259 281.519 136.765 283.21 137.164 284.916Z" fill="#FFECD5"/>
<path d="M140.356 299.171L125.758 298.768L125.897 293.722L139.479 294.097C139.736 295.139 140.011 296.146 140.25 297.187C140.303 297.849 140.321 298.492 140.356 299.171Z" fill="#FFECD5"/>
<path d="M141.001 313.266L125.369 312.834L125.508 307.807L140.872 308.231C140.825 309.96 140.92 311.676 141.001 313.266Z" fill="#FFECD5"/>
<path d="M141.676 327.558L124.975 327.097L125.115 322.051L141.424 322.502C141.503 324.145 141.565 325.771 141.676 327.558Z" fill="#FFECD5"/>
<path d="M142.321 341.671L124.586 341.181L124.725 336.171L142.085 336.651L142.321 341.671Z" fill="#FFECD5"/>
<path d="M54.7047 263.441L54.5658 268.468L46.5629 268.247C47.0042 266.475 47.4456 264.703 47.8425 263.251L54.7047 263.441Z" fill="#FFECD5"/>
<path d="M55.8115 277.62L55.6721 282.665L43.1953 282.321C43.5832 280.547 43.9845 278.935 44.4041 277.305L55.8115 277.62Z" fill="#FFECD5"/>
<path d="M55.4204 291.776L55.2811 296.821L39.9167 296.397C40.3046 294.624 40.6515 293.045 41.0186 291.378L55.4204 291.776Z" fill="#FFECD5"/>
<path d="M55.0295 305.931L54.8926 310.888L37.0686 310.395C37.3817 308.745 37.7142 307.041 38.063 305.391L55.0295 305.931Z" fill="#FFECD5"/>
<path d="M54.6391 320.069L54.4987 325.151L34.5714 324.6C34.8306 322.966 35.0908 321.296 35.3881 319.573L54.6391 320.069Z" fill="#FFECD5"/>
<path d="M54.2481 334.225L54.1098 339.235L33.0061 338.652C33.0499 337.065 33.2027 335.41 33.4118 333.649L54.2481 334.225Z" fill="#FFECD5"/>
<path d="M123.308 274.435L56.8242 272.599L56.6848 277.644L123.169 279.48L123.308 274.435Z" fill="#FFECD5"/>
<path d="M123.347 290.476L56.8629 288.639L56.7236 293.685L123.207 295.521L123.347 290.476Z" fill="#FFECD5"/>
<path d="M123.386 306.499L56.902 304.663L56.7626 309.708L123.246 311.544L123.386 306.499Z" fill="#FFECD5"/>
<path d="M123.424 322.54L56.9403 320.704L56.8009 325.75L123.285 327.586L123.424 322.54Z" fill="#FFECD5"/>
<path d="M123.463 338.581L56.9791 336.745L56.8397 341.791L123.323 343.627L123.463 338.581Z" fill="#FFECD5"/>
<g style="mix-blend-mode:multiply" opacity="0.31">
<path d="M123.269 258.412C123.269 258.412 129.958 294.566 128.114 312.911L126.285 331.344L124.52 343.571L123.269 258.412Z" fill="#D08B63"/>
</g>
<g style="mix-blend-mode:multiply" opacity="0.31">
<path d="M57.2166 256.462C57.2166 256.462 50.4033 292.6 52.1419 311.026L53.8979 329.469L55.6113 341.703L57.2166 256.462Z" fill="#D08B63"/>
</g>
<g style="mix-blend-mode:screen">
<path d="M87.5241 191.837C88.3258 192.519 90.2156 192.553 90.2868 191.913C90.358 191.273 89.2528 190.6 88.2498 190.751C87.8754 190.74 87.2962 191.045 87.2873 191.366C87.2785 191.687 87.28 191.634 87.5241 191.837Z" fill="#8D4F26"/>
</g>
<g style="mix-blend-mode:multiply" opacity="0.28">
<path d="M47.9222 172.545L45.8033 176.929C45.8033 176.929 44.7924 171.548 40.6038 171.433C40.1247 171.461 39.6442 171.411 39.1808 171.286C39.5298 170.807 39.9866 170.416 40.5145 170.146C41.7004 169.622 43.0413 169.57 44.2644 169.999C45.6088 170.426 46.8433 171.142 47.881 172.098L47.9222 172.545Z" fill="#8D4F26"/>
</g>
<g style="mix-blend-mode:multiply" opacity="0.28">
<path d="M138.415 175.045L140.306 179.539C140.306 179.539 141.595 174.222 145.801 174.339C146.259 174.362 146.718 174.314 147.161 174.198C146.846 173.694 146.409 173.277 145.892 172.985C144.743 172.398 143.413 172.272 142.174 172.633C140.805 172.976 139.531 173.624 138.447 174.528L138.415 175.045Z" fill="#8D4F26"/>
</g>
<path d="M69.1908 269.311C73.0693 269.418 76.3003 266.36 76.4075 262.48C76.5146 258.601 73.4574 255.369 69.5788 255.262C65.7003 255.155 62.4693 258.213 62.3621 262.092C62.255 265.972 65.3123 269.204 69.1908 269.311Z" fill="#FFECD5"/>
</g>
<path d="M70.8398 195.842C67.5895 195.316 64.5687 193.835 62.1593 191.587C59.7499 189.338 58.0602 186.424 57.3039 183.211C56.5476 179.999 56.7586 176.633 57.9102 173.539C59.0619 170.445 61.1025 167.763 63.774 165.83C66.4454 163.898 69.6278 162.803 72.9186 162.683C76.2094 162.563 79.4609 163.425 82.2619 165.158C85.0629 166.892 87.2875 169.419 88.6546 172.421C90.0216 175.424 90.4696 178.766 89.9419 182.025C89.2295 186.393 86.8183 190.3 83.2373 192.891C79.6562 195.481 75.1977 196.542 70.8398 195.842V195.842ZM76.0294 163.791C72.9667 163.295 69.8252 163.72 67.002 165.013C64.1787 166.306 61.8003 168.409 60.1673 171.055C58.5342 173.702 57.7197 176.773 57.8267 179.882C57.9337 182.991 58.9574 185.998 60.7685 188.522C62.5796 191.046 65.0967 192.975 68.002 194.065C70.9073 195.155 74.0703 195.357 77.0915 194.646C80.1127 193.934 82.8566 192.341 84.9764 190.067C87.0963 187.794 88.497 184.942 89.0017 181.872C89.661 177.753 88.6654 173.541 86.2328 170.159C83.8002 166.777 80.1291 164.501 76.0233 163.828L76.0294 163.791Z" fill="#EDD8A2"/>
<path d="M109.011 202.023C105.758 201.502 102.734 200.025 100.32 197.78C97.9065 195.534 96.2121 192.621 95.4514 189.408C94.6907 186.196 94.8978 182.828 96.0466 179.732C97.1953 176.636 99.2341 173.95 101.905 172.015C104.576 170.08 107.758 168.982 111.05 168.86C114.342 168.738 117.596 169.598 120.398 171.331C123.201 173.063 125.427 175.591 126.796 178.594C128.164 181.597 128.612 184.941 128.084 188.201C127.373 192.564 124.966 196.468 121.391 199.059C117.817 201.649 113.365 202.715 109.011 202.023V202.023ZM114.2 169.971C111.137 169.47 107.994 169.89 105.167 171.179C102.341 172.468 99.9584 174.568 98.3211 177.213C96.6838 179.858 95.8652 182.93 95.9687 186.04C96.0722 189.151 97.0933 192.159 98.9027 194.687C100.712 197.214 103.229 199.145 106.135 200.238C109.04 201.33 112.204 201.534 115.227 200.823C118.25 200.113 120.995 198.52 123.117 196.246C125.238 193.972 126.639 191.12 127.144 188.049C127.805 183.934 126.814 179.726 124.387 176.345C121.96 172.964 118.295 170.686 114.194 170.009L114.2 169.971Z" fill="#EDD8A2"/>
<path d="M89.76 181.541L89.4118 180.652C89.5978 180.576 94.0767 178.834 96.2345 181.834L95.4602 182.386C93.734 179.998 89.8007 181.528 89.76 181.541Z" fill="#EDD8A2"/>
</g>
<defs>
<filter id="filter0_d_9849_186932" x="55.195" y="-2.01611" width="179.475" height="348.659" filterUnits="userSpaceOnUse" color-interpolation-filters="sRGB">
<feFlood flood-opacity="0" result="BackgroundImageFix"/>
<feColorMatrix in="SourceAlpha" type="matrix" values="0 0 0 0 0 0 0 0 0 0 0 0 0 0 0 0 0 0 127 0" result="hardAlpha"/>
<feOffset dx="4"/>
<feGaussianBlur stdDeviation="2"/>
<feComposite in2="hardAlpha" operator="out"/>
<feColorMatrix type="matrix" values="0 0 0 0 0 0 0 0 0 0 0 0 0 0 0 0 0 0 0.25 0"/>
<feBlend mode="normal" in2="BackgroundImageFix" result="effect1_dropShadow_9849_186932"/>
<feBlend mode="normal" in="SourceGraphic" in2="effect1_dropShadow_9849_186932" result="shape"/>
</filter>
<filter id="filter1_d_9849_186932" x="32.8956" y="113.32" width="124.266" height="238.979" filterUnits="userSpaceOnUse" color-interpolation-filters="sRGB">
<feFlood flood-opacity="0" result="BackgroundImageFix"/>
<feColorMatrix in="SourceAlpha" type="matrix" values="0 0 0 0 0 0 0 0 0 0 0 0 0 0 0 0 0 0 127 0" result="hardAlpha"/>
<feOffset dx="4"/>
<feGaussianBlur stdDeviation="2"/>
<feComposite in2="hardAlpha" operator="out"/>
<feColorMatrix type="matrix" values="0 0 0 0 0 0 0 0 0 0 0 0 0 0 0 0 0 0 0.25 0"/>
<feBlend mode="normal" in2="BackgroundImageFix" result="effect1_dropShadow_9849_186932"/>
<feBlend mode="normal" in="SourceGraphic" in2="effect1_dropShadow_9849_186932" result="shape"/>
</filter>
<clipPath id="clip0_9849_186932">
<rect width="164.624" height="341.113" fill="white" transform="translate(64.4291) rotate(1.58217)"/>
</clipPath>
<clipPath id="clip1_9849_186932">
<rect width="111.621" height="231.287" fill="white" transform="translate(39.1567 115.975) rotate(1.58217)"/>
</clipPath>
</defs>
</svg>
