<svg width="330" height="379" viewBox="0 0 330 379" fill="none" xmlns="http://www.w3.org/2000/svg">
<mask id="mask0_1081_17822" style="mask-type:alpha" maskUnits="userSpaceOnUse" x="0" y="0" width="376" height="401">
<rect width="375.059" height="401" fill="#C4C4C4"/>
</mask>
<g mask="url(#mask0_1081_17822)">
</g>
<g clip-path="url(#clip0_1081_17822)">
<path d="M188.723 384.087L169.039 384.366C168.312 384.377 167.617 384.386 166.906 384.396L157.636 384.528L101.828 385.413C99.4025 385.447 96.9922 385.481 94.5664 385.516L74.1557 385.805C72.7827 358.738 72.7058 335.883 72.9868 318.648C73.1962 306.171 73.5583 296.838 74.2735 289.513C74.256 289.349 74.2537 289.183 74.2665 289.018C74.3851 287.575 74.5668 286.224 74.7185 284.936C74.7168 284.812 74.7152 284.704 74.7135 284.58C74.7135 284.58 74.712 284.471 74.7113 284.425C74.7065 284.084 74.8104 283.788 74.8522 283.462C75.0076 282.437 75.1642 281.49 75.3207 280.542C75.3185 280.387 75.3934 280.216 75.4219 280.045C75.4504 279.874 75.4203 279.936 75.4197 279.89C75.5219 279.47 75.5934 279.066 75.6806 278.678C75.8975 277.621 76.1461 276.625 76.4108 275.676C76.4365 275.498 76.4753 275.321 76.5269 275.148C77.698 270.861 79.5785 266.801 82.09 263.137C93.7938 246.066 113.213 239.096 124.607 236.083L137.086 235.519C146.782 237.086 166.536 241.702 179.227 257.173L178.937 257.471L180.692 259.182C180.791 259.282 180.876 259.396 180.945 259.519C181.091 259.692 181.223 259.877 181.339 260.072C181.916 260.868 182.444 261.699 182.919 262.56C183.246 263.054 183.542 263.567 183.807 264.097L184.124 264.665C184.426 265.25 184.712 265.85 184.983 266.435L185.142 266.727C185.398 267.313 185.653 267.913 185.878 268.499C186.247 269.439 186.6 270.379 186.924 271.382C186.996 271.583 187.056 271.79 187.102 271.999C187.506 273.248 187.881 274.622 188.195 276.028C188.198 276.26 188.202 276.508 188.328 276.708C188.455 276.907 188.493 277.449 188.576 277.82C188.578 277.959 188.58 278.114 188.582 278.285C190.034 287.128 190.827 296.067 190.955 305.028C191.914 331.402 191.168 357.81 188.723 384.087Z" fill="#00615D"/>
<path d="M65.4947 151.091C67.0928 152.846 69.1192 154.154 71.3743 154.885C73.6295 155.616 76.0356 155.745 78.3557 155.261C80.6759 154.776 82.83 153.693 84.606 152.12C86.3819 150.546 87.7185 148.536 88.484 146.287C88.9267 144.981 89.1628 143.613 89.1837 142.233C92.2213 141.904 95.0618 140.565 97.253 138.43C99.4442 136.296 100.86 133.487 101.276 130.452C101.691 127.417 101.082 124.33 99.5456 121.682C98.009 119.034 95.6333 116.977 92.7965 115.839C92.8106 113.258 92.0978 110.725 90.74 108.532C89.3822 106.338 87.4346 104.574 85.1212 103.441C82.8078 102.308 80.2225 101.854 77.6628 102.129C75.1031 102.404 72.6729 103.398 70.6516 104.996C70.0086 104.628 69.3375 104.311 68.6446 104.048C65.7997 103.055 62.7077 103.029 59.8466 103.974C56.9856 104.919 54.5149 106.783 52.8166 109.278C47.454 111.101 43.0094 114.945 40.423 119.995C37.8367 125.046 37.3115 130.908 38.9586 136.34C40.6058 141.773 44.296 146.35 49.2485 149.103C54.2011 151.856 60.0274 152.569 65.4947 151.091Z" fill="#231F20"/>
<path d="M177.875 144.477C179.473 146.232 181.5 147.539 183.755 148.27C186.01 149.001 188.416 149.131 190.736 148.646C193.056 148.161 195.211 147.079 196.987 145.505C198.762 143.932 200.099 141.922 200.865 139.673C201.338 138.355 201.6 136.971 201.641 135.571C204.679 135.242 207.519 133.903 209.71 131.768C211.901 129.634 213.317 126.825 213.733 123.79C214.148 120.755 213.539 117.668 212.003 115.02C210.466 112.372 208.09 110.315 205.254 109.177C205.273 106.585 204.56 104.04 203.196 101.838C201.832 99.6357 199.873 97.8662 197.547 96.7346C195.221 95.603 192.623 95.1557 190.054 95.4445C187.485 95.7332 185.05 96.7463 183.032 98.3662C182.386 97.998 181.709 97.6862 181.01 97.4341C178.162 96.433 175.063 96.4046 172.198 97.3534C169.332 98.3021 166.86 100.175 165.166 102.679C159.726 104.438 155.193 108.269 152.544 113.347C149.896 118.426 149.343 124.345 151.006 129.828C152.67 135.311 156.415 139.92 161.436 142.66C166.456 145.401 172.349 146.053 177.844 144.477L177.875 144.477Z" fill="#231F20"/>
<path d="M138.854 226.197L139.076 241.829C137.017 243.122 134.642 243.821 132.212 243.847C130.118 243.878 128.047 243.414 126.166 242.492L125.937 226.38L138.854 226.197Z" fill="#8D4F26"/>
<path d="M198.379 191.06C198.406 193.249 197.567 195.359 196.045 196.929C194.524 198.498 192.444 199.399 190.261 199.434C189.944 199.426 189.629 199.394 189.317 199.339C183.062 212.664 172.36 223.377 159.062 229.626C145.763 235.876 130.704 237.269 116.488 233.564C102.971 230.024 91.0116 222.077 82.4936 210.973C80.001 207.776 77.8396 204.334 76.0426 200.698C74.0111 201.317 71.8191 201.123 69.9275 200.156C68.0358 199.188 66.5918 197.523 65.8989 195.511C65.206 193.498 65.3182 191.294 66.212 189.363C67.1057 187.432 68.7113 185.923 70.6914 185.154C69.8785 181.271 69.4394 177.318 69.3803 173.35C69.1428 156.606 75.5486 140.454 87.1884 128.447C98.8283 116.44 114.749 109.561 131.447 109.325C148.146 109.088 164.255 115.512 176.231 127.184C188.207 138.856 195.068 154.82 195.305 171.564C195.356 175.725 195.006 179.881 194.261 183.975C195.502 184.695 196.535 185.727 197.257 186.97C197.979 188.212 198.366 189.622 198.379 191.06Z" fill="#8D4F26"/>
<path d="M77.3543 141.718L81.2478 172.158L70.6145 185.17C70.6145 185.17 59.7748 174.911 65.0268 168.204C65.0268 168.204 61.915 153.652 68.7665 145.311C75.6179 136.97 71.9867 144.63 71.9867 144.63C71.9867 144.63 68.4872 117.996 92.5134 117.655C92.5134 117.655 102.356 97.9444 124.58 102.34C124.58 102.34 146.076 92.5206 160.125 108.917C160.125 108.917 180.818 114.435 183.169 126.519C183.169 126.519 200.453 141.134 197.887 156.341C197.887 156.341 202.566 180.06 194.246 184.052C185.927 188.044 191.535 185.733 191.535 185.733L182.552 176.733L184.057 148.82L132.41 118.36L77.3543 141.718Z" fill="#231F20"/>
<path d="M116 171.883C115.85 172.195 112.127 179.965 103.592 180.752C101.08 180.915 98.5644 180.483 96.2494 179.49C93.9345 178.497 91.8851 176.972 90.2671 175.037C89.7178 166.817 96.2379 160.17 103.301 160.225C106.441 160.38 109.428 161.63 111.746 163.759C114.065 165.887 115.569 168.761 116 171.883Z" fill="white"/>
<path d="M168.831 172.512C167.379 174.948 165.288 176.936 162.786 178.261C160.284 179.587 157.467 180.198 154.642 180.027C152.217 179.796 149.875 179.016 147.793 177.747C145.712 176.477 143.944 174.751 142.623 172.698C142.611 170.969 142.938 169.254 143.587 167.651C144.236 166.049 145.193 164.59 146.404 163.358C147.615 162.127 149.056 161.146 150.645 160.473C152.233 159.8 153.939 159.447 155.664 159.435C157.389 159.423 159.099 159.751 160.697 160.402C162.296 161.052 163.751 162.012 164.979 163.226C166.207 164.44 167.185 165.885 167.857 167.479C168.528 169.072 168.88 170.782 168.892 172.511L168.831 172.512Z" fill="white"/>
<path d="M103.593 180.767C108.508 180.697 112.436 176.646 112.366 171.717C112.296 166.789 108.255 162.85 103.34 162.92C98.4245 162.989 94.4966 167.041 94.5665 171.97C94.6364 176.898 98.6776 180.837 103.593 180.767Z" fill="#231F20"/>
<path d="M155.601 180.03C160.516 179.96 164.444 175.908 164.374 170.98C164.304 166.051 160.263 162.113 155.347 162.182C150.432 162.252 146.504 166.304 146.574 171.232C146.644 176.161 150.685 180.099 155.601 180.03Z" fill="#231F20"/>
<path d="M126.896 179.616C125.676 180.024 124.565 180.708 123.649 181.614C123.242 182.023 122.923 182.509 122.71 183.045C122.498 183.581 122.395 184.154 122.41 184.731C122.447 185.911 122.805 187.058 123.446 188.048C124.164 189.115 125.085 190.029 126.158 190.736C124.747 190.541 123.451 189.852 122.499 188.789C121.489 187.674 120.919 186.228 120.895 184.721C120.895 183.946 121.069 183.181 121.405 182.483C121.767 181.794 122.288 181.202 122.925 180.757C124.057 179.885 125.476 179.477 126.896 179.616Z" fill="#231F20"/>
<g style="mix-blend-mode:screen">
<path d="M126.113 183.206C127.285 184.104 129.896 184.051 129.962 183.276C130.028 182.5 128.391 181.5 127.051 181.767C126.542 181.867 125.759 182.235 125.75 182.669C125.751 182.762 125.769 182.948 126.113 183.206Z" fill="#8D4F26"/>
</g>
<path d="M99.07 143.021C101.381 141.729 103.92 140.898 106.546 140.576C106.845 140.623 107.131 140.735 107.382 140.906C107.633 141.076 107.843 141.301 107.997 141.562C108.095 141.848 108.129 142.152 108.096 142.453C108.063 142.753 107.964 143.043 107.805 143.3C106.694 145.548 102.188 143.86 98.2341 146.194C93.2071 149.148 90.6078 153.291 90.3109 153.063C90.014 152.835 92.7996 146.566 99.07 143.021Z" fill="#231F20"/>
<path d="M166.697 149.563C163.827 145.971 160.053 143.211 155.766 141.567C153.281 140.637 150.666 140.104 148.016 139.988C147.726 140.07 147.457 140.213 147.228 140.409C146.999 140.605 146.814 140.848 146.688 141.122C146.621 141.42 146.622 141.728 146.691 142.025C146.759 142.322 146.893 142.599 147.083 142.837C148.363 144.833 153.081 144.053 156.906 144.635C160.588 145.258 163.999 146.974 166.697 149.563Z" fill="#231F20"/>
<path d="M148.056 199.259C146.449 201.509 144.476 203.473 142.221 205.069C139.958 206.706 137.479 208.02 134.855 208.972C132.224 209.95 129.446 210.471 126.639 210.513L124.542 210.476L122.47 210.218C121.785 210.11 121.11 209.947 120.451 209.73C119.786 209.543 119.131 209.336 118.481 209.095L118.51 208.939C121.154 209.438 123.854 209.562 126.531 209.308C129.202 209.058 131.827 208.459 134.342 207.527C136.865 206.617 139.286 205.445 141.565 204.03C143.857 202.61 145.99 200.948 147.929 199.072L148.056 199.259Z" fill="#231F20"/>
<g style="mix-blend-mode:multiply" opacity="0.27">
<path d="M113.973 183.432C116.622 181.526 118.107 179.057 117.291 177.916C116.475 176.776 113.667 177.397 111.018 179.302C108.369 181.208 106.884 183.677 107.7 184.817C108.516 185.958 111.324 185.337 113.973 183.432Z" fill="#8D4F26"/>
</g>
<g style="mix-blend-mode:multiply" opacity="0.27">
<path d="M151.298 184.187C152.081 183.024 150.526 180.598 147.825 178.768C145.123 176.938 142.298 176.397 141.515 177.56C140.731 178.723 142.286 181.149 144.988 182.979C147.689 184.809 150.515 185.35 151.298 184.187Z" fill="#8D4F26"/>
</g>
<g opacity="0.58">
<path opacity="0.58" d="M161.357 264.477C161.261 263.958 161.03 263.475 160.688 263.074C160.346 262.674 159.905 262.371 159.409 262.195C158.599 261.999 157.746 262.091 156.996 262.455C156.246 262.819 155.645 263.432 155.295 264.191C153.575 263.601 151.74 263.431 149.941 263.693C148.218 263.956 146.581 264.621 145.163 265.636C144.716 264.96 144.062 264.449 143.3 264.18C142.537 263.911 141.708 263.899 140.938 264.146C140.369 264.364 139.87 264.735 139.498 265.219C139.126 265.703 138.894 266.281 138.829 266.888C138.824 267.306 138.904 267.721 139.063 268.108C139.223 268.494 139.459 268.845 139.757 269.137C140.652 270.071 141.86 270.639 143.149 270.732C143.12 271.737 143.336 272.733 143.777 273.636C144.375 274.774 145.312 275.698 146.457 276.279C148.119 277.235 150.037 277.652 151.945 277.471C153.606 277.321 155.197 276.731 156.557 275.764C157.264 275.317 157.861 274.717 158.306 274.008C158.751 273.299 159.031 272.499 159.126 271.667C159.156 270.693 158.86 269.737 158.284 268.952C159.219 268.654 160.029 268.052 160.585 267.242C161.142 266.432 161.413 265.459 161.357 264.477ZM157.643 268.465L157.182 268.642L157.496 269.01C158.113 269.755 158.454 270.692 158.461 271.661C158.363 272.386 158.105 273.08 157.704 273.692C157.304 274.304 156.772 274.818 156.147 275.196C154.789 276.148 153.191 276.698 151.536 276.781C149.881 276.865 148.235 276.48 146.788 275.67C145.767 275.144 144.93 274.318 144.39 273.302C143.966 272.407 143.792 271.413 143.886 270.427L143.881 270.055L143.479 270.061C142.254 270.056 141.08 269.566 140.214 268.697C139.983 268.47 139.801 268.199 139.677 267.9C139.553 267.601 139.491 267.28 139.494 266.956C139.55 266.485 139.734 266.039 140.026 265.666C140.318 265.293 140.706 265.007 141.149 264.841C141.357 264.765 141.575 264.72 141.796 264.708C142.391 264.67 142.985 264.8 143.511 265.082C144.036 265.365 144.473 265.79 144.77 266.308L144.976 266.646L145.297 266.424C146.721 265.357 148.388 264.665 150.147 264.41C151.907 264.155 153.701 264.346 155.368 264.964L155.663 265.053L155.814 264.788C156.074 264.12 156.557 263.563 157.18 263.213C157.804 262.862 158.529 262.739 159.233 262.864C159.602 263.011 159.928 263.247 160.183 263.552C160.439 263.857 160.614 264.22 160.695 264.61C160.932 266.11 159.642 267.739 157.643 268.465Z" fill="#B9DFF4"/>
<path opacity="0.58" d="M151.586 272.509C152.428 272.438 153.075 271.965 153.032 271.453C152.988 270.941 152.27 270.585 151.429 270.657C150.587 270.729 149.94 271.202 149.983 271.713C150.027 272.225 150.744 272.581 151.586 272.509Z" fill="#B9DFF4"/>
<path opacity="0.58" d="M142.67 272.393L140.183 273.57L140.79 274.859L143.277 273.682L142.67 272.393Z" fill="#B9DFF4"/>
<path opacity="0.58" d="M145.027 277.032L143.609 279.396L144.828 280.13L146.245 277.767L145.027 277.032Z" fill="#B9DFF4"/>
<path opacity="0.58" d="M150.965 279.486L149.545 279.554L149.677 282.309L151.097 282.24L150.965 279.486Z" fill="#B9DFF4"/>
<path opacity="0.58" d="M155.867 278.287L154.724 279.134L156.359 281.352L157.502 280.505L155.867 278.287Z" fill="#B9DFF4"/>
<path opacity="0.58" d="M159.258 274.598L158.778 275.939L161.366 276.872L161.847 275.531L159.258 274.598Z" fill="#B9DFF4"/>
<path opacity="0.58" d="M162.705 268.935L160.036 269.6L160.379 270.983L163.048 270.318L162.705 268.935Z" fill="#B9DFF4"/>
<path opacity="0.58" d="M147.806 271.177C148.549 271.166 149.14 270.437 149.128 269.547C149.115 268.657 148.503 267.944 147.761 267.955C147.018 267.965 146.427 268.695 146.439 269.585C146.452 270.475 147.064 271.188 147.806 271.177Z" fill="#B9DFF4"/>
<path opacity="0.58" d="M153.968 269.788C154.711 269.778 155.302 269.048 155.29 268.158C155.277 267.268 154.665 266.555 153.923 266.566C153.18 266.576 152.589 267.306 152.601 268.196C152.614 269.086 153.226 269.799 153.968 269.788Z" fill="#B9DFF4"/>
</g>
<g opacity="0.58">
<path opacity="0.58" d="M87.9369 385.532L87.9391 385.687L88.2172 385.683L87.9369 385.532ZM91.816 384.454C91.6349 383.996 91.3025 383.614 90.8744 383.372C90.4463 383.13 89.9483 383.042 89.4636 383.124C89.1633 382.088 88.6199 381.139 87.879 380.357C87.1737 379.601 86.2958 379.029 85.3208 378.689C85.4909 378.243 85.5147 377.753 85.3886 377.293C85.2626 376.832 84.9933 376.423 84.62 376.127C84.3206 375.926 83.9722 375.811 83.6125 375.794C83.2528 375.777 82.8953 375.86 82.5787 376.031C82.3754 376.169 82.2022 376.347 82.0696 376.554C81.9371 376.761 81.8479 376.993 81.8076 377.236C81.6558 377.988 81.7881 378.77 82.1787 379.431C81.6819 379.747 81.2734 380.185 80.9913 380.703C80.6495 381.373 80.5149 382.13 80.6049 382.878C80.7081 383.936 81.1141 384.942 81.7742 385.774L82.2995 385.767C81.5729 384.953 81.1251 383.928 81.0217 382.841C80.934 382.173 81.054 381.495 81.365 380.899C81.6493 380.388 82.072 379.968 82.5842 379.688L82.7833 379.562L82.6573 379.393C82.4517 379.097 82.3065 378.763 82.2299 378.41C82.1533 378.058 82.1468 377.693 82.2109 377.338C82.2432 377.147 82.3133 376.964 82.4171 376.8C82.521 376.636 82.6564 376.495 82.8155 376.385C83.0594 376.263 83.331 376.209 83.6026 376.227C83.8742 376.245 84.1363 376.334 84.3623 376.487C84.4757 376.561 84.5762 376.654 84.6599 376.761C84.8682 377.037 84.9956 377.366 85.0278 377.71C85.0599 378.055 84.9956 378.401 84.8421 378.711L84.7368 378.914L84.9701 379.019C85.9532 379.327 86.8398 379.886 87.543 380.641C88.3029 381.409 88.8493 382.362 89.1276 383.407L89.1301 383.578L89.3309 383.575C89.7407 383.483 90.1695 383.535 90.5461 383.721C90.9227 383.907 91.2243 384.217 91.4008 384.599C91.4453 384.78 91.4532 384.968 91.4239 385.152C91.3947 385.336 91.3289 385.513 91.2306 385.671L91.6941 385.664C91.8833 385.29 91.9268 384.859 91.816 384.454Z" fill="#B9DFF4"/>
<path opacity="0.58" d="M79.8241 378.865L79.4087 379.591L80.8159 380.401L81.2313 379.675L79.8241 378.865Z" fill="#B9DFF4"/>
</g>
<g opacity="0.58">
<path opacity="0.58" d="M99.6393 322.609C99.3725 321.932 98.8819 321.367 98.2494 321.009C97.617 320.652 96.8812 320.523 96.1652 320.644C95.7143 319.119 94.9168 317.719 93.8355 316.555C92.7835 315.436 91.4854 314.579 90.0446 314.052C90.2986 313.396 90.3343 312.674 90.1465 311.996C89.9586 311.317 89.5573 310.718 89.0021 310.286C88.5569 309.963 88.0278 309.776 87.4788 309.748C86.9299 309.72 86.3846 309.852 85.9091 310.128C85.6102 310.335 85.3548 310.599 85.1576 310.905C84.9604 311.211 84.8253 311.553 84.7599 311.911C84.5485 313.027 84.7518 314.182 85.3313 315.157C84.637 315.656 84.0693 316.312 83.674 317.071C83.1595 318.07 82.96 319.203 83.1019 320.318C83.2592 321.889 83.8552 323.384 84.8214 324.631C85.7877 325.878 87.085 326.827 88.5645 327.368C89.2378 327.661 89.9685 327.796 90.7015 327.764C91.4345 327.732 92.1507 327.534 92.7963 327.184C93.49 326.703 94.0197 326.019 94.3139 325.226C95.0012 325.734 95.8354 326.002 96.6892 325.99C97.543 325.978 98.3693 325.686 99.0419 325.159C99.3587 324.826 99.5811 324.414 99.6861 323.965C99.7911 323.517 99.775 323.049 99.6393 322.609ZM98.5411 324.717C97.9114 325.176 97.1429 325.404 96.3653 325.361C95.5877 325.318 94.8485 325.008 94.2724 324.483L93.9135 324.24L93.7959 324.66C93.5794 325.487 93.0671 326.206 92.3564 326.679C91.7923 326.974 91.1674 327.131 90.5316 327.14C89.8958 327.149 89.2667 327.009 88.6945 326.731C87.3466 326.225 86.1667 325.351 85.2876 324.208C84.4085 323.065 83.8653 321.699 83.7193 320.263C83.6076 319.266 83.7809 318.259 84.219 317.358C84.6424 316.597 85.2708 315.97 86.0324 315.55L86.3235 315.376L86.1496 315.099C85.8412 314.654 85.6239 314.151 85.5103 313.621C85.3966 313.09 85.3889 312.543 85.4876 312.009C85.5363 311.727 85.6402 311.458 85.7933 311.216C85.9463 310.975 86.1455 310.766 86.3794 310.602C86.7425 310.404 87.1539 310.311 87.5668 310.335C87.9796 310.36 88.3775 310.5 88.7149 310.739C88.8704 310.855 89.0123 310.989 89.1378 311.136C89.4487 311.55 89.6413 312.041 89.6949 312.556C89.7485 313.071 89.6611 313.592 89.442 314.061L89.2608 314.358L89.6179 314.477C91.0749 314.965 92.3879 315.809 93.439 316.933C94.5294 318.087 95.3098 319.499 95.7072 321.038L95.7109 321.301L95.9736 321.298C96.586 321.139 97.2349 321.203 97.8048 321.478C98.3746 321.754 98.8285 322.223 99.0857 322.803C99.1728 323.142 99.1682 323.498 99.0725 323.834C98.9767 324.17 98.7933 324.475 98.5411 324.717Z" fill="#B9DFF4"/>
<path opacity="0.58" d="M89.8202 322.634C90.168 322.345 90.0653 321.645 89.5907 321.073C89.116 320.5 88.4493 320.271 88.1015 320.561C87.7537 320.851 87.8564 321.55 88.331 322.123C88.8057 322.695 89.4724 322.924 89.8202 322.634Z" fill="#B9DFF4"/>
<path opacity="0.58" d="M81.8669 314.435L81.2437 315.523L83.3341 316.727L83.9574 315.639L81.8669 314.435Z" fill="#B9DFF4"/>
<path opacity="0.58" d="M81.8268 319.659L79.4216 319.821L79.5056 321.073L81.9107 320.912L81.8268 319.659Z" fill="#B9DFF4"/>
<path opacity="0.58" d="M82.2316 324.208L80.3215 325.683L81.0851 326.677L82.9952 325.203L82.2316 324.208Z" fill="#B9DFF4"/>
<path opacity="0.58" d="M85.1199 327.722L84.3477 330.012L85.5334 330.414L86.3056 328.124L85.1199 327.722Z" fill="#B9DFF4"/>
<path opacity="0.58" d="M90.6999 328.71L89.4915 329.037L90.1192 331.371L91.3277 331.044L90.6999 328.71Z" fill="#B9DFF4"/>
<path opacity="0.58" d="M94.6234 326.798L93.7991 327.742L95.613 329.334L96.4373 328.39L94.6234 326.798Z" fill="#B9DFF4"/>
<path opacity="0.58" d="M89.2138 318.879C89.8447 318.425 90.0496 317.628 89.6715 317.1C89.2933 316.571 88.4753 316.511 87.8443 316.965C87.2134 317.419 87.0085 318.215 87.3866 318.744C87.7648 319.272 88.5828 319.333 89.2138 318.879Z" fill="#B9DFF4"/>
<path opacity="0.58" d="M93.2934 322.65C93.9243 322.196 94.1292 321.4 93.7511 320.871C93.3729 320.343 92.5549 320.283 91.9239 320.737C91.293 321.191 91.088 321.987 91.4662 322.515C91.8444 323.044 92.6624 323.104 93.2934 322.65Z" fill="#B9DFF4"/>
</g>
<g opacity="0.58">
<path opacity="0.58" d="M110.828 256.175C109.261 256.318 107.687 255.978 106.317 255.201C105.476 254.772 104.775 254.109 104.3 253.291C103.825 252.473 103.596 251.535 103.64 250.59C102.585 250.519 101.593 250.058 100.856 249.297C100.611 249.056 100.419 248.768 100.289 248.45C100.16 248.132 100.097 247.791 100.103 247.448C100.155 246.948 100.346 246.473 100.655 246.076C100.964 245.68 101.377 245.379 101.849 245.207C102.474 245.019 103.144 245.034 103.76 245.251C104.377 245.467 104.91 245.875 105.281 246.414C106.451 245.581 107.797 245.031 109.214 244.808C110.682 244.618 112.173 244.783 113.564 245.289C113.863 244.679 114.361 244.189 114.974 243.899C115.587 243.608 116.281 243.535 116.941 243.692C117.344 243.842 117.7 244.094 117.976 244.424C118.252 244.755 118.437 245.151 118.513 245.575C118.556 246.374 118.336 247.164 117.887 247.825C117.439 248.487 116.787 248.982 116.031 249.236C116.489 249.88 116.738 250.651 116.742 251.442C116.665 252.124 116.435 252.78 116.069 253.36C115.702 253.94 115.209 254.428 114.626 254.788C113.505 255.58 112.194 256.059 110.828 256.175ZM102.566 245.677C102.387 245.694 102.211 245.733 102.042 245.793C101.68 245.927 101.362 246.159 101.124 246.463C100.885 246.768 100.735 247.133 100.691 247.517C100.69 247.783 100.741 248.047 100.843 248.293C100.945 248.539 101.095 248.763 101.283 248.95C101.635 249.307 102.054 249.59 102.516 249.783C102.977 249.976 103.473 250.075 103.973 250.074L104.359 250.068L104.364 250.378C104.282 251.19 104.428 252.009 104.783 252.743C105.221 253.572 105.899 254.248 106.727 254.683C107.921 255.352 109.278 255.671 110.644 255.602C112.009 255.533 113.328 255.08 114.449 254.295C114.928 253.976 115.331 253.557 115.631 253.065C115.931 252.574 116.121 252.023 116.186 251.45C116.192 250.661 115.919 249.896 115.413 249.292L115.162 248.985L115.546 248.84C116.251 248.676 116.88 248.277 117.33 247.707C117.779 247.138 118.023 246.432 118.021 245.706C117.955 245.388 117.812 245.091 117.603 244.842C117.395 244.594 117.127 244.401 116.826 244.282C116.246 244.17 115.646 244.269 115.132 244.56C114.618 244.851 114.224 245.316 114.02 245.871L113.915 246.105L113.667 246.016C112.278 245.503 110.782 245.349 109.318 245.566C107.901 245.772 106.555 246.323 105.4 247.171L105.14 247.361L104.966 247.085C104.733 246.656 104.384 246.303 103.96 246.065C103.535 245.827 103.053 245.714 102.567 245.739L102.566 245.677Z" fill="#B9DFF4"/>
<path opacity="0.58" d="M110.561 252.171C111.25 252.112 111.779 251.726 111.744 251.308C111.708 250.89 111.121 250.599 110.432 250.658C109.744 250.717 109.214 251.103 109.25 251.521C109.285 251.939 109.872 252.23 110.561 252.171Z" fill="#B9DFF4"/>
<path opacity="0.58" d="M103.259 252.077L101.219 253.043L101.721 254.108L103.761 253.142L103.259 252.077Z" fill="#B9DFF4"/>
<path opacity="0.58" d="M105.198 255.869L104.035 257.808L105.042 258.414L106.204 256.476L105.198 255.869Z" fill="#B9DFF4"/>
<path opacity="0.58" d="M110.08 257.879L108.907 257.936L109.015 260.195L110.188 260.139L110.08 257.879Z" fill="#B9DFF4"/>
<path opacity="0.58" d="M114.076 256.889L113.132 257.589L114.473 259.408L115.417 258.708L114.076 256.889Z" fill="#B9DFF4"/>
<path opacity="0.58" d="M116.868 253.866L116.471 254.975L118.594 255.74L118.991 254.632L116.868 253.866Z" fill="#B9DFF4"/>
<path opacity="0.58" d="M119.676 249.241L117.487 249.786L117.77 250.929L119.96 250.384L119.676 249.241Z" fill="#B9DFF4"/>
<path opacity="0.58" d="M107.464 251.062C108.07 251.054 108.553 250.457 108.542 249.73C108.532 249.003 108.032 248.42 107.427 248.429C106.821 248.437 106.338 249.034 106.348 249.761C106.359 250.488 106.858 251.071 107.464 251.062Z" fill="#B9DFF4"/>
<path opacity="0.58" d="M112.517 249.937C113.123 249.929 113.606 249.332 113.595 248.605C113.585 247.878 113.085 247.295 112.48 247.304C111.874 247.312 111.391 247.909 111.401 248.636C111.412 249.363 111.911 249.946 112.517 249.937Z" fill="#B9DFF4"/>
</g>
<g opacity="0.58">
<path opacity="0.58" d="M109.757 359.3C109.729 358.282 109.455 357.286 108.958 356.398C108.475 355.548 107.811 354.817 107.011 354.256C107.275 353.895 107.414 353.458 107.407 353.011C107.401 352.564 107.25 352.131 106.976 351.777C106.752 351.524 106.463 351.336 106.14 351.234C105.818 351.132 105.473 351.12 105.145 351.199C104.698 351.368 104.336 351.707 104.138 352.143C103.84 352.801 103.791 353.545 103.998 354.237C103.47 354.408 102.995 354.714 102.619 355.124C102.144 355.662 101.841 356.33 101.75 357.042C101.594 358.036 101.726 359.054 102.131 359.974C102.536 360.894 103.196 361.678 104.034 362.232C104.402 362.52 104.83 362.721 105.287 362.819C105.743 362.917 106.216 362.91 106.669 362.799C107.178 362.603 107.615 362.256 107.922 361.805C108.257 362.232 108.725 362.533 109.251 362.66C109.777 362.788 110.33 362.734 110.822 362.508C111.081 362.362 111.295 362.149 111.441 361.89C111.588 361.631 111.66 361.337 111.651 361.039C111.585 360.574 111.36 360.147 111.014 359.83C110.669 359.512 110.224 359.325 109.757 359.3ZM110.585 362.17C110.125 362.352 109.617 362.37 109.146 362.221C108.674 362.073 108.267 361.767 107.993 361.355L107.82 361.14L107.669 361.39C107.415 361.86 106.996 362.219 106.493 362.399C106.099 362.498 105.687 362.505 105.289 362.419C104.891 362.333 104.518 362.157 104.199 361.904C103.432 361.389 102.827 360.664 102.457 359.815C102.086 358.967 101.965 358.03 102.107 357.115C102.177 356.479 102.432 355.877 102.839 355.384C103.237 354.997 103.72 354.708 104.249 354.543L104.45 354.54L104.447 354.339C104.312 354.027 104.24 353.691 104.235 353.35C104.23 353.01 104.293 352.672 104.419 352.356C104.584 352.039 104.854 351.788 105.182 351.648C105.441 351.576 105.715 351.582 105.972 351.663C106.228 351.745 106.455 351.899 106.626 352.108C106.704 352.191 106.764 352.291 106.8 352.4C106.941 352.7 106.991 353.035 106.944 353.364C106.896 353.693 106.753 354 106.532 354.247L106.411 354.42L106.583 354.541C107.407 355.06 108.091 355.774 108.575 356.62C109.079 357.493 109.343 358.483 109.342 359.492L109.345 359.693L109.53 359.69C109.928 359.697 110.31 359.843 110.613 360.101C110.915 360.36 111.119 360.716 111.189 361.108C111.188 361.322 111.132 361.533 111.027 361.719C110.921 361.905 110.769 362.06 110.585 362.17Z" fill="#B9DFF4"/>
<path opacity="0.58" d="M105.553 359.509C105.807 359.386 105.848 358.943 105.644 358.519C105.441 358.095 105.07 357.85 104.816 357.973C104.563 358.095 104.522 358.538 104.725 358.962C104.929 359.386 105.299 359.631 105.553 359.509Z" fill="#B9DFF4"/>
<path opacity="0.58" d="M101.914 353.235L101.367 353.804L102.469 354.868L103.016 354.299L101.914 353.235Z" fill="#B9DFF4"/>
<path opacity="0.58" d="M99.5525 356.173L99.4128 356.951L100.918 357.223L101.058 356.445L99.5525 356.173Z" fill="#B9DFF4"/>
<path opacity="0.58" d="M100.622 359.321L99.22 359.934L99.5348 360.658L100.937 360.045L100.622 359.321Z" fill="#B9DFF4"/>
<path opacity="0.58" d="M101.881 361.945L101.054 363.235L101.717 363.663L102.544 362.372L101.881 361.945Z" fill="#B9DFF4"/>
<path opacity="0.58" d="M105.164 363.396L104.376 363.41L104.404 364.944L105.192 364.93L105.164 363.396Z" fill="#B9DFF4"/>
<path opacity="0.58" d="M107.876 362.847L107.229 363.298L108.101 364.558L108.748 364.108L107.876 362.847Z" fill="#B9DFF4"/>
<path opacity="0.58" d="M105.738 357.12C106.198 356.937 106.449 356.48 106.298 356.098C106.147 355.716 105.652 355.555 105.192 355.737C104.731 355.92 104.481 356.378 104.632 356.76C104.783 357.142 105.278 357.303 105.738 357.12Z" fill="#B9DFF4"/>
<path opacity="0.58" d="M107.683 360.065C108.143 359.882 108.394 359.424 108.243 359.042C108.092 358.66 107.597 358.499 107.137 358.682C106.677 358.865 106.426 359.322 106.577 359.704C106.728 360.086 107.223 360.247 107.683 360.065Z" fill="#B9DFF4"/>
</g>
<g opacity="0.58">
<path opacity="0.58" d="M187 271.334C186.396 271.444 185.776 271.426 185.18 271.279C184.584 271.133 184.026 270.862 183.542 270.484C182.318 269.644 181.353 268.478 180.754 267.118C180.156 265.757 179.949 264.256 180.156 262.784C180.279 261.77 180.708 260.818 181.385 260.055C181.269 259.86 181.137 259.675 180.99 259.503L180.899 259.613C180.132 260.484 179.656 261.575 179.537 262.731C179.305 264.392 179.583 266.085 180.332 267.585C180.963 268.953 181.965 270.115 183.224 270.938C183.783 271.37 184.427 271.678 185.114 271.842C185.801 272.006 186.515 272.022 187.209 271.889C187.15 271.7 187.08 271.514 187 271.334Z" fill="#B9DFF4"/>
<path opacity="0.58" d="M185.687 266.654C186.102 266.454 186.172 265.735 185.843 265.049C185.514 264.363 184.91 263.968 184.495 264.169C184.08 264.369 184.01 265.088 184.339 265.774C184.668 266.46 185.272 266.854 185.687 266.654Z" fill="#B9DFF4"/>
<path opacity="0.58" d="M176.043 261.27L175.816 262.535L178.249 262.975L178.476 261.709L176.043 261.27Z" fill="#B9DFF4"/>
<path opacity="0.58" d="M177.782 266.315L175.515 267.305L176.027 268.484L178.294 267.494L177.782 266.315Z" fill="#B9DFF4"/>
<path opacity="0.58" d="M179.775 270.52L178.438 272.605L179.517 273.301L180.854 271.216L179.775 270.52Z" fill="#B9DFF4"/>
<path opacity="0.58" d="M185.058 272.882L183.775 272.905L183.82 275.384L185.103 275.361L185.058 272.882Z" fill="#B9DFF4"/>
<path opacity="0.58" d="M188.647 273.062L188.395 272.693L188.578 272.567C188.596 272.721 188.629 272.891 188.647 273.062Z" fill="#B9DFF4"/>
</g>
<g opacity="0.58">
<path opacity="0.58" d="M154.248 343.992C154.217 342.914 153.93 341.86 153.411 340.917C152.892 339.973 152.157 339.166 151.266 338.564C151.55 338.173 151.7 337.701 151.693 337.217C151.686 336.734 151.523 336.266 151.228 335.884C150.996 335.594 150.683 335.38 150.329 335.269C149.975 335.159 149.596 335.156 149.241 335.261C149.004 335.346 148.786 335.478 148.6 335.648C148.414 335.818 148.264 336.024 148.158 336.253C147.838 336.965 147.789 337.771 148.02 338.517C147.434 338.7 146.906 339.033 146.488 339.484C145.973 340.063 145.648 340.787 145.559 341.558C145.38 342.697 145.559 343.865 146.07 344.898C146.5 345.827 147.174 346.62 148.019 347.195C148.423 347.496 148.888 347.704 149.381 347.804C149.874 347.904 150.383 347.894 150.871 347.774C151.43 347.583 151.905 347.204 152.216 346.701C152.581 347.148 153.08 347.464 153.64 347.601C154.199 347.738 154.788 347.69 155.317 347.463C155.588 347.301 155.814 347.073 155.972 346.799C156.13 346.526 156.217 346.217 156.223 345.9C156.153 345.407 155.921 344.951 155.564 344.605C155.206 344.259 154.743 344.043 154.248 343.992ZM155.142 347.078C154.646 347.265 154.101 347.281 153.595 347.122C153.089 346.964 152.65 346.64 152.348 346.203L152.143 345.958L152.008 346.224C151.726 346.737 151.272 347.133 150.726 347.342C150.297 347.431 149.854 347.428 149.426 347.333C148.999 347.237 148.596 347.052 148.245 346.788C147.419 346.224 146.767 345.439 146.363 344.521C145.959 343.604 145.82 342.591 145.962 341.599C146.05 340.916 146.33 340.272 146.77 339.743C147.188 339.309 147.719 339.001 148.303 338.854L148.518 338.773L148.515 338.541C148.382 338.198 148.32 337.832 148.331 337.465C148.341 337.098 148.425 336.736 148.577 336.402C148.654 336.226 148.765 336.067 148.904 335.934C149.042 335.802 149.206 335.699 149.385 335.631C149.728 335.56 150.085 335.601 150.404 335.747C150.723 335.893 150.987 336.136 151.159 336.443C151.292 336.773 151.334 337.132 151.282 337.484C151.23 337.837 151.085 338.168 150.862 338.446L150.695 338.634L150.913 338.755C151.804 339.334 152.542 340.121 153.063 341.049C153.598 341.99 153.885 343.053 153.895 344.136L153.898 344.337L154.068 344.335C154.501 344.331 154.922 344.482 155.255 344.762C155.587 345.041 155.81 345.43 155.882 345.859C155.883 346.109 155.82 346.356 155.699 346.575C155.577 346.794 155.402 346.977 155.189 347.108L155.142 347.078Z" fill="#B9DFF4"/>
<path opacity="0.58" d="M149.69 344.243C149.967 344.11 150.011 343.627 149.79 343.164C149.568 342.701 149.163 342.434 148.886 342.568C148.609 342.701 148.565 343.185 148.787 343.647C149.009 344.11 149.413 344.377 149.69 344.243Z" fill="#B9DFF4"/>
<path opacity="0.58" d="M145.745 337.438L145.145 338.062L146.336 339.212L146.937 338.587L145.745 337.438Z" fill="#B9DFF4"/>
<path opacity="0.58" d="M143.2 340.599L143.046 341.453L144.674 341.747L144.827 340.893L143.2 340.599Z" fill="#B9DFF4"/>
<path opacity="0.58" d="M144.371 344.041L142.855 344.703L143.201 345.499L144.717 344.836L144.371 344.041Z" fill="#B9DFF4"/>
<path opacity="0.58" d="M145.702 346.849L144.808 348.243L145.536 348.712L146.43 347.318L145.702 346.849Z" fill="#B9DFF4"/>
<path opacity="0.58" d="M149.279 348.443L148.414 348.459L148.444 350.117L149.309 350.101L149.279 348.443Z" fill="#B9DFF4"/>
<path opacity="0.58" d="M152.216 347.839L151.505 348.334L152.447 349.696L153.158 349.202L152.216 347.839Z" fill="#B9DFF4"/>
<path opacity="0.58" d="M149.899 341.637C150.399 341.438 150.671 340.942 150.508 340.528C150.344 340.114 149.807 339.94 149.307 340.139C148.807 340.337 148.534 340.833 148.698 341.247C148.861 341.661 149.399 341.835 149.899 341.637Z" fill="#B9DFF4"/>
<path opacity="0.58" d="M152.003 344.833C152.502 344.634 152.775 344.138 152.612 343.724C152.448 343.311 151.91 343.136 151.411 343.335C150.911 343.533 150.638 344.03 150.802 344.443C150.965 344.857 151.503 345.031 152.003 344.833Z" fill="#B9DFF4"/>
</g>
<g opacity="0.58">
<path opacity="0.58" d="M136.218 317.069C135.775 316.045 134.978 315.214 133.975 314.73C134.321 313.923 134.462 313.043 134.387 312.168C134.267 311.027 133.798 309.951 133.045 309.087C131.972 307.802 130.537 306.871 128.927 306.419C127.517 305.978 126.011 305.946 124.583 306.325C123.863 306.465 123.183 306.767 122.595 307.207C122.007 307.647 121.526 308.215 121.188 308.868C120.868 309.645 120.805 310.504 121.007 311.319C120.156 311.287 119.318 311.536 118.622 312.028C117.925 312.519 117.409 313.225 117.151 314.039C117.07 314.492 117.107 314.957 117.256 315.392C117.406 315.826 117.664 316.215 118.005 316.522C118.601 316.948 119.329 317.148 120.058 317.086C120.787 317.025 121.471 316.706 121.988 316.186C123.188 317.183 124.602 317.887 126.12 318.242C127.638 318.597 129.217 318.593 130.733 318.232C130.898 318.915 131.278 319.528 131.815 319.98C132.352 320.433 133.02 320.701 133.72 320.746C134.254 320.749 134.778 320.602 135.233 320.322C135.688 320.042 136.055 319.639 136.294 319.16C136.421 318.824 136.479 318.466 136.466 318.107C136.453 317.748 136.369 317.395 136.218 317.069ZM135.673 318.967C135.483 319.336 135.195 319.643 134.84 319.857C134.486 320.07 134.079 320.179 133.666 320.174L133.108 320.073C132.629 319.915 132.204 319.624 131.884 319.233C131.564 318.843 131.361 318.369 131.299 317.867L131.295 317.542L130.956 317.624C129.469 318.014 127.91 318.036 126.413 317.689C124.879 317.355 123.458 316.627 122.288 315.578L122.085 315.41L121.871 315.584C121.455 316.055 120.886 316.363 120.265 316.454C119.644 316.546 119.011 316.413 118.478 316.081C118.223 315.846 118.031 315.551 117.918 315.222C117.806 314.894 117.776 314.542 117.833 314.2C118.105 313.472 118.616 312.859 119.281 312.461C119.947 312.063 120.728 311.904 121.496 312.01L121.944 312.003L121.814 311.587C121.51 310.807 121.498 309.943 121.78 309.154C122.084 308.576 122.52 308.078 123.051 307.699C123.582 307.32 124.195 307.071 124.84 306.973C126.244 306.63 127.716 306.689 129.088 307.144C130.46 307.598 131.678 308.429 132.603 309.543C133.27 310.285 133.694 311.215 133.815 312.207C133.883 313.075 133.713 313.945 133.326 314.724L133.175 315.036L133.486 315.156C133.983 315.348 134.438 315.637 134.822 316.006C135.207 316.376 135.514 316.819 135.727 317.309C135.844 317.569 135.904 317.852 135.903 318.139C135.901 318.425 135.839 318.707 135.719 318.967L135.673 318.967Z" fill="#B9DFF4"/>
<path opacity="0.58" d="M129.299 311.04C129.421 310.611 128.94 310.096 128.225 309.89C127.509 309.685 126.829 309.866 126.707 310.295C126.584 310.724 127.065 311.238 127.781 311.444C128.496 311.65 129.176 311.469 129.299 311.04Z" fill="#B9DFF4"/>
<path opacity="0.58" d="M137.192 312.095L134.788 312.273L134.88 313.525L137.284 313.346L137.192 312.095Z" fill="#B9DFF4"/>
<path opacity="0.58" d="M135.543 306.529L133.643 308.016L134.412 309.005L136.313 307.519L135.543 306.529Z" fill="#B9DFF4"/>
<path opacity="0.58" d="M131.098 302.798L130.342 305.093L131.53 305.487L132.287 303.192L131.098 302.798Z" fill="#B9DFF4"/>
<path opacity="0.58" d="M126.515 301.887L125.309 302.221L125.95 304.551L127.157 304.217L126.515 301.887Z" fill="#B9DFF4"/>
<path opacity="0.58" d="M121.025 303.979L120.208 304.929L122.032 306.508L122.85 305.558L121.025 303.979Z" fill="#B9DFF4"/>
<path opacity="0.58" d="M117.597 308.771L117.443 310.017L119.835 310.314L119.989 309.069L117.597 308.771Z" fill="#B9DFF4"/>
<path opacity="0.58" d="M130.923 314.626C131.192 313.895 130.916 313.12 130.307 312.896C129.699 312.671 128.988 313.081 128.719 313.812C128.451 314.542 128.727 315.317 129.335 315.542C129.944 315.767 130.655 315.356 130.923 314.626Z" fill="#B9DFF4"/>
<path opacity="0.58" d="M125.46 313.799C125.728 313.069 125.452 312.294 124.843 312.069C124.235 311.845 123.524 312.255 123.255 312.986C122.987 313.716 123.263 314.491 123.872 314.716C124.48 314.94 125.191 314.53 125.46 313.799Z" fill="#B9DFF4"/>
</g>
<g opacity="0.58">
<path opacity="0.58" d="M173.36 379.594C172.3 378.312 170.874 377.386 169.273 376.94C167.876 376.512 166.387 376.485 164.976 376.862C164.258 377 163.583 377.303 163.002 377.747C162.421 378.19 161.951 378.763 161.627 379.42C161.305 380.202 161.247 381.068 161.462 381.886C160.621 381.844 159.79 382.082 159.098 382.562C158.406 383.043 157.892 383.739 157.636 384.543L157.637 384.652L158.224 384.644C158.49 383.913 158.996 383.295 159.659 382.892C160.322 382.488 161.102 382.322 161.871 382.422L162.319 382.416L162.189 381.984C161.88 381.205 161.868 380.339 162.155 379.552C162.447 378.993 162.864 378.51 163.374 378.14C163.883 377.77 164.471 377.523 165.092 377.418C166.492 377.071 167.961 377.123 169.332 377.569C170.704 378.015 171.924 378.837 172.854 379.942C173.501 380.687 173.908 381.61 174.02 382.591C174.089 383.159 174.039 383.735 173.874 384.282L174.492 384.273C174.655 383.71 174.705 383.119 174.638 382.536C174.508 381.451 174.064 380.428 173.36 379.594Z" fill="#B9DFF4"/>
<path opacity="0.58" d="M175.8 377.006L173.923 378.474L174.684 379.451L176.56 377.984L175.8 377.006Z" fill="#B9DFF4"/>
<path opacity="0.58" d="M171.407 373.318L170.661 375.584L171.834 375.973L172.581 373.707L171.407 373.318Z" fill="#B9DFF4"/>
<path opacity="0.58" d="M166.88 372.426L165.688 372.756L166.321 375.056L167.513 374.726L166.88 372.426Z" fill="#B9DFF4"/>
<path opacity="0.58" d="M161.443 374.48L160.635 375.418L162.437 376.977L163.244 376.039L161.443 374.48Z" fill="#B9DFF4"/>
</g>
<g opacity="0.58">
<path opacity="0.58" d="M183.507 325.773C183.091 324.796 182.324 324.011 181.358 323.573C181.677 322.807 181.808 321.976 181.741 321.15C181.609 320.118 181.176 319.149 180.496 318.363C179.499 317.145 178.155 316.262 176.643 315.83C175.326 315.429 173.923 315.406 172.593 315.763C171.92 315.889 171.284 316.166 170.733 316.574C170.182 316.981 169.73 317.509 169.412 318.117C169.124 318.853 169.07 319.661 169.26 320.428C168.466 320.404 167.686 320.64 167.038 321.099C166.389 321.558 165.907 322.216 165.664 322.974C165.593 323.399 165.63 323.834 165.771 324.241C165.911 324.648 166.152 325.013 166.47 325.302C167.035 325.687 167.716 325.864 168.396 325.803C169.077 325.743 169.716 325.448 170.205 324.97C171.316 325.914 172.636 326.578 174.054 326.908C175.472 327.239 176.949 327.225 178.361 326.869C178.518 327.505 178.872 328.075 179.372 328.497C179.872 328.918 180.493 329.17 181.145 329.216C181.568 329.254 181.994 329.179 182.379 328.999C182.764 328.819 183.094 328.54 183.337 328.191C183.58 327.841 183.727 327.433 183.762 327.009C183.797 326.584 183.72 326.158 183.538 325.773L183.507 325.773ZM183.006 327.532C182.823 327.875 182.548 328.161 182.213 328.357C181.877 328.553 181.494 328.652 181.106 328.643C180.931 328.653 180.757 328.623 180.595 328.557C180.14 328.411 179.735 328.14 179.427 327.775C179.118 327.409 178.918 326.964 178.85 326.49L178.845 326.165L178.521 326.17C177.138 326.57 175.678 326.618 174.273 326.307C172.815 326.006 171.456 325.344 170.32 324.38L170.117 324.197L169.918 324.386C169.532 324.801 169.017 325.073 168.457 325.157C167.897 325.241 167.325 325.132 166.834 324.848C166.59 324.625 166.407 324.345 166.299 324.032C166.192 323.719 166.166 323.385 166.222 323.059C166.477 322.382 166.954 321.812 167.575 321.443C168.196 321.074 168.924 320.927 169.639 321.027L170.056 321.021L169.927 320.651C169.649 319.909 169.637 319.093 169.895 318.343C170.175 317.814 170.573 317.357 171.059 317.009C171.545 316.661 172.104 316.43 172.694 316.335C174.01 316.009 175.391 316.058 176.681 316.478C177.971 316.898 179.117 317.671 179.991 318.711C180.588 319.421 180.97 320.286 181.093 321.206C181.177 322.024 181.022 322.85 180.648 323.583L180.512 323.848L180.808 323.968C181.74 324.338 182.489 325.062 182.892 325.984C183.016 326.22 183.091 326.479 183.11 326.746C183.13 327.012 183.095 327.28 183.006 327.532Z" fill="#B9DFF4"/>
<path opacity="0.58" d="M176.443 320.8C176.56 320.398 176.116 319.915 175.452 319.722C174.788 319.529 174.155 319.699 174.039 320.102C173.922 320.505 174.366 320.987 175.03 321.18C175.694 321.373 176.327 321.203 176.443 320.8Z" fill="#B9DFF4"/>
<path opacity="0.58" d="M184.375 321.091L182.125 321.258L182.211 322.417L184.461 322.249L184.375 321.091Z" fill="#B9DFF4"/>
<path opacity="0.58" d="M182.826 315.888L181.047 317.279L181.76 318.196L183.539 316.804L182.826 315.888Z" fill="#B9DFF4"/>
<path opacity="0.58" d="M178.666 312.412L177.958 314.56L179.059 314.924L179.767 312.776L178.666 312.412Z" fill="#B9DFF4"/>
<path opacity="0.58" d="M174.385 311.57L173.268 311.879L173.868 314.06L174.985 313.751L174.385 311.57Z" fill="#B9DFF4"/>
<path opacity="0.58" d="M169.247 313.503L168.49 314.383L170.198 315.861L170.955 314.981L169.247 313.503Z" fill="#B9DFF4"/>
<path opacity="0.58" d="M166.056 317.994L165.911 319.162L168.15 319.441L168.295 318.272L166.056 317.994Z" fill="#B9DFF4"/>
<path opacity="0.58" d="M177.904 324.203C178.156 323.522 177.9 322.8 177.334 322.59C176.767 322.379 176.104 322.759 175.852 323.44C175.601 324.12 175.856 324.842 176.423 325.052C176.989 325.263 177.653 324.883 177.904 324.203Z" fill="#B9DFF4"/>
<path opacity="0.58" d="M173.402 322.697C173.653 322.015 173.395 321.291 172.827 321.081C172.258 320.871 171.594 321.254 171.343 321.937C171.093 322.62 171.35 323.343 171.919 323.553C172.488 323.763 173.152 323.38 173.402 322.697Z" fill="#B9DFF4"/>
</g>
<g opacity="0.58">
<path opacity="0.58" d="M82.6324 283.94C82.2713 283.082 81.5987 282.394 80.7506 282.014C81.0347 281.343 81.1516 280.613 81.0913 279.886C80.9812 278.963 80.5974 278.094 79.9896 277.392C79.1222 276.367 77.9716 275.623 76.683 275.254C76.6314 275.427 76.5926 275.604 76.5669 275.782C77.76 276.098 78.8207 276.789 79.593 277.754C80.1287 278.381 80.4677 279.152 80.5671 279.971C80.6383 280.688 80.5038 281.411 80.1794 282.053L80.0593 282.303L80.3078 282.392C80.7188 282.552 81.0939 282.793 81.4114 283.099C81.7288 283.406 81.9822 283.773 82.1567 284.179C82.3406 284.608 82.3474 285.093 82.1759 285.527C82.015 285.83 81.7739 286.082 81.4791 286.255C81.1842 286.429 80.8472 286.518 80.5053 286.511C80.3468 286.536 80.1855 286.539 80.0264 286.518C79.6223 286.356 79.2721 286.083 79.0156 285.73C78.7592 285.378 78.6069 284.96 78.5763 284.524L78.5721 284.23L78.2786 284.234C77.1875 284.541 76.0399 284.59 74.927 284.375C74.8041 284.391 74.6796 284.393 74.5562 284.38C74.4845 284.39 74.4118 284.391 74.3399 284.383C74.3275 284.559 74.33 284.735 74.3474 284.91L74.5019 284.908C74.6373 284.951 74.7781 284.975 74.9201 284.979C76.0136 285.194 77.1398 285.178 78.2266 284.932C78.3508 285.495 78.6548 286.002 79.0924 286.376C79.53 286.751 80.0774 286.971 80.6514 287.005C81.0999 287.018 81.5427 286.902 81.928 286.671C82.3133 286.441 82.6253 286.105 82.8274 285.704C82.9976 285.113 82.9275 284.479 82.6324 283.94Z" fill="#B9DFF4"/>
<path opacity="0.58" d="M76.3887 279.567C76.3924 279.831 75.9774 279.992 75.5752 279.966C75.6775 279.546 75.749 279.143 75.8362 278.754C76.2406 278.934 76.4929 279.287 76.3887 279.567Z" fill="#B9DFF4"/>
<path opacity="0.58" d="M83.3812 279.828L81.4087 279.975L81.4853 281.01L83.4578 280.863L83.3812 279.828Z" fill="#B9DFF4"/>
<path opacity="0.58" d="M82.0327 275.251L80.4731 276.471L81.1099 277.289L82.6695 276.07L82.0327 275.251Z" fill="#B9DFF4"/>
<path opacity="0.58" d="M78.3634 272.157L77.738 274.055L78.7211 274.38L79.3465 272.483L78.3634 272.157Z" fill="#B9DFF4"/>
<path opacity="0.58" d="M78.2412 281.919C78.4624 281.317 78.2327 280.678 77.7281 280.491C77.2236 280.305 76.6353 280.642 76.4141 281.245C76.193 281.847 76.4227 282.486 76.9272 282.672C77.4317 282.859 78.0201 282.521 78.2412 281.919Z" fill="#B9DFF4"/>
</g>
<g style="mix-blend-mode:multiply" opacity="0.34">
<path d="M101.829 385.459C99.4033 385.493 96.993 385.527 94.5672 385.562L92.3115 295.177L101.829 385.459Z" fill="#2F597C"/>
</g>
<g style="mix-blend-mode:multiply" opacity="0.34">
<path d="M173.846 294.02L174.168 384.293L169.038 384.366C168.312 384.376 167.617 384.386 166.906 384.396L173.846 294.02Z" fill="#2F597C"/>
</g>
<g style="mix-blend-mode:multiply" opacity="0.49">
<path d="M139.07 242.479L125.056 241.656C119.435 243.006 96.0586 248.854 95.0985 255.252C95.0441 255.451 95.0299 255.659 95.0567 255.863C95.0835 256.068 95.1507 256.265 95.2545 256.443C97.0043 258.866 107.546 251.387 121.788 248.737C123.818 251.28 127.172 255.68 133.152 254.588C135.04 254.298 136.85 253.634 138.479 252.634C140.107 251.635 141.52 250.32 142.636 248.767C157.897 251.525 168.517 259.37 170.913 256.113C171.082 255.896 171.19 255.638 171.227 255.365C171.694 251.299 154.114 246.264 139.07 242.479Z" fill="#2F597C"/>
</g>
<path d="M124.476 239.944C124.271 239.642 124.179 239.277 124.216 238.914C124.253 238.55 124.417 238.212 124.679 237.958C124.924 237.797 125.21 237.71 125.503 237.706C125.795 237.702 126.083 237.781 126.333 237.935C126.676 238.154 126.935 238.485 127.064 238.873C127.193 239.26 127.186 239.68 127.043 240.063C127.238 238.588 128.556 237.81 129.271 238.048C129.726 238.272 130.082 238.658 130.268 239.131C130.455 239.604 130.459 240.13 130.28 240.606C130.237 240.133 130.368 239.661 130.647 239.278C130.926 238.895 131.334 238.626 131.796 238.523C132.017 238.514 132.238 238.558 132.438 238.653C132.638 238.747 132.813 238.888 132.948 239.065C133.451 239.693 133.186 240.611 133.325 240.609C133.464 240.607 133.498 239.723 134.11 239.327C134.312 239.23 134.533 239.178 134.757 239.175C134.981 239.172 135.203 239.217 135.408 239.309C135.704 239.443 135.957 239.658 136.136 239.93C136.314 240.201 136.413 240.519 136.419 240.844C136.486 240.448 136.648 240.074 136.891 239.755C137.135 239.436 137.451 239.181 137.815 239.011C138.035 238.91 138.273 238.855 138.516 238.852C138.758 238.848 138.998 238.896 139.221 238.991C139.513 239.224 139.724 239.544 139.824 239.904C139.924 240.265 139.906 240.648 139.775 240.998C140.393 243.205 140.996 245.412 141.615 247.635C140.443 248.967 139.008 250.042 137.402 250.793C135.796 251.544 134.053 251.954 132.281 251.998C130.328 251.966 128.407 251.497 126.659 250.623C124.911 249.75 123.381 248.494 122.18 246.95L124.476 239.944Z" fill="#B9DFF4"/>
<g style="mix-blend-mode:multiply" opacity="0.27">
<path d="M98.1257 222.435C101.577 226.074 109.061 230.694 116.55 233.563C103.011 230.036 91.0277 222.087 82.4937 210.973C82.4937 210.973 96.394 218.012 97.2443 220.216C98.0946 222.42 91.8509 215.861 98.1257 222.435Z" fill="#8D4F26"/>
</g>
<g style="mix-blend-mode:multiply" opacity="0.27">
<path d="M182.734 210.295C176.973 218.032 169.514 224.335 160.933 228.719C152.353 233.102 142.883 235.447 133.254 235.573C142.898 232.337 151.162 233.181 164.774 224.279C178.387 215.378 177.091 208.981 180.019 209.513C180.943 209.702 181.851 209.964 182.734 210.295Z" fill="#8D4F26"/>
</g>
<path d="M104.344 189.601C100.432 189.657 96.5909 188.548 93.3069 186.414C90.0229 184.281 87.4435 181.219 85.8948 177.616C84.3462 174.013 83.8979 170.03 84.6066 166.172C85.3153 162.313 87.1492 158.752 89.8764 155.939C92.6035 153.126 96.1015 151.187 99.9279 150.367C103.754 149.547 107.737 149.884 111.373 151.334C115.009 152.784 118.135 155.282 120.355 158.513C122.575 161.744 123.789 165.563 123.845 169.486C123.913 174.745 121.899 179.816 118.243 183.587C114.587 187.358 109.589 189.521 104.344 189.601ZM103.797 151.021C100.11 151.073 96.522 152.22 93.4852 154.316C90.4483 156.412 88.0992 159.364 86.7348 162.799C85.3703 166.233 85.0516 169.996 85.819 173.612C86.5864 177.228 88.4054 180.535 91.0463 183.115C93.6871 185.695 97.0313 187.433 100.656 188.108C104.281 188.784 108.025 188.367 111.413 186.91C114.802 185.453 117.684 183.022 119.695 179.924C121.706 176.825 122.757 173.199 122.713 169.502C122.634 164.545 120.599 159.822 117.053 156.366C113.508 152.911 108.742 151.005 103.798 151.066L103.797 151.021Z" fill="#EDD8A2"/>
<path d="M150.291 188.949C146.377 189.012 142.533 187.908 139.244 185.779C135.956 183.65 133.371 180.591 131.818 176.988C130.264 173.386 129.81 169.402 130.515 165.541C131.22 161.681 133.051 158.117 135.777 155.3C138.503 152.484 142.001 150.541 145.828 149.719C149.655 148.896 153.64 149.23 157.278 150.679C160.916 152.128 164.043 154.627 166.265 157.858C168.486 161.09 169.702 164.91 169.757 168.834C169.826 174.087 167.816 179.153 164.168 182.923C160.519 186.693 155.529 188.86 150.291 188.949ZM149.744 150.369C146.056 150.414 142.464 151.555 139.422 153.648C136.381 155.74 134.026 158.69 132.657 162.123C131.287 165.557 130.964 169.321 131.727 172.94C132.491 176.558 134.307 179.868 136.947 182.452C139.586 185.036 142.93 186.776 146.556 187.455C150.182 188.133 153.928 187.718 157.318 186.262C160.709 184.806 163.593 182.375 165.606 179.276C167.618 176.177 168.669 172.549 168.626 168.85C168.55 163.899 166.52 159.179 162.981 155.723C159.443 152.268 154.683 150.359 149.744 150.414L149.744 150.369Z" fill="#EDD8A2"/>
<path d="M123.532 168.957L122.941 167.989C123.143 167.862 128.025 164.898 131.17 167.964L130.378 168.769C127.864 166.331 123.577 168.934 123.532 168.957Z" fill="#EDD8A2"/>
</g>
<g clip-path="url(#clip1_1081_17822)">
<path d="M348.687 385.893L214.535 384.528C214.138 381.055 214.059 377.553 214.299 374.065C214.353 372.12 214.54 370.091 214.797 367.932C215.111 364.485 215.63 360.737 216.176 356.792C216.494 354.789 216.813 352.741 217.177 350.63C217.802 347.038 218.452 343.293 219.19 339.507C219.574 337.484 219.982 335.395 220.41 333.372C221.147 329.652 221.906 325.911 222.729 322.259C223.204 320.084 223.629 318.149 224.079 316.105C224.927 312.323 225.818 308.585 226.573 304.996C227.049 302.822 227.541 300.845 228.055 298.847C228.974 294.891 229.93 291.155 230.789 287.745C231.33 285.572 231.872 283.4 232.358 281.619C234.585 273.062 236.154 267.703 236.154 267.703L268.733 248.915C273.805 251.32 279.361 252.531 284.973 252.455C290.586 252.379 296.107 251.017 301.112 248.475L330.666 263.182C332.482 270.276 334.269 277.383 336.026 284.505C336.581 286.554 337.115 288.625 337.604 290.717C338.55 294.476 339.488 298.228 340.42 301.972C340.975 304.044 341.508 306.115 341.997 308.207L344.836 319.441C345.151 320.718 345.489 321.953 345.781 323.229C345.759 324.038 345.737 324.825 345.889 325.66C346.049 329.384 346.208 333.107 346.411 336.853C346.508 338.89 346.581 340.992 346.678 343.029C346.837 346.774 347.04 350.498 347.2 354.221C347.296 356.28 347.37 358.36 347.51 360.42C347.669 364.143 347.828 367.888 348.01 371.612L348.299 377.766C348.421 380.482 348.587 383.177 348.687 385.893Z" fill="#1E9450"/>
<path d="M233.98 165.905C233.98 165.905 220.787 162.15 229 149.055C229 149.055 220.886 132.425 236.494 127.147C236.494 127.147 241.363 113.96 252.163 118.83C252.163 118.83 255.758 103.464 267.451 109.255C267.451 109.255 279.395 94.8856 290.341 108.728C290.341 108.728 304.474 102.206 307.603 113.23C307.603 113.23 319.995 111.91 321.087 121.455C321.087 121.455 335.779 121.621 333.845 134.648C333.845 134.648 344.485 136.604 341.388 145.794C341.388 145.794 355.166 154.487 346.577 163.765C346.577 163.765 353.848 172.103 343.759 173.946L233.98 165.905Z" fill="#231F20"/>
<path d="M356.491 178.563C356.017 180.606 354.854 182.423 353.197 183.708C351.54 184.993 349.491 185.668 347.395 185.618C346.486 185.583 345.589 185.396 344.743 185.064L344.729 185.544C344.65 188.759 344.247 191.958 343.525 195.092C339.106 214.942 322.862 230.593 302.082 235.509C301.135 235.745 300.211 235.939 299.266 236.109C298.321 236.28 297.333 236.428 296.325 236.509C293.004 237 289.648 237.215 286.291 237.151C255.129 236.29 230.425 212.268 230.745 183.249C230.761 182.681 230.77 182.353 230.77 182.353L230.773 182.244C230.247 182.355 229.71 182.407 229.172 182.396C227.104 182.296 225.132 181.495 223.58 180.124C222.028 178.753 220.988 176.895 220.633 174.854C220.269 172.776 220.711 170.637 221.87 168.873C222.297 168.285 222.858 167.806 223.505 167.475C224.959 166.832 226.603 166.768 228.102 167.295C229.75 167.818 231.264 168.696 232.536 169.868L232.533 169.977C239.277 146.714 262.308 130.003 289.186 130.746C316.065 131.488 338.671 149.919 343.676 173.812C345.203 172.222 347.143 171.086 349.277 170.533C350.796 170.091 352.427 170.245 353.836 170.965C354.97 171.836 355.825 173.018 356.296 174.368C356.768 175.718 356.835 177.176 356.491 178.563Z" fill="#8D4F26"/>
<path d="M338.231 173.793L337.925 173.785C337.065 173.825 336.21 173.633 335.452 173.226C334.693 172.82 334.058 172.216 333.615 171.478L326.42 158.789C325.798 157.687 324.768 156.873 323.552 156.523L282.946 145.273C282.048 145.029 281.098 145.048 280.211 145.329L248.264 155.493C247.509 155.728 246.826 156.15 246.279 156.72C245.732 157.29 245.338 157.99 245.134 158.753L242.524 168.503C242.334 169.189 241.992 169.824 241.524 170.361C241.056 170.898 240.473 171.323 239.819 171.605C239.165 171.887 238.457 172.018 237.745 171.99C237.034 171.962 236.337 171.775 235.708 171.443C234.682 170.894 233.894 169.988 233.493 168.896C233.091 167.804 233.105 166.603 233.531 165.52C241.615 144.416 263.695 129.648 289.175 130.352C314.306 131.046 335.308 146.588 342.512 167.634C342.738 168.325 342.801 169.059 342.696 169.778C342.59 170.497 342.319 171.182 341.904 171.779C341.489 172.376 340.942 172.869 340.304 173.218C339.667 173.568 338.957 173.765 338.231 173.793Z" fill="#231F20"/>
<path d="M264.904 191.193C271.337 191.37 276.663 187.473 276.801 182.487C276.939 177.501 271.836 173.316 265.403 173.138C258.97 172.96 253.644 176.858 253.506 181.844C253.369 186.829 258.472 191.015 264.904 191.193Z" fill="white"/>
<path d="M265.188 191.201C269.521 191.32 273.13 187.904 273.25 183.57C273.37 179.237 269.954 175.626 265.622 175.507C261.289 175.387 257.68 178.803 257.56 183.137C257.44 187.471 260.855 191.081 265.188 191.201Z" fill="#231F20"/>
<path d="M310.051 192.44C316.484 192.617 321.81 188.72 321.948 183.734C322.086 178.749 316.983 174.563 310.55 174.385C304.117 174.208 298.791 178.105 298.653 183.091C298.516 188.076 303.619 192.262 310.051 192.44Z" fill="white"/>
<path d="M310.532 192.453C314.865 192.572 318.474 189.156 318.594 184.822C318.714 180.489 315.298 176.878 310.966 176.759C306.633 176.639 303.024 180.055 302.904 184.389C302.784 188.723 306.199 192.333 310.532 192.453Z" fill="#231F20"/>
<path d="M252.338 169.518C252.362 168.621 256.388 165.408 263.128 164.435C265.426 164.105 267.757 164.074 270.063 164.342C270.302 164.46 270.51 164.63 270.675 164.838C270.839 165.047 270.955 165.29 271.014 165.549C271.023 165.816 270.971 166.081 270.862 166.324C270.753 166.568 270.59 166.783 270.385 166.954C268.876 168.553 265.535 165.967 261.639 166.887C258.514 167.588 254.23 170.685 253.162 170.568C252.934 170.549 252.72 170.45 252.557 170.289C252.471 170.182 252.407 170.058 252.369 169.926C252.331 169.793 252.321 169.654 252.338 169.518Z" fill="#231F20"/>
<path d="M319.717 170.307C319.588 169.428 315.45 166.426 308.664 165.867C306.347 165.663 304.013 165.767 301.723 166.179C301.496 166.312 301.3 166.492 301.147 166.706C300.994 166.921 300.888 167.165 300.836 167.423C300.851 167.692 300.922 167.954 301.043 168.195C301.165 168.435 301.334 168.648 301.541 168.82C303.162 170.309 306.344 167.531 310.305 168.209C313.461 168.756 317.932 171.57 318.965 171.38C319.191 171.355 319.398 171.243 319.543 171.068C319.626 170.961 319.684 170.838 319.714 170.707C319.744 170.575 319.745 170.439 319.717 170.307Z" fill="#231F20"/>
<path d="M281.947 190.941C279.732 191.951 278.204 193.44 278.243 195.213C278.217 196.171 278.439 197.119 278.888 197.965C279.431 198.97 280.146 199.871 281.002 200.627C279.628 200.516 278.351 199.877 277.437 198.844C276.524 197.812 276.046 196.466 276.103 195.089C276.121 194.353 276.324 193.634 276.693 192.999C277.062 192.363 277.586 191.83 278.215 191.45C278.766 191.106 279.383 190.883 280.027 190.795C280.67 190.707 281.325 190.757 281.947 190.941Z" fill="#231F20"/>
<path d="M281.373 211.706C282.966 211.666 284.552 211.482 286.112 211.159C287.582 210.832 289.011 210.343 290.373 209.702C291.747 209.043 293.057 208.259 294.287 207.36C294.933 206.94 295.516 206.409 296.163 205.946C296.81 205.483 297.373 204.886 298.065 204.38C297.475 205.976 296.572 207.439 295.41 208.681C294.252 209.953 292.857 210.985 291.302 211.718C289.726 212.446 288.018 212.845 286.283 212.892C284.57 212.943 282.874 212.534 281.373 211.706Z" fill="#231F20"/>
<g style="mix-blend-mode:multiply" opacity="0.28">
<path d="M260.941 194.517C260.941 194.517 267.409 189.949 270.685 191.702C273.961 193.455 260.941 194.517 260.941 194.517Z" fill="#8D4F26"/>
</g>
<g style="mix-blend-mode:multiply" opacity="0.28">
<path d="M315.431 196.415C315.431 196.415 309.225 191.475 305.858 193.044C302.49 194.614 315.431 196.415 315.431 196.415Z" fill="#8D4F26"/>
</g>
<path d="M291.913 232.362L280.506 232.047L279.961 251.763L291.368 252.078L291.913 232.362Z" fill="#8D4F26"/>
<path d="M299.221 236.151C298.254 236.321 297.267 236.447 296.28 236.551C297.246 236.403 298.254 236.343 299.221 236.151Z" fill="#8D4F26"/>
<g style="mix-blend-mode:multiply" opacity="0.28">
<path d="M296.28 236.552C292.959 237.045 289.603 237.26 286.246 237.194C255.085 236.333 230.38 212.311 230.7 183.292C231.001 189.031 234.295 220.206 274.182 233.754C281.255 236.294 288.798 237.249 296.28 236.552Z" fill="#8D4F26"/>
</g>
<g style="mix-blend-mode:multiply" opacity="0.28">
<path d="M343.48 195.157C339.06 215.006 322.817 230.657 302.036 235.574C327.838 229.374 341.525 201.775 343.48 195.157Z" fill="#8D4F26"/>
</g>
<path d="M278.666 246.39C279.425 247.257 280.347 247.965 281.38 248.474C282.413 248.983 283.536 249.283 284.685 249.356C287.157 249.23 289.535 248.366 291.512 246.876C293.873 245.323 294.542 244.051 296.379 244.036C297.53 244.059 298.635 244.493 299.495 245.259C300.42 246.092 301.004 247.238 301.134 248.476C299.379 251.074 297.049 253.231 294.324 254.78C291.6 256.328 288.554 257.227 285.425 257.405C282.168 257.421 278.955 256.659 276.051 255.182C273.148 253.706 270.639 251.557 268.733 248.916C268.899 248.15 269.216 247.426 269.666 246.785C270.115 246.144 270.688 245.599 271.351 245.182C272.539 244.573 273.891 244.362 275.208 244.579C276.525 244.797 277.737 245.432 278.666 246.39Z" fill="#231F20"/>
<path d="M324.963 275.69L243.453 273.438L243.282 279.624L324.792 281.876L324.963 275.69Z" fill="#FFECD5"/>
<path d="M337.604 290.695L327.071 290.404L327.242 284.24L335.983 284.482C336.582 286.533 337.115 288.603 337.604 290.695Z" fill="#FFECD5"/>
<path d="M341.998 308.185L328.493 307.812L328.664 301.626L340.421 301.951C340.889 304.02 341.509 306.093 341.998 308.185Z" fill="#FFECD5"/>
<path d="M345.911 325.662L328.014 325.167L328.185 318.981L344.836 319.441C345.151 320.719 345.489 321.953 345.781 323.23C345.847 324.041 345.869 324.829 345.911 325.662Z" fill="#FFECD5"/>
<path d="M346.702 342.941L327.538 342.412L327.708 336.248L346.545 336.768C346.486 338.889 346.603 340.992 346.702 342.941Z" fill="#FFECD5"/>
<path d="M347.53 360.464L327.055 359.899L327.226 353.713L347.221 354.265C347.318 356.28 347.394 358.273 347.53 360.464Z" fill="#FFECD5"/>
<path d="M348.321 377.767L326.578 377.167L326.747 371.024L348.032 371.612L348.321 377.767Z" fill="#FFECD5"/>
<path d="M240.902 281.855L240.732 288.019L230.92 287.748C231.461 285.575 232.003 283.403 232.489 281.623L240.902 281.855Z" fill="#FFECD5"/>
<path d="M242.259 299.239L242.088 305.425L226.792 305.002C227.267 302.828 227.759 300.851 228.274 298.853L242.259 299.239Z" fill="#FFECD5"/>
<path d="M241.78 316.595L241.609 322.78L222.772 322.26C223.248 320.086 223.673 318.151 224.123 316.107L241.78 316.595Z" fill="#FFECD5"/>
<path d="M241.3 333.95L241.133 340.026L219.28 339.423C219.664 337.399 220.072 335.31 220.499 333.288L241.3 333.95Z" fill="#FFECD5"/>
<path d="M240.822 351.283L240.65 357.513L216.219 356.838C216.536 354.834 216.855 352.787 217.22 350.675L240.822 351.283Z" fill="#FFECD5"/>
<path d="M240.343 368.638L240.173 374.78L214.3 374.065C214.353 372.12 214.541 370.09 214.797 367.932L240.343 368.638Z" fill="#FFECD5"/>
<path d="M325.01 295.334L243.501 293.083L243.33 299.269L324.84 301.52L325.01 295.334Z" fill="#FFECD5"/>
<path d="M325.058 315L243.548 312.749L243.377 318.935L324.887 321.186L325.058 315Z" fill="#FFECD5"/>
<path d="M325.106 334.646L243.596 332.395L243.425 338.58L324.935 340.832L325.106 334.646Z" fill="#FFECD5"/>
<path d="M325.153 354.312L243.643 352.061L243.472 358.246L324.982 360.498L325.153 354.312Z" fill="#FFECD5"/>
<path d="M325.2 373.978L243.691 371.727L243.52 377.912L325.03 380.164L325.2 373.978Z" fill="#FFECD5"/>
<g style="mix-blend-mode:multiply" opacity="0.31">
<path d="M324.963 275.689C324.963 275.689 333.164 320.015 330.903 342.505L328.66 365.105L326.497 380.095L324.963 275.689Z" fill="#1E9450"/>
</g>
<g style="mix-blend-mode:multiply" opacity="0.31">
<path d="M243.982 273.3C243.982 273.3 235.629 317.606 237.76 340.196L239.913 362.808L242.014 377.806L243.982 273.3Z" fill="#1E9450"/>
</g>
<g style="mix-blend-mode:screen">
<path d="M281.139 194.069C282.122 194.905 284.439 194.947 284.526 194.162C284.614 193.377 283.259 192.552 282.029 192.737C281.57 192.724 280.86 193.098 280.849 193.492C280.838 193.885 280.84 193.82 281.139 194.069Z" fill="#8D4F26"/>
</g>
<g style="mix-blend-mode:multiply" opacity="0.28">
<path d="M232.587 170.416L229.989 175.791C229.989 175.791 228.75 169.194 223.614 169.053C223.027 169.087 222.438 169.027 221.87 168.873C222.298 168.285 222.858 167.806 223.505 167.475C224.959 166.833 226.603 166.768 228.102 167.295C229.751 167.818 231.264 168.696 232.536 169.868L232.587 170.416Z" fill="#8D4F26"/>
</g>
<path d="M307.301 291.215C312.056 291.346 316.018 287.597 316.149 282.841C316.28 278.084 312.532 274.122 307.777 273.991C303.022 273.859 299.06 277.609 298.929 282.365C298.798 287.121 302.546 291.083 307.301 291.215Z" fill="#FFECD5"/>
<path d="M260.684 198.979C256.699 198.334 252.995 196.518 250.041 193.762C247.088 191.005 245.016 187.432 244.089 183.493C243.161 179.555 243.42 175.428 244.832 171.635C246.244 167.842 248.746 164.553 252.021 162.184C255.296 159.815 259.198 158.472 263.233 158.326C267.267 158.179 271.253 159.235 274.688 161.36C278.122 163.485 280.849 166.584 282.525 170.265C284.201 173.946 284.75 178.043 284.103 182.039C283.23 187.394 280.274 192.185 275.883 195.361C271.493 198.536 266.027 199.838 260.684 198.979ZM267.046 159.683C263.291 159.075 259.44 159.597 255.979 161.182C252.517 162.767 249.601 165.345 247.599 168.59C245.597 171.834 244.599 175.6 244.73 179.412C244.861 183.223 246.116 186.909 248.336 190.004C250.557 193.099 253.643 195.464 257.205 196.801C260.767 198.137 264.645 198.384 268.349 197.512C272.053 196.64 275.417 194.686 278.016 191.899C280.615 189.112 282.332 185.616 282.951 181.852C283.759 176.802 282.538 171.638 279.556 167.492C276.574 163.345 272.073 160.554 267.039 159.73L267.046 159.683Z" fill="#EDD8A2"/>
<path d="M307.482 206.557C303.494 205.918 299.786 204.108 296.827 201.355C293.868 198.602 291.791 195.03 290.858 191.091C289.925 187.153 290.179 183.024 291.588 179.228C292.996 175.432 295.496 172.14 298.77 169.767C302.044 167.394 305.947 166.048 309.983 165.898C314.019 165.749 318.007 166.803 321.443 168.928C324.879 171.052 327.609 174.151 329.286 177.833C330.964 181.515 331.514 185.614 330.866 189.611C329.994 194.96 327.044 199.747 322.661 202.923C318.278 206.099 312.82 207.405 307.482 206.557ZM313.844 167.261C310.089 166.646 306.235 167.161 302.77 168.742C299.305 170.322 296.384 172.896 294.376 176.14C292.369 179.383 291.365 183.149 291.492 186.962C291.619 190.775 292.871 194.464 295.089 197.562C297.308 200.66 300.393 203.029 303.956 204.368C307.518 205.707 311.397 205.957 315.103 205.086C318.809 204.215 322.175 202.262 324.776 199.475C327.376 196.687 329.095 193.189 329.714 189.424C330.524 184.38 329.309 179.22 326.333 175.075C323.358 170.93 318.864 168.137 313.837 167.307L313.844 167.261Z" fill="#EDD8A2"/>
<path d="M283.88 181.445L283.453 180.356C283.681 180.263 289.173 178.127 291.818 181.805L290.869 182.482C288.752 179.554 283.93 181.43 283.88 181.445Z" fill="#EDD8A2"/>
</g>
<defs>
<clipPath id="clip0_1081_17822">
<rect width="176.174" height="289.337" fill="white" transform="translate(37.29 97.6133) rotate(-0.812636)"/>
</clipPath>
<clipPath id="clip1_1081_17822">
<rect width="136.849" height="283.56" fill="white" transform="translate(221.84 101.061) rotate(1.58217)"/>
</clipPath>
</defs>
</svg>
