<svg width="380" height="347" viewBox="0 0 380 347" fill="none" xmlns="http://www.w3.org/2000/svg">
<g clip-path="url(#clip0_9849_186930)">
<path d="M179.073 341.785L155.796 342.115C154.937 342.127 154.115 342.139 153.275 342.151L142.312 342.306L76.3182 343.352C73.4496 343.393 70.5993 343.433 67.7308 343.474L43.5946 343.816C41.9711 311.809 41.8801 284.782 42.2124 264.401C42.4599 249.647 42.8882 238.61 43.7339 229.949C43.7133 229.754 43.7105 229.558 43.7256 229.363C43.8659 227.657 44.0808 226.059 44.2602 224.536C44.2581 224.389 44.2563 224.261 44.2542 224.115C44.2542 224.115 44.2524 223.986 44.2516 223.931C44.2459 223.528 44.3689 223.179 44.4182 222.793C44.6021 221.581 44.7872 220.461 44.9723 219.34C44.9697 219.157 45.0582 218.954 45.0919 218.752C45.1256 218.55 45.0901 218.624 45.0893 218.569C45.2102 218.073 45.2948 217.595 45.3979 217.135C45.6543 215.886 45.9483 214.709 46.2613 213.587C46.2917 213.375 46.3376 213.166 46.3986 212.962C47.7835 207.892 50.0072 203.091 52.9771 198.759C66.8172 178.571 89.7813 170.329 103.254 166.767L118.011 166.099C129.477 167.952 152.836 173.411 167.844 191.706L167.502 192.059L169.577 194.082C169.694 194.2 169.794 194.334 169.875 194.48C170.048 194.685 170.204 194.903 170.341 195.133C171.023 196.075 171.648 197.058 172.21 198.075C172.596 198.66 172.947 199.267 173.26 199.893L173.635 200.566C173.992 201.257 174.331 201.967 174.651 202.658L174.839 203.004C175.141 203.696 175.443 204.406 175.709 205.099C176.145 206.21 176.563 207.322 176.945 208.508C177.031 208.746 177.102 208.99 177.157 209.238C177.635 210.715 178.078 212.34 178.449 214.002C178.453 214.277 178.457 214.57 178.606 214.806C178.756 215.042 178.801 215.683 178.899 216.121C178.901 216.286 178.904 216.469 178.907 216.671C180.623 227.128 181.561 237.698 181.713 248.295C182.846 279.483 181.965 310.711 179.073 341.785V341.785Z" fill="#00615D"/>
<path d="M33.3528 66.2621C35.2426 68.3375 37.6389 69.8835 40.3056 70.748C42.9724 71.6125 45.8177 71.7656 48.5613 71.1922C51.3049 70.6189 53.8523 69.3388 55.9524 67.4781C58.0525 65.6175 59.633 63.2403 60.5382 60.5809C61.0617 59.0358 61.3409 57.4182 61.3657 55.7866C64.9578 55.3974 68.3167 53.8146 70.9078 51.2902C73.499 48.7657 75.1734 45.4447 75.6647 41.8556C76.1559 38.2666 75.4358 34.6158 73.6188 31.4844C71.8018 28.353 68.9925 25.9209 65.6379 24.5752C65.6546 21.5228 64.8116 18.5275 63.206 15.934C61.6004 13.3404 59.2973 11.254 56.5616 9.9145C53.826 8.57505 50.7689 8.03703 47.7419 8.36234C44.715 8.68764 41.8412 9.86305 39.451 11.7534C38.6907 11.3175 37.8971 10.9427 37.0777 10.6326C33.7135 9.45772 30.0571 9.42679 26.6739 10.5446C23.2906 11.6625 20.3689 13.8668 18.3606 16.8168C12.0193 18.9727 6.76339 23.5178 3.70495 29.4904C0.646518 35.463 0.0254946 42.3945 1.97328 48.8185C3.92106 55.2424 8.28485 60.6547 14.1413 63.9103C19.9978 67.1659 26.8876 68.0093 33.3528 66.2621V66.2621Z" fill="#231F20"/>
<path d="M166.246 58.4398C168.136 60.5152 170.532 62.0612 173.199 62.9257C175.865 63.7902 178.711 63.9433 181.454 63.3699C184.198 62.7965 186.745 61.5165 188.845 59.6558C190.945 57.7952 192.526 55.418 193.431 52.7586C193.991 51.2006 194.301 49.5634 194.349 47.908C197.941 47.5188 201.3 45.936 203.891 43.4116C206.482 40.8871 208.157 37.5661 208.648 33.9771C209.139 30.388 208.419 26.7373 206.602 23.6059C204.785 20.4744 201.976 18.0423 198.621 16.6967C198.645 13.6314 197.801 10.6222 196.188 8.0181C194.575 5.41396 192.259 3.32152 189.509 1.9834C186.758 0.645272 183.686 0.116284 180.648 0.457768C177.609 0.799252 174.73 1.99722 172.344 3.91277C171.579 3.47741 170.779 3.10866 169.952 2.8106C166.584 1.62672 162.921 1.59314 159.532 2.71507C156.143 3.83701 153.22 6.05144 151.217 9.01331C144.784 11.0923 139.424 15.6229 136.291 21.6283C133.159 27.6338 132.506 34.633 134.473 41.1173C136.44 47.6015 140.869 53.0513 146.805 56.2917C152.742 59.5322 159.711 60.3039 166.209 58.4403L166.246 58.4398Z" fill="#231F20"/>
<path d="M120.102 155.075L120.364 173.56C117.93 175.09 115.121 175.916 112.248 175.948C109.772 175.984 107.322 175.435 105.098 174.345L104.827 155.292L120.102 155.075Z" fill="#8D4F26"/>
<path d="M190.492 113.527C190.524 116.115 189.531 118.61 187.732 120.466C185.933 122.322 183.473 123.388 180.892 123.429C180.518 123.419 180.144 123.382 179.776 123.317C172.379 139.073 159.724 151.742 143.998 159.132C128.272 166.523 110.464 168.17 93.654 163.788C77.6695 159.603 63.5272 150.205 53.4543 137.074C50.5069 133.294 47.9509 129.223 45.8259 124.924C43.4236 125.656 40.8315 125.426 38.5946 124.282C36.3577 123.138 34.6501 121.169 33.8308 118.789C33.0114 116.409 33.1441 113.804 34.2009 111.52C35.2578 109.236 37.1565 107.452 39.4979 106.543C38.5367 101.95 38.0175 97.2757 37.9476 92.5837C37.6668 72.7839 45.2417 53.6838 59.0061 39.4851C72.7705 25.2865 91.5968 17.1525 111.343 16.8724C131.09 16.5923 150.14 24.1891 164.301 37.9916C178.463 51.7941 186.576 70.6717 186.857 90.4715C186.917 95.3922 186.503 100.307 185.622 105.148C187.09 106 188.311 107.221 189.165 108.69C190.019 110.159 190.476 111.826 190.492 113.527V113.527Z" fill="#8D4F26"/>
<path d="M47.377 55.1782L51.9812 91.1745L39.4071 106.562C39.4071 106.562 26.5888 94.4298 32.7994 86.4991C32.7994 86.4991 29.1197 69.2901 37.2217 59.4268C45.3237 49.5635 41.0297 58.6215 41.0297 58.6215C41.0297 58.6215 36.8915 27.1263 65.303 26.7233C65.303 26.7233 76.9424 3.41505 103.222 8.61278C103.222 8.61278 128.642 -2.9987 145.255 16.3906C145.255 16.3906 169.726 22.915 172.505 37.205C172.505 37.205 192.944 54.4877 189.91 72.47C189.91 72.47 195.443 100.519 185.605 105.239C175.767 109.96 182.398 107.227 182.398 107.227L171.776 96.585L173.556 63.5766L112.482 27.5567L47.377 55.1782Z" fill="#231F20"/>
<path d="M93.0764 90.8485C92.8989 91.2175 88.497 100.405 78.4043 101.336C75.4332 101.529 72.4586 101.018 69.7212 99.8435C66.9837 98.6695 64.5603 96.8658 62.6469 94.5784C61.9974 84.8576 69.7075 76.9972 78.06 77.062C81.7727 77.2458 85.3049 78.724 88.0466 81.2411C90.7883 83.7582 92.5673 87.1563 93.0764 90.8485V90.8485Z" fill="white"/>
<path d="M155.55 91.5931C153.833 94.4729 151.361 96.8245 148.402 98.3916C145.443 99.9587 142.112 100.681 138.772 100.48C135.904 100.206 133.135 99.2844 130.673 97.7832C128.211 96.282 126.121 94.2407 124.559 91.8128C124.545 89.7676 124.932 87.7396 125.699 85.8446C126.466 83.9495 127.598 82.2246 129.03 80.7681C130.462 79.3117 132.166 78.1524 134.045 77.3564C135.924 76.5603 137.94 76.1431 139.98 76.1286C142.02 76.1142 144.042 76.5026 145.932 77.2719C147.822 78.0412 149.543 79.1762 150.995 80.6121C152.448 82.048 153.604 83.7567 154.398 85.6406C155.193 87.5246 155.609 89.5469 155.623 91.5921L155.55 91.5931Z" fill="white"/>
<path d="M78.4048 101.355C84.2171 101.272 88.862 96.4808 88.7793 90.6528C88.6966 84.8249 83.9178 80.1672 78.1055 80.2496C72.2931 80.3321 67.6483 85.1234 67.731 90.9514C67.8136 96.7794 72.5925 101.437 78.4048 101.355Z" fill="#231F20"/>
<path d="M139.905 100.483C145.718 100.4 150.363 95.6088 150.28 89.7808C150.197 83.9528 145.418 79.2951 139.606 79.3776C133.794 79.46 129.149 84.2514 129.232 90.0793C129.314 95.9073 134.093 100.565 139.905 100.483Z" fill="#231F20"/>
<path d="M105.962 99.9925C104.518 100.476 103.205 101.284 102.121 102.356C101.641 102.839 101.264 103.414 101.012 104.048C100.76 104.681 100.639 105.36 100.657 106.041C100.7 107.436 101.124 108.793 101.882 109.964C102.731 111.226 103.821 112.306 105.089 113.143C103.42 112.912 101.887 112.097 100.761 110.841C99.5674 109.521 98.8935 107.811 98.8657 106.03C98.8649 105.113 99.0707 104.209 99.4677 103.383C99.8962 102.568 100.513 101.869 101.266 101.342C102.604 100.311 104.283 99.8288 105.962 99.9925V99.9925Z" fill="#231F20"/>
<g style="mix-blend-mode:screen">
<path d="M105.035 104.238C106.421 105.299 109.509 105.237 109.587 104.32C109.665 103.403 107.73 102.221 106.144 102.536C105.543 102.655 104.617 103.089 104.606 103.603C104.608 103.713 104.629 103.932 105.035 104.238Z" fill="#8D4F26"/>
</g>
<path d="M73.0566 56.7193C75.789 55.1906 78.7913 54.2083 81.8971 53.827C82.2513 53.8825 82.5888 54.0159 82.8855 54.2176C83.1822 54.4193 83.4307 54.6844 83.6132 54.9937C83.7293 55.3318 83.7693 55.6915 83.7301 56.047C83.6909 56.4024 83.5735 56.7447 83.3865 57.0492C82.0719 59.7065 76.7439 57.7114 72.0682 60.4714C66.1236 63.964 63.0498 68.8634 62.6988 68.5935C62.3477 68.3237 65.6417 60.9107 73.0566 56.7193Z" fill="#231F20"/>
<path d="M153.027 64.4542C149.633 60.2065 145.171 56.9428 140.101 54.9991C137.162 53.8991 134.07 53.269 130.937 53.1318C130.594 53.2284 130.276 53.3984 130.005 53.63C129.733 53.8616 129.516 54.1493 129.366 54.4734C129.287 54.8248 129.288 55.1895 129.369 55.5405C129.45 55.8914 129.609 56.2196 129.833 56.5007C131.347 58.8614 136.926 57.9393 141.45 58.6265C145.803 59.3633 149.837 61.3935 153.027 64.4542V64.4542Z" fill="#231F20"/>
<path d="M130.983 123.221C129.083 125.882 126.751 128.205 124.083 130.092C121.408 132.028 118.477 133.581 115.373 134.708C112.262 135.864 108.977 136.48 105.658 136.53L103.178 136.486L100.727 136.181C99.9175 136.053 99.1192 135.86 98.3401 135.604C97.554 135.383 96.7794 135.138 96.0106 134.853L96.0453 134.668C99.1716 135.258 102.365 135.405 105.53 135.105C108.688 134.809 111.793 134.101 114.766 132.998C117.75 131.922 120.613 130.536 123.308 128.863C126.019 127.184 128.541 125.219 130.833 123.001L130.983 123.221Z" fill="#231F20"/>
<g style="mix-blend-mode:multiply" opacity="0.27">
<path d="M90.6797 104.505C93.8118 102.252 95.5685 99.3317 94.6035 97.9834C93.6386 96.6351 90.3173 97.3688 87.1852 99.6223C84.0532 101.876 82.2964 104.796 83.2614 106.144C84.2264 107.492 87.5477 106.759 90.6797 104.505Z" fill="#8D4F26"/>
</g>
<g style="mix-blend-mode:multiply" opacity="0.27">
<path d="M134.817 105.397C135.744 104.022 133.905 101.153 130.71 98.9897C127.515 96.8259 124.175 96.1866 123.248 97.5618C122.322 98.937 124.161 101.806 127.355 103.97C130.55 106.133 133.891 106.773 134.817 105.397Z" fill="#8D4F26"/>
</g>
<g opacity="0.58">
<path opacity="0.58" d="M146.713 200.343C146.598 199.73 146.325 199.158 145.921 198.685C145.516 198.212 144.995 197.853 144.408 197.645C143.451 197.414 142.442 197.522 141.555 197.952C140.668 198.383 139.957 199.108 139.544 200.005C137.51 199.308 135.34 199.106 133.213 199.417C131.175 199.727 129.239 200.514 127.562 201.714C127.034 200.915 126.261 200.31 125.359 199.992C124.457 199.674 123.477 199.66 122.566 199.953C121.893 200.21 121.304 200.649 120.863 201.221C120.423 201.793 120.149 202.476 120.072 203.195C120.066 203.689 120.161 204.18 120.349 204.637C120.538 205.094 120.817 205.508 121.17 205.854C122.228 206.958 123.657 207.63 125.18 207.74C125.147 208.928 125.402 210.107 125.923 211.174C126.631 212.521 127.738 213.613 129.093 214.299C131.059 215.431 133.326 215.924 135.582 215.71C137.546 215.531 139.428 214.835 141.036 213.69C141.872 213.162 142.579 212.453 143.104 211.615C143.63 210.776 143.961 209.83 144.074 208.846C144.11 207.694 143.759 206.564 143.078 205.635C144.184 205.283 145.141 204.572 145.799 203.613C146.458 202.655 146.779 201.505 146.713 200.343V200.343ZM142.321 205.06L141.775 205.269L142.147 205.703C142.877 206.585 143.28 207.693 143.288 208.839C143.172 209.697 142.866 210.517 142.393 211.241C141.919 211.964 141.29 212.572 140.551 213.019C138.945 214.145 137.055 214.795 135.098 214.894C133.141 214.993 131.196 214.537 129.485 213.579C128.277 212.958 127.287 211.981 126.649 210.779C126.147 209.721 125.941 208.546 126.052 207.379L126.046 206.94L125.571 206.946C124.122 206.941 122.734 206.362 121.711 205.334C121.437 205.066 121.221 204.745 121.075 204.392C120.929 204.038 120.855 203.658 120.859 203.275C120.925 202.718 121.143 202.191 121.488 201.75C121.833 201.308 122.292 200.971 122.815 200.774C123.062 200.685 123.319 200.632 123.581 200.616C124.285 200.571 124.987 200.725 125.609 201.059C126.23 201.394 126.746 201.896 127.098 202.509L127.341 202.908L127.721 202.646C129.405 201.385 131.377 200.566 133.457 200.264C135.537 199.963 137.659 200.188 139.63 200.92L139.979 201.025L140.157 200.711C140.465 199.921 141.036 199.263 141.773 198.849C142.51 198.434 143.368 198.288 144.2 198.436C144.636 198.61 145.023 198.889 145.325 199.25C145.626 199.61 145.834 200.04 145.929 200.501C146.21 202.274 144.684 204.202 142.321 205.06Z" fill="#B9DFF4"/>
<path opacity="0.58" d="M135.158 209.842C136.153 209.757 136.919 209.197 136.867 208.593C136.816 207.988 135.967 207.566 134.972 207.651C133.976 207.736 133.211 208.296 133.262 208.901C133.314 209.505 134.163 209.927 135.158 209.842Z" fill="#B9DFF4"/>
<path opacity="0.58" d="M124.614 209.704L121.673 211.096L122.391 212.621L125.332 211.228L124.614 209.704Z" fill="#B9DFF4"/>
<path opacity="0.58" d="M127.401 215.19L125.725 217.985L127.166 218.854L128.842 216.059L127.401 215.19Z" fill="#B9DFF4"/>
<path opacity="0.58" d="M134.424 218.091L132.745 218.172L132.901 221.429L134.58 221.349L134.424 218.091Z" fill="#B9DFF4"/>
<path opacity="0.58" d="M140.221 216.674L138.869 217.676L140.802 220.299L142.154 219.297L140.221 216.674Z" fill="#B9DFF4"/>
<path opacity="0.58" d="M144.23 212.312L143.662 213.898L146.723 215.002L147.291 213.415L144.23 212.312Z" fill="#B9DFF4"/>
<path opacity="0.58" d="M148.307 205.615L145.15 206.401L145.556 208.037L148.712 207.251L148.307 205.615Z" fill="#B9DFF4"/>
<path opacity="0.58" d="M130.688 208.266C131.566 208.254 132.266 207.391 132.251 206.338C132.236 205.286 131.512 204.443 130.634 204.455C129.756 204.468 129.057 205.331 129.072 206.383C129.087 207.436 129.81 208.279 130.688 208.266Z" fill="#B9DFF4"/>
<path opacity="0.58" d="M137.975 206.624C138.853 206.612 139.553 205.748 139.538 204.696C139.523 203.644 138.799 202.801 137.921 202.813C137.043 202.826 136.344 203.689 136.359 204.741C136.373 205.794 137.097 206.636 137.975 206.624Z" fill="#B9DFF4"/>
</g>
<g opacity="0.58">
<path opacity="0.58" d="M59.8913 343.494L59.8939 343.677L60.2227 343.673L59.8913 343.494ZM64.4784 342.22C64.2642 341.678 63.8712 341.226 63.3649 340.94C62.8586 340.654 62.2698 340.55 61.6966 340.647C61.3415 339.422 60.6989 338.3 59.8227 337.375C58.9888 336.481 57.9506 335.804 56.7977 335.402C56.9988 334.874 57.0269 334.296 56.8779 333.751C56.7288 333.206 56.4104 332.723 55.9689 332.372C55.6148 332.135 55.2029 331.999 54.7775 331.979C54.3521 331.959 53.9294 332.056 53.555 332.26C53.3146 332.423 53.1098 332.633 52.9531 332.878C52.7963 333.122 52.6909 333.397 52.6432 333.684C52.4637 334.573 52.6201 335.498 53.0821 336.279C52.4946 336.654 52.0115 337.171 51.678 337.784C51.2737 338.576 51.1146 339.472 51.221 340.355C51.343 341.607 51.8232 342.796 52.6037 343.781L53.2249 343.772C52.3656 342.81 51.8361 341.597 51.7138 340.312C51.6102 339.523 51.752 338.721 52.1199 338.015C52.456 337.411 52.9559 336.915 53.5615 336.584L53.797 336.434L53.648 336.235C53.4049 335.884 53.2331 335.49 53.1426 335.073C53.052 334.656 53.0443 334.225 53.1201 333.805C53.1583 333.579 53.2412 333.362 53.364 333.169C53.4868 332.975 53.6469 332.808 53.8351 332.677C54.1235 332.534 54.4446 332.47 54.7658 332.491C55.087 332.512 55.397 332.618 55.6643 332.798C55.7983 332.886 55.9171 332.996 56.0161 333.123C56.2624 333.449 56.4131 333.838 56.4511 334.245C56.4892 334.652 56.4131 335.062 56.2315 335.428L56.107 335.668L56.3829 335.793C57.5455 336.157 58.5939 336.818 59.4254 337.71C60.3241 338.618 60.9701 339.746 61.2993 340.982L61.3022 341.184L61.5397 341.18C62.0243 341.071 62.5314 341.132 62.9767 341.353C63.422 341.573 63.7787 341.94 63.9874 342.391C64.0401 342.605 64.0493 342.828 64.0148 343.045C63.9802 343.263 63.9024 343.472 63.7861 343.659L64.3343 343.651C64.558 343.208 64.6094 342.698 64.4784 342.22V342.22Z" fill="#B9DFF4"/>
<path opacity="0.58" d="M56.6636 342.216C56.9353 341.989 56.8469 341.434 56.4663 340.974C56.0857 340.515 55.5569 340.327 55.2853 340.553C55.0137 340.779 55.102 341.335 55.4826 341.794C55.8633 342.253 56.392 342.442 56.6636 342.216Z" fill="#B9DFF4"/>
<path opacity="0.58" d="M50.2976 335.61L49.8064 336.468L51.4705 337.426L51.9616 336.568L50.2976 335.61Z" fill="#B9DFF4"/>
<path opacity="0.58" d="M50.2889 339.847L48.3745 339.976L48.4407 340.963L50.355 340.834L50.2889 339.847Z" fill="#B9DFF4"/>
<path opacity="0.58" d="M50.9045 343.823L50.1372 343.834L50.6253 343.461L50.9045 343.823Z" fill="#B9DFF4"/>
<path opacity="0.58" d="M56.1426 339.235C56.651 338.869 56.8198 338.233 56.5197 337.814C56.2196 337.394 55.5643 337.351 55.0559 337.717C54.5476 338.082 54.3788 338.719 54.6789 339.138C54.9789 339.557 55.6343 339.601 56.1426 339.235Z" fill="#B9DFF4"/>
<path opacity="0.58" d="M59.4068 342.224C59.9151 341.859 60.084 341.222 59.7839 340.803C59.4838 340.384 58.8284 340.34 58.3201 340.706C57.8118 341.072 57.6429 341.708 57.943 342.127C58.2431 342.547 58.8985 342.59 59.4068 342.224Z" fill="#B9DFF4"/>
</g>
<g opacity="0.58">
<path opacity="0.58" d="M73.7297 269.086C73.4143 268.285 72.834 267.617 72.0861 267.194C71.3383 266.771 70.4682 266.618 69.6215 266.762C69.0883 264.958 68.1453 263.303 66.8665 261.927C65.6226 260.603 64.0876 259.59 62.3838 258.967C62.6841 258.19 62.7263 257.337 62.5042 256.535C62.2821 255.733 61.8075 255.023 61.151 254.513C60.6245 254.131 59.9988 253.91 59.3497 253.877C58.7006 253.844 58.0558 254 57.4934 254.327C57.1399 254.572 56.838 254.884 56.6048 255.245C56.3716 255.607 56.2118 256.011 56.1344 256.435C55.8845 257.754 56.1249 259.12 56.8102 260.274C55.9892 260.864 55.3179 261.639 54.8504 262.537C54.242 263.718 54.006 265.057 54.1738 266.376C54.3599 268.234 55.0647 270.002 56.2072 271.477C57.3498 272.951 58.8839 274.073 60.6335 274.714C61.4297 275.059 62.2938 275.219 63.1605 275.181C64.0273 275.144 64.8743 274.909 65.6377 274.496C66.458 273.926 67.0844 273.118 67.4323 272.18C68.245 272.781 69.2316 273.098 70.2412 273.084C71.2507 273.07 72.2279 272.724 73.0233 272.101C73.3979 271.707 73.6609 271.219 73.7851 270.689C73.9093 270.159 73.8902 269.606 73.7297 269.086V269.086ZM72.431 271.578C71.6864 272.121 70.7777 272.39 69.8582 272.34C68.9386 272.289 68.0645 271.923 67.3833 271.301L66.9589 271.014L66.8197 271.511C66.5637 272.489 65.9579 273.339 65.1175 273.899C64.4504 274.247 63.7115 274.433 62.9597 274.444C62.2078 274.455 61.4639 274.289 60.7872 273.96C59.1933 273.361 57.798 272.328 56.7585 270.976C55.719 269.624 55.0766 268.009 54.9039 266.311C54.7719 265.133 54.9768 263.941 55.4948 262.876C55.9956 261.976 56.7386 261.235 57.6392 260.738L57.9835 260.532L57.7778 260.205C57.4131 259.678 57.1562 259.084 57.0218 258.457C56.8874 257.829 56.8783 257.182 56.995 256.551C57.0526 256.218 57.1755 255.899 57.3565 255.613C57.5375 255.328 57.773 255.081 58.0496 254.887C58.479 254.652 58.9654 254.543 59.4537 254.572C59.9419 254.6 60.4123 254.766 60.8114 255.049C60.9952 255.186 61.163 255.344 61.3115 255.519C61.6791 256.008 61.9069 256.588 61.9702 257.198C62.0336 257.807 61.9302 258.422 61.6712 258.977L61.4569 259.328L61.8792 259.469C63.6021 260.046 65.1548 261.045 66.3977 262.373C67.6871 263.738 68.61 265.408 69.0799 267.228L69.0843 267.539L69.3949 267.535C70.1192 267.347 70.8865 267.422 71.5603 267.748C72.2342 268.074 72.7709 268.629 73.0751 269.315C73.178 269.715 73.1726 270.136 73.0594 270.534C72.9462 270.932 72.7293 271.292 72.431 271.578V271.578Z" fill="#B9DFF4"/>
<path opacity="0.58" d="M62.1183 269.115C62.5296 268.772 62.4081 267.945 61.8468 267.268C61.2856 266.591 60.4971 266.32 60.0858 266.663C59.6745 267.006 59.796 267.833 60.3573 268.51C60.9185 269.187 61.7069 269.458 62.1183 269.115Z" fill="#B9DFF4"/>
<path opacity="0.58" d="M52.7134 259.419L51.9763 260.706L54.4483 262.13L55.1854 260.843L52.7134 259.419Z" fill="#B9DFF4"/>
<path opacity="0.58" d="M52.6659 265.598L49.8218 265.789L49.921 267.27L52.7652 267.078L52.6659 265.598Z" fill="#B9DFF4"/>
<path opacity="0.58" d="M53.1445 270.977L50.8859 272.72L51.7888 273.896L54.0475 272.153L53.1445 270.977Z" fill="#B9DFF4"/>
<path opacity="0.58" d="M56.5603 275.132L55.6471 277.839L57.0492 278.315L57.9624 275.607L56.5603 275.132Z" fill="#B9DFF4"/>
<path opacity="0.58" d="M63.1585 276.301L61.7295 276.687L62.4718 279.447L63.9009 279.06L63.1585 276.301Z" fill="#B9DFF4"/>
<path opacity="0.58" d="M67.7983 274.039L66.8235 275.156L68.9684 277.038L69.9433 275.922L67.7983 274.039Z" fill="#B9DFF4"/>
<path opacity="0.58" d="M61.4012 264.674C62.1474 264.137 62.3897 263.195 61.9425 262.571C61.4953 261.946 60.528 261.874 59.7819 262.411C59.0358 262.948 58.7934 263.89 59.2406 264.515C59.6878 265.139 60.6551 265.211 61.4012 264.674Z" fill="#B9DFF4"/>
<path opacity="0.58" d="M66.2255 269.133C66.9716 268.597 67.2139 267.655 66.7667 267.03C66.3196 266.405 65.3522 266.334 64.6061 266.871C63.86 267.408 63.6176 268.349 64.0648 268.974C64.512 269.599 65.4794 269.67 66.2255 269.133Z" fill="#B9DFF4"/>
</g>
<g opacity="0.58">
<path opacity="0.58" d="M86.9611 190.526C85.1075 190.695 83.2464 190.293 81.6268 189.374C80.6313 188.867 79.8029 188.083 79.2413 187.116C78.6796 186.149 78.4087 185.039 78.461 183.921C77.2126 183.837 76.0396 183.292 75.1681 182.392C74.8794 182.108 74.6515 181.767 74.4985 181.391C74.3455 181.015 74.2705 180.612 74.2782 180.206C74.3398 179.615 74.566 179.053 74.9309 178.584C75.2959 178.116 75.785 177.759 76.3422 177.556C77.0823 177.333 77.8738 177.351 78.6031 177.608C79.3324 177.864 79.9619 178.345 80.4012 178.983C81.7843 177.998 83.3765 177.348 85.0526 177.085C86.7877 176.86 88.5512 177.055 90.1959 177.653C90.5502 176.932 91.1381 176.352 91.8635 176.009C92.5888 175.666 93.4088 175.579 94.1895 175.764C94.6657 175.941 95.0875 176.24 95.4135 176.631C95.7395 177.021 95.9584 177.49 96.0486 177.991C96.0987 178.936 95.8388 179.87 95.3086 180.652C94.7783 181.434 94.0071 182.02 93.1129 182.321C93.6555 183.082 93.9493 183.994 93.954 184.929C93.8637 185.736 93.5914 186.511 93.1578 187.197C92.7243 187.883 92.1408 188.46 91.4517 188.886C90.1264 189.822 88.5765 190.388 86.9611 190.526V190.526ZM77.1907 178.112C76.9793 178.131 76.7712 178.178 76.5713 178.249C76.143 178.408 75.7669 178.682 75.4849 179.042C75.2029 179.402 75.0259 179.833 74.9738 180.288C74.9721 180.603 75.0331 180.915 75.1534 181.206C75.2736 181.497 75.4506 181.76 75.674 181.982C76.0897 182.404 76.585 182.739 77.131 182.967C77.677 183.195 78.2629 183.312 78.8544 183.311L79.3112 183.305L79.3164 183.671C79.22 184.631 79.3919 185.6 79.8129 186.468C80.3308 187.447 81.132 188.247 82.1115 188.762C83.5229 189.553 85.128 189.93 86.7429 189.849C88.3578 189.767 89.9172 189.232 91.2424 188.303C91.8087 187.926 92.286 187.43 92.6408 186.849C92.9956 186.268 93.2193 185.616 93.2963 184.939C93.3042 184.006 92.9804 183.101 92.3829 182.386L92.0853 182.024L92.5398 181.853C93.374 181.658 94.1177 181.186 94.6493 180.513C95.1808 179.839 95.4688 179.005 95.466 178.146C95.3889 177.77 95.2193 177.419 94.9726 177.125C94.7259 176.831 94.4099 176.603 94.0532 176.462C93.3677 176.33 92.6576 176.446 92.0499 176.79C91.4421 177.135 90.9763 177.685 90.7356 178.342L90.6116 178.618L90.3177 178.512C88.6749 177.906 86.9065 177.723 85.1749 177.981C83.4988 178.224 81.9079 178.875 80.5418 179.879L80.2343 180.103L80.0287 179.776C79.7533 179.27 79.3409 178.852 78.839 178.571C78.337 178.289 77.766 178.156 77.1918 178.186L77.1907 178.112Z" fill="#B9DFF4"/>
<path opacity="0.58" d="M86.645 185.791C87.4595 185.722 88.0857 185.265 88.0437 184.771C88.0017 184.277 87.3073 183.933 86.4928 184.002C85.6783 184.072 85.0521 184.529 85.0942 185.023C85.1362 185.517 85.8305 185.861 86.645 185.791Z" fill="#B9DFF4"/>
<path opacity="0.58" d="M78.0106 185.68L75.5981 186.822L76.1911 188.082L78.6035 186.94L78.0106 185.68Z" fill="#B9DFF4"/>
<path opacity="0.58" d="M80.3025 190.164L78.9279 192.457L80.118 193.174L81.4927 190.882L80.3025 190.164Z" fill="#B9DFF4"/>
<path opacity="0.58" d="M86.0765 192.541L84.6893 192.608L84.8171 195.28L86.2043 195.213L86.0765 192.541Z" fill="#B9DFF4"/>
<path opacity="0.58" d="M90.8019 191.371L89.6851 192.198L91.2707 194.35L92.3875 193.522L90.8019 191.371Z" fill="#B9DFF4"/>
<path opacity="0.58" d="M94.1033 187.796L93.6337 189.106L96.1444 190.011L96.614 188.7L94.1033 187.796Z" fill="#B9DFF4"/>
<path opacity="0.58" d="M97.4241 182.325L94.835 182.97L95.1699 184.322L97.759 183.677L97.4241 182.325Z" fill="#B9DFF4"/>
<path opacity="0.58" d="M82.9827 184.48C83.6991 184.47 84.27 183.765 84.2578 182.905C84.2456 182.045 83.6549 181.356 82.9385 181.366C82.222 181.376 81.6511 182.081 81.6633 182.941C81.6755 183.802 82.2662 184.49 82.9827 184.48Z" fill="#B9DFF4"/>
<path opacity="0.58" d="M88.9579 183.15C89.6743 183.14 90.2452 182.434 90.233 181.574C90.2208 180.714 89.6301 180.025 88.9137 180.035C88.1973 180.045 87.6263 180.751 87.6385 181.611C87.6507 182.471 88.2414 183.16 88.9579 183.15Z" fill="#B9DFF4"/>
</g>
<g opacity="0.58">
<path opacity="0.58" d="M85.6937 312.473C85.6606 311.269 85.3366 310.092 84.7496 309.041C84.1788 308.036 83.3925 307.171 82.4476 306.508C82.7588 306.082 82.9231 305.565 82.9156 305.036C82.9081 304.507 82.7292 303.995 82.406 303.577C82.1404 303.277 81.7986 303.056 81.4172 302.935C81.0357 302.815 80.6289 302.8 80.2399 302.893C79.7117 303.093 79.2838 303.495 79.0496 304.01C78.6978 304.788 78.6388 305.667 78.8837 306.486C78.2591 306.688 77.6976 307.05 77.2538 307.535C76.692 308.171 76.3339 308.961 76.2261 309.803C76.0409 310.978 76.1971 312.182 76.6759 313.27C77.1548 314.358 77.9361 315.285 78.9264 315.94C79.3616 316.281 79.8681 316.518 80.4078 316.634C80.9475 316.75 81.5065 316.742 82.0426 316.611C82.644 316.379 83.1608 315.969 83.5245 315.435C83.9201 315.94 84.4735 316.296 85.0955 316.447C85.7176 316.597 86.3721 316.534 86.9537 316.266C87.2598 316.094 87.5131 315.842 87.686 315.535C87.8589 315.229 87.9447 314.881 87.9342 314.53C87.8558 313.98 87.5896 313.474 87.181 313.099C86.7725 312.724 86.2469 312.503 85.6937 312.473V312.473ZM86.6739 315.867C86.1299 316.082 85.5291 316.103 84.9713 315.928C84.4136 315.752 83.9325 315.39 83.6083 314.903L83.4037 314.649L83.2251 314.945C82.9242 315.501 82.4291 315.925 81.8349 316.137C81.3682 316.254 80.881 316.263 80.4106 316.161C79.9403 316.06 79.4994 315.852 79.1219 315.553C78.2146 314.943 77.4998 314.086 77.0615 313.082C76.6232 312.079 76.4796 310.971 76.6476 309.889C76.7304 309.137 77.0316 308.425 77.514 307.843C77.9839 307.384 78.5552 307.043 79.1812 306.848L79.4187 306.845L79.4154 306.606C79.2553 306.237 79.17 305.84 79.1642 305.437C79.1585 305.035 79.2326 304.635 79.3821 304.261C79.5773 303.886 79.8959 303.59 80.284 303.424C80.5905 303.34 80.9149 303.346 81.2179 303.442C81.5209 303.539 81.7895 303.721 81.9912 303.968C82.0845 304.066 82.1549 304.184 82.1972 304.313C82.3645 304.668 82.4238 305.065 82.3676 305.453C82.3113 305.842 82.1421 306.206 81.8809 306.498L81.7376 306.702L81.9407 306.845C82.9151 307.459 83.7241 308.303 84.2964 309.304C84.8921 310.336 85.205 311.507 85.2035 312.7L85.2069 312.938L85.4262 312.935C85.8961 312.943 86.3485 313.115 86.7062 313.42C87.0638 313.726 87.3045 314.147 87.3871 314.611C87.3866 314.864 87.3206 315.113 87.1956 315.333C87.0707 315.553 86.8909 315.737 86.6739 315.867V315.867Z" fill="#B9DFF4"/>
<path opacity="0.58" d="M80.7228 312.72C81.0229 312.575 81.0712 312.051 80.8306 311.55C80.5901 311.048 80.1518 310.759 79.8516 310.904C79.5515 311.048 79.5032 311.572 79.7438 312.074C79.9844 312.575 80.4227 312.865 80.7228 312.72Z" fill="#B9DFF4"/>
<path opacity="0.58" d="M76.4193 305.301L75.7729 305.974L77.0761 307.232L77.7225 306.559L76.4193 305.301Z" fill="#B9DFF4"/>
<path opacity="0.58" d="M73.627 308.777L73.4619 309.696L75.2423 310.018L75.4075 309.098L73.627 308.777Z" fill="#B9DFF4"/>
<path opacity="0.58" d="M74.8923 312.498L73.2339 313.222L73.6062 314.079L75.2646 313.354L74.8923 312.498Z" fill="#B9DFF4"/>
<path opacity="0.58" d="M76.3812 315.602L75.403 317.127L76.1869 317.633L77.1651 316.107L76.3812 315.602Z" fill="#B9DFF4"/>
<path opacity="0.58" d="M80.2633 317.317L79.3315 317.333L79.3645 319.147L80.2963 319.13L80.2633 317.317Z" fill="#B9DFF4"/>
<path opacity="0.58" d="M83.4696 316.668L82.704 317.201L83.7352 318.691L84.5009 318.158L83.4696 316.668Z" fill="#B9DFF4"/>
<path opacity="0.58" d="M80.9417 309.895C81.4858 309.679 81.7823 309.138 81.6039 308.686C81.4255 308.235 80.8397 308.044 80.2955 308.26C79.7513 308.476 79.4548 309.017 79.6333 309.469C79.8117 309.921 80.3975 310.111 80.9417 309.895Z" fill="#B9DFF4"/>
<path opacity="0.58" d="M83.2417 313.378C83.7859 313.162 84.0824 312.62 83.9039 312.169C83.7255 311.717 83.1397 311.526 82.5955 311.742C82.0514 311.959 81.7549 312.5 81.9333 312.951C82.1118 313.403 82.6975 313.594 83.2417 313.378Z" fill="#B9DFF4"/>
</g>
<g opacity="0.58">
<path opacity="0.58" d="M177.036 208.452C176.322 208.583 175.589 208.561 174.884 208.387C174.179 208.214 173.519 207.894 172.946 207.447C171.499 206.454 170.358 205.075 169.65 203.467C168.943 201.858 168.698 200.083 168.943 198.342C169.088 197.143 169.595 196.017 170.396 195.115C170.259 194.884 170.103 194.666 169.93 194.462L169.822 194.591C168.915 195.622 168.352 196.911 168.211 198.279C167.937 200.244 168.265 202.246 169.151 204.019C169.896 205.637 171.081 207.011 172.57 207.984C173.232 208.495 173.994 208.859 174.806 209.053C175.618 209.247 176.463 209.266 177.283 209.108C177.213 208.885 177.131 208.666 177.036 208.452V208.452Z" fill="#B9DFF4"/>
<path opacity="0.58" d="M175.483 202.919C175.974 202.682 176.057 201.832 175.668 201.02C175.278 200.209 174.565 199.743 174.073 199.979C173.582 200.216 173.5 201.066 173.889 201.878C174.278 202.689 174.992 203.155 175.483 202.919Z" fill="#B9DFF4"/>
<path opacity="0.58" d="M164.079 196.551L163.81 198.047L166.688 198.567L166.956 197.07L164.079 196.551Z" fill="#B9DFF4"/>
<path opacity="0.58" d="M166.135 202.517L163.455 203.688L164.06 205.082L166.741 203.911L166.135 202.517Z" fill="#B9DFF4"/>
<path opacity="0.58" d="M168.492 207.49L166.911 209.956L168.187 210.778L169.768 208.312L168.492 207.49Z" fill="#B9DFF4"/>
<path opacity="0.58" d="M174.739 210.283L173.222 210.311L173.276 213.242L174.792 213.214L174.739 210.283Z" fill="#B9DFF4"/>
<path opacity="0.58" d="M178.984 210.495L178.685 210.059L178.902 209.909C178.923 210.092 178.963 210.293 178.984 210.495Z" fill="#B9DFF4"/>
</g>
<g opacity="0.58">
<path opacity="0.58" d="M138.306 294.371C138.269 293.098 137.929 291.851 137.316 290.735C136.703 289.619 135.833 288.665 134.779 287.953C135.115 287.491 135.293 286.933 135.284 286.361C135.276 285.789 135.083 285.236 134.734 284.784C134.46 284.441 134.089 284.189 133.671 284.057C133.253 283.926 132.805 283.923 132.385 284.047C132.104 284.148 131.847 284.304 131.627 284.505C131.407 284.706 131.229 284.949 131.104 285.22C130.726 286.063 130.668 287.015 130.941 287.898C130.248 288.114 129.624 288.508 129.13 289.041C128.52 289.726 128.137 290.582 128.031 291.494C127.819 292.841 128.031 294.221 128.636 295.443C129.144 296.541 129.94 297.48 130.94 298.159C131.417 298.515 131.967 298.761 132.55 298.88C133.133 298.998 133.735 298.986 134.312 298.844C134.973 298.619 135.535 298.17 135.903 297.576C136.334 298.104 136.925 298.477 137.587 298.64C138.248 298.802 138.944 298.745 139.57 298.476C139.891 298.285 140.157 298.015 140.344 297.692C140.532 297.368 140.634 297.003 140.641 296.629C140.559 296.045 140.284 295.506 139.861 295.097C139.438 294.688 138.891 294.432 138.306 294.371V294.371ZM139.363 298.021C138.776 298.243 138.132 298.261 137.534 298.074C136.935 297.886 136.416 297.504 136.059 296.987L135.817 296.697L135.657 297.011C135.323 297.618 134.786 298.086 134.141 298.334C133.633 298.439 133.11 298.435 132.604 298.322C132.098 298.21 131.622 297.99 131.207 297.679C130.23 297.011 129.459 296.083 128.982 294.998C128.504 293.913 128.34 292.716 128.507 291.542C128.611 290.734 128.943 289.973 129.463 289.348C129.957 288.835 130.585 288.47 131.275 288.296L131.53 288.201L131.526 287.926C131.37 287.521 131.296 287.088 131.308 286.654C131.321 286.219 131.42 285.792 131.6 285.396C131.69 285.188 131.822 285 131.986 284.844C132.15 284.687 132.344 284.565 132.555 284.485C132.961 284.401 133.383 284.449 133.76 284.622C134.137 284.794 134.449 285.082 134.652 285.445C134.81 285.835 134.86 286.26 134.799 286.677C134.737 287.093 134.566 287.486 134.302 287.813L134.104 288.036L134.362 288.179C135.416 288.864 136.288 289.795 136.904 290.892C137.537 292.004 137.876 293.261 137.888 294.542L137.891 294.78L138.092 294.778C138.605 294.773 139.103 294.952 139.496 295.282C139.89 295.612 140.152 296.072 140.238 296.58C140.239 296.876 140.165 297.167 140.021 297.426C139.878 297.685 139.67 297.902 139.418 298.057L139.363 298.021Z" fill="#B9DFF4"/>
<path opacity="0.58" d="M132.916 294.67C133.243 294.512 133.296 293.94 133.034 293.393C132.771 292.846 132.293 292.53 131.966 292.688C131.638 292.846 131.585 293.418 131.848 293.965C132.11 294.512 132.588 294.828 132.916 294.67Z" fill="#B9DFF4"/>
<path opacity="0.58" d="M128.251 286.621L127.541 287.36L128.95 288.72L129.66 287.981L128.251 286.621Z" fill="#B9DFF4"/>
<path opacity="0.58" d="M125.241 290.36L125.06 291.37L126.984 291.717L127.165 290.707L125.241 290.36Z" fill="#B9DFF4"/>
<path opacity="0.58" d="M126.626 294.429L124.833 295.212L125.242 296.153L127.035 295.37L126.626 294.429Z" fill="#B9DFF4"/>
<path opacity="0.58" d="M128.2 297.75L127.143 299.399L128.004 299.954L129.061 298.305L128.2 297.75Z" fill="#B9DFF4"/>
<path opacity="0.58" d="M132.43 299.635L131.406 299.654L131.442 301.614L132.465 301.595L132.43 299.635Z" fill="#B9DFF4"/>
<path opacity="0.58" d="M135.902 298.922L135.062 299.507L136.176 301.118L137.017 300.533L135.902 298.922Z" fill="#B9DFF4"/>
<path opacity="0.58" d="M133.163 291.586C133.754 291.351 134.076 290.765 133.883 290.275C133.69 289.786 133.054 289.58 132.463 289.815C131.871 290.049 131.549 290.636 131.742 291.126C131.936 291.615 132.572 291.821 133.163 291.586Z" fill="#B9DFF4"/>
<path opacity="0.58" d="M135.65 295.366C136.241 295.131 136.564 294.544 136.371 294.055C136.177 293.566 135.541 293.36 134.95 293.594C134.359 293.829 134.037 294.416 134.23 294.905C134.423 295.395 135.059 295.601 135.65 295.366Z" fill="#B9DFF4"/>
</g>
<g opacity="0.58">
<path opacity="0.58" d="M116.985 262.535C116.46 261.323 115.519 260.342 114.332 259.769C114.741 258.815 114.908 257.774 114.819 256.739C114.677 255.39 114.123 254.117 113.232 253.096C111.964 251.576 110.266 250.475 108.363 249.94C106.695 249.42 104.915 249.381 103.226 249.83C102.374 249.995 101.571 250.352 100.875 250.872C100.18 251.393 99.6116 252.065 99.2118 252.837C98.8335 253.755 98.7583 254.771 98.9971 255.735C97.9908 255.698 97.0001 255.992 96.1766 256.573C95.3531 257.154 94.7422 257.989 94.4375 258.952C94.3423 259.487 94.3851 260.037 94.5619 260.551C94.7388 261.065 95.0437 261.525 95.4477 261.888C96.1524 262.391 97.0125 262.628 97.8749 262.555C98.7373 262.483 99.5459 262.105 100.157 261.491C101.576 262.67 103.249 263.502 105.044 263.921C106.838 264.341 108.706 264.337 110.498 263.91C110.694 264.718 111.143 265.443 111.778 265.977C112.414 266.512 113.203 266.83 114.031 266.883C114.662 266.887 115.282 266.713 115.82 266.381C116.358 266.05 116.792 265.574 117.074 265.007C117.225 264.61 117.294 264.187 117.278 263.762C117.263 263.337 117.163 262.92 116.985 262.535V262.535ZM116.34 264.78C116.116 265.215 115.775 265.579 115.355 265.831C114.936 266.083 114.455 266.213 113.966 266.206L113.307 266.087C112.74 265.9 112.239 265.556 111.86 265.094C111.481 264.632 111.241 264.072 111.168 263.479L111.163 263.094L110.762 263.191C109.004 263.652 107.161 263.679 105.39 263.267C103.576 262.873 101.896 262.013 100.512 260.771L100.272 260.573L100.019 260.778C99.5271 261.335 98.8545 261.7 98.1202 261.808C97.3859 261.916 96.6372 261.759 96.0068 261.367C95.7055 261.088 95.478 260.739 95.3449 260.351C95.2118 259.962 95.1772 259.547 95.2442 259.142C95.5659 258.281 96.1698 257.556 96.9569 257.086C97.7439 256.615 98.6673 256.427 99.5752 256.552L100.105 256.544L99.9519 256.052C99.5926 255.129 99.5781 254.108 99.9111 253.175C100.271 252.492 100.786 251.902 101.414 251.454C102.043 251.006 102.767 250.712 103.529 250.595C105.19 250.19 106.931 250.261 108.553 250.798C110.176 251.335 111.616 252.318 112.71 253.635C113.499 254.513 114 255.612 114.144 256.785C114.223 257.811 114.023 258.84 113.564 259.762L113.387 260.131L113.754 260.272C114.342 260.499 114.879 260.841 115.334 261.278C115.789 261.715 116.153 262.239 116.404 262.818C116.542 263.126 116.613 263.461 116.612 263.799C116.61 264.138 116.536 264.472 116.395 264.779L116.34 264.78Z" fill="#B9DFF4"/>
<path opacity="0.58" d="M108.802 255.405C108.947 254.898 108.379 254.289 107.532 254.046C106.686 253.803 105.882 254.017 105.737 254.524C105.592 255.031 106.161 255.64 107.007 255.883C107.854 256.126 108.657 255.912 108.802 255.405Z" fill="#B9DFF4"/>
<path opacity="0.58" d="M118.136 256.653L115.294 256.865L115.403 258.345L118.246 258.133L118.136 256.653Z" fill="#B9DFF4"/>
<path opacity="0.58" d="M116.187 250.071L113.939 251.829L114.85 252.999L117.097 251.242L116.187 250.071Z" fill="#B9DFF4"/>
<path opacity="0.58" d="M110.931 245.659L110.036 248.373L111.442 248.838L112.336 246.124L110.931 245.659Z" fill="#B9DFF4"/>
<path opacity="0.58" d="M105.511 244.581L104.085 244.976L104.843 247.731L106.27 247.337L105.511 244.581Z" fill="#B9DFF4"/>
<path opacity="0.58" d="M99.0192 247.056L98.0521 248.179L100.21 250.047L101.177 248.923L99.0192 247.056Z" fill="#B9DFF4"/>
<path opacity="0.58" d="M94.965 252.722L94.7827 254.195L97.6116 254.547L97.7939 253.074L94.965 252.722Z" fill="#B9DFF4"/>
<path opacity="0.58" d="M110.724 259.646C111.041 258.781 110.715 257.865 109.995 257.6C109.275 257.334 108.435 257.819 108.117 258.683C107.8 259.547 108.126 260.463 108.846 260.729C109.566 260.995 110.406 260.51 110.724 259.646Z" fill="#B9DFF4"/>
<path opacity="0.58" d="M104.263 258.668C104.58 257.804 104.254 256.888 103.534 256.623C102.814 256.357 101.973 256.842 101.656 257.706C101.339 258.57 101.665 259.486 102.385 259.752C103.104 260.018 103.945 259.533 104.263 258.668Z" fill="#B9DFF4"/>
</g>
<g opacity="0.58">
<path opacity="0.58" d="M160.906 336.473C159.653 334.956 157.966 333.861 156.073 333.335C154.421 332.828 152.661 332.796 150.992 333.242C150.143 333.405 149.345 333.763 148.658 334.288C147.971 334.813 147.414 335.49 147.032 336.266C146.651 337.191 146.582 338.215 146.836 339.183C145.842 339.133 144.859 339.414 144.041 339.982C143.223 340.551 142.615 341.374 142.312 342.325L142.314 342.453L143.008 342.444C143.323 341.58 143.921 340.849 144.705 340.372C145.488 339.895 146.411 339.699 147.32 339.817L147.85 339.81L147.697 339.299C147.331 338.378 147.316 337.354 147.656 336.422C148.001 335.762 148.495 335.19 149.097 334.753C149.7 334.315 150.395 334.023 151.129 333.899C152.784 333.488 154.521 333.55 156.144 334.078C157.766 334.605 159.209 335.577 160.309 336.884C161.073 337.765 161.554 338.857 161.687 340.016C161.768 340.688 161.71 341.369 161.514 342.016L162.245 342.006C162.438 341.339 162.497 340.641 162.417 339.951C162.264 338.668 161.738 337.459 160.906 336.473Z" fill="#B9DFF4"/>
<path opacity="0.58" d="M155.829 339.543C155.975 339.037 155.417 338.431 154.584 338.189C153.75 337.947 152.956 338.16 152.81 338.665C152.664 339.171 153.221 339.777 154.055 340.019C154.888 340.261 155.683 340.048 155.829 339.543Z" fill="#B9DFF4"/>
<path opacity="0.58" d="M165.727 339.918L162.92 340.126L163.029 341.588L165.835 341.38L165.727 339.918Z" fill="#B9DFF4"/>
<path opacity="0.58" d="M163.791 333.412L161.572 335.147L162.471 336.303L164.69 334.568L163.791 333.412Z" fill="#B9DFF4"/>
<path opacity="0.58" d="M158.597 329.051L157.714 331.73L159.102 332.19L159.985 329.511L158.597 329.051Z" fill="#B9DFF4"/>
<path opacity="0.58" d="M153.243 327.996L151.834 328.386L152.582 331.106L153.992 330.716L153.243 327.996Z" fill="#B9DFF4"/>
<path opacity="0.58" d="M146.814 330.425L145.859 331.534L147.989 333.378L148.944 332.268L146.814 330.425Z" fill="#B9DFF4"/>
<path opacity="0.58" d="M142.819 336.049L142.639 337.504L145.432 337.852L145.612 336.397L142.819 336.049Z" fill="#B9DFF4"/>
<path opacity="0.58" d="M158.518 342.095L155.796 342.133C155.779 342.068 155.778 341.998 155.793 341.932C155.895 341.55 156.141 341.223 156.479 341.019C156.817 340.816 157.221 340.753 157.605 340.843C157.86 340.944 158.081 341.115 158.243 341.336C158.405 341.558 158.5 341.821 158.518 342.095Z" fill="#B9DFF4"/>
<path opacity="0.58" d="M152.01 341.931C151.974 342.034 151.927 342.133 151.868 342.226V342.226C151.723 342.535 151.475 342.783 151.167 342.928C150.859 343.073 150.51 343.105 150.18 343.02C150.02 342.947 149.876 342.842 149.758 342.712C149.639 342.581 149.549 342.427 149.493 342.26C149.4 342.056 149.35 341.835 149.347 341.611C149.344 341.387 149.387 341.165 149.475 340.959C149.584 340.584 149.833 340.265 150.171 340.069C150.508 339.873 150.908 339.815 151.287 339.907C151.647 340.083 151.924 340.393 152.06 340.772C152.195 341.15 152.177 341.566 152.01 341.931V341.931Z" fill="#B9DFF4"/>
</g>
<g opacity="0.58">
<path opacity="0.58" d="M172.905 272.828C172.413 271.672 171.506 270.743 170.365 270.225C170.741 269.32 170.896 268.338 170.817 267.36C170.661 266.14 170.149 264.994 169.345 264.064C168.166 262.624 166.576 261.579 164.789 261.069C163.231 260.595 161.572 260.567 160 260.99C159.204 261.139 158.451 261.466 157.8 261.948C157.148 262.431 156.614 263.055 156.238 263.774C155.897 264.644 155.834 265.599 156.058 266.507C155.119 266.478 154.197 266.757 153.43 267.3C152.663 267.843 152.093 268.621 151.806 269.517C151.722 270.019 151.765 270.535 151.932 271.016C152.098 271.497 152.382 271.928 152.758 272.27C153.427 272.725 154.232 272.934 155.037 272.863C155.841 272.791 156.597 272.443 157.175 271.878C158.489 272.994 160.05 273.779 161.727 274.17C163.404 274.56 165.15 274.544 166.82 274.123C167.005 274.875 167.424 275.549 168.016 276.048C168.607 276.547 169.341 276.844 170.112 276.898C170.612 276.943 171.116 276.855 171.571 276.642C172.027 276.429 172.418 276.099 172.705 275.686C172.992 275.273 173.165 274.791 173.207 274.288C173.248 273.786 173.157 273.282 172.942 272.827L172.905 272.828ZM172.313 274.907C172.096 275.313 171.772 275.65 171.375 275.882C170.978 276.114 170.525 276.232 170.066 276.221C169.859 276.232 169.653 276.198 169.461 276.12C168.924 275.947 168.445 275.626 168.081 275.194C167.716 274.762 167.479 274.236 167.398 273.675L167.393 273.291L167.009 273.296C165.374 273.77 163.648 273.826 161.986 273.459C160.262 273.103 158.655 272.319 157.312 271.18L157.071 270.963L156.837 271.186C156.38 271.678 155.771 271.999 155.108 272.099C154.446 272.198 153.769 272.069 153.189 271.733C152.901 271.47 152.684 271.138 152.557 270.768C152.431 270.399 152.399 270.003 152.465 269.618C152.767 268.817 153.331 268.143 154.066 267.706C154.8 267.27 155.661 267.096 156.506 267.215L156.999 267.208L156.847 266.77C156.518 265.893 156.504 264.927 156.808 264.041C157.14 263.415 157.611 262.875 158.185 262.463C158.76 262.051 159.422 261.779 160.119 261.666C161.675 261.28 163.309 261.339 164.834 261.835C166.359 262.332 167.715 263.247 168.748 264.476C169.453 265.315 169.905 266.338 170.051 267.426C170.15 268.394 169.967 269.371 169.524 270.237L169.364 270.551L169.713 270.692C170.816 271.13 171.702 271.987 172.178 273.076C172.325 273.355 172.413 273.662 172.436 273.977C172.46 274.292 172.418 274.609 172.313 274.907V274.907Z" fill="#B9DFF4"/>
<path opacity="0.58" d="M164.552 266.947C164.69 266.47 164.165 265.899 163.38 265.671C162.595 265.443 161.847 265.644 161.709 266.121C161.571 266.597 162.096 267.168 162.882 267.396C163.667 267.624 164.415 267.423 164.552 266.947Z" fill="#B9DFF4"/>
<path opacity="0.58" d="M173.932 267.29L171.271 267.488L171.373 268.859L174.034 268.661L173.932 267.29Z" fill="#B9DFF4"/>
<path opacity="0.58" d="M172.1 261.139L169.996 262.784L170.839 263.867L172.943 262.222L172.1 261.139Z" fill="#B9DFF4"/>
<path opacity="0.58" d="M167.181 257.027L166.344 259.567L167.645 259.998L168.482 257.458L167.181 257.027Z" fill="#B9DFF4"/>
<path opacity="0.58" d="M162.119 256.032L160.797 256.397L161.507 258.976L162.828 258.61L162.119 256.032Z" fill="#B9DFF4"/>
<path opacity="0.58" d="M156.043 258.318L155.148 259.358L157.167 261.106L158.063 260.066L156.043 258.318Z" fill="#B9DFF4"/>
<path opacity="0.58" d="M152.269 263.628L152.098 265.01L154.745 265.34L154.916 263.958L152.269 263.628Z" fill="#B9DFF4"/>
<path opacity="0.58" d="M166.28 270.971C166.577 270.166 166.275 269.312 165.605 269.063C164.935 268.814 164.151 269.264 163.854 270.068C163.556 270.872 163.858 271.726 164.528 271.976C165.198 272.225 165.982 271.775 166.28 270.971Z" fill="#B9DFF4"/>
<path opacity="0.58" d="M160.956 269.19C161.253 268.383 160.948 267.528 160.276 267.279C159.603 267.031 158.818 267.484 158.521 268.291C158.225 269.098 158.53 269.954 159.202 270.202C159.875 270.45 160.66 269.997 160.956 269.19Z" fill="#B9DFF4"/>
</g>
<g opacity="0.58">
<path opacity="0.58" d="M53.6184 223.359C53.1914 222.344 52.396 221.53 51.3931 221.082C51.729 220.288 51.8673 219.425 51.796 218.565C51.6658 217.474 51.212 216.446 50.4932 215.615C49.4675 214.404 48.1069 213.524 46.5831 213.087C46.522 213.292 46.4761 213.501 46.4458 213.712C47.8566 214.085 49.1109 214.902 50.0241 216.044C50.6577 216.785 51.0585 217.697 51.1761 218.666C51.2603 219.514 51.1012 220.368 50.7176 221.128L50.5756 221.423L50.8695 221.529C51.3555 221.718 51.7991 222.002 52.1745 222.365C52.5498 222.728 52.8495 223.162 53.0559 223.642C53.2732 224.149 53.2814 224.722 53.0785 225.236C52.8883 225.593 52.6031 225.892 52.2545 226.097C51.9059 226.302 51.5074 226.407 51.103 226.4C50.9156 226.429 50.7249 226.432 50.5366 226.408C50.0589 226.216 49.6447 225.893 49.3414 225.476C49.0382 225.059 48.8581 224.565 48.8219 224.05L48.817 223.702L48.4698 223.707C47.1796 224.07 45.8226 224.127 44.5065 223.873C44.3612 223.893 44.2139 223.895 44.068 223.879C43.9832 223.891 43.8973 223.892 43.8122 223.883C43.7976 224.09 43.8005 224.299 43.8211 224.506L44.0038 224.503C44.164 224.554 44.3304 224.582 44.4984 224.588C45.7914 224.842 47.1232 224.823 48.4084 224.532C48.5553 225.198 48.9147 225.798 49.4322 226.24C49.9497 226.682 50.5969 226.943 51.2758 226.984C51.8062 226.998 52.3298 226.861 52.7854 226.589C53.2411 226.316 53.6099 225.919 53.849 225.445C54.0503 224.746 53.9673 223.996 53.6184 223.359V223.359Z" fill="#B9DFF4"/>
<path opacity="0.58" d="M46.2352 218.187C46.2396 218.499 45.7489 218.689 45.2733 218.659C45.3942 218.163 45.4788 217.685 45.5819 217.225C46.0601 217.438 46.3584 217.856 46.2352 218.187Z" fill="#B9DFF4"/>
<path opacity="0.58" d="M54.504 218.496L52.1715 218.669L52.2621 219.893L54.5946 219.72L54.504 218.496Z" fill="#B9DFF4"/>
<path opacity="0.58" d="M52.9094 213.084L51.0652 214.526L51.8182 215.494L53.6624 214.052L52.9094 213.084Z" fill="#B9DFF4"/>
<path opacity="0.58" d="M48.5704 209.425L47.8308 211.669L48.9933 212.055L49.7328 209.811L48.5704 209.425Z" fill="#B9DFF4"/>
<path opacity="0.58" d="M48.426 220.969C48.6876 220.257 48.4159 219.501 47.8193 219.28C47.2227 219.06 46.527 219.459 46.2654 220.171C46.0039 220.883 46.2755 221.639 46.8722 221.859C47.4688 222.08 48.1645 221.681 48.426 220.969Z" fill="#B9DFF4"/>
</g>
<g style="mix-blend-mode:multiply" opacity="0.34">
<path d="M76.3191 343.407C73.4505 343.448 70.6002 343.488 67.7317 343.529L65.0643 236.646L76.3191 343.407Z" fill="#2F597C"/>
</g>
<g style="mix-blend-mode:multiply" opacity="0.34">
<path d="M161.481 235.279L161.862 342.029L155.796 342.115C154.937 342.127 154.115 342.139 153.274 342.151L161.481 235.279Z" fill="#2F597C"/>
</g>
<g style="mix-blend-mode:multiply" opacity="0.49">
<path d="M120.357 174.33L103.786 173.356C97.1384 174.953 69.4954 181.868 68.36 189.434C68.2957 189.669 68.2789 189.915 68.3106 190.157C68.3423 190.399 68.4218 190.632 68.5445 190.842C70.6136 193.708 83.0795 184.864 99.921 181.73C102.321 184.738 106.287 189.941 113.36 188.649C115.591 188.306 117.732 187.521 119.658 186.339C121.583 185.157 123.255 183.602 124.574 181.765C142.621 185.027 155.18 194.304 158.012 190.453C158.212 190.196 158.34 189.891 158.384 189.568C158.937 184.759 138.147 178.806 120.357 174.33Z" fill="#2F597C"/>
</g>
<path d="M103.1 171.332C102.857 170.975 102.748 170.543 102.792 170.114C102.836 169.684 103.03 169.284 103.34 168.983C103.63 168.794 103.968 168.69 104.314 168.685C104.66 168.68 105 168.774 105.295 168.956C105.702 169.215 106.007 169.607 106.16 170.065C106.313 170.523 106.304 171.02 106.135 171.472C106.366 169.728 107.925 168.808 108.769 169.09C109.308 169.355 109.729 169.811 109.95 170.371C110.17 170.93 110.175 171.552 109.964 172.114C109.913 171.556 110.067 170.997 110.397 170.544C110.727 170.091 111.21 169.774 111.756 169.652C112.018 169.641 112.278 169.693 112.515 169.805C112.752 169.916 112.959 170.084 113.118 170.292C113.713 171.035 113.399 172.121 113.564 172.118C113.728 172.116 113.768 171.071 114.493 170.603C114.732 170.488 114.993 170.426 115.258 170.422C115.523 170.419 115.785 170.473 116.027 170.581C116.378 170.739 116.676 170.993 116.887 171.315C117.099 171.636 117.215 172.011 117.223 172.396C117.302 171.928 117.494 171.486 117.781 171.108C118.069 170.731 118.444 170.429 118.873 170.229C119.133 170.109 119.416 170.044 119.702 170.04C119.989 170.036 120.273 170.092 120.536 170.205C120.882 170.48 121.131 170.858 121.249 171.285C121.367 171.711 121.347 172.164 121.191 172.578C121.922 175.188 122.636 177.798 123.367 180.427C121.981 182.002 120.285 183.274 118.385 184.161C116.486 185.049 114.424 185.534 112.329 185.586C110.02 185.548 107.749 184.993 105.682 183.96C103.614 182.927 101.804 181.443 100.384 179.617L103.1 171.332Z" fill="#B9DFF4"/>
<g style="mix-blend-mode:multiply" opacity="0.27">
<path d="M71.9399 150.627C76.0214 154.931 84.8708 160.394 93.7273 163.786C77.7163 159.616 63.5463 150.217 53.4546 137.073C53.4546 137.073 69.892 145.397 70.8976 148.003C71.9031 150.61 64.5197 142.853 71.9399 150.627Z" fill="#8D4F26"/>
</g>
<g style="mix-blend-mode:multiply" opacity="0.27">
<path d="M171.992 136.273C165.179 145.421 156.358 152.875 146.212 158.058C136.066 163.242 124.866 166.015 113.48 166.164C124.884 162.338 134.657 163.335 150.754 152.809C166.851 142.282 165.318 134.718 168.781 135.347C169.874 135.571 170.947 135.88 171.992 136.273Z" fill="#8D4F26"/>
</g>
<path d="M82.1566 113.953C77.4553 114.02 72.8397 112.687 68.8935 110.124C64.9473 107.56 61.8478 103.881 59.9869 99.5513C58.1261 95.2216 57.5873 90.436 58.4389 85.7996C59.2906 81.1632 61.4942 76.8842 64.7713 73.5038C68.0484 70.1233 72.2516 67.7932 76.8496 66.8082C81.4475 65.8231 86.2336 66.2273 90.6027 67.9697C94.9717 69.712 98.7275 72.7143 101.395 76.5968C104.063 80.4793 105.522 85.0676 105.589 89.7816C105.671 96.1008 103.251 102.194 98.8577 106.726C94.4648 111.257 88.4586 113.856 82.1566 113.953ZM81.499 67.5934C77.069 67.6563 72.757 69.0342 69.1077 71.5532C65.4585 74.0722 62.6358 77.6192 60.9963 81.7461C59.3567 85.873 58.9737 90.3947 59.8959 94.7399C60.818 99.0851 63.0038 103.059 66.1771 106.159C69.3504 109.26 73.3689 111.348 77.7249 112.159C82.0809 112.971 86.579 112.47 90.6509 110.719C94.7228 108.969 98.1859 106.047 100.603 102.324C103.019 98.6009 104.281 94.243 104.229 89.8009C104.134 83.8447 101.688 78.169 97.428 74.0168C93.1678 69.8647 87.4403 67.5745 81.4998 67.648L81.499 67.5934Z" fill="#EDD8A2"/>
<path d="M137.367 113.17C132.664 113.245 128.045 111.919 124.094 109.361C120.142 106.802 117.036 103.126 115.169 98.7972C113.302 94.4684 112.757 89.6816 113.604 85.0425C114.451 80.4035 116.652 76.1207 119.927 72.7362C123.202 69.3517 127.406 67.0176 132.005 66.0292C136.604 65.0408 141.392 65.4426 145.763 67.1837C150.135 68.9248 153.893 71.927 156.562 75.8103C159.231 79.6937 160.692 84.2836 160.759 88.9994C160.841 95.3114 158.426 101.399 154.042 105.929C149.658 110.459 143.662 113.063 137.367 113.17V113.17ZM136.71 66.8106C132.278 66.8654 127.962 68.2365 124.307 70.7506C120.653 73.2647 117.823 76.809 116.178 80.9353C114.532 85.0616 114.143 89.5846 115.061 93.9326C115.978 98.2805 118.161 102.258 121.333 105.363C124.504 108.467 128.523 110.559 132.88 111.374C137.237 112.189 141.737 111.69 145.812 109.941C149.886 108.191 153.351 105.27 155.77 101.546C158.188 97.822 159.451 93.4625 159.399 89.0186C159.307 83.0684 156.869 77.3967 152.617 73.2448C148.364 69.0929 142.645 66.799 136.711 66.8651L136.71 66.8106Z" fill="#EDD8A2"/>
<path d="M105.213 89.1459L104.503 87.9831C104.746 87.8297 110.612 84.2688 114.391 87.952L113.439 88.9202C110.418 85.9899 105.267 89.1179 105.213 89.1459Z" fill="#EDD8A2"/>
</g>
<g clip-path="url(#clip1_9849_186930)">
<path d="M368.234 343.92L209.597 342.306C209.127 338.199 209.034 334.057 209.318 329.933C209.381 327.633 209.603 325.233 209.906 322.681C210.277 318.604 210.891 314.172 211.537 309.508C211.913 307.139 212.29 304.718 212.721 302.22C213.459 297.973 214.228 293.545 215.101 289.068C215.555 286.675 216.037 284.205 216.543 281.813C217.415 277.414 218.313 272.99 219.285 268.671C219.848 266.1 220.351 263.811 220.883 261.395C221.886 256.921 222.939 252.501 223.832 248.258C224.394 245.687 224.976 243.349 225.584 240.986C226.67 236.308 227.801 231.89 228.817 227.857C229.457 225.288 230.097 222.719 230.673 220.614C233.305 210.495 235.161 204.157 235.161 204.157L273.687 181.941C279.685 184.785 286.254 186.217 292.891 186.126C299.529 186.036 306.057 184.426 311.975 181.42L346.924 198.811C349.072 207.2 351.184 215.605 353.262 224.026C353.919 226.45 354.55 228.899 355.128 231.372C356.246 235.817 357.357 240.254 358.458 244.682C359.115 247.132 359.745 249.581 360.324 252.054L363.681 265.339C364.053 266.849 364.452 268.309 364.798 269.819C364.772 270.775 364.746 271.706 364.926 272.694C365.114 277.096 365.303 281.499 365.543 285.929C365.657 288.338 365.744 290.823 365.858 293.232C366.046 297.661 366.287 302.065 366.475 306.467C366.589 308.902 366.676 311.362 366.842 313.798C367.031 318.2 367.219 322.629 367.433 327.032L367.775 334.31C367.919 337.522 368.116 340.709 368.234 343.92Z" fill="#1E9450"/>
<path d="M232.59 83.7785C232.59 83.7785 216.989 79.3382 226.701 63.8533C226.701 63.8533 217.107 44.188 235.563 37.9464C235.563 37.9464 241.321 22.3524 254.092 28.1114C254.092 28.1114 258.344 9.94076 272.171 16.7895C272.171 16.7895 286.295 -0.203123 299.239 16.1661C299.239 16.1661 315.951 8.45375 319.651 21.4895C319.651 21.4895 334.306 19.9284 335.597 31.2163C335.597 31.2163 352.97 31.4116 350.683 46.8169C350.683 46.8169 363.265 49.1304 359.603 59.9969C359.603 59.9969 375.896 70.2764 365.74 81.2481C365.74 81.2481 374.338 91.1082 362.407 93.2877L232.59 83.7785Z" fill="#231F20"/>
<path d="M377.463 98.7468C376.902 101.162 375.527 103.311 373.567 104.831C371.608 106.35 369.185 107.148 366.707 107.089C365.632 107.048 364.571 106.827 363.57 106.434L363.554 107.002C363.461 110.804 362.984 114.587 362.13 118.293V118.293C356.905 141.765 337.696 160.273 313.123 166.087C312.003 166.366 310.911 166.595 309.793 166.797C308.675 166.999 307.507 167.173 306.315 167.27C302.387 167.85 298.419 168.104 294.449 168.028C257.6 167.01 228.386 138.603 228.765 104.288C228.784 103.616 228.794 103.228 228.794 103.228L228.798 103.099C228.176 103.231 227.541 103.292 226.905 103.28C224.459 103.161 222.127 102.213 220.292 100.592C218.456 98.9714 217.227 96.7738 216.807 94.3611C216.376 91.9032 216.9 89.3735 218.27 87.288C218.775 86.5927 219.438 86.0261 220.203 85.6342C221.922 84.8749 223.866 84.7991 225.64 85.4222C227.589 86.0406 229.379 87.079 230.883 88.4642L230.879 88.5934C238.854 61.0841 266.089 41.3237 297.873 42.2017C329.658 43.0796 356.391 64.8738 362.308 93.129C364.115 91.248 366.408 89.9054 368.932 89.2508C370.729 88.7279 372.657 88.9107 374.323 89.7618C375.664 90.7915 376.675 92.1901 377.232 93.786C377.79 95.382 377.87 97.106 377.463 98.7468V98.7468Z" fill="#8D4F26"/>
<path d="M355.869 93.1062L355.508 93.0962C354.491 93.1443 353.48 92.9161 352.583 92.4359C351.686 91.9557 350.935 91.2413 350.411 90.3687L341.903 75.3636C341.167 74.0604 339.95 73.098 338.512 72.6832L290.494 59.3804C289.432 59.0917 288.309 59.1145 287.259 59.4463L249.481 71.4657C248.589 71.7434 247.781 72.2426 247.134 72.9168C246.487 73.591 246.021 74.4181 245.78 75.3211L242.694 86.8502C242.469 87.6618 242.065 88.4126 241.511 89.0473C240.957 89.682 240.269 90.1846 239.495 90.5181C238.722 90.8515 237.884 91.0074 237.043 90.9743C236.201 90.9412 235.378 90.7198 234.633 90.3266C233.42 89.6778 232.488 88.6059 232.014 87.3148C231.539 86.0236 231.556 84.6031 232.059 83.3231C241.619 58.3667 267.729 40.9033 297.86 41.7356C327.577 42.5564 352.413 60.9355 360.932 85.8222C361.2 86.6393 361.274 87.5073 361.149 88.358C361.024 89.2086 360.704 90.0188 360.213 90.7247C359.723 91.4306 359.075 92.0131 358.321 92.4263C357.568 92.8395 356.728 93.0723 355.869 93.1062V93.1062Z" fill="#231F20"/>
<path d="M269.159 113.682C276.766 113.892 283.064 109.283 283.227 103.387C283.39 97.4914 277.356 92.5417 269.749 92.3316C262.142 92.1215 255.843 96.7305 255.681 102.626C255.518 108.522 261.552 113.471 269.159 113.682Z" fill="white"/>
<path d="M269.495 113.691C274.618 113.833 278.887 109.793 279.028 104.668C279.17 99.5434 275.131 95.2742 270.008 95.1327C264.884 94.9912 260.616 99.0309 260.474 104.156C260.333 109.28 264.371 113.55 269.495 113.691Z" fill="#231F20"/>
<path d="M322.546 115.156C330.153 115.366 336.452 110.757 336.615 104.862C336.777 98.966 330.743 94.0163 323.136 93.8062C315.529 93.5961 309.231 98.2051 309.068 104.101C308.905 109.996 314.94 114.946 322.546 115.156Z" fill="white"/>
<path d="M323.115 115.172C328.239 115.313 332.507 111.273 332.649 106.149C332.79 101.024 328.751 96.7547 323.628 96.6132C318.504 96.4717 314.236 100.511 314.095 105.636C313.953 110.761 317.992 115.03 323.115 115.172Z" fill="#231F20"/>
<path d="M254.299 88.0505C254.328 86.9907 259.088 83.1904 267.059 82.0396C269.777 81.6499 272.533 81.613 275.26 81.9298C275.541 82.0696 275.788 82.2702 275.983 82.5172C276.177 82.7641 276.314 83.0512 276.384 83.3577C276.395 83.673 276.334 83.9865 276.205 84.2744C276.076 84.5622 275.883 84.8168 275.64 85.0185C273.855 86.9093 269.905 83.8513 265.298 84.9398C261.603 85.769 256.536 89.4315 255.273 89.2931C255.004 89.2696 254.751 89.1528 254.558 88.963C254.456 88.836 254.38 88.6898 254.336 88.5331C254.291 88.3763 254.279 88.2122 254.299 88.0505V88.0505Z" fill="#231F20"/>
<path d="M333.976 88.9834C333.824 87.9445 328.931 84.3949 320.906 83.7335C318.166 83.4917 315.406 83.6155 312.698 84.1017C312.43 84.2598 312.198 84.4725 312.017 84.726C311.837 84.9794 311.711 85.268 311.649 85.573C311.668 85.8909 311.751 86.2016 311.894 86.4858C312.038 86.7701 312.238 87.0219 312.483 87.2257C314.399 88.9859 318.162 85.7012 322.847 86.5031C326.579 87.1494 331.866 90.4771 333.088 90.2522C333.354 90.2224 333.599 90.0901 333.77 89.8831C333.868 89.7574 333.938 89.6117 333.973 89.4562C334.009 89.3007 334.01 89.1393 333.976 88.9834V88.9834Z" fill="#231F20"/>
<path d="M289.313 113.384C286.694 114.579 284.886 116.34 284.932 118.437C284.902 119.569 285.165 120.69 285.695 121.691C286.337 122.879 287.183 123.945 288.195 124.838C286.57 124.707 285.06 123.951 283.98 122.731C282.9 121.51 282.334 119.918 282.402 118.289C282.423 117.42 282.663 116.57 283.099 115.818C283.536 115.066 284.155 114.436 284.9 113.987C285.551 113.58 286.281 113.316 287.042 113.212C287.802 113.108 288.576 113.167 289.313 113.384Z" fill="#231F20"/>
<path d="M288.634 137.939C290.518 137.892 292.393 137.675 294.238 137.292C295.976 136.906 297.666 136.328 299.277 135.569C300.901 134.79 302.451 133.863 303.905 132.8C304.669 132.304 305.358 131.676 306.123 131.128C306.889 130.58 307.555 129.874 308.373 129.276C307.675 131.164 306.608 132.893 305.232 134.363C303.864 135.866 302.214 137.086 300.375 137.953C298.511 138.814 296.492 139.286 294.44 139.341C292.414 139.402 290.409 138.918 288.634 137.939V137.939Z" fill="#231F20"/>
<g style="mix-blend-mode:multiply" opacity="0.28">
<path d="M264.473 117.613C264.473 117.613 272.122 112.211 275.995 114.284C279.869 116.357 264.473 117.613 264.473 117.613Z" fill="#8D4F26"/>
</g>
<g style="mix-blend-mode:multiply" opacity="0.28">
<path d="M328.908 119.858C328.908 119.858 321.569 114.016 317.587 115.872C313.605 117.728 328.908 119.858 328.908 119.858Z" fill="#8D4F26"/>
</g>
<path d="M301.097 162.366L287.608 161.994L286.964 185.308L300.453 185.681L301.097 162.366Z" fill="#8D4F26"/>
<path d="M309.74 166.847C308.597 167.048 307.429 167.197 306.262 167.32C307.404 167.144 308.596 167.074 309.74 166.847Z" fill="#8D4F26"/>
<g style="mix-blend-mode:multiply" opacity="0.28">
<path d="M306.262 167.32C302.335 167.903 298.366 168.157 294.397 168.079C257.547 167.061 228.333 138.654 228.712 104.339C229.068 111.126 232.963 147.991 280.13 164.012C288.494 167.015 297.414 168.144 306.262 167.32V167.32Z" fill="#8D4F26"/>
</g>
<g style="mix-blend-mode:multiply" opacity="0.28">
<path d="M362.076 118.369C356.851 141.842 337.642 160.349 313.069 166.163C343.58 158.832 359.766 126.195 362.076 118.369Z" fill="#8D4F26"/>
</g>
<path d="M285.433 178.954C286.33 179.979 287.42 180.816 288.642 181.418C289.864 182.02 291.192 182.375 292.551 182.462C295.474 182.312 298.285 181.291 300.623 179.529C303.415 177.692 304.206 176.188 306.379 176.17C307.74 176.198 309.047 176.711 310.063 177.617C311.158 178.601 311.848 179.957 312.001 181.421C309.927 184.493 307.171 187.043 303.949 188.875C300.727 190.706 297.126 191.769 293.426 191.979C289.574 191.998 285.774 191.097 282.341 189.351C278.908 187.605 275.941 185.065 273.687 181.941C273.883 181.036 274.258 180.179 274.79 179.421C275.321 178.663 275.999 178.018 276.783 177.525C278.187 176.805 279.786 176.556 281.343 176.813C282.901 177.07 284.334 177.821 285.433 178.954V178.954Z" fill="#231F20"/>
<path d="M340.18 213.602L243.792 210.94L243.59 218.255L339.978 220.917L340.18 213.602Z" fill="#FFECD5"/>
<path d="M355.129 231.346L342.673 231.002L342.875 223.713L353.211 223.999C353.92 226.424 354.551 228.873 355.129 231.346Z" fill="#FFECD5"/>
<path d="M360.325 252.028L344.355 251.587L344.557 244.272L358.459 244.656C359.012 247.103 359.746 249.555 360.325 252.028Z" fill="#FFECD5"/>
<path d="M364.952 272.694L343.788 272.11L343.99 264.795L363.681 265.339C364.053 266.849 364.452 268.309 364.799 269.819C364.876 270.778 364.902 271.71 364.952 272.694Z" fill="#FFECD5"/>
<path d="M365.887 293.129L343.225 292.503L343.426 285.214L365.701 285.829C365.632 288.336 365.77 290.823 365.887 293.129Z" fill="#FFECD5"/>
<path d="M366.867 313.85L342.653 313.181L342.855 305.867L366.5 306.52C366.615 308.903 366.705 311.259 366.867 313.85Z" fill="#FFECD5"/>
<path d="M367.801 334.311L342.09 333.601L342.29 326.337L367.459 327.033L367.801 334.311Z" fill="#FFECD5"/>
<path d="M240.776 220.893L240.575 228.182L228.972 227.861C229.612 225.292 230.252 222.723 230.827 220.618L240.776 220.893Z" fill="#FFECD5"/>
<path d="M242.381 241.449L242.179 248.764L224.09 248.265C224.652 245.693 225.234 243.356 225.842 240.993L242.381 241.449Z" fill="#FFECD5"/>
<path d="M241.814 261.973L241.612 269.288L219.337 268.673C219.899 266.102 220.402 263.813 220.934 261.396L241.814 261.973Z" fill="#FFECD5"/>
<path d="M241.247 282.495L241.049 289.681L215.207 288.967C215.661 286.574 216.143 284.104 216.649 281.712L241.247 282.495Z" fill="#FFECD5"/>
<path d="M240.681 302.992L240.478 310.359L211.587 309.561C211.963 307.191 212.34 304.77 212.771 302.273L240.681 302.992Z" fill="#FFECD5"/>
<path d="M240.114 323.515L239.914 330.778L209.318 329.933C209.381 327.633 209.603 325.233 209.906 322.681L240.114 323.515Z" fill="#FFECD5"/>
<path d="M340.236 236.832L243.849 234.17L243.647 241.485L340.034 244.147L340.236 236.832Z" fill="#FFECD5"/>
<path d="M340.292 260.088L243.905 257.426L243.703 264.741L340.09 267.403L340.292 260.088Z" fill="#FFECD5"/>
<path d="M340.349 283.319L243.962 280.656L243.76 287.971L340.147 290.633L340.349 283.319Z" fill="#FFECD5"/>
<path d="M340.405 306.574L244.017 303.912L243.815 311.227L340.203 313.889L340.405 306.574Z" fill="#FFECD5"/>
<path d="M340.461 329.83L244.073 327.168L243.871 334.483L340.259 337.145L340.461 329.83Z" fill="#FFECD5"/>
<g style="mix-blend-mode:multiply" opacity="0.31">
<path d="M340.18 213.602C340.18 213.602 349.878 266.018 347.204 292.613L344.552 319.338L341.994 337.064L340.18 213.602Z" fill="#1E9450"/>
</g>
<g style="mix-blend-mode:multiply" opacity="0.31">
<path d="M244.418 210.776C244.418 210.776 234.54 263.168 237.061 289.881L239.606 316.62L242.09 334.356L244.418 210.776Z" fill="#1E9450"/>
</g>
<g style="mix-blend-mode:screen">
<path d="M288.357 117.083C289.519 118.072 292.259 118.122 292.363 117.194C292.466 116.265 290.864 115.29 289.409 115.508C288.867 115.493 288.027 115.936 288.014 116.401C288.001 116.866 288.003 116.789 288.357 117.083Z" fill="#8D4F26"/>
</g>
<g style="mix-blend-mode:multiply" opacity="0.28">
<path d="M230.943 89.1128L227.871 95.4689C227.871 95.4689 226.405 87.6683 220.333 87.5005C219.638 87.5414 218.941 87.4697 218.27 87.2884C218.776 86.593 219.438 86.0265 220.203 85.6345C221.923 84.8752 223.867 84.7995 225.64 85.4226C227.589 86.041 229.379 87.0793 230.883 88.4645L230.943 89.1128Z" fill="#8D4F26"/>
</g>
<g style="mix-blend-mode:multiply" opacity="0.28">
<path d="M362.138 92.736L364.88 99.2526C364.88 99.2526 366.748 91.5441 372.847 91.7125C373.511 91.7462 374.175 91.6773 374.818 91.5083C374.361 90.7782 373.729 90.1739 372.979 89.7503C371.313 88.8991 369.384 88.7163 367.588 89.2392C365.603 89.7377 363.757 90.6769 362.185 91.9871L362.138 92.736Z" fill="#8D4F26"/>
</g>
<path d="M319.294 231.96C324.918 232.115 329.602 227.682 329.757 222.057C329.913 216.433 325.48 211.748 319.857 211.592C314.234 211.437 309.55 215.871 309.394 221.495C309.239 227.119 313.671 231.805 319.294 231.96Z" fill="#FFECD5"/>
<path d="M264.169 122.89C259.456 122.127 255.077 119.98 251.584 116.721C248.091 113.461 245.641 109.236 244.544 104.578C243.448 99.921 243.754 95.0411 245.423 90.5558C247.093 86.0705 250.052 82.1811 253.925 79.3795C257.798 76.578 262.411 74.9901 267.182 74.8166C271.953 74.6432 276.667 75.8919 280.728 78.405C284.789 80.9181 288.014 84.5826 289.996 88.9352C291.978 93.2877 292.628 98.1329 291.863 102.858C290.83 109.19 287.334 114.856 282.142 118.611C276.95 122.367 270.487 123.906 264.169 122.89V122.89ZM271.692 76.4222C267.252 75.7033 262.698 76.32 258.605 78.1946C254.511 80.0692 251.063 83.1174 248.696 86.9543C246.328 90.7911 245.147 95.2444 245.302 99.7516C245.458 104.259 246.942 108.618 249.567 112.278C252.193 115.937 255.842 118.734 260.054 120.314C264.266 121.894 268.852 122.187 273.232 121.156C277.612 120.124 281.59 117.814 284.664 114.518C287.737 111.222 289.768 107.088 290.499 102.637C291.455 96.6652 290.012 90.5589 286.485 85.6556C282.958 80.7523 277.636 77.4518 271.684 76.4769L271.692 76.4222Z" fill="#EDD8A2"/>
<path d="M319.508 131.851C314.793 131.096 310.408 128.955 306.909 125.699C303.41 122.444 300.953 118.22 299.85 113.563C298.747 108.905 299.048 104.023 300.713 99.5342C302.379 95.0455 305.334 91.1517 309.206 88.3458C313.079 85.5399 317.693 83.9479 322.466 83.7713C327.238 83.5947 331.955 84.8414 336.018 87.3536C340.081 89.8659 343.309 93.5308 345.293 97.8845C347.276 102.238 347.927 107.085 347.161 111.812C346.13 118.137 342.641 123.798 337.458 127.553C332.275 131.309 325.821 132.854 319.508 131.851V131.851ZM327.032 85.3829C322.591 84.6556 318.034 85.2648 313.936 87.1335C309.839 89.0023 306.384 92.0467 304.011 95.8818C301.637 99.7169 300.45 104.171 300.6 108.68C300.75 113.189 302.231 117.551 304.854 121.215C307.477 124.878 311.126 127.679 315.338 129.263C319.551 130.846 324.139 131.142 328.521 130.112C332.903 129.082 336.884 126.773 339.959 123.476C343.034 120.179 345.066 116.044 345.798 111.591C346.757 105.626 345.319 99.5247 341.801 94.6231C338.282 89.7216 332.968 86.4188 327.023 85.4376L327.032 85.3829Z" fill="#EDD8A2"/>
<path d="M291.599 102.156L291.094 100.868C291.364 100.758 297.857 98.2326 300.986 102.582L299.863 103.382C297.36 99.9193 291.658 102.138 291.599 102.156Z" fill="#EDD8A2"/>
</g>
<defs>
<clipPath id="clip0_9849_186930">
<rect width="208.33" height="342.148" fill="white" transform="translate(0 3.02246) rotate(-0.812636)"/>
</clipPath>
<clipPath id="clip1_9849_186930">
<rect width="161.827" height="335.317" fill="white" transform="translate(218.235 7.09863) rotate(1.58217)"/>
</clipPath>
</defs>
</svg>
