<svg xmlns="http://www.w3.org/2000/svg">
    
    <symbol id="arrow-right" viewBox="0 0 16 20" fill="none" xmlns="http://www.w3.org/2000/svg">
		<path d="M3.125 10H16.875" stroke="currentColor" stroke-linecap="round" stroke-linejoin="round"/>
		<path d="M11.25 4.375L16.875 10L11.25 15.625" stroke="currentColor" stroke-linecap="round" stroke-linejoin="round"/>
    </symbol>	

    <symbol id="fb" viewBox="0 0 32 32" fill="none" xmlns="http://www.w3.org/2000/svg">
        <path d="M8 12.5316L8 17.8649H12V27.1982H17.3333L17.3333 17.8649H21.3333L22.6667 12.5316H17.3333V9.86491C17.3333 9.51129 17.4738 9.17215 17.7239 8.9221C17.9739 8.67205 18.313 8.53158 18.6667 8.53158L22.6667 8.53158V3.19824L18.6667 3.19824C16.8986 3.19824 15.2029 3.90062 13.9526 5.15086C12.7024 6.40111 12 8.0968 12 9.86491L12 12.5316H8Z" stroke="#111111" stroke-linecap="round" stroke-linejoin="round"/>
    </symbol>

    <symbol id="linkdIn" viewBox="0 0 32 32" fill="none" xmlns="http://www.w3.org/2000/svg">
		<g clip-path="url(#clip0_455_10723)">
		<path d="M23.9999 5.1709L7.99992 5.1709C6.52716 5.1709 5.33325 6.32837 5.33325 7.75619L5.33325 23.2679C5.33325 24.6957 6.52716 25.8532 7.99992 25.8532L23.9999 25.8532C25.4727 25.8532 26.6666 24.6957 26.6666 23.2679L26.6666 7.75619C26.6666 6.32837 25.4727 5.1709 23.9999 5.1709Z" stroke="#111111" stroke-linecap="round" stroke-linejoin="round"/>
		<path d="M10.6667 14.2188L10.6667 20.682" stroke="#111111" stroke-linecap="round" stroke-linejoin="round"/>
		<path d="M10.6667 10.3408V10.3528" stroke="#111111" stroke-linecap="round" stroke-linejoin="round"/>
		<path d="M15.9998 20.682L15.9998 14.2188" stroke="#111111" stroke-linecap="round" stroke-linejoin="round"/>
		<path d="M21.3331 20.682V16.804C21.3331 16.1184 21.0521 15.4608 20.552 14.976C20.0519 14.4911 19.3737 14.2188 18.6664 14.2188C17.9592 14.2188 17.2809 14.4911 16.7808 14.976C16.2807 15.4608 15.9998 16.1184 15.9998 16.804" stroke="#111111" stroke-linecap="round" stroke-linejoin="round"/>
		</g>
		<defs>
		<clipPath id="clip0_455_10723">
		<rect width="32" height="31.0235" fill="white"/>
		</clipPath>
		</defs>
	</symbol>




	<symbol id="phone" viewBox="0 0 24 25" fill="none" xmlns="http://www.w3.org/2000/svg">
	   <path d="M5 4.25H9L11 9.25L8.5 10.75C9.57096 12.9215 11.3285 14.679 13.5 15.75L15 13.25L20 15.25V19.25C20 19.7804 19.7893 20.2891 19.4142 20.6642C19.0391 21.0393 18.5304 21.25 18 21.25C14.0993 21.013 10.4202 19.3565 7.65683 16.5932C4.8935 13.8298 3.23705 10.1507 3 6.25C3 5.71957 3.21071 5.21086 3.58579 4.83579C3.96086 4.46071 4.46957 4.25 5 4.25" stroke="#7C7C7C" stroke-linecap="round" stroke-linejoin="round"/>
	</symbol>


	<symbol id="nigeria" viewBox="0 0 24 25" fill="none" xmlns="http://www.w3.org/2000/svg">
		<g clip-path="url(#clip0_5719_111798)">
		<path d="M18.5739 20.5517H23.1255C23.5826 20.5517 23.9532 20.1813 23.9532 19.7242V4.82764C23.9532 4.37042 23.5826 4 23.1255 4H0.780763C0.323548 4 -0.046875 4.37061 -0.046875 4.82764V19.7242C-0.046875 20.1813 0.323548 20.5517 0.780763 20.5517H18.5739Z" fill="#4C8056"/>
		<path d="M7.4015 4V20.5517H0.780763C0.324097 20.5504 -0.0455933 20.1807 -0.046875 19.7242V4.82764C-0.0455933 4.37097 0.324097 4.00128 0.780763 4H7.4015Z" fill="#4C8056"/>
		<path d="M7.40161 4H16.5051V20.5517H7.40161V4Z" fill="#E6E7E8"/>
		</g>
		<defs>
		<clipPath id="clip0_5719_111798">
		<rect width="24" height="24" fill="white" transform="translate(0 0.25)"/>
		</clipPath>
		</defs>
	</symbol>




	<symbol id="caret-down" viewBox="0 0 24 25" fill="none" xmlns="http://www.w3.org/2000/svg">
		<path d="M18.75 8.875L12 15.625L5.25 8.875" stroke="currentColor" stroke-linecap="round" stroke-linejoin="round"/>
	</symbol>
 
	<symbol id="caret-right" viewBox="0 0 6 12" fill="none" xmlns="http://www.w3.org/2000/svg">
		<path d="M0.5 11L5.5 6L0.5 1" stroke="#111111" stroke-linecap="round" stroke-linejoin="round"/>
	</symbol>


	<symbol id="user" viewBox="0 0 24 25" fill="none" xmlns="http://www.w3.org/2000/svg">
		<path d="M12 11.25C14.2091 11.25 16 9.45914 16 7.25C16 5.04086 14.2091 3.25 12 3.25C9.79086 3.25 8 5.04086 8 7.25C8 9.45914 9.79086 11.25 12 11.25Z" stroke="#7C7C7C" stroke-linecap="round" stroke-linejoin="round"/>
		<path d="M6 21.25V19.25C6 18.1891 6.42143 17.1717 7.17157 16.4216C7.92172 15.6714 8.93913 15.25 10 15.25H14C15.0609 15.25 16.0783 15.6714 16.8284 16.4216C17.5786 17.1717 18 18.1891 18 19.25V21.25" stroke="#7C7C7C" stroke-linecap="round" stroke-linejoin="round"/>
	</symbol>

	<symbol id="hamper" viewBox="0 0 24 25" fill="none" xmlns="http://www.w3.org/2000/svg">
		<path d="M20 8.25H4C3.44772 8.25 3 8.69772 3 9.25V11.25C3 11.8023 3.44772 12.25 4 12.25H20C20.5523 12.25 21 11.8023 21 11.25V9.25C21 8.69772 20.5523 8.25 20 8.25Z" stroke="#7C7C7C" stroke-linecap="round" stroke-linejoin="round"/>
		<path d="M12 8.25V21.25" stroke="#7C7C7C" stroke-linecap="round" stroke-linejoin="round"/>
		<path d="M19 12.25V19.25C19 19.7804 18.7893 20.2891 18.4142 20.6642C18.0391 21.0393 17.5304 21.25 17 21.25H7C6.46957 21.25 5.96086 21.0393 5.58579 20.6642C5.21071 20.2891 5 19.7804 5 19.25V12.25" stroke="#7C7C7C" stroke-linecap="round" stroke-linejoin="round"/>
		<path d="M7.5 8.25044C6.83696 8.25044 6.20107 7.98705 5.73223 7.5182C5.26339 7.04936 5 6.41348 5 5.75044C5 5.0874 5.26339 4.45151 5.73223 3.98267C6.20107 3.51383 6.83696 3.25044 7.5 3.25044C8.46469 3.23363 9.41003 3.7017 10.2127 4.5936C11.0154 5.4855 11.6383 6.75984 12 8.25044C12.3617 6.75984 12.9846 5.4855 13.7873 4.5936C14.59 3.7017 15.5353 3.23363 16.5 3.25044C17.163 3.25044 17.7989 3.51383 18.2678 3.98267C18.7366 4.45151 19 5.0874 19 5.75044C19 6.41348 18.7366 7.04936 18.2678 7.5182C17.7989 7.98705 17.163 8.25044 16.5 8.25044" stroke="#7C7C7C" stroke-linecap="round" stroke-linejoin="round"/>
	</symbol>


	<symbol id="search" viewBox="0 0 24 24" fill="none" xmlns="http://www.w3.org/2000/svg">
		<path d="M10 17C13.866 17 17 13.866 17 10C17 6.13401 13.866 3 10 3C6.13401 3 3 6.13401 3 10C3 13.866 6.13401 17 10 17Z" stroke="#111111" stroke-linecap="round" stroke-linejoin="round"/>
		<path d="M21 21L15 15" stroke="#111111" stroke-linecap="round" stroke-linejoin="round"/>
	</symbol>


	<symbol id="twitter" viewBox="0 0 32 32" fill="none" xmlns="http://www.w3.org/2000/svg">
		<g clip-path="url(#clip0_455_10730)">
		<path d="M29.3332 5.18398C27.9998 5.81738 26.6932 6.07461 25.3332 6.4637C23.8385 4.8285 21.6225 4.73802 19.4932 5.51102C17.3638 6.28402 15.9692 8.17387 15.9998 10.3416L15.9998 11.6343C11.6732 11.7416 7.81984 9.83104 5.33317 6.4637C5.33317 6.4637 -0.242829 16.0719 10.6665 20.6828C8.1705 22.2947 5.68117 23.3818 2.6665 23.2681C7.07717 25.5987 11.8838 26.4002 16.0452 25.229C20.8185 23.8847 24.7412 20.4165 26.2465 15.2214C26.6956 13.6413 26.9185 12.009 26.9092 10.3701C26.9065 10.0482 28.9225 6.78686 29.3332 5.18269V5.18398Z" stroke="#111111" stroke-linecap="round" stroke-linejoin="round"/>
		</g>
		<defs>
		<clipPath id="clip0_455_10730">
		<rect width="32" height="31.0235" fill="white"/>
		</clipPath>
		</defs>
	</symbol>

	<symbol id="whatsapp" viewBox="0 0 32 32" fill="none" xmlns="http://www.w3.org/2000/svg">
		<path d="M4 28L6.2 22.9333C4.51688 20.544 3.76356 17.6227 4.08139 14.7174C4.39923 11.8122 5.76638 9.12281 7.92628 7.15399C10.0862 5.18516 12.8903 4.07224 15.8125 4.02409C18.7347 3.97594 21.574 4.99586 23.7976 6.89246C26.0212 8.78905 27.4762 11.4319 27.8896 14.3251C28.303 17.2183 27.6463 20.1629 26.0428 22.6063C24.4393 25.0497 21.9993 26.824 19.1805 27.5961C16.3618 28.3682 13.3582 28.0851 10.7333 26.8L4 28" stroke="#111111" stroke-linecap="round" stroke-linejoin="round"/>
		<path d="M12 13.333C12 13.5098 12.0702 13.6794 12.1953 13.8044C12.3203 13.9294 12.4899 13.9997 12.6667 13.9997C12.8435 13.9997 13.013 13.9294 13.1381 13.8044C13.2631 13.6794 13.3333 13.5098 13.3333 13.333V11.9997C13.3333 11.8229 13.2631 11.6533 13.1381 11.5283C13.013 11.4032 12.8435 11.333 12.6667 11.333C12.4899 11.333 12.3203 11.4032 12.1953 11.5283C12.0702 11.6533 12 11.8229 12 11.9997V13.333ZM12 13.333C12 15.1011 12.7024 16.7968 13.9526 18.0471C15.2029 19.2973 16.8986 19.9997 18.6667 19.9997H20C20.1768 19.9997 20.3464 19.9294 20.4714 19.8044C20.5964 19.6794 20.6667 19.5098 20.6667 19.333C20.6667 19.1562 20.5964 18.9866 20.4714 18.8616C20.3464 18.7366 20.1768 18.6663 20 18.6663H18.6667C18.4899 18.6663 18.3203 18.7366 18.1953 18.8616C18.0702 18.9866 18 19.1562 18 19.333C18 19.5098 18.0702 19.6794 18.1953 19.8044C18.3203 19.9294 18.4899 19.9997 18.6667 19.9997" stroke="#111111" stroke-linecap="round" stroke-linejoin="round"/>
    </symbol>

	<symbol id="envelope" viewBox="0 0 27 25" fill="none" xmlns="http://www.w3.org/2000/svg">
		<g clip-path="url(#clip0_6979_4532)">
		<path d="M19 5.67676H5C3.89543 5.67676 3 6.54486 3 7.61572V17.3106C3 18.3814 3.89543 19.2495 5 19.2495H19C20.1046 19.2495 21 18.3814 21 17.3106V7.61572C21 6.54486 20.1046 5.67676 19 5.67676Z" stroke="#7C7C7C" stroke-linecap="round" stroke-linejoin="round"/>
		<path d="M3 7.61523L12 13.4321L21 7.61523" stroke="#7C7C7C" stroke-linecap="round" stroke-linejoin="round"/>
		</g>
		<defs>
		<clipPath id="clip0_6979_4532">
		<rect width="26.625" height="23.2676" fill="white" transform="translate(0 0.829102)"/>
		</clipPath>
		</defs>
    </symbol>

	<symbol id="padlock" viewBox="0 0 24 24" fill="none" xmlns="http://www.w3.org/2000/svg">
		<path d="M17 11H7C5.89543 11 5 11.8954 5 13V19C5 20.1046 5.89543 21 7 21H17C18.1046 21 19 20.1046 19 19V13C19 11.8954 18.1046 11 17 11Z" stroke="currentColor" stroke-linecap="round" stroke-linejoin="round"/>
		<path d="M12 17C12.5523 17 13 16.5523 13 16C13 15.4477 12.5523 15 12 15C11.4477 15 11 15.4477 11 16C11 16.5523 11.4477 17 12 17Z" stroke="currentColor" stroke-linecap="round" stroke-linejoin="round"/>
		<path d="M8 11V7C8 5.93913 8.42143 4.92172 9.17157 4.17157C9.92172 3.42143 10.9391 3 12 3C13.0609 3 14.0783 3.42143 14.8284 4.17157C15.5786 4.92172 16 5.93913 16 7V11" stroke="currentColor" stroke-linecap="round" stroke-linejoin="round"/>
    </symbol>

	<symbol id="bookmark"  viewBox="0 0 32 32" fill="none" xmlns="http://www.w3.org/2000/svg">
		<circle cx="16" cy="16" r="16" fill="currentColor"/>
		<path d="M13 8H19C19.5304 8 20.0391 8.21071 20.4142 8.58579C20.7893 8.96086 21 9.46957 21 10V24L16 21L11 24V10C11 9.46957 11.2107 8.96086 11.5858 8.58579C11.9609 8.21071 12.4696 8 13 8Z" stroke="#111111" stroke-linecap="round" stroke-linejoin="round"/>
	</symbol>

	<symbol id="clock" viewBox="0 0 20 20" fill="none" xmlns="http://www.w3.org/2000/svg">
		<path d="M10 17.5C14.1421 17.5 17.5 14.1421 17.5 10C17.5 5.85786 14.1421 2.5 10 2.5C5.85786 2.5 2.5 5.85786 2.5 10C2.5 14.1421 5.85786 17.5 10 17.5Z" stroke="#111111" stroke-linecap="round" stroke-linejoin="round"/>
		<path d="M10 5.83325V9.99992L12.5 12.4999" stroke="#111111" stroke-linecap="round" stroke-linejoin="round"/>
	</symbol>


    <symbol id="file" viewBox="0 0 20 20" fill="none" xmlns="http://www.w3.org/2000/svg">
		<path d="M11.6667 2.5V5.83333C11.6667 6.05435 11.7545 6.26631 11.9108 6.42259C12.0671 6.57887 12.2791 6.66667 12.5001 6.66667H15.8334" stroke="#111111" stroke-linecap="round" stroke-linejoin="round"/>
		<path d="M14.1667 17.5H5.83341C5.39139 17.5 4.96746 17.3244 4.6549 17.0118C4.34234 16.6993 4.16675 16.2754 4.16675 15.8333V4.16667C4.16675 3.72464 4.34234 3.30072 4.6549 2.98816C4.96746 2.67559 5.39139 2.5 5.83341 2.5H11.6667L15.8334 6.66667V15.8333C15.8334 16.2754 15.6578 16.6993 15.3453 17.0118C15.0327 17.3244 14.6088 17.5 14.1667 17.5Z" stroke="#111111" stroke-linecap="round" stroke-linejoin="round"/>
		<path d="M7.5 5.83325H8.33333" stroke="#111111" stroke-linecap="round" stroke-linejoin="round"/>
		<path d="M7.5 10.8333H12.5" stroke="#111111" stroke-linecap="round" stroke-linejoin="round"/>
		<path d="M10.8333 14.1667H12.4999" stroke="#111111" stroke-linecap="round" stroke-linejoin="round"/>
    </symbol>

    <symbol id="see" viewBox="0 0 20 20" fill="none" xmlns="http://www.w3.org/2000/svg">
		<path d="M9.99992 11.6666C10.9204 11.6666 11.6666 10.9204 11.6666 9.99992C11.6666 9.07944 10.9204 8.33325 9.99992 8.33325C9.07944 8.33325 8.33325 9.07944 8.33325 9.99992C8.33325 10.9204 9.07944 11.6666 9.99992 11.6666Z" stroke="#111111" stroke-linecap="round" stroke-linejoin="round"/>
		<path d="M18.3334 10.0001C16.1109 13.8892 13.3334 15.8334 10.0001 15.8334C6.66675 15.8334 3.88925 13.8892 1.66675 10.0001C3.88925 6.11092 6.66675 4.16675 10.0001 4.16675C13.3334 4.16675 16.1109 6.11092 18.3334 10.0001Z" stroke="#111111" stroke-linecap="round" stroke-linejoin="round"/>
	</symbol>

	<symbol id="lock-password" viewBox="0 0 24 24" fill="none" xmlns="http://www.w3.org/2000/svg">
		<path d="M3 3L21 21" stroke="#7C7C7C" stroke-linecap="round" stroke-linejoin="round"/>
		<path d="M10.584 10.5869C10.2087 10.9619 9.99775 11.4707 9.99756 12.0012C9.99737 12.5317 10.2079 13.0406 10.583 13.4159C10.958 13.7912 11.4667 14.0021 11.9973 14.0023C12.5278 14.0025 13.0367 13.7919 13.412 13.4169" stroke="#7C7C7C" stroke-linecap="round" stroke-linejoin="round"/>
		<path d="M17.357 17.3491C15.726 18.4491 13.942 19.0001 12 19.0001C8 19.0001 4.667 16.6671 2 12.0001C3.369 9.60506 4.913 7.82506 6.632 6.65906M9.363 5.36506C10.2204 5.11978 11.1082 4.9969 12 5.00006C16 5.00006 19.333 7.33306 22 12.0001C21.222 13.3611 20.388 14.5241 19.497 15.4881L9.363 5.36506Z" stroke="#7C7C7C" stroke-linecap="round" stroke-linejoin="round"/>
	</symbol>

	<symbol id="ellipsisY" viewBox="0 0 24 24" fill="none" xmlns="http://www.w3.org/2000/svg">
		<path d="M12 13C12.5523 13 13 12.5523 13 12C13 11.4477 12.5523 11 12 11C11.4477 11 11 11.4477 11 12C11 12.5523 11.4477 13 12 13Z" stroke="#7C7C7C" stroke-width="2" stroke-linecap="round" stroke-linejoin="round"/>
		<path d="M12 20C12.5523 20 13 19.5523 13 19C13 18.4477 12.5523 18 12 18C11.4477 18 11 18.4477 11 19C11 19.5523 11.4477 20 12 20Z" stroke="#7C7C7C" stroke-width="2" stroke-linecap="round" stroke-linejoin="round"/>
		<path d="M12 6C12.5523 6 13 5.55228 13 5C13 4.44772 12.5523 4 12 4C11.4477 4 11 4.44772 11 5C11 5.55228 11.4477 6 12 6Z" stroke="#7C7C7C" stroke-width="2" stroke-linecap="round" stroke-linejoin="round"/>
	</symbol>


	<symbol id="play" viewBox="0 0 25 30" fill="none" xmlns="http://www.w3.org/2000/svg">
		<path d="M1.66675 1.66675V28.3334L23.3334 15.0001L1.66675 1.66675Z" stroke="currentColor" stroke-width="2" stroke-linecap="round" stroke-linejoin="round"/>
	</symbol>
    
	<symbol id="home" viewBox="0 0 24 24" fill="none" xmlns="http://www.w3.org/2000/svg">
		<path d="M5 12H3L12 3L21 12H19" stroke="#111111" stroke-linecap="round" stroke-linejoin="round"/>
		<path d="M5 12V19C5 19.5304 5.21071 20.0391 5.58579 20.4142C5.96086 20.7893 6.46957 21 7 21H17C17.5304 21 18.0391 20.7893 18.4142 20.4142C18.7893 20.0391 19 19.5304 19 19V12" stroke="#111111" stroke-linecap="round" stroke-linejoin="round"/>
		<path d="M9 21V15C9 14.4696 9.21071 13.9609 9.58579 13.5858C9.96086 13.2107 10.4696 13 11 13H13C13.5304 13 14.0391 13.2107 14.4142 13.5858C14.7893 13.9609 15 14.4696 15 15V21" stroke="#111111" stroke-linecap="round" stroke-linejoin="round"/>
    </symbol>

	<symbol id="hamburger" viewBox="0 0 24 14" fill="none" xmlns="http://www.w3.org/2000/svg">
		<line x1="0.75" y1="1.25" x2="23.25" y2="1.25" stroke="#015351" stroke-width="1.5" stroke-linecap="round"/>
		<line x1="0.75" y1="7.25" x2="23.25" y2="7.25" stroke="#015351" stroke-width="1.5" stroke-linecap="round"/>
		<line x1="0.75" y1="13.25" x2="23.25" y2="13.25" stroke="#015351" stroke-width="1.5" stroke-linecap="round"/>
	</symbol>




</svg>



