<svg xmlns="http://www.w3.org/2000/svg">
    
    <symbol id="arrow-right" viewBox="0 0 16 20" fill="none" xmlns="http://www.w3.org/2000/svg">
		<path d="M3.125 10H16.875" stroke="currentColor" stroke-linecap="round" stroke-linejoin="round"/>
		<path d="M11.25 4.375L16.875 10L11.25 15.625" stroke="currentColor" stroke-linecap="round" stroke-linejoin="round"/>
    </symbol>	

	<symbol id="arrow-left" viewBox="0 0 24 24" fill="none" xmlns="http://www.w3.org/2000/svg">
		<path d="M5 12H19" stroke="#015351" stroke-width="1.5" stroke-linecap="round" stroke-linejoin="round"/>
		<path d="M5 12L11 18" stroke="#015351" stroke-width="1.5" stroke-linecap="round" stroke-linejoin="round"/>
		<path d="M5 12L11 6" stroke="#015351" stroke-width="1.5" stroke-linecap="round" stroke-linejoin="round"/>
    </symbol>


    <symbol id="fb" viewBox="0 0 32 32" fill="none" xmlns="http://www.w3.org/2000/svg">
        <path d="M8 12.5316L8 17.8649H12V27.1982H17.3333L17.3333 17.8649H21.3333L22.6667 12.5316H17.3333V9.86491C17.3333 9.51129 17.4738 9.17215 17.7239 8.9221C17.9739 8.67205 18.313 8.53158 18.6667 8.53158L22.6667 8.53158V3.19824L18.6667 3.19824C16.8986 3.19824 15.2029 3.90062 13.9526 5.15086C12.7024 6.40111 12 8.0968 12 9.86491L12 12.5316H8Z" stroke="currentColor" stroke-linecap="round" stroke-linejoin="round"/>
    </symbol>

    <symbol id="linkdIn" viewBox="0 0 32 32" fill="none" xmlns="http://www.w3.org/2000/svg">
		<g clip-path="url(#clip0_455_10723)">
		<path d="M23.9999 5.1709L7.99992 5.1709C6.52716 5.1709 5.33325 6.32837 5.33325 7.75619L5.33325 23.2679C5.33325 24.6957 6.52716 25.8532 7.99992 25.8532L23.9999 25.8532C25.4727 25.8532 26.6666 24.6957 26.6666 23.2679L26.6666 7.75619C26.6666 6.32837 25.4727 5.1709 23.9999 5.1709Z" stroke="currentColor" stroke-linecap="round" stroke-linejoin="round"/>
		<path d="M10.6667 14.2188L10.6667 20.682" stroke="#111111" stroke-linecap="round" stroke-linejoin="round"/>
		<path d="M10.6667 10.3408V10.3528" stroke="#111111" stroke-linecap="round" stroke-linejoin="round"/>
		<path d="M15.9998 20.682L15.9998 14.2188" stroke="#111111" stroke-linecap="round" stroke-linejoin="round"/>
		<path d="M21.3331 20.682V16.804C21.3331 16.1184 21.0521 15.4608 20.552 14.976C20.0519 14.4911 19.3737 14.2188 18.6664 14.2188C17.9592 14.2188 17.2809 14.4911 16.7808 14.976C16.2807 15.4608 15.9998 16.1184 15.9998 16.804" stroke="#111111" stroke-linecap="round" stroke-linejoin="round"/>
		</g>
		<defs>
		<clipPath id="clip0_455_10723">
		<rect width="32" height="31.0235" fill="white"/>
		</clipPath>
		</defs>
	</symbol>
    
	<symbol id="pad-open" viewBox="0 0 25 24" fill="none" xmlns="http://www.w3.org/2000/svg">
		<path d="M17.5 11H7.5C6.39543 11 5.5 11.8954 5.5 13V19C5.5 20.1046 6.39543 21 7.5 21H17.5C18.6046 21 19.5 20.1046 19.5 19V13C19.5 11.8954 18.6046 11 17.5 11Z" stroke="white" stroke-linecap="round" stroke-linejoin="round"/>
		<path d="M12.5 17C13.0523 17 13.5 16.5523 13.5 16C13.5 15.4477 13.0523 15 12.5 15C11.9477 15 11.5 15.4477 11.5 16C11.5 16.5523 11.9477 17 12.5 17Z" stroke="white" stroke-linecap="round" stroke-linejoin="round"/>
		<path d="M8.5 11V6C8.5 4.93913 8.92143 3.92172 9.67157 3.17157C10.4217 2.42143 11.4391 2 12.5 2C13.5609 2 14.5783 2.42143 15.3284 3.17157C16.0786 3.92172 16.5 4.93913 16.5 6" stroke="white" stroke-linecap="round" stroke-linejoin="round"/>
	</symbol>




	<symbol id="phone" viewBox="0 0 24 25" fill="none" xmlns="http://www.w3.org/2000/svg">
	   <path d="M5 4.25H9L11 9.25L8.5 10.75C9.57096 12.9215 11.3285 14.679 13.5 15.75L15 13.25L20 15.25V19.25C20 19.7804 19.7893 20.2891 19.4142 20.6642C19.0391 21.0393 18.5304 21.25 18 21.25C14.0993 21.013 10.4202 19.3565 7.65683 16.5932C4.8935 13.8298 3.23705 10.1507 3 6.25C3 5.71957 3.21071 5.21086 3.58579 4.83579C3.96086 4.46071 4.46957 4.25 5 4.25" stroke="#7C7C7C" stroke-linecap="round" stroke-linejoin="round"/>
	</symbol>


	<symbol id="nigeria" viewBox="0 0 24 25" fill="none" xmlns="http://www.w3.org/2000/svg">
		<g clip-path="url(#clip0_5719_111798)">
		<path d="M18.5739 20.5517H23.1255C23.5826 20.5517 23.9532 20.1813 23.9532 19.7242V4.82764C23.9532 4.37042 23.5826 4 23.1255 4H0.780763C0.323548 4 -0.046875 4.37061 -0.046875 4.82764V19.7242C-0.046875 20.1813 0.323548 20.5517 0.780763 20.5517H18.5739Z" fill="#4C8056"/>
		<path d="M7.4015 4V20.5517H0.780763C0.324097 20.5504 -0.0455933 20.1807 -0.046875 19.7242V4.82764C-0.0455933 4.37097 0.324097 4.00128 0.780763 4H7.4015Z" fill="#4C8056"/>
		<path d="M7.40161 4H16.5051V20.5517H7.40161V4Z" fill="#E6E7E8"/>
		</g>
		<defs>
		<clipPath id="clip0_5719_111798">
		<rect width="24" height="24" fill="white" transform="translate(0 0.25)"/>
		</clipPath>
		</defs>
	</symbol>


	<symbol id='clog' viewBox="0 0 20 21" fill="none" xmlns="http://www.w3.org/2000/svg">
	 	<path d="M8.60417 4.0975C8.95917 2.63417 11.0408 2.63417 11.3958 4.0975C11.4491 4.31733 11.5535 4.52148 11.7006 4.69333C11.8477 4.86518 12.0332 4.99988 12.2422 5.08645C12.4512 5.17303 12.6776 5.20904 12.9032 5.19156C13.1287 5.17407 13.3469 5.10359 13.54 4.98583C14.8258 4.2025 16.2983 5.67417 15.515 6.96083C15.3974 7.15388 15.327 7.37195 15.3096 7.59731C15.2922 7.82267 15.3281 8.04897 15.4146 8.25782C15.5011 8.46666 15.6356 8.65215 15.8073 8.79921C15.9789 8.94627 16.1829 9.05075 16.4025 9.10417C17.8658 9.45917 17.8658 11.5408 16.4025 11.8958C16.1827 11.9491 15.9785 12.0535 15.8067 12.2006C15.6348 12.3477 15.5001 12.5332 15.4135 12.7422C15.327 12.9512 15.291 13.1776 15.3084 13.4032C15.3259 13.6287 15.3964 13.8469 15.5142 14.04C16.2975 15.3258 14.8258 16.7983 13.5392 16.015C13.3461 15.8974 13.1281 15.827 12.9027 15.8096C12.6773 15.7922 12.451 15.8281 12.2422 15.9146C12.0333 16.0011 11.8479 16.1356 11.7008 16.3073C11.5537 16.4789 11.4492 16.6829 11.3958 16.9025C11.0408 18.3658 8.95917 18.3658 8.60417 16.9025C8.5509 16.6827 8.44648 16.4785 8.29941 16.3067C8.15233 16.1348 7.96676 16.0001 7.75779 15.9135C7.54882 15.827 7.32236 15.791 7.09685 15.8084C6.87133 15.8259 6.65313 15.8964 6.46 16.0142C5.17417 16.7975 3.70167 15.3258 4.485 14.0392C4.60258 13.8461 4.67296 13.6281 4.6904 13.4027C4.70785 13.1773 4.67187 12.951 4.58539 12.7422C4.49892 12.5333 4.36438 12.3479 4.19273 12.2008C4.02107 12.0537 3.81714 11.9492 3.5975 11.8958C2.13417 11.5408 2.13417 9.45917 3.5975 9.10417C3.81733 9.0509 4.02148 8.94648 4.19333 8.79941C4.36518 8.65233 4.49988 8.46676 4.58645 8.25779C4.67303 8.04882 4.70904 7.82236 4.69156 7.59685C4.67407 7.37133 4.60359 7.15313 4.48583 6.96C3.7025 5.67417 5.17417 4.20167 6.46083 4.985C7.29417 5.49167 8.37417 5.04333 8.60417 4.0975Z" stroke="#7C7C7C" stroke-linecap="round" stroke-linejoin="round"/>
		<path d="M10 13C11.3807 13 12.5 11.8807 12.5 10.5C12.5 9.11929 11.3807 8 10 8C8.61929 8 7.5 9.11929 7.5 10.5C7.5 11.8807 8.61929 13 10 13Z" stroke="#7C7C7C" stroke-linecap="round" stroke-linejoin="round"/>
	</symbol>


	<symbol id="caret-down" viewBox="0 0 24 25" fill="none" xmlns="http://www.w3.org/2000/svg">
		<path d="M18.75 8.875L12 15.625L5.25 8.875" stroke="currentColor" stroke-linecap="round" stroke-linejoin="round"/>
	</symbol>
 
	<symbol id="caret-right" viewBox="0 0 6 12" fill="none" xmlns="http://www.w3.org/2000/svg">
		<path d="M0.5 11L5.5 6L0.5 1" stroke="currentColor" stroke-linecap="round" stroke-linejoin="round"/>
	</symbol>


	<symbol id="user" viewBox="0 0 24 25" fill="none" xmlns="http://www.w3.org/2000/svg">
		<path d="M12 11.25C14.2091 11.25 16 9.45914 16 7.25C16 5.04086 14.2091 3.25 12 3.25C9.79086 3.25 8 5.04086 8 7.25C8 9.45914 9.79086 11.25 12 11.25Z" stroke="#7C7C7C" stroke-linecap="round" stroke-linejoin="round"/>
		<path d="M6 21.25V19.25C6 18.1891 6.42143 17.1717 7.17157 16.4216C7.92172 15.6714 8.93913 15.25 10 15.25H14C15.0609 15.25 16.0783 15.6714 16.8284 16.4216C17.5786 17.1717 18 18.1891 18 19.25V21.25" stroke="#7C7C7C" stroke-linecap="round" stroke-linejoin="round"/>
	</symbol>

	<symbol id="hamper" viewBox="0 0 24 25" fill="none" xmlns="http://www.w3.org/2000/svg">
		<path d="M20 8.25H4C3.44772 8.25 3 8.69772 3 9.25V11.25C3 11.8023 3.44772 12.25 4 12.25H20C20.5523 12.25 21 11.8023 21 11.25V9.25C21 8.69772 20.5523 8.25 20 8.25Z" stroke="#7C7C7C" stroke-linecap="round" stroke-linejoin="round"/>
		<path d="M12 8.25V21.25" stroke="#7C7C7C" stroke-linecap="round" stroke-linejoin="round"/>
		<path d="M19 12.25V19.25C19 19.7804 18.7893 20.2891 18.4142 20.6642C18.0391 21.0393 17.5304 21.25 17 21.25H7C6.46957 21.25 5.96086 21.0393 5.58579 20.6642C5.21071 20.2891 5 19.7804 5 19.25V12.25" stroke="#7C7C7C" stroke-linecap="round" stroke-linejoin="round"/>
		<path d="M7.5 8.25044C6.83696 8.25044 6.20107 7.98705 5.73223 7.5182C5.26339 7.04936 5 6.41348 5 5.75044C5 5.0874 5.26339 4.45151 5.73223 3.98267C6.20107 3.51383 6.83696 3.25044 7.5 3.25044C8.46469 3.23363 9.41003 3.7017 10.2127 4.5936C11.0154 5.4855 11.6383 6.75984 12 8.25044C12.3617 6.75984 12.9846 5.4855 13.7873 4.5936C14.59 3.7017 15.5353 3.23363 16.5 3.25044C17.163 3.25044 17.7989 3.51383 18.2678 3.98267C18.7366 4.45151 19 5.0874 19 5.75044C19 6.41348 18.7366 7.04936 18.2678 7.5182C17.7989 7.98705 17.163 8.25044 16.5 8.25044" stroke="#7C7C7C" stroke-linecap="round" stroke-linejoin="round"/>
	</symbol>


	<symbol id="search" viewBox="0 0 24 24" fill="none" xmlns="http://www.w3.org/2000/svg">
		<path d="M10 17C13.866 17 17 13.866 17 10C17 6.13401 13.866 3 10 3C6.13401 3 3 6.13401 3 10C3 13.866 6.13401 17 10 17Z" stroke="#111111" stroke-linecap="round" stroke-linejoin="round"/>
		<path d="M21 21L15 15" stroke="#111111" stroke-linecap="round" stroke-linejoin="round"/>
	</symbol>


	<symbol id="twitter" viewBox="0 0 32 32" fill="none" xmlns="http://www.w3.org/2000/svg">
		<g clip-path="url(#clip0_455_10730)">
		<path d="M29.3332 5.18398C27.9998 5.81738 26.6932 6.07461 25.3332 6.4637C23.8385 4.8285 21.6225 4.73802 19.4932 5.51102C17.3638 6.28402 15.9692 8.17387 15.9998 10.3416L15.9998 11.6343C11.6732 11.7416 7.81984 9.83104 5.33317 6.4637C5.33317 6.4637 -0.242829 16.0719 10.6665 20.6828C8.1705 22.2947 5.68117 23.3818 2.6665 23.2681C7.07717 25.5987 11.8838 26.4002 16.0452 25.229C20.8185 23.8847 24.7412 20.4165 26.2465 15.2214C26.6956 13.6413 26.9185 12.009 26.9092 10.3701C26.9065 10.0482 28.9225 6.78686 29.3332 5.18269V5.18398Z" stroke="currentColor" stroke-linecap="round" stroke-linejoin="round"/>
		</g>
		<defs>
		<clipPath id="clip0_455_10730">
		<rect width="32" height="31.0235" fill="white"/>
		</clipPath>
		</defs>
	</symbol>

	<symbol id="whatsapp" viewBox="0 0 32 32" fill="none" xmlns="http://www.w3.org/2000/svg">
		<path d="M4 28L6.2 22.9333C4.51688 20.544 3.76356 17.6227 4.08139 14.7174C4.39923 11.8122 5.76638 9.12281 7.92628 7.15399C10.0862 5.18516 12.8903 4.07224 15.8125 4.02409C18.7347 3.97594 21.574 4.99586 23.7976 6.89246C26.0212 8.78905 27.4762 11.4319 27.8896 14.3251C28.303 17.2183 27.6463 20.1629 26.0428 22.6063C24.4393 25.0497 21.9993 26.824 19.1805 27.5961C16.3618 28.3682 13.3582 28.0851 10.7333 26.8L4 28" stroke="currentColor" stroke-linecap="round" stroke-linejoin="round"/>
		<path d="M12 13.333C12 13.5098 12.0702 13.6794 12.1953 13.8044C12.3203 13.9294 12.4899 13.9997 12.6667 13.9997C12.8435 13.9997 13.013 13.9294 13.1381 13.8044C13.2631 13.6794 13.3333 13.5098 13.3333 13.333V11.9997C13.3333 11.8229 13.2631 11.6533 13.1381 11.5283C13.013 11.4032 12.8435 11.333 12.6667 11.333C12.4899 11.333 12.3203 11.4032 12.1953 11.5283C12.0702 11.6533 12 11.8229 12 11.9997V13.333ZM12 13.333C12 15.1011 12.7024 16.7968 13.9526 18.0471C15.2029 19.2973 16.8986 19.9997 18.6667 19.9997H20C20.1768 19.9997 20.3464 19.9294 20.4714 19.8044C20.5964 19.6794 20.6667 19.5098 20.6667 19.333C20.6667 19.1562 20.5964 18.9866 20.4714 18.8616C20.3464 18.7366 20.1768 18.6663 20 18.6663H18.6667C18.4899 18.6663 18.3203 18.7366 18.1953 18.8616C18.0702 18.9866 18 19.1562 18 19.333C18 19.5098 18.0702 19.6794 18.1953 19.8044C18.3203 19.9294 18.4899 19.9997 18.6667 19.9997" stroke="currentColor" stroke-linecap="round" stroke-linejoin="round"/>
    </symbol>

	<symbol id="envelope" viewBox="0 0 27 25" fill="none" xmlns="http://www.w3.org/2000/svg">
		<g clip-path="url(#clip0_6979_4532)">
		<path d="M19 5.67676H5C3.89543 5.67676 3 6.54486 3 7.61572V17.3106C3 18.3814 3.89543 19.2495 5 19.2495H19C20.1046 19.2495 21 18.3814 21 17.3106V7.61572C21 6.54486 20.1046 5.67676 19 5.67676Z" stroke="#7C7C7C" stroke-linecap="round" stroke-linejoin="round"/>
		<path d="M3 7.61523L12 13.4321L21 7.61523" stroke="#7C7C7C" stroke-linecap="round" stroke-linejoin="round"/>
		</g>
		<defs>
		<clipPath id="clip0_6979_4532">
		<rect width="26.625" height="23.2676" fill="white" transform="translate(0 0.829102)"/>
		</clipPath>
		</defs>
    </symbol>

	<symbol id="padlock" viewBox="0 0 24 24" fill="none" xmlns="http://www.w3.org/2000/svg">
		<path d="M17 11H7C5.89543 11 5 11.8954 5 13V19C5 20.1046 5.89543 21 7 21H17C18.1046 21 19 20.1046 19 19V13C19 11.8954 18.1046 11 17 11Z" stroke="currentColor" stroke-linecap="round" stroke-linejoin="round"/>
		<path d="M12 17C12.5523 17 13 16.5523 13 16C13 15.4477 12.5523 15 12 15C11.4477 15 11 15.4477 11 16C11 16.5523 11.4477 17 12 17Z" stroke="currentColor" stroke-linecap="round" stroke-linejoin="round"/>
		<path d="M8 11V7C8 5.93913 8.42143 4.92172 9.17157 4.17157C9.92172 3.42143 10.9391 3 12 3C13.0609 3 14.0783 3.42143 14.8284 4.17157C15.5786 4.92172 16 5.93913 16 7V11" stroke="currentColor" stroke-linecap="round" stroke-linejoin="round"/>
    </symbol>

	<symbol id="bookmark"  viewBox="0 0 24 24" fill="none" xmlns="http://www.w3.org/2000/svg">
		<path d="M9 4H15C15.5304 4 16.0391 4.21071 16.4142 4.58579C16.7893 4.96086 17 5.46957 17 6V20L12 17L7 20V6C7 5.46957 7.21071 4.96086 7.58579 4.58579C7.96086 4.21071 8.46957 4 9 4Z" stroke="currentColor" stroke-linecap="round" stroke-linejoin="round"/>
	</symbol>


	<symbol id="clock" viewBox="0 0 20 20" fill="none" xmlns="http://www.w3.org/2000/svg">
		<path d="M10 17.5C14.1421 17.5 17.5 14.1421 17.5 10C17.5 5.85786 14.1421 2.5 10 2.5C5.85786 2.5 2.5 5.85786 2.5 10C2.5 14.1421 5.85786 17.5 10 17.5Z" stroke="currentColor" stroke-linecap="round" stroke-linejoin="round"/>
		<path d="M10 5.83325V9.99992L12.5 12.4999" stroke="currentColor" stroke-linecap="round" stroke-linejoin="round"/>
	</symbol>


    <symbol id="file" viewBox="0 0 20 20" fill="none" xmlns="http://www.w3.org/2000/svg">
		<path d="M11.6667 2.5V5.83333C11.6667 6.05435 11.7545 6.26631 11.9108 6.42259C12.0671 6.57887 12.2791 6.66667 12.5001 6.66667H15.8334" stroke="currentColor" stroke-linecap="round" stroke-linejoin="round"/>
		<path d="M14.1667 17.5H5.83341C5.39139 17.5 4.96746 17.3244 4.6549 17.0118C4.34234 16.6993 4.16675 16.2754 4.16675 15.8333V4.16667C4.16675 3.72464 4.34234 3.30072 4.6549 2.98816C4.96746 2.67559 5.39139 2.5 5.83341 2.5H11.6667L15.8334 6.66667V15.8333C15.8334 16.2754 15.6578 16.6993 15.3453 17.0118C15.0327 17.3244 14.6088 17.5 14.1667 17.5Z" stroke="currentColor" stroke-linecap="round" stroke-linejoin="round"/>
		<path d="M7.5 5.83325H8.33333" stroke="currentColor" stroke-linecap="round" stroke-linejoin="round"/>
		<path d="M7.5 10.8333H12.5" stroke="currentColor" stroke-linecap="round" stroke-linejoin="round"/>
		<path d="M10.8333 14.1667H12.4999" stroke="currentColor" stroke-linecap="round" stroke-linejoin="round"/>
    </symbol>

    <symbol id="see" viewBox="0 0 20 20" fill="none" xmlns="http://www.w3.org/2000/svg">
		<path d="M9.99992 11.6666C10.9204 11.6666 11.6666 10.9204 11.6666 9.99992C11.6666 9.07944 10.9204 8.33325 9.99992 8.33325C9.07944 8.33325 8.33325 9.07944 8.33325 9.99992C8.33325 10.9204 9.07944 11.6666 9.99992 11.6666Z" stroke="#111111" stroke-linecap="round" stroke-linejoin="round"/>
		<path d="M18.3334 10.0001C16.1109 13.8892 13.3334 15.8334 10.0001 15.8334C6.66675 15.8334 3.88925 13.8892 1.66675 10.0001C3.88925 6.11092 6.66675 4.16675 10.0001 4.16675C13.3334 4.16675 16.1109 6.11092 18.3334 10.0001Z" stroke="#111111" stroke-linecap="round" stroke-linejoin="round"/>
	</symbol>

	<symbol id="lock-password" viewBox="0 0 24 24" fill="none" xmlns="http://www.w3.org/2000/svg">
		<path d="M3 3L21 21" stroke="#7C7C7C" stroke-linecap="round" stroke-linejoin="round"/>
		<path d="M10.584 10.5869C10.2087 10.9619 9.99775 11.4707 9.99756 12.0012C9.99737 12.5317 10.2079 13.0406 10.583 13.4159C10.958 13.7912 11.4667 14.0021 11.9973 14.0023C12.5278 14.0025 13.0367 13.7919 13.412 13.4169" stroke="#7C7C7C" stroke-linecap="round" stroke-linejoin="round"/>
		<path d="M17.357 17.3491C15.726 18.4491 13.942 19.0001 12 19.0001C8 19.0001 4.667 16.6671 2 12.0001C3.369 9.60506 4.913 7.82506 6.632 6.65906M9.363 5.36506C10.2204 5.11978 11.1082 4.9969 12 5.00006C16 5.00006 19.333 7.33306 22 12.0001C21.222 13.3611 20.388 14.5241 19.497 15.4881L9.363 5.36506Z" stroke="#7C7C7C" stroke-linecap="round" stroke-linejoin="round"/>
	</symbol>

	<symbol id="ellipsisY" viewBox="0 0 24 24" fill="none" xmlns="http://www.w3.org/2000/svg">
		<path d="M12 13C12.5523 13 13 12.5523 13 12C13 11.4477 12.5523 11 12 11C11.4477 11 11 11.4477 11 12C11 12.5523 11.4477 13 12 13Z" stroke="#7C7C7C" stroke-width="2" stroke-linecap="round" stroke-linejoin="round"/>
		<path d="M12 20C12.5523 20 13 19.5523 13 19C13 18.4477 12.5523 18 12 18C11.4477 18 11 18.4477 11 19C11 19.5523 11.4477 20 12 20Z" stroke="#7C7C7C" stroke-width="2" stroke-linecap="round" stroke-linejoin="round"/>
		<path d="M12 6C12.5523 6 13 5.55228 13 5C13 4.44772 12.5523 4 12 4C11.4477 4 11 4.44772 11 5C11 5.55228 11.4477 6 12 6Z" stroke="#7C7C7C" stroke-width="2" stroke-linecap="round" stroke-linejoin="round"/>
	</symbol>


	<symbol id="play" viewBox="0 0 25 30" fill="none" xmlns="http://www.w3.org/2000/svg">
		<path d="M1.66675 1.66675V28.3334L23.3334 15.0001L1.66675 1.66675Z" stroke="currentColor" stroke-width="2" stroke-linecap="round" stroke-linejoin="round"/>
	</symbol>
    
	<symbol id="home" viewBox="0 0 24 24" fill="none" xmlns="http://www.w3.org/2000/svg">
		<path d="M5 12H3L12 3L21 12H19" stroke="#111111" stroke-linecap="round" stroke-linejoin="round"/>
		<path d="M5 12V19C5 19.5304 5.21071 20.0391 5.58579 20.4142C5.96086 20.7893 6.46957 21 7 21H17C17.5304 21 18.0391 20.7893 18.4142 20.4142C18.7893 20.0391 19 19.5304 19 19V12" stroke="#111111" stroke-linecap="round" stroke-linejoin="round"/>
		<path d="M9 21V15C9 14.4696 9.21071 13.9609 9.58579 13.5858C9.96086 13.2107 10.4696 13 11 13H13C13.5304 13 14.0391 13.2107 14.4142 13.5858C14.7893 13.9609 15 14.4696 15 15V21" stroke="#111111" stroke-linecap="round" stroke-linejoin="round"/>
    </symbol>

	<symbol id="hamburger" viewBox="0 0 24 14" fill="none" xmlns="http://www.w3.org/2000/svg">
		<line x1="0.75" y1="1.25" x2="23.25" y2="1.25" stroke="currentColor" stroke-width="1.5" stroke-linecap="round"/>
		<line x1="0.75" y1="7.25" x2="23.25" y2="7.25" stroke="currentColor" stroke-width="1.5" stroke-linecap="round"/>
		<line x1="0.75" y1="13.25" x2="23.25" y2="13.25" stroke="currentColor" stroke-width="1.5" stroke-linecap="round"/>
	</symbol>

    <symbol id="filter" viewBox="0 0 21 21" fill="none" xmlns="http://www.w3.org/2000/svg">
		<g clip-path="url(#clip0_6099_119726)">
		<path d="M16.5275 0.5H3.68344C1.71055 0.5 0.105469 2.10508 0.105469 4.07797V16.9221C0.105469 18.8949 1.71055 20.5 3.68344 20.5H16.5275C18.5004 20.5 20.1055 18.8949 20.1055 16.922V4.07797C20.1055 2.10508 18.5004 0.5 16.5275 0.5ZM18.9336 16.922C18.9336 18.2487 17.8542 19.3281 16.5275 19.3281H3.68344C2.35672 19.3281 1.27734 18.2487 1.27734 16.922V4.07797C1.27734 2.75125 2.35672 1.67188 3.68344 1.67188H16.5275C17.8542 1.67188 18.9336 2.75125 18.9336 4.07797V16.922Z" fill="#637170"/>
		<path d="M17.0104 4.89289H8.08613C7.84078 4.16418 7.15152 3.6377 6.34113 3.6377C5.53074 3.6377 4.84148 4.16418 4.59613 4.89289H3.20313C2.87953 4.89289 2.61719 5.15523 2.61719 5.47883C2.61719 5.80242 2.87953 6.06477 3.20313 6.06477H4.59617C4.84152 6.79348 5.53078 7.31996 6.34117 7.31996C7.15156 7.31996 7.84082 6.79348 8.08617 6.06477H17.0104C17.334 6.06477 17.5964 5.80242 17.5964 5.47883C17.5964 5.15523 17.334 4.89289 17.0104 4.89289ZM6.34113 6.14809C5.97211 6.14809 5.67188 5.84785 5.67188 5.47883C5.67188 5.10981 5.97211 4.80957 6.34113 4.80957C6.71016 4.80957 7.01039 5.10981 7.01039 5.47883C7.01039 5.84785 6.71016 6.14809 6.34113 6.14809Z" fill="#637170"/>
		<path d="M17.0104 9.91437H15.6173C15.372 9.18566 14.6827 8.65918 13.8723 8.65918C13.062 8.65918 12.3727 9.18566 12.1274 9.91437H3.20313C2.87953 9.91437 2.61719 10.1767 2.61719 10.5003C2.61719 10.8239 2.87953 11.0862 3.20313 11.0862H12.1274C12.3727 11.815 13.062 12.3414 13.8724 12.3414C14.6827 12.3414 15.372 11.815 15.6174 11.0862H17.0104C17.334 11.0862 17.5964 10.8239 17.5964 10.5003C17.5964 10.1767 17.334 9.91437 17.0104 9.91437ZM13.8724 11.1696C13.5034 11.1696 13.2031 10.8693 13.2031 10.5003C13.2031 10.1313 13.5034 9.83105 13.8724 9.83105C14.2414 9.83105 14.5416 10.1313 14.5416 10.5003C14.5416 10.8693 14.2414 11.1696 13.8724 11.1696Z" fill="#637170"/>
		<path d="M17.0104 14.9349H10.5966C10.3512 14.2062 9.66195 13.6797 8.85156 13.6797C8.04117 13.6797 7.35191 14.2062 7.10656 14.9349H3.20313C2.87953 14.9349 2.61719 15.1972 2.61719 15.5208C2.61719 15.8444 2.87953 16.1068 3.20313 16.1068H7.10656C7.35191 16.8355 8.04117 17.362 8.85156 17.362C9.66195 17.362 10.3512 16.8355 10.5966 16.1068H17.0104C17.334 16.1068 17.5964 15.8444 17.5964 15.5208C17.5964 15.1972 17.334 14.9349 17.0104 14.9349ZM8.85156 16.1901C8.48254 16.1901 8.1823 15.8899 8.1823 15.5209C8.1823 15.1518 8.48254 14.8516 8.85156 14.8516C9.22059 14.8516 9.52082 15.1518 9.52082 15.5208C9.52082 15.8898 9.22059 16.1901 8.85156 16.1901Z" fill="#637170"/>
		</g>
		<defs>
			<clipPath id="clip0_6099_119726">
				<rect width="20" height="20" fill="white" transform="translate(0.105469 0.5)"/>
			</clipPath>
        </defs>
    </symbol>
	<symbol id="circle-mark" viewBox="0 0 12 12" fill="none" xmlns="http://www.w3.org/2000/svg">
		<path d="M6 10.5C8.48528 10.5 10.5 8.48528 10.5 6C10.5 3.51472 8.48528 1.5 6 1.5C3.51472 1.5 1.5 3.51472 1.5 6C1.5 8.48528 3.51472 10.5 6 10.5Z" stroke="#111111" stroke-linecap="round" stroke-linejoin="round"/>
		<path d="M4.5 6L5.5 7L7.5 5" stroke="#111111" stroke-linecap="round" stroke-linejoin="round"/>
	</symbol>

	<symbol id="book-mark" viewBox="0 0 24 24" fill="none" xmlns="http://www.w3.org/2000/svg">
	   <path d="M9 4H15C15.5304 4 16.0391 4.21071 16.4142 4.58579C16.7893 4.96086 17 5.46957 17 6V20L12 17L7 20V6C7 5.46957 7.21071 4.96086 7.58579 4.58579C7.96086 4.21071 8.46957 4 9 4Z" stroke="#111111" stroke-linecap="round" stroke-linejoin="round"/>
	</symbol>
	<symbol id="bell" viewBox="0 0 24 24" fill="none" xmlns="http://www.w3.org/2000/svg">
	  <path d="M10 5C10 4.46957 10.2107 3.96086 10.5858 3.58579C10.9609 3.21071 11.4696 3 12 3C12.5304 3 13.0391 3.21071 13.4142 3.58579C13.7893 3.96086 14 4.46957 14 5C15.1484 5.54303 16.1274 6.38833 16.832 7.4453C17.5367 8.50227 17.9404 9.73107 18 11V14C18.0753 14.6217 18.2954 15.2171 18.6428 15.7381C18.9902 16.2592 19.4551 16.6914 20 17H4C4.54494 16.6914 5.00981 16.2592 5.35719 15.7381C5.70457 15.2171 5.92474 14.6217 6 14V11C6.05956 9.73107 6.4633 8.50227 7.16795 7.4453C7.8726 6.38833 8.85159 5.54303 10 5" stroke="#111111" stroke-linecap="round" stroke-linejoin="round"/>
	  <path d="M9 17V18C9 18.7956 9.31607 19.5587 9.87868 20.1213C10.4413 20.6839 11.2044 21 12 21C12.7956 21 13.5587 20.6839 14.1213 20.1213C14.6839 19.5587 15 18.7956 15 18V17" stroke="#111111" stroke-linecap="round" stroke-linejoin="round"/>
	</symbol>
	<symbol id="sub" viewBox="0 0 20 20" fill="none" xmlns="http://www.w3.org/2000/svg">
		<path d="M13.3327 7.5C15.6339 7.5 17.4993 6.38071 17.4993 5C17.4993 3.61929 15.6339 2.5 13.3327 2.5C11.0315 2.5 9.16602 3.61929 9.16602 5C9.16602 6.38071 11.0315 7.5 13.3327 7.5Z" stroke="#7C7C7C" stroke-linecap="round" stroke-linejoin="round"/>
		<path d="M9.16602 5V8.33333C9.16602 9.71417 11.0318 10.8333 13.3327 10.8333C15.6335 10.8333 17.4993 9.71417 17.4993 8.33333V5" stroke="#7C7C7C" stroke-linecap="round" stroke-linejoin="round"/>
		<path d="M9.16602 8.33398V11.6673C9.16602 13.0482 11.0318 14.1673 13.3327 14.1673C15.6335 14.1673 17.4993 13.0482 17.4993 11.6673V8.33398" stroke="#7C7C7C" stroke-linecap="round" stroke-linejoin="round"/>
		<path d="M9.16602 11.666V14.9993C9.16602 16.3802 11.0318 17.4993 13.3327 17.4993C15.6335 17.4993 17.4993 16.3802 17.4993 14.9993V11.666" stroke="#7C7C7C" stroke-linecap="round" stroke-linejoin="round"/>
		<path d="M5.83333 7.5H3.75C3.41848 7.5 3.10054 7.6317 2.86612 7.86612C2.6317 8.10054 2.5 8.41848 2.5 8.75C2.5 9.08152 2.6317 9.39946 2.86612 9.63388C3.10054 9.8683 3.41848 10 3.75 10H4.58333C4.91485 10 5.2328 10.1317 5.46722 10.3661C5.70164 10.6005 5.83333 10.9185 5.83333 11.25C5.83333 11.5815 5.70164 11.8995 5.46722 12.1339C5.2328 12.3683 4.91485 12.5 4.58333 12.5H2.5" stroke="#7C7C7C" stroke-linecap="round" stroke-linejoin="round"/>
		<path d="M4.16602 6.66602V7.49935M4.16602 12.4993V13.3327V12.4993Z" stroke="#7C7C7C" stroke-linecap="round" stroke-linejoin="round"/>
    </symbol>
	
	<symbol id="copy" viewBox="0 0 20 20" fill="none" xmlns="http://www.w3.org/2000/svg">
		<path d="M14.9993 6.66602H8.33268C7.41221 6.66602 6.66602 7.41221 6.66602 8.33268V14.9993C6.66602 15.9198 7.41221 16.666 8.33268 16.666H14.9993C15.9198 16.666 16.666 15.9198 16.666 14.9993V8.33268C16.666 7.41221 15.9198 6.66602 14.9993 6.66602Z" stroke="#111111" stroke-linecap="round" stroke-linejoin="round"/>
		<path d="M13.334 6.66732V5.00065C13.334 4.55862 13.1584 4.1347 12.8458 3.82214C12.5333 3.50958 12.1093 3.33398 11.6673 3.33398H5.00065C4.55862 3.33398 4.1347 3.50958 3.82214 3.82214C3.50958 4.1347 3.33398 4.55862 3.33398 5.00065V11.6673C3.33398 12.1093 3.50958 12.5333 3.82214 12.8458C4.1347 13.1584 4.55862 13.334 5.00065 13.334H6.66732" stroke="#111111" stroke-linecap="round" stroke-linejoin="round"/>
	</symbol>

	<symbol id="img-logo" viewBox="0 0 26 26" fill="none" xmlns="http://www.w3.org/2000/svg">
		<path d="M3.66667 25H22.3333C23.8061 25 25 23.8061 25 22.3333V3.66667C25 2.19391 23.8061 1 22.3333 1H3.66667C2.19391 1 1 2.19391 1 3.66667V22.3333C1 23.8061 2.19391 25 3.66667 25ZM3.66667 25L18.3333 10.3333L25 17M10.3333 8.33333C10.3333 9.4379 9.4379 10.3333 8.33333 10.3333C7.22876 10.3333 6.33333 9.4379 6.33333 8.33333C6.33333 7.22876 7.22876 6.33333 8.33333 6.33333C9.4379 6.33333 10.3333 7.22876 10.3333 8.33333Z" stroke="#015351" strokeWidth="1.5" strokeLinecap="round" strokeLinejoin="round" />
	</symbol>

	<symbol id="dob" viewBox="0 0 24 24" fill="none" xmlns="http://www.w3.org/2000/svg">
		<path d="M18 5H6C4.89543 5 4 5.89543 4 7V19C4 20.1046 4.89543 21 6 21H18C19.1046 21 20 20.1046 20 19V7C20 5.89543 19.1046 5 18 5Z" stroke="#7C7C7C" stroke-linecap="round" stroke-linejoin="round"/>
		<path d="M16 3V7" stroke="#7C7C7C" stroke-linecap="round" stroke-linejoin="round"/>
		<path d="M8 3V7" stroke="#7C7C7C" stroke-linecap="round" stroke-linejoin="round"/>
		<path d="M4 11H20" stroke="#7C7C7C" stroke-linecap="round" stroke-linejoin="round"/>
		<path d="M11 15H12" stroke="#7C7C7C" stroke-linecap="round" stroke-linejoin="round"/>
		<path d="M12 15V18" stroke="#7C7C7C" stroke-linecap="round" stroke-linejoin="round"/>
    </symbol>

	<symbol id="house" viewBox="0 0 24 24" fill="none" xmlns="http://www.w3.org/2000/svg">
		<path d="M3 21V8L12 4L21 8V21" stroke="#7C7C7C" stroke-linecap="round" stroke-linejoin="round"/>
		<path d="M13 13H17V21H7V15H13" stroke="#7C7C7C" stroke-linecap="round" stroke-linejoin="round"/>
		<path d="M13 21V12C13 11.7348 12.8946 11.4804 12.7071 11.2929C12.5196 11.1054 12.2652 11 12 11H10C9.73478 11 9.48043 11.1054 9.29289 11.2929C9.10536 11.4804 9 11.7348 9 12V15" stroke="#7C7C7C" stroke-linecap="round" stroke-linejoin="round"/>
	</symbol>

    <symbol id="light-cicle-mark" viewBox="0 0 24 24" fill="none" xmlns="http://www.w3.org/2000/svg">
		<path d="M12 21C16.9706 21 21 16.9706 21 12C21 7.02944 16.9706 3 12 3C7.02944 3 3 7.02944 3 12C3 16.9706 7.02944 21 12 21Z" stroke="currentColor" stroke-linecap="round" stroke-linejoin="round"/>
		<path d="M9 12L11 14L15 10" stroke="currentColor" stroke-linecap="round" stroke-linejoin="round"/>
    </symbol>


	<symbol id="logout" viewBox="0 0 20 20" fill="none" xmlns="http://www.w3.org/2000/svg">
		<path d="M11.6667 6.66732V5.00065C11.6667 4.55862 11.4911 4.1347 11.1785 3.82214C10.8659 3.50958 10.442 3.33398 10 3.33398H4.16667C3.72464 3.33398 3.30072 3.50958 2.98816 3.82214C2.67559 4.1347 2.5 4.55862 2.5 5.00065V15.0006C2.5 15.4427 2.67559 15.8666 2.98816 16.1792C3.30072 16.4917 3.72464 16.6673 4.16667 16.6673H10C10.442 16.6673 10.8659 16.4917 11.1785 16.1792C11.4911 15.8666 11.6667 15.4427 11.6667 15.0006V13.334" stroke="currentColor" stroke-linecap="round" stroke-linejoin="round"/>
		<path d="M5.83398 10H17.5007L15.0007 12.5" stroke="currentColor" stroke-linecap="round" stroke-linejoin="round"/>
	</symbol>

     <symbol id="open-eye" viewBox="0 0 24 25" fill="none" xmlns="http://www.w3.org/2000/svg">
        <path d="M10.5845 11.3291C10.2092 11.7041 9.99823 12.2129 9.99805 12.7434C9.99786 13.2739 10.2084 13.7828 10.5835 14.1581C10.9585 14.5334 11.4672 14.7443 11.9977 14.7445C12.5283 14.7447 13.0372 14.5341 13.4125 14.1591" stroke="currentColor" stroke-linecap="round" stroke-linejoin="round"/>
        <path d="M17.357 18.0912C15.726 19.1912 13.942 19.7422 12 19.7422C8 19.7422 4.667 17.4092 2 12.7422C3.369 10.3472 4.913 8.56725 6.632 7.40125M9.363 6.10725C10.2204 5.86197 11.1082 5.73909 12 5.74225C16 5.74225 19.333 8.07525 22 12.7422C21.222 14.1032 20.388 15.2662 19.497 16.2302L9.363 6.10725Z" stroke="currentColor" stroke-linecap="round" stroke-linejoin="round"/>
      </symbol>
	<symbol width="33" height="33" viewBox="0 0 33 33" fill="none" xmlns="http://www.w3.org/2000/svg">
      <path d="M17.8319 16.6953L25.2008 9.32637C25.3464 9.15633 25.4225 8.93759 25.4138 8.71388C25.4052 8.49017 25.3125 8.27796 25.1541 8.11965C24.9958 7.96134 24.7836 7.8686 24.5599 7.85996C24.3362 7.85132 24.1175 7.92741 23.9474 8.07304L16.5785 15.4419L9.20965 8.06415C9.04227 7.89677 8.81525 7.80273 8.57854 7.80273C8.34182 7.80273 8.11481 7.89677 7.94742 8.06415C7.78004 8.23153 7.68601 8.45855 7.68601 8.69526C7.68601 8.93197 7.78004 9.15899 7.94742 9.32637L15.3252 16.6953L7.94742 24.0642C7.85437 24.1438 7.7788 24.2419 7.72545 24.3522C7.67209 24.4625 7.64211 24.5826 7.63738 24.705C7.63265 24.8274 7.65328 24.9495 7.69797 25.0635C7.74266 25.1776 7.81044 25.2812 7.89707 25.3678C7.98369 25.4545 8.08729 25.5222 8.20136 25.5669C8.31543 25.6116 8.4375 25.6323 8.55992 25.6275C8.68233 25.6228 8.80245 25.5928 8.91273 25.5395C9.02301 25.4861 9.12107 25.4105 9.20076 25.3175L16.5785 17.9486L23.9474 25.3175C24.1175 25.4631 24.3362 25.5392 24.5599 25.5306C24.7836 25.5219 24.9958 25.4292 25.1541 25.2709C25.3125 25.1126 25.4052 24.9004 25.4138 24.6766C25.4225 24.4529 25.3464 24.2342 25.2008 24.0642L17.8319 16.6953Z" fill="#015351"/>
    </symbol>

	<symbol id="close-videotab" viewBox="0 0 94 94" fill="none" xmlns="http://www.w3.org/2000/svg">
		<g filter="url(#filter0_dddd_4134_66027)">
		<circle cx="47" cy="23" r="15" fill="white"/>
		</g>
		<g clip-path="url(#clip0_4134_66027)">
		<path d="M51.1666 18.833L42.8333 27.1663" stroke="#111111" stroke-linecap="round" stroke-linejoin="round"/>
		<path d="M42.8333 18.833L51.1666 27.1663" stroke="#111111" stroke-linecap="round" stroke-linejoin="round"/>
		</g>
		<defs>
		<filter id="filter0_dddd_4134_66027" x="0" y="0" width="94" height="94" filterUnits="userSpaceOnUse" color-interpolation-filters="sRGB">
		<feFlood flood-opacity="0" result="BackgroundImageFix"/>
		<feColorMatrix in="SourceAlpha" type="matrix" values="0 0 0 0 0 0 0 0 0 0 0 0 0 0 0 0 0 0 127 0" result="hardAlpha"/>
		<feOffset/>
		<feGaussianBlur stdDeviation="0.5"/>
		<feColorMatrix type="matrix" values="0 0 0 0 0 0 0 0 0 0 0 0 0 0 0 0 0 0 0.04 0"/>
		<feBlend mode="normal" in2="BackgroundImageFix" result="effect1_dropShadow_4134_66027"/>
		<feColorMatrix in="SourceAlpha" type="matrix" values="0 0 0 0 0 0 0 0 0 0 0 0 0 0 0 0 0 0 127 0" result="hardAlpha"/>
		<feOffset dy="4"/>
		<feGaussianBlur stdDeviation="4"/>
		<feColorMatrix type="matrix" values="0 0 0 0 0 0 0 0 0 0 0 0 0 0 0 0 0 0 0.04 0"/>
		<feBlend mode="normal" in2="effect1_dropShadow_4134_66027" result="effect2_dropShadow_4134_66027"/>
		<feColorMatrix in="SourceAlpha" type="matrix" values="0 0 0 0 0 0 0 0 0 0 0 0 0 0 0 0 0 0 127 0" result="hardAlpha"/>
		<feOffset dy="16"/>
		<feGaussianBlur stdDeviation="12"/>
		<feColorMatrix type="matrix" values="0 0 0 0 0 0 0 0 0 0 0 0 0 0 0 0 0 0 0.04 0"/>
		<feBlend mode="normal" in2="effect2_dropShadow_4134_66027" result="effect3_dropShadow_4134_66027"/>
		<feColorMatrix in="SourceAlpha" type="matrix" values="0 0 0 0 0 0 0 0 0 0 0 0 0 0 0 0 0 0 127 0" result="hardAlpha"/>
		<feOffset dy="24"/>
		<feGaussianBlur stdDeviation="16"/>
		<feColorMatrix type="matrix" values="0 0 0 0 0 0 0 0 0 0 0 0 0 0 0 0 0 0 0.04 0"/>
		<feBlend mode="normal" in2="effect3_dropShadow_4134_66027" result="effect4_dropShadow_4134_66027"/>
		<feBlend mode="normal" in="SourceGraphic" in2="effect4_dropShadow_4134_66027" result="shape"/>
		</filter>
		<clipPath id="clip0_4134_66027">
		<rect width="20" height="20" fill="white" transform="translate(37 13)"/>
		</clipPath>
		</defs>
	</symbol>

	<symbol  id="close-mobHeader" viewBox="0 0 33 33" fill="none" xmlns="http://www.w3.org/2000/svg">
      <path d="M17.8319 16.6972L25.2008 9.32832C25.3464 9.15828 25.4225 8.93954 25.4138 8.71583C25.4052 8.49212 25.3125 8.27991 25.1541 8.1216C24.9958 7.9633 24.7836 7.87056 24.5599 7.86191C24.3362 7.85327 24.1175 7.92937 23.9474 8.07499L16.5785 15.4439L9.20965 8.0661C9.04227 7.89872 8.81525 7.80469 8.57854 7.80469C8.34182 7.80469 8.11481 7.89872 7.94742 8.0661C7.78004 8.23348 7.68601 8.4605 7.68601 8.69721C7.68601 8.93393 7.78004 9.16094 7.94742 9.32832L15.3252 16.6972L7.94742 24.0661C7.85437 24.1458 7.7788 24.2439 7.72545 24.3541C7.67209 24.4644 7.64211 24.5845 7.63738 24.7069C7.63265 24.8294 7.65328 24.9514 7.69797 25.0655C7.74266 25.1796 7.81044 25.2832 7.89707 25.3698C7.98369 25.4564 8.08729 25.5242 8.20136 25.5689C8.31543 25.6136 8.4375 25.6342 8.55992 25.6295C8.68233 25.6248 8.80245 25.5948 8.91273 25.5414C9.02301 25.4881 9.12107 25.4125 9.20076 25.3194L16.5785 17.9505L23.9474 25.3194C24.1175 25.4651 24.3362 25.5412 24.5599 25.5325C24.7836 25.5239 24.9958 25.4311 25.1541 25.2728C25.3125 25.1145 25.4052 24.9023 25.4138 24.6786C25.4225 24.4549 25.3464 24.2361 25.2008 24.0661L17.8319 16.6972Z" fill="#015351"/>
    </symbol>

	<symbol id="book" viewBox="0 0 19 19" fill="none" xmlns="http://www.w3.org/2000/svg">
	<g clip-path="url(#clip0_9915_11134)">
	<path d="M2.82812 14.5606C3.85425 13.9681 5.01825 13.6562 6.20312 13.6562C7.388 13.6562 8.552 13.9681 9.57812 14.5606C10.6043 13.9681 11.7683 13.6562 12.9531 13.6562C14.138 13.6562 15.302 13.9681 16.3281 14.5606" stroke="#637170" stroke-linecap="round" stroke-linejoin="round"/>
	<path d="M2.82812 4.81058C3.85425 4.21814 5.01825 3.90625 6.20312 3.90625C7.388 3.90625 8.552 4.21814 9.57812 4.81058C10.6043 4.21814 11.7683 3.90625 12.9531 3.90625C14.138 3.90625 15.302 4.21814 16.3281 4.81058" stroke="#637170" stroke-linecap="round" stroke-linejoin="round"/>
	<path d="M2.82812 4.8125V14.5625" stroke="#637170" stroke-linecap="round" stroke-linejoin="round"/>
	<path d="M9.57812 4.8125V14.5625" stroke="#637170" stroke-linecap="round" stroke-linejoin="round"/>
	<path d="M16.3281 4.8125V14.5625" stroke="#637170" stroke-linecap="round" stroke-linejoin="round"/>
	</g>
	<defs>
	<clipPath id="clip0_9915_11134">
	<rect width="18" height="18" fill="white" transform="translate(0.578125 0.3125)"/>
	</clipPath>
	</defs>
	</symbol>

	<symbol id="camera" viewBox="0 0 19 19" fill="none" xmlns="http://www.w3.org/2000/svg">
		<g clip-path="url(#clip0_9915_11151)">
		<path d="M2.26562 4.53125H11.2656C11.8624 4.53125 12.4347 4.7683 12.8566 5.19026C13.2786 5.61222 13.5156 6.18451 13.5156 6.78125V13.5312C13.5156 13.6804 13.4564 13.8235 13.3509 13.929C13.2454 14.0345 13.1023 14.0938 12.9531 14.0938H3.95312C3.35639 14.0938 2.78409 13.8567 2.36213 13.4347C1.94018 13.0128 1.70313 12.4405 1.70312 11.8438V5.09375C1.70312 4.94457 1.76239 4.80149 1.86788 4.696C1.97337 4.59051 2.11644 4.53125 2.26562 4.53125V4.53125Z" stroke="#637170" stroke-linecap="round" stroke-linejoin="round"/>
		<path d="M13.5156 8.1875L17.4531 5.9375V12.6875L13.5156 10.4375" stroke="#637170" stroke-linecap="round" stroke-linejoin="round"/>
		</g>
		<defs>
		<clipPath id="clip0_9915_11151">
		<rect width="18" height="18" fill="white" transform="translate(0.578125 0.3125)"/>
		</clipPath>
		</defs>
    </symbol>

	<symbol id="upgrade" viewBox="0 0 14 19" fill="none" xmlns="http://www.w3.org/2000/svg">
	  <path d="M13.814 8.02733L7.55056 0.198053C7.4022 0.0121074 7.08746 0.0121074 6.93909 0.198053L0.67567 8.02733C0.581719 8.14477 0.56332 8.30566 0.628303 8.4415C0.694069 8.57734 0.831473 8.66346 0.981795 8.66346H4.50497V17.2757C4.50497 17.7075 4.85611 18.0586 5.2879 18.0586H9.20254C9.63432 18.0586 9.98547 17.7075 9.98547 17.2757V8.66346H13.5086C13.659 8.66346 13.7964 8.57734 13.8614 8.4415C13.9267 8.30605 13.9083 8.14477 13.814 8.02733ZM9.594 7.88053C9.37791 7.88053 9.20254 8.05591 9.20254 8.272V17.2757H5.2879V8.272C5.2879 8.05591 5.11252 7.88053 4.89643 7.88053H1.79643L7.24522 1.06945L12.694 7.88053H9.594Z" fill="#637170"/>
	</symbol>




</svg>



